<svg width="502" height="591" viewBox="0 0 502 591" fill="none" xmlns="http://www.w3.org/2000/svg">
<circle cx="251" cy="312" r="251" fill="#00D1FF"/>
<path d="M280.201 353.15C323.607 284.453 359.827 235.795 365.164 192" stroke="#572316" stroke-width="3.66" stroke-linecap="round"/>
<path d="M377.524 199.373C417.786 199.373 450.461 167.152 450.461 127.36C450.461 87.568 417.786 55.3468 377.524 55.3468C337.263 55.3468 304.587 87.568 304.587 127.36C304.587 167.152 337.263 199.373 377.524 199.373Z" fill="#D3D3D3" stroke="#572316" stroke-width="3.30634"/>
<path fill-rule="evenodd" clip-rule="evenodd" d="M414.926 187.247C435.239 174.849 448.772 152.665 448.772 127.36C448.772 88.5013 416.858 57 377.489 57C361.05 57 345.911 62.4922 333.853 71.7191C344.733 65.0784 357.558 61.2458 371.29 61.2458C410.659 61.2458 442.574 92.7471 442.574 131.606C442.574 154.239 431.747 174.376 414.926 187.247Z" fill="#B7B7B7"/>
<path fill-rule="evenodd" clip-rule="evenodd" d="M440.161 160.816C427.095 176.833 407.065 187.082 384.609 187.082C345.24 187.082 313.326 155.581 313.326 116.722C313.326 104.725 316.368 93.4291 321.732 83.5452C311.89 95.6091 306 110.945 306 127.64C306 166.499 337.915 198 377.284 198C404.498 198 428.15 182.947 440.161 160.816Z" fill="#787878"/>
<ellipse cx="376.679" cy="124.327" rx="47.898" ry="47.3111" fill="#787878"/>
<path fill-rule="evenodd" clip-rule="evenodd" d="M422.063 139.494C414.562 155.943 397.819 167.394 378.369 167.394C351.916 167.394 330.471 146.212 330.471 120.083C330.471 114.779 331.355 109.679 332.985 104.918C330.284 110.841 328.781 117.412 328.781 124.329C328.781 150.458 350.226 171.64 376.679 171.64C397.762 171.64 415.664 158.185 422.063 139.494Z" fill="white"/>
<path fill-rule="evenodd" clip-rule="evenodd" d="M415.402 152.823C421.465 144.897 425.061 135.027 425.061 124.327C425.061 98.198 403.616 77.0161 377.163 77.0161C358.927 77.0161 343.071 87.0827 334.98 101.897C343.723 90.4677 357.598 83.0816 373.218 83.0816C399.672 83.0816 421.116 104.264 421.116 130.393C421.116 138.509 419.047 146.148 415.402 152.823Z" fill="#323232"/>
<g filter="url(#filter0_d_204_139)">
<path fill-rule="evenodd" clip-rule="evenodd" d="M400.173 142.283C400.173 141.955 400.111 141.688 399.988 141.483L387.986 123H366.798L354.856 141.483C354.733 141.688 354.671 141.955 354.671 142.283C354.671 142.57 354.794 142.858 355.04 143.145C355.328 143.391 355.656 143.515 356.026 143.515H369.448C370.557 143.515 371.398 143.042 371.973 142.098L377.083 133.848L382.44 142.098C383.015 143.042 383.856 143.515 384.964 143.515H398.818C399.188 143.515 399.496 143.391 399.742 143.145C400.029 142.858 400.173 142.57 400.173 142.283ZM366.886 120H387.685L398.757 102.446C398.88 102.241 398.941 101.994 398.941 101.707C398.941 101.379 398.798 101.091 398.51 100.845C398.264 100.558 397.956 100.414 397.587 100.414H384.841C383.692 100.414 382.83 100.927 382.255 101.953L377.576 109.465L373.266 101.953C372.691 100.927 371.829 100.414 370.68 100.414H357.319C356.949 100.414 356.621 100.558 356.333 100.845C356.087 101.091 355.964 101.358 355.964 101.646C355.964 101.933 356.026 102.2 356.149 102.446L366.886 120Z" fill="white"/>
</g>
<path d="M315.111 126.636C350.074 126.636 378.448 98.6551 378.448 64.1001C378.448 29.545 350.074 1.5644 315.111 1.5644C280.148 1.5644 251.773 29.545 251.773 64.1001C251.773 98.6551 280.148 126.636 315.111 126.636Z" fill="#7799F2" stroke="#572316" stroke-width="2.87119"/>
<path fill-rule="evenodd" clip-rule="evenodd" d="M347.591 116.105C365.23 105.339 376.982 86.0743 376.982 64.1001C376.982 30.3554 349.268 3 315.08 3C300.805 3 287.659 7.76947 277.187 15.782C286.635 10.0153 297.773 6.68706 309.698 6.68706C343.885 6.68706 371.6 34.0425 371.6 67.7871C371.6 87.4415 362.198 104.928 347.591 116.105Z" fill="#C5D5FF"/>
<path fill-rule="evenodd" clip-rule="evenodd" d="M369.504 93.153C358.158 107.062 340.764 115.962 321.263 115.962C287.076 115.962 259.362 88.6065 259.362 54.8619C259.362 44.4439 262.003 34.6348 266.661 26.0518C258.115 36.5279 253 49.8458 253 64.3429C253 98.0875 280.714 125.443 314.902 125.443C338.535 125.443 359.074 112.371 369.504 93.153Z" fill="#466ED7"/>
<ellipse cx="314.377" cy="61.4664" rx="41.5942" ry="41.0845" fill="#466ED7"/>
<path fill-rule="evenodd" clip-rule="evenodd" d="M353.788 74.6371C347.274 88.9213 332.735 98.8653 315.845 98.8653C292.873 98.8653 274.251 80.4712 274.251 57.7808C274.251 53.1747 275.018 48.7457 276.434 44.6116C274.088 49.7548 272.783 55.4608 272.783 61.4679C272.783 84.1582 291.405 102.552 314.377 102.552C332.686 102.552 348.231 90.8682 353.788 74.6371Z" fill="white"/>
<path fill-rule="evenodd" clip-rule="evenodd" d="M348.004 86.2117C353.269 79.329 356.392 70.7579 356.392 61.4664C356.392 38.776 337.769 20.3818 314.797 20.3818C298.961 20.3818 285.192 29.1236 278.166 41.9883C285.759 32.0631 297.807 25.649 311.372 25.649C334.344 25.649 352.966 44.0432 352.966 66.7336C352.966 73.7816 351.169 80.4152 348.004 86.2117Z" fill="#173DA0"/>
<g filter="url(#filter1_d_204_139)">
<path d="M312.736 68.0722H329.204C329.596 68.0722 329.935 68.2147 330.22 68.4999C330.505 68.7851 330.648 69.1237 330.648 69.5158V77.0549C330.648 77.447 330.505 77.7856 330.22 78.0708C329.935 78.356 329.596 78.4985 329.204 78.4985H301.347C300.955 78.4985 300.616 78.356 300.331 78.0708C300.046 77.7856 299.903 77.447 299.903 77.0549V42.5142C299.903 42.1221 300.046 41.7834 300.331 41.4983C300.616 41.2131 300.955 41.0705 301.347 41.0705H328.776C329.168 41.0705 329.507 41.2131 329.792 41.4983C330.077 41.7834 330.22 42.1221 330.22 42.5142V50.0532C330.22 50.4453 330.077 50.784 329.792 51.0691C329.507 51.3543 329.168 51.4969 328.776 51.4969H312.736V54.8654H327.6C327.992 54.8654 328.331 55.008 328.616 55.2932C328.901 55.5783 329.044 55.917 329.044 56.3091V63.26C329.044 63.6521 328.901 63.9907 328.616 64.2759C328.331 64.5611 327.992 64.7036 327.6 64.7036H312.736V68.0722Z" fill="white"/>
</g>
<mask id="path-17-outside-1_204_139" maskUnits="userSpaceOnUse" x="40.1692" y="350.877" width="267" height="234" fill="black">
<rect fill="white" x="40.1692" y="350.877" width="267" height="234"/>
<path fill-rule="evenodd" clip-rule="evenodd" d="M287.237 418.509C304.333 392.942 308.173 365.515 295.812 357.25C283.451 348.984 259.571 363.01 242.474 388.577C238.653 394.291 235.494 400.098 233.03 405.763C218.755 390.125 196.807 389.283 171.018 389.283C154.495 389.283 139.688 396.064 127.603 406.839C115.243 405.036 98.3564 408.508 81.7957 417.227C54.5802 431.555 38.5498 454.627 45.9906 468.761C52.1623 480.484 72.543 482.375 94.8456 474.503C94.6284 477.107 94.5178 479.704 94.5178 482.283C94.5178 492.486 95.0308 501.241 96.3955 508.594C89.4248 514.376 84.0241 524.098 82.2263 535.666C79.0866 555.866 88.1245 574.043 102.413 576.263C116.701 578.484 126.111 574.639 129.25 554.438C130.028 549.432 130.348 543.891 130.172 538.354C135.881 538.632 142.456 538.27 150.018 537.283C150.23 537.341 150.443 537.399 150.655 537.455C150.446 538.365 150.261 539.288 150.1 540.225C146.741 559.789 155.337 577.593 169.3 579.99C183.263 582.388 192.533 578.812 195.892 559.248C196.857 553.629 197.229 547.301 196.939 541.079C235.385 534.689 250.518 501.154 250.518 468.283C250.355 462.07 249.988 456.344 249.427 451.068C261.43 447.466 275.84 435.552 287.237 418.509Z"/>
</mask>
<path fill-rule="evenodd" clip-rule="evenodd" d="M287.237 418.509C304.333 392.942 308.173 365.515 295.812 357.25C283.451 348.984 259.571 363.01 242.474 388.577C238.653 394.291 235.494 400.098 233.03 405.763C218.755 390.125 196.807 389.283 171.018 389.283C154.495 389.283 139.688 396.064 127.603 406.839C115.243 405.036 98.3564 408.508 81.7957 417.227C54.5802 431.555 38.5498 454.627 45.9906 468.761C52.1623 480.484 72.543 482.375 94.8456 474.503C94.6284 477.107 94.5178 479.704 94.5178 482.283C94.5178 492.486 95.0308 501.241 96.3955 508.594C89.4248 514.376 84.0241 524.098 82.2263 535.666C79.0866 555.866 88.1245 574.043 102.413 576.263C116.701 578.484 126.111 574.639 129.25 554.438C130.028 549.432 130.348 543.891 130.172 538.354C135.881 538.632 142.456 538.27 150.018 537.283C150.23 537.341 150.443 537.399 150.655 537.455C150.446 538.365 150.261 539.288 150.1 540.225C146.741 559.789 155.337 577.593 169.3 579.99C183.263 582.388 192.533 578.812 195.892 559.248C196.857 553.629 197.229 547.301 196.939 541.079C235.385 534.689 250.518 501.154 250.518 468.283C250.355 462.07 249.988 456.344 249.427 451.068C261.43 447.466 275.84 435.552 287.237 418.509Z" fill="#EDA326"/>
<path d="M295.812 357.25L293.777 360.292V360.292L295.812 357.25ZM287.237 418.509L290.279 420.544L287.237 418.509ZM242.474 388.577L239.432 386.542V386.542L242.474 388.577ZM233.03 405.763L230.327 408.231L234.135 412.402L236.387 407.223L233.03 405.763ZM127.603 406.839L127.074 410.46L128.764 410.707L130.038 409.571L127.603 406.839ZM81.7957 417.227L80.0906 413.988L81.7957 417.227ZM45.9906 468.761L42.752 470.466H42.752L45.9906 468.761ZM94.8456 474.503L98.4929 474.807L98.9631 469.168L93.6274 471.051L94.8456 474.503ZM96.3955 508.594L98.7319 511.412L100.386 510.04L99.994 507.927L96.3955 508.594ZM82.2263 535.666L78.6097 535.103L82.2263 535.666ZM102.413 576.263L101.851 579.88H101.851L102.413 576.263ZM129.25 554.438L125.634 553.876V553.876L129.25 554.438ZM130.172 538.354L130.35 534.698L126.388 534.505L126.514 538.47L130.172 538.354ZM150.018 537.283L150.979 533.752L150.271 533.559L149.544 533.654L150.018 537.283ZM150.655 537.455L154.222 538.274L155.011 534.834L151.602 533.92L150.655 537.455ZM150.1 540.225L153.707 540.844V540.844L150.1 540.225ZM195.892 559.248L192.285 558.629V558.629L195.892 559.248ZM196.939 541.079L196.339 537.469L193.131 538.002L193.283 541.25L196.939 541.079ZM250.518 468.283H254.178V468.236L254.177 468.188L250.518 468.283ZM249.427 451.068L248.375 447.563L245.466 448.436L245.787 451.456L249.427 451.068ZM293.777 360.292C298.13 363.203 300.445 370.174 298.946 380.884C297.486 391.313 292.505 404.047 284.194 416.475L290.279 420.544C299.066 407.404 304.552 393.641 306.195 381.899C307.8 370.437 305.854 359.562 297.846 354.207L293.777 360.292ZM245.517 390.611C253.827 378.184 263.692 368.715 272.772 363.382C282.097 357.905 289.424 357.381 293.777 360.292L297.846 354.207C289.839 348.853 279.045 351.209 269.065 357.07C258.841 363.075 248.218 373.403 239.432 386.542L245.517 390.611ZM236.387 407.223C238.76 401.765 241.813 396.15 245.517 390.611L239.432 386.542C235.493 392.432 232.228 398.431 229.674 404.304L236.387 407.223ZM171.018 392.943C183.948 392.943 195.525 393.164 205.602 395.243C215.587 397.303 223.857 401.142 230.327 408.231L235.734 403.296C227.929 394.745 218.087 390.345 207.081 388.074C196.169 385.823 183.877 385.623 171.018 385.623V392.943ZM130.038 409.571C141.582 399.278 155.553 392.943 171.018 392.943V385.623C153.438 385.623 137.793 392.849 125.167 404.107L130.038 409.571ZM83.5007 420.465C99.6086 411.985 115.705 408.802 127.074 410.46L128.131 403.217C114.78 401.27 97.1042 405.031 80.0906 413.988L83.5007 420.465ZM49.2292 467.056C46.4686 461.812 47.7053 454.075 53.9028 445.155C59.9837 436.403 70.3042 427.413 83.5007 420.465L80.0906 413.988C66.0717 421.369 54.7693 431.079 47.8913 440.979C41.1299 450.71 38.0717 461.576 42.752 470.466L49.2292 467.056ZM93.6274 471.051C82.8473 474.856 72.7408 476.221 64.77 475.342C56.7279 474.455 51.5174 471.402 49.2292 467.056L42.752 470.466C46.6355 477.842 54.7012 481.596 63.9679 482.618C73.3061 483.647 84.5412 482.021 96.0637 477.954L93.6274 471.051ZM98.1778 482.283C98.1778 479.809 98.2839 477.313 98.4929 474.807L91.1982 474.198C90.9729 476.901 90.8578 479.6 90.8578 482.283H98.1778ZM99.994 507.927C98.6886 500.893 98.1778 492.393 98.1778 482.283H90.8578C90.8578 492.579 91.3729 501.589 92.7969 509.262L99.994 507.927ZM85.8429 536.228C87.5263 525.396 92.5552 516.534 98.7319 511.412L94.059 505.777C86.2944 512.217 80.5219 522.8 78.6097 535.103L85.8429 536.228ZM102.975 572.647C97.3179 571.768 92.3443 567.68 89.0613 561.078C85.7832 554.485 84.3755 545.669 85.8429 536.228L78.6097 535.103C76.9374 545.863 78.4788 556.236 82.5068 564.337C86.53 572.428 93.2196 578.539 101.851 579.88L102.975 572.647ZM125.634 553.876C124.125 563.583 121.24 568.405 117.897 570.772C114.544 573.147 109.814 573.71 102.975 572.647L101.851 579.88C109.3 581.038 116.419 580.789 122.128 576.746C127.847 572.695 131.236 565.494 132.867 555L125.634 553.876ZM126.514 538.47C126.684 543.799 126.374 549.112 125.634 553.876L132.867 555C133.683 549.751 134.013 543.982 133.83 538.237L126.514 538.47ZM149.544 533.654C142.127 534.622 135.78 534.963 130.35 534.698L129.994 542.009C135.982 542.301 142.785 541.918 150.491 540.913L149.544 533.654ZM151.602 533.92C151.395 533.865 151.187 533.808 150.979 533.752L149.057 540.815C149.274 540.874 149.491 540.933 149.707 540.991L151.602 533.92ZM153.707 540.844C153.857 539.974 154.029 539.117 154.222 538.274L147.087 536.637C146.864 537.613 146.665 538.602 146.493 539.606L153.707 540.844ZM169.919 576.383C164.406 575.437 159.61 571.396 156.5 564.954C153.393 558.52 152.142 549.962 153.707 540.844L146.493 539.606C144.699 550.052 146.066 560.179 149.908 568.137C153.747 576.087 160.23 582.147 168.681 583.598L169.919 576.383ZM192.285 558.629C190.674 568.011 187.792 572.606 184.518 574.826C181.225 577.059 176.603 577.531 169.919 576.383L168.681 583.598C175.96 584.848 182.954 584.73 188.627 580.884C194.319 577.024 197.751 570.05 199.499 559.868L192.285 558.629ZM193.283 541.25C193.562 547.227 193.202 553.288 192.285 558.629L199.499 559.868C200.512 553.969 200.897 547.376 200.595 540.909L193.283 541.25ZM246.858 468.283C246.858 484.205 243.186 500.068 235.072 512.625C227.02 525.086 214.505 534.449 196.339 537.469L197.539 544.69C217.819 541.319 232.094 530.72 241.22 516.598C250.283 502.572 254.178 485.231 254.178 468.283H246.858ZM245.787 451.456C246.337 456.622 246.699 462.25 246.859 468.379L254.177 468.188C254.012 461.89 253.639 456.066 253.066 450.681L245.787 451.456ZM284.194 416.475C273.053 433.136 259.254 444.298 248.375 447.563L250.479 454.574C263.606 450.635 278.628 437.967 290.279 420.544L284.194 416.475Z" fill="#572316" mask="url(#path-17-outside-1_204_139)"/>
<ellipse cx="241.572" cy="473.657" rx="7.30229" ry="12.4337" transform="rotate(8.50386 241.572 473.657)" fill="#F6DA90"/>
<path d="M244.532 501.783C234.075 529.521 213.518 536.783 204.518 539.283C227.872 525.528 235.061 521.521 245.518 493.783C252.504 463.783 246.018 444.783 248.518 434.783C248.518 436.283 255.518 477.283 244.532 501.783Z" fill="#F6DA90"/>
<path d="M294.518 406.283C270.067 406.837 259.326 401.38 254.019 374.897C261.557 366.881 265.784 362.621 275.018 357.783C289.56 349.656 305.722 357.325 302.861 378.283C301.633 390.683 299.053 397.458 294.518 406.283Z" fill="white"/>
<path d="M94.5178 474.783C97.7288 447.235 97.0351 433.738 69.0178 424.783C59.5599 432.399 54.6321 436.846 48.4232 446.732C38.6928 461.885 43.0174 477.6 65.1809 479.283C78.6954 479.283 82.7794 478.917 94.5178 474.783Z" fill="white"/>
<ellipse cx="183.518" cy="473.283" rx="42" ry="38" fill="white"/>
<path d="M196.588 537.955C186.018 522.783 158.018 531.283 151.518 536.283C148.548 541.21 148.084 549.836 150.518 559.283C153.835 579.393 176.217 588.126 190.018 575.283C197.895 566.394 197.518 546.783 196.588 537.955Z" fill="white"/>
<path d="M269.518 364.283C271.797 375.091 254.392 435.213 181.018 448.283C127.248 459.62 89.5178 431.283 76.0178 419.283C86.0178 413.283 119.121 407.05 172.892 395.713C226.662 384.376 267.239 353.475 269.518 364.283Z" fill="black" fill-opacity="0.3"/>
<path d="M129.518 533.283C123.018 517.783 106.018 519.283 85.5178 524.283C82.5178 529.283 79.9812 544.147 82.5178 553.783C85.5178 574.783 109.018 584.783 123.018 571.783C132.018 560.783 130.518 541.783 129.518 533.283Z" fill="white"/>
<path d="M207.018 512.284C209.773 517.386 191.18 526.985 179.518 533.283C167.855 539.582 163.518 541.283 151.507 543.332C148.752 538.23 163.518 525.283 163.518 517.783C177.018 520.283 199.518 516.284 207.018 512.284Z" fill="black" fill-opacity="0.13"/>
<path d="M85.5178 521.783C88.5178 509.783 89.8016 520.257 92.5178 507.283C95.2339 494.31 88.5178 475.783 97.5178 475.783C99.0177 480.783 96.789 503.943 102.518 508.783C91.895 517.481 82.5178 533.783 85.5178 521.783Z" fill="black" fill-opacity="0.13"/>
<path fill-rule="evenodd" clip-rule="evenodd" d="M152.735 535.399C152.085 540.863 153.668 548.603 155.518 555.783C161.518 574.783 178.781 582.835 192.581 569.992C192.887 569.646 193.182 569.284 193.463 568.907C192.473 571.712 191.152 574.219 189.41 576.184C175.752 588.837 153.254 579.861 149.7 559.758C147.155 550.303 147.518 541.702 150.432 536.821C151.027 536.368 151.804 535.886 152.735 535.399Z" fill="#ACABCF"/>
<path fill-rule="evenodd" clip-rule="evenodd" d="M123.599 525.187C124.747 526.549 125.726 528.18 126.518 530.117C127.349 537.563 128.572 554.21 120.763 563.886C108.631 575.333 88.3856 566.659 85.8757 548.265C83.9064 540.548 85.6171 528.982 87.9193 523.702C87.1254 523.89 86.3248 524.084 85.5178 524.283C82.5056 529.376 80.0145 544.129 82.5614 553.943C85.5736 575.333 109.169 585.518 123.226 572.277C132.263 561.073 130.757 541.721 129.753 533.063C128.139 529.656 126.07 527.079 123.599 525.187Z" fill="#ACABCF"/>
<path d="M91.5178 478.283L107.518 469.283" stroke="#572316" stroke-width="3.66" stroke-linecap="round"/>
<path d="M116.496 537.507C121.586 539.807 126.03 539.178 131.018 540.283" stroke="#572316" stroke-width="3.66" stroke-linecap="round"/>
<path d="M186.518 544.283C191.735 544.448 193.057 543.585 198.018 542.783" stroke="#572316" stroke-width="3.66" stroke-linecap="round"/>
<path d="M252.018 450.783L249.839 433.298" stroke="#572316" stroke-width="3.66" stroke-linecap="round"/>
<path d="M160.518 515.283L161.398 513.679L161.225 513.584L161.035 513.528L160.518 515.283ZM207.777 514.286C208.055 513.314 207.492 512.301 206.52 512.024C205.549 511.746 204.536 512.309 204.258 513.281L207.777 514.286ZM151.235 544.379C162.485 536.434 165.05 528.835 164.622 522.983C164.415 520.144 163.511 517.885 162.822 516.423C162.65 516.059 162.491 515.741 162.364 515.488C162.228 515.216 162.15 515.06 162.106 514.956C162.084 514.905 162.093 514.92 162.109 514.976C162.111 514.982 162.199 515.26 162.134 515.64C162.097 515.863 161.996 516.178 161.744 516.475C161.483 516.784 161.158 516.956 160.868 517.035C160.388 517.167 160.019 517.044 160.001 517.039L161.035 513.528C160.899 513.488 160.442 513.357 159.901 513.505C159.58 513.593 159.231 513.78 158.952 514.109C158.682 514.428 158.57 514.77 158.526 515.027C158.45 515.473 158.551 515.843 158.585 515.965C158.633 516.137 158.696 516.292 158.744 516.404C158.84 516.627 158.973 516.892 159.092 517.129C159.221 517.385 159.361 517.665 159.511 517.982C160.104 519.243 160.81 521.04 160.972 523.25C161.282 527.499 159.619 533.977 149.124 541.389L151.235 544.379ZM159.638 516.888C170.014 522.579 181.27 524 190.208 523.096C194.676 522.644 198.637 521.604 201.664 520.168C204.586 518.782 207.053 516.822 207.777 514.286L204.258 513.281C203.983 514.245 202.764 515.595 200.095 516.861C197.531 518.078 193.996 519.034 189.84 519.454C181.533 520.295 171.039 518.966 161.398 513.679L159.638 516.888Z" fill="#ACABCF"/>
<path d="M155.018 510.283L155.798 508.628L155.636 508.552L155.462 508.508L155.018 510.283ZM206.697 514.982C207.636 514.607 208.092 513.542 207.717 512.604C207.342 511.665 206.277 511.209 205.338 511.584L206.697 514.982ZM149.052 541.793C154.898 537.79 158.304 533.706 160.036 529.733C161.776 525.74 161.755 522.015 161.018 518.879C160.288 515.772 158.859 513.253 157.796 511.597C157.53 511.182 157.284 510.817 157.08 510.516C156.867 510.201 156.722 509.987 156.622 509.827C156.573 509.748 156.557 509.717 156.557 509.718C156.558 509.72 156.572 509.748 156.59 509.795C156.606 509.837 156.643 509.941 156.666 510.087C156.687 510.221 156.716 510.516 156.603 510.871C156.47 511.285 156.181 511.659 155.764 511.887C155.403 512.085 155.073 512.103 154.914 512.101C154.746 512.099 154.623 512.071 154.574 512.059L155.462 508.508C155.35 508.48 155.174 508.444 154.962 508.441C154.76 508.439 154.395 508.464 154.008 508.676C153.565 508.918 153.258 509.314 153.116 509.757C152.994 510.141 153.022 510.471 153.049 510.649C153.102 510.986 153.233 511.255 153.288 511.362C153.36 511.506 153.443 511.645 153.516 511.763C153.662 511.996 153.856 512.282 154.049 512.566C154.25 512.865 154.475 513.198 154.716 513.574C155.682 515.08 156.862 517.193 157.455 519.716C158.041 522.209 158.057 525.111 156.68 528.271C155.294 531.452 152.43 535.045 146.984 538.773L149.052 541.793ZM154.238 511.939C163.563 516.334 171.547 519.192 179.807 519.878C188.098 520.567 196.51 519.058 206.697 514.982L205.338 511.584C195.526 515.509 187.692 516.861 180.11 516.231C172.497 515.598 164.981 512.956 155.798 508.628L154.238 511.939Z" fill="#572316"/>
<path d="M68.6623 385.443L70.3312 385.002C68.6623 385.443 68.6625 385.443 68.6628 385.444L68.6634 385.447L68.6651 385.453L68.6711 385.475L68.6924 385.553C68.7109 385.62 68.738 385.716 68.7739 385.84C68.8457 386.088 68.9529 386.446 69.0978 386.9C69.3876 387.808 69.8288 389.103 70.4398 390.669C71.6606 393.798 73.5668 398.031 76.3116 402.442C81.7819 411.232 90.7247 420.946 104.4 423.746C108.187 424.522 111.422 425.211 114.255 425.815C121.071 427.269 125.556 428.225 129.786 428.68C135.873 429.335 141.472 428.966 152.691 427.716C175.293 425.197 197.981 418.726 209.511 415.149C230.927 408.505 244.267 394.946 250.617 388.491L250.637 388.471L250.638 388.47L250.646 388.461L250.647 388.461C257.249 381.751 265.624 366.444 267.486 349.295L267.504 349.127L267.489 348.959C266.608 338.897 264.578 331.318 260.667 324.431C256.799 317.62 251.157 311.606 243.249 304.572C219.265 268.793 188.144 248.912 157.22 248.436L157.144 248.435L157.067 248.441L157.194 250.162C157.067 248.441 157.067 248.441 157.066 248.441L157.065 248.441L157.063 248.441L157.055 248.442L157.026 248.444C157.002 248.446 156.968 248.449 156.923 248.452C156.834 248.46 156.703 248.471 156.533 248.488C156.192 248.52 155.691 248.572 155.039 248.649C153.735 248.803 151.828 249.059 149.39 249.47C144.514 250.291 137.515 251.728 128.976 254.197C124.398 255.521 118.72 259.006 112.819 264.05C106.883 269.123 100.602 275.876 94.8269 283.894C83.3629 299.812 73.7998 320.855 73.0436 343.8C65.2723 357.007 65.6016 372.184 68.6493 385.39L68.6554 385.416L68.6623 385.443Z" fill="#F7A528" stroke="#572316" stroke-width="3.45224"/>
<path d="M115.198 270.837C105.676 275.019 86.9594 305.58 78.7915 320.338C87.5894 286.789 114.002 264.156 121.77 259.4L121.771 259.4C122.755 258.797 145.359 244.959 175.62 251.707C205.305 258.328 233.45 293.503 223.669 283.36C213.888 273.217 170.157 251.068 170.365 258.106C170.53 263.736 163.207 267.008 159.24 268.242C154.833 269.614 144.693 272.45 135.357 273.754C126.021 275.058 119.726 275.107 118.277 271.898C117.977 271.235 117.433 269.471 115.198 270.837Z" fill="#F6DA90"/>
<path d="M265.125 340.175C269.032 350.965 262.59 382.922 234.981 399.922C221.164 410.479 205.124 413.525 174.634 421.678C134.951 432.289 121.128 425.489 99.7333 421.234C85.4287 416.408 68.2636 394.465 67.7457 367.658C69.4799 353.863 70.6498 352.76 96.1589 358.931C102.812 360.54 113.165 368.099 120.613 368.163C147.304 334.609 182.875 333.157 210.003 347.774C217.935 343.849 221.334 335.669 224.82 332.405C255.016 298.013 261.217 329.385 265.125 340.175Z" fill="white"/>
<path fill-rule="evenodd" clip-rule="evenodd" d="M260.084 326.413C259.986 339.622 251.902 362.687 228.642 378.919C214.799 389.554 194.202 393.953 167.472 399.413C133.705 409.686 111.806 404.992 93.1399 397.765C84.0461 394.697 74.2269 386.338 68.027 373.249C70.9602 399.422 87.6417 416.478 96.8782 420.236C119.511 427.744 139.682 430.943 176.436 422.479C206.808 415.484 219.319 411.997 233.17 401.373C261.818 384.165 268.154 353.294 265.897 343.537C265.09 340.046 263.36 332.754 260.084 326.413Z" fill="#ACABCF"/>
<path d="M73.103 322.323L75.2978 324.827L76.0791 321.59C77.3002 316.531 80.5422 308.379 85.127 299.671C89.7044 290.978 95.5518 281.861 101.917 274.836L103.645 272.93L101.226 272.054C88.0098 267.267 77.9508 265.286 70.2227 266.015C62.3463 266.758 56.9484 270.315 53.2195 276.282C51.4273 279.149 51.4853 282.945 52.3728 286.807C53.2748 290.733 55.1192 295.1 57.3923 299.43C61.9426 308.099 68.3767 316.93 73.103 322.323Z" fill="#F8A428" stroke="#572316" stroke-width="3.45224"/>
<path d="M99.6748 274.195C81.4392 277.22 74.3166 268.709 61.8963 270.159C66.9585 267.148 76.7748 267.079 80.8631 267.907C84.9515 268.735 105.135 273.289 99.6748 274.195Z" fill="#F6DA90"/>
<path d="M92.7295 283.592C67.6198 290.237 56.5723 283.847 54.0623 279.112C49.3878 290.76 74.2776 321.977 74.4618 321.112C76.8421 309.934 88.2531 290.294 92.7295 283.592Z" fill="#AD7640"/>
<path d="M83.9945 293.757L78.3688 304.267C73.9182 302.176 64.4583 285.865 65.2344 280.017L70.539 283.045L83.9945 293.757Z" fill="#FF5F95"/>
<path d="M78.819 306.179C75.3524 303.597 69.8674 298.047 67.0433 291.018C65.4582 287.072 64.3333 283.979 63.9548 281.686C63.7668 280.548 63.7925 279.763 63.9365 279.241C64.0435 278.853 64.2151 278.598 64.4892 278.404C64.6069 278.418 64.7977 278.459 65.0734 278.552C65.7226 278.771 66.5922 279.192 67.6468 279.806C69.7411 281.023 72.2955 282.836 74.8022 284.743C77.298 286.642 79.7017 288.6 81.4843 290.087C82.3747 290.829 83.1083 291.452 83.6185 291.889C83.8736 292.107 84.0728 292.279 84.2078 292.396L84.361 292.529L84.3995 292.562L84.4089 292.57L84.411 292.572L84.4115 292.573L85.547 291.273L84.4115 292.573L84.4198 292.58L84.4266 292.586L84.427 292.586L84.4275 292.586L84.4278 292.587L84.4282 292.587L84.4286 292.587L84.4429 292.6C84.4567 292.612 84.479 292.631 84.5083 292.657C84.567 292.71 84.6527 292.788 84.7546 292.885C84.9623 293.083 85.218 293.341 85.4441 293.61C85.5516 293.737 85.6364 293.848 85.7011 293.941L82.195 300.418L78.819 306.179ZM85.8672 294.229C85.867 294.229 85.8654 294.225 85.863 294.217C85.8662 294.226 85.8674 294.229 85.8672 294.229ZM64.3862 278.397C64.3861 278.397 64.3887 278.397 64.3942 278.397C64.3891 278.397 64.3863 278.397 64.3862 278.397Z" stroke="#572316" stroke-width="3.45224"/>
<path d="M232.753 285.521L231.753 288.698L229.734 286.05C226.577 281.912 220.324 275.759 212.619 269.638C204.925 263.527 195.899 257.541 187.242 253.677L184.893 252.629L186.753 250.853C196.919 241.145 205.326 235.277 212.692 232.829C220.2 230.335 226.574 231.414 232.392 235.372C235.187 237.274 236.664 240.77 237.409 244.663C238.166 248.619 238.238 253.359 237.903 258.238C237.233 268.006 234.904 278.681 232.753 285.521Z" fill="#F8A428" stroke="#572316" stroke-width="3.45224"/>
<path d="M189.036 252.186C206.944 247.604 210.032 236.945 221.983 233.265C216.136 232.55 207.125 236.444 203.717 238.849C200.309 241.255 183.674 253.558 189.036 252.186Z" fill="#F6DA90"/>
<path d="M199.18 257.987C224.838 253.947 232.372 243.646 232.761 238.301C241.734 247.077 231.538 285.678 231.021 284.961C224.337 275.69 205.978 262.316 199.18 257.987Z" fill="#AD7640"/>
<path d="M211.271 263.768L220.656 271.119C223.886 267.412 225.969 248.671 222.901 243.633L219.267 248.541L211.271 263.768Z" fill="#FF5F95"/>
<path d="M221.015 273.051C223.146 269.291 225.929 262.001 225.68 254.429C225.54 250.179 225.323 246.896 224.745 244.645C224.458 243.527 224.119 242.819 223.777 242.4C223.522 242.088 223.262 241.923 222.933 241.856C222.831 241.917 222.673 242.031 222.458 242.227C221.952 242.689 221.326 243.425 220.608 244.412C219.183 246.37 217.576 249.059 216.05 251.814C214.532 254.558 213.121 257.319 212.089 259.398C211.573 260.436 211.153 261.302 210.862 261.908C210.717 262.21 210.604 262.448 210.527 262.609L210.441 262.792L210.419 262.839L210.414 262.85L210.412 262.852L210.412 262.853L208.849 262.121L210.412 262.853L210.407 262.863L210.403 262.871L210.403 262.871L210.403 262.872L210.403 262.872L210.403 262.873L210.402 262.873L210.394 262.89C210.386 262.907 210.374 262.934 210.358 262.97C210.325 263.041 210.278 263.147 210.224 263.277C210.114 263.542 209.984 263.881 209.885 264.218C209.838 264.378 209.805 264.514 209.783 264.625L215.603 269.139L221.015 273.051ZM209.748 264.956C209.748 264.956 209.748 264.951 209.747 264.943C209.747 264.952 209.747 264.956 209.748 264.956ZM223.025 241.808C223.025 241.808 223.022 241.809 223.017 241.811C223.022 241.81 223.025 241.809 223.025 241.808Z" stroke="#572316" stroke-width="3.45224"/>
<ellipse cx="128.482" cy="302.652" rx="13.4637" ry="5.3063" transform="rotate(13.3569 128.482 302.652)" fill="white"/>
<ellipse rx="13.4638" ry="5.3063" transform="matrix(-0.773312 0.634026 0.634026 0.773312 172.729 291.732)" fill="white"/>
<ellipse cx="126.095" cy="331.871" rx="13.1185" ry="17.2612" transform="rotate(167.005 126.095 331.871)" fill="black"/>
<ellipse cx="129.64" cy="325.738" rx="4.83314" ry="6.55926" transform="rotate(167.005 129.64 325.738)" fill="white"/>
<path d="M144.829 370.063C145.58 370.244 154.636 374.177 166.617 364.681M166.617 364.681C173.965 365.819 180.408 366.104 187.55 360.204M166.617 364.681L165.995 361.99" stroke="#572316" stroke-width="4.83314" stroke-linecap="round"/>
<path d="M169.334 381.06C163.279 382.457 156.241 373.452 155.542 370.425C164.438 367.016 169.597 365.828 179.089 364.991C180.365 371.546 175.389 379.662 169.334 381.06Z" fill="#572316"/>
<path fill-rule="evenodd" clip-rule="evenodd" d="M168.829 374.123C168.823 373.986 168.807 373.857 168.78 373.738C168.437 372.251 170.001 370.621 171.859 370.193C173.717 369.764 175.501 370.621 175.844 372.107C176.182 373.573 173.319 377.213 169.616 377.809C166 378.979 161.991 376.876 161.649 375.393C161.306 373.907 162.534 372.355 164.391 371.926C166.249 371.497 168.37 372.277 168.713 373.763C168.74 373.88 168.779 374 168.829 374.123Z" fill="#FB609C"/>
<ellipse cx="164.21" cy="354.253" rx="14.8446" ry="8.28539" transform="rotate(167.005 164.21 354.253)" fill="#572316"/>
<ellipse cx="162.787" cy="349.621" rx="4.83314" ry="2.07135" transform="rotate(167.005 162.787 349.621)" fill="white"/>
<path fill-rule="evenodd" clip-rule="evenodd" d="M44.5205 454.283C44.6777 463.79 51.4788 471.607 66.0263 472.708C77.3013 472.708 89.7268 471.3 102.002 464.638C103.545 465.832 105.348 466.741 107.518 467.283C89.6865 479.741 79.2334 479.727 66.4723 479.71C65.9937 479.709 65.5119 479.708 65.0263 479.708C47.0199 478.345 40.8813 466.693 44.5205 454.283Z" fill="#ACABCF"/>
<path d="M191.037 306.283C184.811 308.772 174.007 320.503 174.537 321.283C175.066 322.064 187.036 314.283 198.037 318.283" stroke="black" stroke-width="5" stroke-linecap="round"/>
<path d="M302.5 390C288.255 381.898 281.491 375.597 273.5 358.5" stroke="#572316" stroke-width="3.66" stroke-linecap="round"/>
<path d="M302.5 386C290.5 374.5 284 363 281 354" stroke="#572316" stroke-width="3.66" stroke-linecap="round"/>
<path d="M273.5 355.5C276.294 274.287 283 214 265.5 173.5" stroke="#572316" stroke-width="3.66" stroke-linecap="round"/>
<path d="M276.882 353.187C303.833 263.515 328.803 197.35 322 151" stroke="#572316" stroke-width="3.66" stroke-linecap="round"/>
<path d="M310.131 401.172C307.469 389.731 302.139 392.048 303.706 385.079" stroke="#572316" stroke-width="3.66" stroke-linecap="round"/>
<path d="M303 415C300.093 400.374 307.465 400.211 302.008 393" stroke="#572316" stroke-width="3.66" stroke-linecap="round"/>
<path d="M260.626 205.547C302.633 205.547 336.725 171.929 336.725 130.411C336.725 88.8935 302.633 55.2751 260.626 55.2751C218.618 55.2751 184.526 88.8935 184.526 130.411C184.526 171.929 218.618 205.547 260.626 205.547Z" fill="#F9C710" stroke="#572316" stroke-width="3.44971"/>
<path fill-rule="evenodd" clip-rule="evenodd" d="M299.65 192.894C320.843 179.959 334.963 156.813 334.963 130.411C334.963 89.8672 301.664 57 260.589 57C243.437 57 227.642 62.7305 215.06 72.3576C226.412 65.4289 239.794 61.43 254.121 61.43C295.197 61.43 328.496 94.2972 328.496 134.841C328.496 158.455 317.2 179.466 299.65 192.894Z" fill="#F5E3A4"/>
<path fill-rule="evenodd" clip-rule="evenodd" d="M325.978 165.318C312.346 182.03 291.447 192.723 268.018 192.723C226.942 192.723 193.643 159.856 193.643 119.312C193.643 106.795 196.817 95.009 202.414 84.6965C192.146 97.2836 186 113.285 186 130.703C186 171.247 219.299 204.114 260.374 204.114C288.769 204.114 313.447 188.408 325.978 165.318Z" fill="#F89E1D"/>
<ellipse cx="259.744" cy="127.247" rx="49.975" ry="49.3626" fill="#F89F1D"/>
<path fill-rule="evenodd" clip-rule="evenodd" d="M307.096 143.071C299.269 160.233 281.801 172.181 261.507 172.181C233.907 172.181 211.532 150.081 211.532 122.819C211.532 117.284 212.454 111.963 214.155 106.996C211.337 113.176 209.769 120.031 209.769 127.248C209.769 154.511 232.143 176.611 259.744 176.611C281.741 176.611 300.419 162.573 307.096 143.071Z" fill="white"/>
<path fill-rule="evenodd" clip-rule="evenodd" d="M300.145 156.978C306.472 148.709 310.224 138.411 310.224 127.247C310.224 99.9847 287.849 77.8843 260.249 77.8843C241.222 77.8843 224.678 88.3873 216.236 103.844C225.359 91.9192 239.835 84.2128 256.133 84.2128C283.733 84.2128 306.108 106.313 306.108 133.575C306.108 142.044 303.949 150.014 300.145 156.978Z" fill="#AE703F"/>
<g filter="url(#filter2_d_204_139)">
<path fill-rule="evenodd" clip-rule="evenodd" d="M252.837 98.7683H259.958V102.297H263.964V99.2473H271.085V102.806C274.028 103.336 276.375 104.279 278.125 105.637C281.037 107.822 282.493 111.141 282.493 115.595V115.788C282.493 117.629 281.958 119.278 280.887 120.734C279.816 122.148 278.638 123.175 277.354 123.818C279.067 124.503 280.501 125.724 281.658 127.48C282.857 129.193 283.457 131.077 283.457 133.133C283.457 140.919 279.333 145.488 271.085 146.84V150.029H263.964V147.266H259.958V149.55H252.837V147.266H243.37C242.899 147.266 242.492 147.095 242.149 146.752C241.806 146.41 241.635 146.003 241.635 145.532V141.406H236.814V132.783H241.635V116.494H236.814V107.871H241.635V104.031C241.635 103.56 241.806 103.153 242.149 102.811C242.492 102.468 242.899 102.297 243.37 102.297H252.837V98.7683ZM265.019 118.357C265.49 117.8 265.726 117.137 265.726 116.366C265.726 115.595 265.49 114.91 265.019 114.31C264.591 113.668 263.948 113.346 263.092 113.346H257.696V119.192H263.092C263.948 119.192 264.591 118.914 265.019 118.357ZM257.696 129.921V136.216H263.67C264.655 136.216 265.383 135.895 265.854 135.253C266.368 134.568 266.625 133.818 266.625 133.004V132.94C266.625 132.126 266.347 131.42 265.79 130.82C265.276 130.221 264.569 129.921 263.67 129.921H257.696Z" fill="#F8F9BA"/>
</g>
<defs>
<filter id="filter0_d_204_139" x="351.056" y="100.414" width="52.7326" height="50.3314" filterUnits="userSpaceOnUse" color-interpolation-filters="sRGB">
<feFlood flood-opacity="0" result="BackgroundImageFix"/>
<feColorMatrix in="SourceAlpha" type="matrix" values="0 0 0 0 0 0 0 0 0 0 0 0 0 0 0 0 0 0 127 0" result="hardAlpha"/>
<feOffset dy="3.61538"/>
<feGaussianBlur stdDeviation="1.80769"/>
<feComposite in2="hardAlpha" operator="out"/>
<feColorMatrix type="matrix" values="0 0 0 0 0 0 0 0 0 0 0 0 0 0 0 0 0 0 0.25 0"/>
<feBlend mode="normal" in2="BackgroundImageFix" result="effect1_dropShadow_204_139"/>
<feBlend mode="normal" in="SourceGraphic" in2="effect1_dropShadow_204_139" result="shape"/>
</filter>
<filter id="filter1_d_204_139" x="296.764" y="41.0706" width="37.0236" height="43.7071" filterUnits="userSpaceOnUse" color-interpolation-filters="sRGB">
<feFlood flood-opacity="0" result="BackgroundImageFix"/>
<feColorMatrix in="SourceAlpha" type="matrix" values="0 0 0 0 0 0 0 0 0 0 0 0 0 0 0 0 0 0 127 0" result="hardAlpha"/>
<feOffset dy="3.13956"/>
<feGaussianBlur stdDeviation="1.56978"/>
<feComposite in2="hardAlpha" operator="out"/>
<feColorMatrix type="matrix" values="0 0 0 0 0 0 0 0 0 0 0 0 0 0 0 0 0 0 0.25 0"/>
<feBlend mode="normal" in2="BackgroundImageFix" result="effect1_dropShadow_204_139"/>
<feBlend mode="normal" in="SourceGraphic" in2="effect1_dropShadow_204_139" result="shape"/>
</filter>
<filter id="filter2_d_204_139" x="234.725" y="98.7683" width="50.8209" height="55.4396" filterUnits="userSpaceOnUse" color-interpolation-filters="sRGB">
<feFlood flood-opacity="0" result="BackgroundImageFix"/>
<feColorMatrix in="SourceAlpha" type="matrix" values="0 0 0 0 0 0 0 0 0 0 0 0 0 0 0 0 0 0 127 0" result="hardAlpha"/>
<feOffset dy="2.08917"/>
<feGaussianBlur stdDeviation="1.04458"/>
<feComposite in2="hardAlpha" operator="out"/>
<feColorMatrix type="matrix" values="0 0 0 0 0 0 0 0 0 0 0 0 0 0 0 0 0 0 0.25 0"/>
<feBlend mode="normal" in2="BackgroundImageFix" result="effect1_dropShadow_204_139"/>
<feBlend mode="normal" in="SourceGraphic" in2="effect1_dropShadow_204_139" result="shape"/>
</filter>
</defs>
</svg>
