<svg width="98" height="97" viewBox="0 0 98 97" fill="none" xmlns="http://www.w3.org/2000/svg">
<path d="M48.6684 95.8965C74.9384 95.8965 96.2585 74.8727 96.2585 48.9089C96.2585 22.9452 74.9384 1.92133 48.6684 1.92133C22.3984 1.92133 1.07831 22.9452 1.07831 48.9089C1.07831 74.8727 22.3984 95.8965 48.6684 95.8965Z" fill="#F9C710" stroke="#572316" stroke-width="2.15734"/>
<path fill-rule="evenodd" clip-rule="evenodd" d="M73.0737 87.9835C86.3267 79.8941 95.1566 65.4193 95.1566 48.9089C95.1566 23.5541 74.3327 3 48.6451 3C37.9187 3 28.0403 6.58397 20.1721 12.6049C27.2716 8.2715 35.6402 5.77049 44.6007 5.77049C70.2883 5.77049 91.1122 26.3246 91.1122 51.6794C91.1122 66.4467 84.0482 79.5856 73.0737 87.9835Z" fill="#F5E3A4"/>
<path fill-rule="evenodd" clip-rule="evenodd" d="M89.5375 70.7393C81.0121 81.1897 67.9429 87.8765 53.2914 87.8765C27.6039 87.8765 6.77998 67.3223 6.77998 41.9675C6.77998 34.1393 8.76502 26.7687 12.2654 20.3193C5.84367 28.191 2 38.198 2 49.0911C2 74.4459 22.8239 95.0001 48.5114 95.0001C66.268 95.0001 81.7006 85.1787 89.5375 70.7393Z" fill="#F89E1D"/>
<ellipse cx="48.1169" cy="46.9304" rx="31.2527" ry="30.8698" fill="#F89F1D"/>
<path fill-rule="evenodd" clip-rule="evenodd" d="M77.7293 56.8272C72.8345 67.5597 61.9106 75.031 49.22 75.031C31.9595 75.031 17.9672 61.2101 17.9672 44.1612C17.9672 40.6999 18.5439 37.3717 19.6077 34.2651C17.8451 38.1298 16.8643 42.4174 16.8643 46.9312C16.8643 63.9801 30.8566 77.801 48.117 77.801C61.8732 77.801 73.5536 69.0223 77.7293 56.8272Z" fill="white"/>
<path fill-rule="evenodd" clip-rule="evenodd" d="M73.3825 65.5237C77.3391 60.3521 79.6856 53.9116 79.6856 46.9299C79.6856 29.8809 65.6933 16.0601 48.4329 16.0601C36.5341 16.0601 26.1885 22.6281 20.9092 32.2939C26.6142 24.8369 35.6668 20.0179 45.8588 20.0179C63.1192 20.0179 77.1115 33.8388 77.1115 50.8877C77.1115 56.1837 75.7614 61.1682 73.3825 65.5237Z" fill="#AE703F"/>
<g filter="url(#filter0_d_1018_110)">
<path fill-rule="evenodd" clip-rule="evenodd" d="M43.7975 29.1211H48.2509V31.1893H50.756V29.4205H55.2094V31.5075C57.0503 31.839 58.5177 32.4293 59.6118 33.2784C61.4331 34.6444 62.3437 36.7201 62.3437 39.5055V39.626C62.3437 40.7777 62.0089 41.8089 61.3394 42.7195C60.6698 43.6034 59.9332 44.2462 59.1297 44.6479C60.2011 45.0764 61.0983 45.8398 61.8215 46.9379C62.5714 48.0092 62.9464 49.1877 62.9464 50.4733C62.9464 55.3426 60.3674 58.1999 55.2094 59.0453V61.1781H50.756V59.3117H48.2509V60.8787H43.7975V59.3117H37.8772C37.5826 59.3117 37.3282 59.2046 37.1139 58.9903C36.8996 58.7761 36.7925 58.5216 36.7925 58.227V55.7854H33.7775V50.3926H36.7925V40.2065H33.7775V34.8137H36.7925V32.274C36.7925 31.9794 36.8996 31.725 37.1139 31.5107C37.3282 31.2965 37.5826 31.1893 37.8772 31.1893H43.7975V29.1211ZM51.4162 41.233C51.7108 40.8849 51.8581 40.4697 51.8581 39.9876C51.8581 39.5055 51.7108 39.077 51.4162 38.702C51.1483 38.3003 50.7466 38.0994 50.2109 38.0994H46.8362V41.7553H50.2109C50.7466 41.7553 51.1483 41.5812 51.4162 41.233ZM46.8362 48.4645V52.4017H50.5725C51.1885 52.4017 51.6438 52.2008 51.9384 51.799C52.2598 51.3705 52.4205 50.9018 52.4205 50.3929V50.3527C52.4205 49.8439 52.2464 49.4019 51.8983 49.027C51.5769 48.652 51.1349 48.4645 50.5725 48.4645H46.8362Z" fill="#F8F9BA"/>
</g>
<defs>
<filter id="filter0_d_1018_110" x="32.471" y="29.1211" width="31.7819" height="34.6701" filterUnits="userSpaceOnUse" color-interpolation-filters="sRGB">
<feFlood flood-opacity="0" result="BackgroundImageFix"/>
<feColorMatrix in="SourceAlpha" type="matrix" values="0 0 0 0 0 0 0 0 0 0 0 0 0 0 0 0 0 0 127 0" result="hardAlpha"/>
<feOffset dy="1.3065"/>
<feGaussianBlur stdDeviation="0.65325"/>
<feComposite in2="hardAlpha" operator="out"/>
<feColorMatrix type="matrix" values="0 0 0 0 0 0 0 0 0 0 0 0 0 0 0 0 0 0 0.25 0"/>
<feBlend mode="normal" in2="BackgroundImageFix" result="effect1_dropShadow_1018_110"/>
<feBlend mode="normal" in="SourceGraphic" in2="effect1_dropShadow_1018_110" result="shape"/>
</filter>
</defs>
</svg>
