<svg width="61" height="49" viewBox="0 0 61 49" fill="none" xmlns="http://www.w3.org/2000/svg">
<path d="M44.2094 32.6448C53.1856 32.6448 60.4728 25.4608 60.4728 16.5859C60.4728 7.71098 53.1856 0.52695 44.2094 0.52695C35.2331 0.52695 27.9459 7.71098 27.9459 16.5859C27.9459 25.4608 35.2331 32.6448 44.2094 32.6448Z" fill="#D3D3D3" stroke="#572316" stroke-width="0.9461"/>
<path fill-rule="evenodd" clip-rule="evenodd" d="M52.4937 29.8522C56.9937 27.1061 59.992 22.1916 59.992 16.5859C59.992 7.97803 52.9223 1 44.2015 1C40.5604 1 37.2072 2.21642 34.5361 4.26001C36.9461 2.78931 39.7868 1.94052 42.8283 1.94052C51.5491 1.94052 58.6187 8.91855 58.6187 17.5264C58.6187 22.5403 56.2201 27.0012 52.4937 29.8522Z" fill="#B7B7B7"/>
<path fill-rule="evenodd" clip-rule="evenodd" d="M58.084 23.997C55.1897 27.545 50.7526 29.8152 45.7784 29.8152C37.0576 29.8152 29.988 22.8372 29.988 14.2294C29.988 11.5719 30.6618 9.06969 31.85 6.88025C29.67 9.55259 28.3652 12.9498 28.3652 16.6479C28.3652 25.2557 35.4348 32.2337 44.1557 32.2337C50.1841 32.2337 55.4235 28.8993 58.084 23.997Z" fill="#787878"/>
<ellipse cx="44.0213" cy="15.9141" rx="10.6102" ry="10.4802" fill="#787878"/>
<path fill-rule="evenodd" clip-rule="evenodd" d="M54.0752 19.2749C52.4133 22.9181 48.7049 25.4541 44.3969 25.4541C38.537 25.4541 33.7867 20.762 33.7867 14.974C33.7867 13.7986 33.9826 12.6684 34.3439 11.6135C33.7452 12.9258 33.4121 14.3817 33.4121 15.9145C33.4121 21.7025 38.1624 26.3946 44.0223 26.3946C48.6921 26.3946 52.6574 23.4147 54.0752 19.2749Z" fill="white"/>
<path fill-rule="evenodd" clip-rule="evenodd" d="M52.5991 22.2269C53.9425 20.4712 54.7393 18.2845 54.7393 15.9141C54.7393 10.1261 49.9889 5.43396 44.1291 5.43396C40.0897 5.43396 36.5775 7.6636 34.7852 10.9449C36.722 8.41345 39.7952 6.77757 43.2552 6.77757C49.115 6.77757 53.8653 11.4697 53.8653 17.2577C53.8653 19.0558 53.4069 20.7482 52.5991 22.2269Z" fill="#323232"/>
<g filter="url(#filter0_d_692_90)">
<path fill-rule="evenodd" clip-rule="evenodd" d="M50.697 21.4071C50.697 21.3131 50.6793 21.2368 50.6441 21.178L47.0348 15.6201H41.3209L37.7296 21.178C37.6944 21.2368 37.6768 21.3131 37.6768 21.4071C37.6768 21.4893 37.712 21.5715 37.7825 21.6538C37.8647 21.7242 37.9587 21.7595 38.0644 21.7595H41.9052C42.2224 21.7595 42.4632 21.6244 42.6276 21.3542L44.09 18.9933L45.6228 21.3542C45.7872 21.6244 46.028 21.7595 46.3451 21.7595H50.3093C50.4151 21.7595 50.5032 21.7242 50.5736 21.6538C50.6558 21.5715 50.697 21.4893 50.697 21.4071ZM41.1259 14.9555H47.1711L50.2917 10.0078C50.327 9.94908 50.3446 9.8786 50.3446 9.79638C50.3446 9.70242 50.3035 9.6202 50.2213 9.54972C50.1508 9.4675 50.0627 9.42639 49.957 9.42639H46.3099C45.981 9.42639 45.7344 9.57321 45.5699 9.86686L44.2309 12.0163L42.9976 9.86686C42.8332 9.57321 42.5865 9.42639 42.2576 9.42639H38.4344C38.3286 9.42639 38.2347 9.4675 38.1525 9.54972C38.082 9.6202 38.0467 9.69654 38.0467 9.77877C38.0467 9.86099 38.0644 9.93733 38.0996 10.0078L41.1259 14.9555Z" fill="white"/>
</g>
<path d="M16.6639 33.5886C25.5382 33.5886 32.7426 26.4861 32.7426 17.712C32.7426 8.93787 25.5382 1.83542 16.6639 1.83542C7.78955 1.83542 0.585056 8.93787 0.585056 17.712C0.585056 26.4861 7.78955 33.5886 16.6639 33.5886Z" fill="#7799F2" stroke="#572316" stroke-width="0.935357"/>
<path fill-rule="evenodd" clip-rule="evenodd" d="M24.8558 30.8269C29.3039 28.1117 32.2675 23.2535 32.2675 17.712C32.2675 9.2019 25.2782 2.3031 16.6564 2.3031C13.0561 2.3031 9.74051 3.50605 7.09961 5.52694C9.4825 4.07242 12.2914 3.23294 15.299 3.23294C23.9208 3.23294 30.9101 10.1317 30.9101 18.6418C30.9101 23.5983 28.5392 28.0082 24.8558 30.8269Z" fill="#C5D5FF"/>
<path fill-rule="evenodd" clip-rule="evenodd" d="M30.3807 25.04C27.5193 28.5471 23.133 30.7912 18.2157 30.7912C9.59392 30.7912 2.60459 23.8924 2.60459 15.3823C2.60459 12.7545 3.27098 10.2804 4.44607 8.1156C2.29033 10.7578 1 14.1168 1 17.7733C1 26.2834 7.98934 33.1822 16.6111 33.1822C22.5707 33.1822 27.7503 29.8861 30.3807 25.04Z" fill="#466ED7"/>
<ellipse cx="16.478" cy="17.0478" rx="10.4897" ry="10.3612" fill="#466ED7"/>
<path fill-rule="evenodd" clip-rule="evenodd" d="M26.4175 20.3713C24.7742 23.9726 21.1082 26.4795 16.8494 26.4795C11.0561 26.4795 6.35969 21.8407 6.35969 16.1184C6.35969 14.956 6.55346 13.8384 6.91083 12.7953C6.31874 14.0929 5.98926 15.5325 5.98926 17.0482C5.98926 22.7705 10.6856 27.4094 16.4789 27.4094C21.0955 27.4094 25.0155 24.4636 26.4175 20.3713Z" fill="white"/>
<path fill-rule="evenodd" clip-rule="evenodd" d="M24.9587 23.2894C26.2871 21.5535 27.0749 19.3915 27.0749 17.0478C27.0749 11.3255 22.3785 6.68665 16.5852 6.68665C12.5919 6.68665 9.11974 8.89075 7.34766 12.1345C9.26254 9.63208 12.3007 8.01498 15.7211 8.01498C21.5144 8.01498 26.2108 12.6538 26.2108 18.3761C26.2108 20.154 25.7575 21.8273 24.9587 23.2894Z" fill="#173DA0"/>
<g filter="url(#filter1_d_692_90)">
<path d="M15.8973 18.5891H21.2622C21.39 18.5891 21.5003 18.6355 21.5932 18.7284C21.6861 18.8213 21.7325 18.9317 21.7325 19.0594V21.5154C21.7325 21.6432 21.6861 21.7535 21.5932 21.8464C21.5003 21.9393 21.39 21.9857 21.2622 21.9857H12.1871C12.0594 21.9857 11.9491 21.9393 11.8562 21.8464C11.7633 21.7535 11.7168 21.6432 11.7168 21.5154V10.263C11.7168 10.1353 11.7633 10.0249 11.8562 9.93204C11.9491 9.83914 12.0594 9.79269 12.1871 9.79269H21.1229C21.2506 9.79269 21.3609 9.83914 21.4538 9.93204C21.5467 10.0249 21.5932 10.1353 21.5932 10.263V12.719C21.5932 12.8468 21.5467 12.9571 21.4538 13.05C21.3609 13.1429 21.2506 13.1893 21.1229 13.1893H15.8973V14.2867H20.7397C20.8674 14.2867 20.9777 14.3331 21.0706 14.426C21.1635 14.5189 21.21 14.6293 21.21 14.757V17.0214C21.21 17.1491 21.1635 17.2595 21.0706 17.3524C20.9777 17.4453 20.8674 17.4917 20.7397 17.4917H15.8973V18.5891Z" fill="white"/>
</g>
<path d="M33.574 47.8621C42.431 47.8621 49.6215 40.7735 49.6215 32.0164C49.6215 23.2593 42.431 16.1707 33.574 16.1707C24.7169 16.1707 17.5264 23.2593 17.5264 32.0164C17.5264 40.7735 24.7169 47.8621 33.574 47.8621Z" fill="#F9C710" stroke="#572316" stroke-width="0.93354"/>
<path fill-rule="evenodd" clip-rule="evenodd" d="M41.748 45.1069C46.1884 42.3972 49.147 37.5478 49.147 32.0164C49.147 23.5228 42.1712 16.6375 33.5662 16.6375C29.9735 16.6375 26.6649 17.8377 24.0293 19.854C26.4072 18.403 29.2101 17.5655 32.2111 17.5655C40.8161 17.5655 47.7919 24.4509 47.7919 32.9445C47.7919 37.8919 45.425 42.2937 41.748 45.1069Z" fill="#F5E3A4"/>
<path fill-rule="evenodd" clip-rule="evenodd" d="M47.2654 39.3278C44.4095 42.8295 40.0309 45.0702 35.122 45.0702C26.517 45.0702 19.5412 38.1848 19.5412 29.6912C19.5412 27.0695 20.2058 24.6011 21.3778 22.441C19.2275 25.0777 17.9404 28.4293 17.9404 32.0776C17.9404 40.5712 24.9162 47.4565 33.5212 47.4565C39.4702 47.4565 44.6404 44.1657 47.2654 39.3278Z" fill="#F89E1D"/>
<ellipse cx="33.3892" cy="31.3535" rx="10.4693" ry="10.341" fill="#F89F1D"/>
<path fill-rule="evenodd" clip-rule="evenodd" d="M43.3086 34.6702C41.6686 38.2647 38.0096 40.7668 33.7589 40.7668C27.9769 40.7668 23.2896 36.137 23.2896 30.4258C23.2896 29.2659 23.483 28.1505 23.8396 27.1095C23.2487 28.4045 22.9199 29.8412 22.9199 31.3539C22.9199 37.0651 27.6072 41.6949 33.3892 41.6949C37.9969 41.6949 41.9094 38.7547 43.3086 34.6702Z" fill="white"/>
<path fill-rule="evenodd" clip-rule="evenodd" d="M41.8526 37.582C43.1779 35.8496 43.9639 33.6922 43.9639 31.3535C43.9639 25.6423 39.2767 21.0125 33.4946 21.0125C29.5086 21.0125 26.0429 23.2127 24.2744 26.4508C26.1855 23.9526 29.2181 22.3382 32.6324 22.3382C38.4145 22.3382 43.1017 26.9681 43.1017 32.6793C43.1017 34.4533 42.6495 36.123 41.8526 37.582Z" fill="#AE703F"/>
<g filter="url(#filter2_d_692_90)">
<path fill-rule="evenodd" clip-rule="evenodd" d="M34.6952 28.9731C34.8227 28.8225 34.8865 28.6428 34.8865 28.4342C34.8865 28.2256 34.8227 28.0402 34.6952 27.8779C34.6754 27.8482 34.6539 27.821 34.6307 27.7963H34.2733V27.6229C34.2414 27.6191 34.2082 27.6171 34.1737 27.6171H33.4344V27.6959H32.7134V29.1992H34.1737C34.4055 29.1992 34.5793 29.1238 34.6952 28.9731ZM32.7134 33.7177H33.4344V33.8061H34.3302C34.5967 33.8061 34.7938 33.7192 34.9213 33.5453C35.0603 33.3599 35.1299 33.1571 35.1299 32.9369V32.9195C35.1299 32.6993 35.0545 32.5081 34.9039 32.3458C34.7648 32.1835 34.5736 32.1024 34.3302 32.1024H32.7134V33.7177ZM34.7822 36.7963H28.8366C28.7091 36.7963 28.599 36.7499 28.5063 36.6572C28.4135 36.5645 28.3672 36.4544 28.3672 36.3269V25.0963C28.3672 24.9689 28.4135 24.8588 28.5063 24.766C28.599 24.6733 28.7091 24.627 28.8366 24.627H34.6083C36.2541 24.627 37.4652 24.9283 38.2417 25.531C39.0299 26.122 39.4239 27.0203 39.4239 28.2256V28.2778C39.4239 28.7761 39.279 29.2223 38.9893 29.6164C38.6995 29.9989 38.3808 30.277 38.0331 30.4509C38.4967 30.6363 38.885 30.9666 39.1979 31.4418C39.5224 31.9054 39.6847 32.4153 39.6847 32.9716C39.6847 35.5214 38.0505 36.7963 34.7822 36.7963Z" fill="#F8F9BA"/>
</g>
<defs>
<filter id="filter0_d_692_90" x="36.6422" y="9.42639" width="15.0896" height="14.4022" filterUnits="userSpaceOnUse" color-interpolation-filters="sRGB">
<feFlood flood-opacity="0" result="BackgroundImageFix"/>
<feColorMatrix in="SourceAlpha" type="matrix" values="0 0 0 0 0 0 0 0 0 0 0 0 0 0 0 0 0 0 127 0" result="hardAlpha"/>
<feOffset dy="1.03453"/>
<feGaussianBlur stdDeviation="0.517266"/>
<feComposite in2="hardAlpha" operator="out"/>
<feColorMatrix type="matrix" values="0 0 0 0 0 0 0 0 0 0 0 0 0 0 0 0 0 0 0.25 0"/>
<feBlend mode="normal" in2="BackgroundImageFix" result="effect1_dropShadow_692_90"/>
<feBlend mode="normal" in="SourceGraphic" in2="effect1_dropShadow_692_90" result="shape"/>
</filter>
<filter id="filter1_d_692_90" x="10.694" y="9.79272" width="12.0612" height="14.2386" filterUnits="userSpaceOnUse" color-interpolation-filters="sRGB">
<feFlood flood-opacity="0" result="BackgroundImageFix"/>
<feColorMatrix in="SourceAlpha" type="matrix" values="0 0 0 0 0 0 0 0 0 0 0 0 0 0 0 0 0 0 127 0" result="hardAlpha"/>
<feOffset dy="1.02278"/>
<feGaussianBlur stdDeviation="0.511392"/>
<feComposite in2="hardAlpha" operator="out"/>
<feColorMatrix type="matrix" values="0 0 0 0 0 0 0 0 0 0 0 0 0 0 0 0 0 0 0.25 0"/>
<feBlend mode="normal" in2="BackgroundImageFix" result="effect1_dropShadow_692_90"/>
<feBlend mode="normal" in="SourceGraphic" in2="effect1_dropShadow_692_90" result="shape"/>
</filter>
<filter id="filter2_d_692_90" x="27.8018" y="24.627" width="12.4481" height="13.3" filterUnits="userSpaceOnUse" color-interpolation-filters="sRGB">
<feFlood flood-opacity="0" result="BackgroundImageFix"/>
<feColorMatrix in="SourceAlpha" type="matrix" values="0 0 0 0 0 0 0 0 0 0 0 0 0 0 0 0 0 0 127 0" result="hardAlpha"/>
<feOffset dy="0.565359"/>
<feGaussianBlur stdDeviation="0.282679"/>
<feComposite in2="hardAlpha" operator="out"/>
<feColorMatrix type="matrix" values="0 0 0 0 0 0 0 0 0 0 0 0 0 0 0 0 0 0 0.25 0"/>
<feBlend mode="normal" in2="BackgroundImageFix" result="effect1_dropShadow_692_90"/>
<feBlend mode="normal" in="SourceGraphic" in2="effect1_dropShadow_692_90" result="shape"/>
</filter>
</defs>
</svg>
