<svg width="537" height="403" viewBox="0 0 537 403" fill="none" xmlns="http://www.w3.org/2000/svg">
<path d="M104.969 179.7L107.588 180.03C104.969 179.7 104.969 179.701 104.968 179.702L104.968 179.706L104.967 179.717L104.963 179.751C104.959 179.78 104.954 179.821 104.948 179.874C104.936 179.979 104.919 180.131 104.899 180.327C104.86 180.72 104.807 181.289 104.752 182.016C104.643 183.47 104.527 185.559 104.497 188.131C104.437 193.268 104.716 200.363 106.084 208.191C108.808 223.792 115.93 242.69 133.723 254.493C167.599 276.965 181.276 284.713 204.844 288.442C211.825 289.547 220.789 291.108 230.447 292.79C252.244 296.586 277.576 300.997 291.618 302.164C323.656 304.827 345.726 295.088 358.771 289.332C359.677 288.932 360.539 288.551 361.359 288.196C374.565 282.459 395.21 265.545 407.67 242.288L407.792 242.06L407.868 241.812C412.379 227.037 413.841 215.125 412.238 203.116C410.652 191.241 406.093 179.481 398.905 164.976C385.376 100.494 352.621 54.4744 309.033 36.0904L308.925 36.0448L308.813 36.0089L308.007 38.5231C308.813 36.0089 308.812 36.0088 308.812 36.0086L308.81 36.0082L308.807 36.007L308.795 36.0032L308.753 35.9901C308.718 35.9791 308.668 35.9633 308.602 35.943C308.471 35.9025 308.279 35.8441 308.028 35.7695C307.526 35.6203 306.786 35.4065 305.817 35.1425C303.88 34.6146 301.028 33.886 297.335 33.0721C289.949 31.4442 279.198 29.4744 265.673 28.0867C258.422 27.3428 248.373 29.0341 237.114 32.8088C225.791 36.6051 213.014 42.5863 200.232 50.652C174.856 66.6643 149.242 91.0341 135.03 123.145C116.444 137.427 108.22 159.142 104.981 179.617L104.974 179.659L104.969 179.7Z" fill="#F7A528" stroke="#572316" stroke-width="5.28053"/>
<path d="M236.601 43.7986C220.701 44.2767 176.654 76.9051 156.618 93.1596C188.308 50.6138 238.731 33.6374 252.473 31.3404L252.475 31.34C254.215 31.0491 294.2 24.3652 333.256 51.2663C371.569 77.6562 391.345 143.664 383.28 123.676C375.216 103.688 325.875 47.2311 322.138 57.3323C319.149 65.4132 306.889 65.8597 300.556 65.3389C293.519 64.7601 277.513 62.9761 263.524 59.4798C249.536 55.9834 240.579 52.4473 240.361 47.0666C240.316 45.9542 240.555 43.141 236.601 43.7986Z" fill="#F6DA90"/>
<path d="M409.544 228C408.907 245.542 381.469 287.178 332.574 295.481C306.932 302.541 289.641 299.04 233.21 290.842C176.778 282.644 156.451 266.545 128.542 248.258C111.017 233.221 99.2364 192.269 113.853 153.95C124.213 135.377 126.503 134.483 159.151 157.843C167.666 163.936 178.021 180.585 188.548 184.941C245.62 152.634 296.905 170.945 327.01 207.212C340.509 206.188 350.015 196.532 356.827 193.899C419.351 162.412 410.181 210.459 409.544 228Z" fill="white"/>
<path fill-rule="evenodd" clip-rule="evenodd" d="M410.086 206.293C402.412 224.972 377.729 253.105 335.399 262.818C309.674 269.975 277.941 264.42 236.902 256.857C183.125 252.091 154.753 232.892 132.417 211.953C121.393 202.494 112.328 185.28 110.881 163.495C100.1 201.57 112.211 231.491 123.658 244.279C147.554 264.136 185.107 285.423 213.748 288.554C221.19 289.731 228.832 291.043 236.511 292.362C271.498 298.369 307.251 304.507 328.339 298.646C381.287 287.294 407.416 246.853 408.959 232.482C409.024 231.876 409.103 231.187 409.191 230.427C409.832 224.868 410.916 215.469 410.086 206.293Z" fill="#ACABCF"/>
<path d="M147.413 92.717L149.091 97.5257L152.053 93.382C156.682 86.9055 165.949 77.1999 177.438 67.475C188.909 57.7658 202.423 48.1839 215.475 41.8649L219.016 40.1505L216.088 37.5232C200.084 23.1654 186.951 14.595 175.572 11.2036C163.975 7.74713 154.282 9.70121 145.576 16.0285C141.392 19.0694 139.301 24.4858 138.348 30.4722C137.38 36.5564 137.495 43.807 138.239 51.2509C139.728 66.1517 143.797 82.362 147.413 92.717Z" fill="#F8A428" stroke="#572316" stroke-width="5.28053"/>
<path d="M212.662 39.671C185.065 33.5191 179.836 17.3694 161.39 12.3124C170.294 10.9415 184.257 16.4649 189.581 19.9805C194.906 23.496 220.925 41.5129 212.662 39.671Z" fill="#F6DA90"/>
<path d="M197.429 49.0224C158.01 44.0685 146 28.6783 145.152 20.5247C131.851 34.3695 149.277 92.8989 150.033 91.7778C159.811 77.2861 187.243 55.9645 197.429 49.0224Z" fill="#AD7640"/>
<path d="M179.219 58.4377L165.222 70.1231C160.106 64.6091 156.03 36.0569 160.479 28.207L166.269 35.5385L179.219 58.4377Z" fill="#FF5F95"/>
<path d="M164.765 73.0937C161.327 67.4458 156.725 56.4329 156.745 44.8454C156.757 38.3416 156.932 33.3108 157.708 29.8418C158.094 28.1193 158.579 27.0214 159.083 26.3634C159.456 25.8745 159.846 25.6109 160.346 25.4918C160.505 25.5799 160.752 25.7468 161.09 26.0365C161.886 26.7186 162.877 27.8148 164.022 29.2885C166.295 32.215 168.88 36.2486 171.343 40.3891C173.796 44.5118 176.084 48.6658 177.761 51.7948C178.599 53.3577 179.282 54.6615 179.756 55.5732C179.993 56.0291 180.177 56.3867 180.301 56.6296C180.364 56.7511 180.411 56.8438 180.443 56.9058L180.478 56.9754L180.487 56.9924L180.489 56.9963L180.489 56.9972C180.489 56.9972 180.489 56.9972 180.68 56.9003L180.489 56.9972L180.497 57.0122L180.503 57.0243L180.503 57.0249L180.504 57.0258L180.504 57.0265L180.504 57.0272L180.505 57.0279L180.518 57.0536C180.525 57.068 180.535 57.0874 180.547 57.1116C180.556 57.1295 180.566 57.15 180.578 57.1729C180.631 57.2809 180.708 57.4407 180.797 57.6365C180.978 58.036 181.193 58.5491 181.36 59.0591C181.439 59.3018 181.496 59.5081 181.535 59.6764L172.853 66.8549L164.765 73.0937ZM181.605 60.1805C181.605 60.1802 181.605 60.1735 181.606 60.1612C181.606 60.1746 181.605 60.1808 181.605 60.1805ZM160.204 25.4238C160.204 25.4236 160.208 25.4247 160.215 25.4278C160.208 25.4255 160.204 25.424 160.204 25.4238Z" stroke="#572316" stroke-width="5.28053"/>
<path d="M394.927 131.944L391.691 135.877L390.342 130.965C388.234 123.289 382.89 110.98 375.465 97.886C368.053 84.8128 358.679 71.1534 348.612 60.716L345.881 57.8842L349.537 56.4298C369.515 48.4821 384.799 44.9741 396.649 45.7207C408.726 46.4817 417.148 51.6629 423.133 60.6074C426.01 64.906 426.102 70.7114 424.929 76.6586C423.737 82.703 421.125 89.4678 417.856 96.1968C411.312 109.667 401.896 123.474 394.927 131.944Z" fill="#F8A428" stroke="#572316" stroke-width="5.28053"/>
<path d="M352.011 59.6285C380.034 63.3852 390.518 50.0346 409.576 51.6588C401.693 47.2975 386.683 47.6594 380.471 49.1199C374.26 50.5805 343.62 58.5038 352.011 59.6285Z" fill="#F6DA90"/>
<path d="M363.077 73.6647C401.782 82.6285 418.368 72.3325 421.98 64.9735C429.681 82.5597 393.115 131.471 392.792 130.157C388.62 113.181 370.24 83.6977 363.077 73.6647Z" fill="#AD7640"/>
<path d="M376.915 88.7893L386.016 104.59C392.721 101.181 406.407 75.7935 404.942 66.8899L396.976 71.7709L376.915 88.7893Z" fill="#FF5F95"/>
<path d="M385.419 107.535C390.596 103.422 398.718 94.676 402.701 83.7944C404.936 77.6869 406.509 72.905 406.978 69.3813C407.211 67.6316 407.134 66.4336 406.889 65.6422C406.707 65.0544 406.433 64.6725 406.005 64.3879C405.825 64.4158 405.536 64.4871 405.118 64.6423C404.136 65.0077 402.827 65.694 401.244 66.6817C398.1 68.6432 394.281 71.5359 390.54 74.5711C386.814 77.5932 383.233 80.7017 380.578 83.0589C379.252 84.2364 378.16 85.2239 377.401 85.916C377.021 86.262 376.725 86.5341 376.524 86.7191C376.424 86.8115 376.347 86.8822 376.296 86.9295L376.239 86.9825L376.225 86.9955L376.222 86.9985L376.221 86.9991C376.221 86.9992 376.221 86.9992 376.075 86.8423L376.221 86.9992L376.209 87.0107L376.199 87.0198L376.198 87.0203L376.197 87.021L376.197 87.0214L376.196 87.022L376.196 87.0226L376.175 87.0421C376.163 87.0531 376.147 87.0679 376.127 87.0864C376.112 87.1002 376.096 87.1159 376.077 87.1335C375.99 87.2164 375.863 87.3398 375.712 87.4929C375.403 87.8051 375.025 88.2125 374.692 88.6336C374.534 88.8339 374.409 89.0079 374.315 89.1525L379.983 98.8875L385.419 107.535ZM374.075 89.6013C374.075 89.6011 374.077 89.5948 374.08 89.5829C374.076 89.5955 374.074 89.6015 374.075 89.6013ZM406.162 64.3733C406.162 64.3732 406.158 64.3729 406.149 64.373C406.157 64.3735 406.162 64.3735 406.162 64.3733Z" stroke="#572316" stroke-width="5.28053"/>
<ellipse cx="231.341" cy="95.6175" rx="20.5941" ry="8.11648" transform="rotate(8.99086 231.341 95.6175)" fill="white"/>
<ellipse rx="20.5941" ry="8.11648" transform="matrix(0.987713 0.156277 0.156277 -0.987713 314.037 108.702)" fill="white"/>
<ellipse cx="217.105" cy="136.606" rx="20.066" ry="26.4026" transform="rotate(-171.009 217.105 136.606)" fill="black"/>
<ellipse cx="225.646" cy="129.937" rx="7.39274" ry="10.033" transform="rotate(-171.009 225.646 129.937)" fill="white"/>
<ellipse cx="313.073" cy="151.79" rx="20.066" ry="26.4026" transform="rotate(-171.009 313.073 151.79)" fill="black"/>
<ellipse cx="308.052" cy="142.976" rx="7.39274" ry="10.033" transform="rotate(-171.009 308.052 142.976)" fill="white"/>
<path d="M221.807 201.504C222.767 202.19 233.36 212.955 255.791 206.346M255.791 206.346C265.562 212.169 274.538 216.262 288.045 211.984M255.791 206.346L256.451 202.174" stroke="#572316" stroke-width="7.39274" stroke-linecap="round"/>
<path d="M250.265 231.134C240.877 229.648 236.05 212.846 236.793 208.152C251.364 208.411 259.361 209.68 273.303 213.928C271.36 223.957 259.653 232.619 250.265 231.134Z" fill="#572316"/>
<path fill-rule="evenodd" clip-rule="evenodd" d="M253.522 221.005C253.591 220.808 253.643 220.615 253.672 220.431C254.037 218.126 257.189 216.71 260.07 217.166C262.95 217.622 264.99 219.859 264.625 222.164C264.265 224.437 258.12 227.96 252.526 226.684C246.729 226.272 242.246 220.993 242.61 218.695C242.975 216.391 245.605 214.892 248.486 215.348C251.366 215.804 253.927 218.124 253.563 220.428C253.534 220.609 253.522 220.802 253.522 221.005Z" fill="#FB609C"/>
<ellipse cx="258.349" cy="190.178" rx="22.7063" ry="12.6733" transform="rotate(-171.009 258.349 190.178)" fill="#572316"/>
<ellipse cx="258.983" cy="182.793" rx="7.39274" ry="3.16832" transform="rotate(-171.009 258.983 182.793)" fill="white"/>
<rect y="287" width="537" height="21" rx="10.5" fill="#572316"/>
<path d="M167.493 254.092C179.493 259.692 186.16 274.425 187.993 281.092C195.193 296.692 181.66 313.592 173.993 320.092C173.993 332.092 150.993 332.759 139.493 331.592C126.493 336.592 113.493 318.592 108.993 317.592C105.393 316.792 100.16 311.259 97.993 308.592C95.493 303.592 91.5931 290.492 95.9931 278.092C100.393 265.692 114.16 256.925 120.493 254.092C131.16 251.759 155.493 248.492 167.493 254.092Z" fill="white" stroke="#572316" stroke-width="3.66"/>
<path d="M110.993 318.592C113.493 316.758 118.493 311.692 118.493 306.092" stroke="#572316" stroke-width="3.66" stroke-linecap="round"/>
<path d="M143.993 331.092C144.493 328.425 145.293 321.992 144.493 317.592" stroke="#572316" stroke-width="3.66" stroke-linecap="round"/>
<path d="M176.993 317.092C176.993 316.546 171.699 307.274 167.993 305.092" stroke="#572316" stroke-width="3.66" stroke-linecap="round"/>
<path d="M435.171 261.881C445.328 270.377 447.983 286.329 448.041 293.243C450.989 310.17 433.566 323.023 424.486 327.333C421.401 338.93 399.003 333.662 388.189 329.578C374.341 331.068 366.405 310.332 362.313 308.208C359.04 306.51 355.405 299.817 353.996 296.683C352.866 291.208 352.464 277.546 359.904 266.694C367.344 255.842 382.901 250.909 389.75 249.799C400.658 250.286 425.014 253.384 435.171 261.881Z" fill="white" stroke="#572316" stroke-width="3.66"/>
<path d="M363.989 309.689C366.876 308.56 373.011 304.949 374.45 299.537" stroke="#572316" stroke-width="3.66" stroke-linecap="round"/>
<path d="M392.667 330.252C393.835 327.803 396.262 321.792 396.62 317.334" stroke="#572316" stroke-width="3.66" stroke-linecap="round"/>
<path d="M428.156 325.206C428.297 324.679 425.564 314.357 422.544 311.295" stroke="#572316" stroke-width="3.66" stroke-linecap="round"/>
</svg>
