<svg width="538" height="490" viewBox="0 0 538 490" fill="none" xmlns="http://www.w3.org/2000/svg">
<path d="M159.524 187.5C150.838 212.05 145.023 211 124.524 219C119.173 208.844 113.98 203.798 112.524 193C111.024 176.5 128.024 163.5 145.023 171C155.024 178 159.524 187.5 159.524 187.5Z" fill="white"/>
<mask id="path-2-inside-1_1011_110" fill="white">
<path fill-rule="evenodd" clip-rule="evenodd" d="M186.793 305.348C151.806 269.554 131.337 241.235 111.493 201.744C106.05 190.912 109.397 177.805 119.077 170.508C130.438 161.943 146.591 164.21 155.156 175.571L216.634 257.121C231.937 245.584 252.123 239 275.694 239C298.606 239 316.383 243.976 329.508 254.005L384.867 180.571C393.432 169.21 409.585 166.943 420.946 175.508C430.626 182.805 433.973 195.912 428.53 206.744C409.363 244.888 389.613 272.609 356.759 306.711C357.602 312.143 358.179 317.906 358.5 324C356.199 360.413 350.996 382.866 342.391 396.711L332.789 463.898C330.484 480.027 315.51 491.462 299.344 489.438C286.456 487.825 276.102 478 274.923 465.116C273.436 448.863 273.538 434.127 275.491 418.977C274.472 418.977 273.442 418.977 272.402 418.977C271.303 418.977 270.215 418.978 269.139 418.979L267.357 418.98C269.267 434.007 269.356 448.641 267.88 464.769C266.701 477.652 256.347 487.477 243.459 489.09C227.293 491.114 212.319 479.679 210.014 463.551L200.226 395.059C192.299 381.096 187.344 358.99 185 324C185 317.516 185.611 311.284 186.793 305.348Z"/>
</mask>
<path fill-rule="evenodd" clip-rule="evenodd" d="M186.793 305.348C151.806 269.554 131.337 241.235 111.493 201.744C106.05 190.912 109.397 177.805 119.077 170.508C130.438 161.943 146.591 164.21 155.156 175.571L216.634 257.121C231.937 245.584 252.123 239 275.694 239C298.606 239 316.383 243.976 329.508 254.005L384.867 180.571C393.432 169.21 409.585 166.943 420.946 175.508C430.626 182.805 433.973 195.912 428.53 206.744C409.363 244.888 389.613 272.609 356.759 306.711C357.602 312.143 358.179 317.906 358.5 324C356.199 360.413 350.996 382.866 342.391 396.711L332.789 463.898C330.484 480.027 315.51 491.462 299.344 489.438C286.456 487.825 276.102 478 274.923 465.116C273.436 448.863 273.538 434.127 275.491 418.977C274.472 418.977 273.442 418.977 272.402 418.977C271.303 418.977 270.215 418.978 269.139 418.979L267.357 418.98C269.267 434.007 269.356 448.641 267.88 464.769C266.701 477.652 256.347 487.477 243.459 489.09C227.293 491.114 212.319 479.679 210.014 463.551L200.226 395.059C192.299 381.096 187.344 358.99 185 324C185 317.516 185.611 311.284 186.793 305.348Z" fill="#F7A528"/>
<path d="M186.793 305.348L190.381 306.063L190.758 304.171L189.409 302.791L186.793 305.348ZM111.493 201.744L108.224 203.386L111.493 201.744ZM119.077 170.508L121.279 173.429L119.077 170.508ZM155.156 175.571L152.235 177.773L155.156 175.571ZM216.634 257.121L213.713 259.323L215.915 262.244L218.836 260.042L216.634 257.121ZM329.508 254.005L327.287 256.911L330.213 259.147L332.429 256.207L329.508 254.005ZM384.867 180.571L387.788 182.773V182.773L384.867 180.571ZM420.946 175.508L423.148 172.587V172.587L420.946 175.508ZM428.53 206.744L425.262 205.101V205.101L428.53 206.744ZM356.759 306.711L354.125 304.173L352.867 305.479L353.145 307.271L356.759 306.711ZM358.5 324L362.151 324.231L362.164 324.019L362.153 323.808L358.5 324ZM342.391 396.711L339.284 394.78L338.878 395.433L338.769 396.194L342.391 396.711ZM332.789 463.898L329.168 463.381L332.789 463.898ZM299.344 489.438L299.798 485.808L299.344 489.438ZM274.923 465.116L278.566 464.783L274.923 465.116ZM275.491 418.977L279.119 419.444L279.651 415.316L275.488 415.319L275.491 418.977ZM269.139 418.979L269.141 422.637H269.142L269.139 418.979ZM267.357 418.98L267.355 415.322L263.205 415.325L263.728 419.441L267.357 418.98ZM267.88 464.769L264.237 464.435L267.88 464.769ZM243.459 489.09L243.005 485.46L243.459 489.09ZM210.014 463.551L213.635 463.033L210.014 463.551ZM200.226 395.059L203.847 394.541L203.749 393.855L203.407 393.253L200.226 395.059ZM185 324H181.342V324.122L181.35 324.245L185 324ZM189.409 302.791C154.656 267.237 134.419 239.221 114.761 200.101L108.224 203.386C128.255 243.249 148.955 271.871 184.178 307.905L189.409 302.791ZM114.761 200.101C110.146 190.917 112.948 179.709 121.279 173.429L116.874 167.587C105.845 175.902 101.953 190.908 108.224 203.386L114.761 200.101ZM121.279 173.429C131.027 166.08 144.886 168.025 152.235 177.773L158.077 173.369C148.296 160.395 129.849 157.806 116.874 167.587L121.279 173.429ZM152.235 177.773L213.713 259.323L219.555 254.919L158.077 173.369L152.235 177.773ZM275.694 235.342C251.438 235.342 230.452 242.123 214.432 254.2L218.836 260.042C233.422 249.046 252.807 242.658 275.694 242.658V235.342ZM331.729 251.098C317.763 240.427 299.108 235.342 275.694 235.342V242.658C298.104 242.658 315.003 247.526 327.287 256.911L331.729 251.098ZM381.946 178.369L326.587 251.802L332.429 256.207L387.788 182.773L381.946 178.369ZM423.148 172.587C410.174 162.806 391.727 165.395 381.946 178.369L387.788 182.773C395.137 173.025 408.996 171.08 418.744 178.429L423.148 172.587ZM431.799 208.386C438.07 195.908 434.178 180.902 423.148 172.587L418.744 178.429C427.075 184.709 429.877 195.917 425.262 205.101L431.799 208.386ZM359.394 309.249C392.483 274.903 412.454 246.883 431.799 208.386L425.262 205.101C406.272 242.892 386.743 270.315 354.125 304.173L359.394 309.249ZM362.153 323.808C361.826 317.605 361.237 311.719 360.374 306.151L353.145 307.271C353.966 312.568 354.532 318.206 354.847 324.192L362.153 323.808ZM345.497 398.642C354.616 383.971 359.845 360.72 362.151 324.231L354.849 323.769C352.553 360.107 347.375 381.762 339.284 394.78L345.497 398.642ZM336.411 464.416L346.012 397.229L338.769 396.194L329.168 463.381L336.411 464.416ZM298.89 493.068C317.036 495.339 333.823 482.52 336.411 464.416L329.168 463.381C327.145 477.534 313.985 487.584 299.798 485.808L298.89 493.068ZM271.28 465.45C272.63 480.203 284.459 491.262 298.89 493.068L299.798 485.808C288.453 484.388 279.574 475.797 278.566 464.783L271.28 465.45ZM271.863 418.509C269.871 433.96 269.772 448.967 271.28 465.45L278.566 464.783C277.099 448.759 277.205 434.294 279.119 419.444L271.863 418.509ZM272.402 422.636C273.442 422.636 274.473 422.636 275.493 422.635L275.488 415.319C274.471 415.319 273.442 415.319 272.402 415.319V422.636ZM269.142 422.637C270.218 422.636 271.305 422.636 272.402 422.636V415.319C271.301 415.319 270.212 415.32 269.136 415.321L269.142 422.637ZM267.36 422.638L269.141 422.637L269.136 415.321L267.355 415.322L267.36 422.638ZM271.523 465.102C273.02 448.747 272.934 433.845 270.986 418.519L263.728 419.441C265.6 434.17 265.692 448.535 264.237 464.435L271.523 465.102ZM243.913 492.72C258.344 490.914 270.173 479.855 271.523 465.102L264.237 464.435C263.229 475.449 254.35 484.04 243.005 485.46L243.913 492.72ZM206.393 464.068C208.98 482.172 225.767 494.991 243.913 492.72L243.005 485.46C228.818 487.236 215.658 477.186 213.635 463.033L206.393 464.068ZM196.605 395.576L206.393 464.068L213.635 463.033L203.847 394.541L196.605 395.576ZM181.35 324.245C183.701 359.327 188.686 382.141 197.045 396.865L203.407 393.253C195.912 380.05 190.988 358.654 188.65 323.755L181.35 324.245ZM183.206 304.634C181.975 310.814 181.342 317.286 181.342 324H188.658C188.658 317.746 189.247 311.754 190.381 306.063L183.206 304.634Z" fill="#572316" mask="url(#path-2-inside-1_1011_110)"/>
<path d="M345.645 259.7C345.185 267.107 321.593 302.827 267.808 297.904C228.059 295.435 207.063 270.224 199.904 260C208.036 257.942 232.366 259.945 272.115 262.415C311.864 264.884 346.106 252.292 345.645 259.7Z" fill="black" fill-opacity="0.3"/>
<path d="M167.209 213.767L169.036 213.71C167.209 213.767 167.209 213.768 167.209 213.769L167.209 213.772L167.21 213.779L167.211 213.803L167.214 213.889C167.217 213.962 167.222 214.068 167.23 214.204C167.245 214.476 167.27 214.871 167.312 215.375C167.394 216.381 167.541 217.822 167.799 219.584C168.313 223.103 169.272 227.925 171.054 233.13C174.606 243.504 181.52 255.658 194.965 261.804C220.563 273.506 230.755 277.325 247.275 277.325C252.169 277.325 258.468 277.422 265.254 277.527C280.571 277.765 298.372 278.041 308.101 277.32C330.298 275.674 344.337 266.626 352.635 261.278C353.211 260.907 353.76 260.553 354.282 260.221C362.692 254.869 374.98 241.069 380.985 223.816L381.044 223.647L381.069 223.469C382.555 212.877 382.266 204.573 379.87 196.534C377.501 188.585 373.111 181.036 366.626 171.894C350.397 129.262 323.018 101.335 291.221 93.4795L291.142 93.46L291.062 93.4476L290.782 95.2542C291.062 93.4476 291.061 93.4476 291.061 93.4475L291.06 93.4473L291.057 93.4469L291.048 93.4456L291.019 93.4412C290.994 93.4374 290.957 93.4321 290.91 93.4253C290.816 93.4118 290.679 93.3926 290.499 93.3687C290.139 93.3211 289.61 93.2549 288.919 93.1793C287.537 93.0279 285.508 92.8382 282.894 92.6811C277.668 92.367 270.103 92.1832 260.703 92.6977C255.664 92.9735 248.975 95.2174 241.684 99.017C234.351 102.838 226.261 108.311 218.392 115.21C202.772 128.906 187.892 148.342 181.647 171.839C170.483 183.617 167.208 199.357 167.208 213.71V213.738L167.209 213.767Z" fill="#F7A528" stroke="#572316" stroke-width="3.65603"/>
<path d="M242.523 106.588C231.701 108.635 205.109 135.714 193.166 148.998C210.234 116.474 242.88 99.4086 252.028 96.3509L252.03 96.3505C253.188 95.9632 279.809 87.066 309.428 101.237C338.484 115.138 359.15 158.138 351.472 145.342C343.795 132.546 303.944 99.2757 302.482 106.588C301.312 112.437 292.976 114.069 288.589 114.398C283.714 114.764 272.575 115.276 262.631 114.398C252.686 113.521 246.179 112.072 245.448 108.416C245.296 107.66 245.155 105.71 242.523 106.588Z" fill="#F6DA90"/>
<path d="M380.721 213.842C382.183 225.907 367.925 257.349 335.386 268.317C318.614 275.92 306.411 275.396 266.933 275.896C227.455 276.396 211.812 267.586 190.748 258.1C177.136 249.713 164.649 222.982 170.499 195.197C175.574 181.374 177.043 180.515 201.897 192.958C208.379 196.203 217.262 206.468 224.933 208.308C260.466 180.039 297.518 187.013 322.03 208.556C331.151 206.395 336.606 198.764 340.98 196.226C380.33 167.928 379.258 201.777 380.721 213.842Z" fill="white"/>
<path fill-rule="evenodd" clip-rule="evenodd" d="M378.743 198.939C375.516 212.543 361.68 234.452 333.783 245.675C316.966 253.353 294.664 252.987 265.781 252.256C228.49 254.815 207.01 244.756 189.47 232.853C180.907 227.577 172.846 216.787 169.499 202.045C166.246 229.249 177.766 248.401 186.978 255.907C205.468 266.901 233.452 277.395 253.377 276.437C258.593 276.437 263.961 276.508 269.355 276.579C293.931 276.901 319.045 277.23 332.832 270.941C367.813 257.448 381.305 226.965 380.805 216.971C380.784 216.549 380.764 216.07 380.742 215.54C380.579 211.669 380.303 205.124 378.743 198.939Z" fill="#ACABCF"/>
<path d="M186.824 149.691L188.492 152.798L190.069 149.644C192.534 144.714 197.821 137.074 204.626 129.181C211.42 121.3 219.625 113.285 227.866 107.551L230.103 105.996L227.816 104.516C215.318 96.4291 205.409 91.9891 197.261 90.9011C188.956 89.7922 182.539 92.1773 177.27 97.4462C174.738 99.9784 173.894 103.909 173.89 108.106C173.886 112.371 174.749 117.317 176.063 122.327C178.695 132.356 183.231 143.001 186.824 149.691Z" fill="#F8A428" stroke="#572316" stroke-width="3.65603"/>
<path d="M225.705 106.355C206.167 105.134 200.844 94.656 187.682 93.1936C193.623 91.2927 203.769 93.5592 207.791 95.3872C211.812 97.2152 231.555 106.721 225.705 106.355Z" fill="#F6DA90"/>
<path d="M216.3 114.399C188.807 115.276 178.929 106.051 177.466 100.567C169.869 111.474 188.118 149.614 188.514 148.765C193.633 137.797 210.085 120.248 216.3 114.399Z" fill="#AD7640"/>
<path d="M204.866 122.807L196.558 132.313C192.463 129.096 186.586 110.011 188.779 104.162L193.532 108.549L204.866 122.807Z" fill="#FF5F95"/>
<path d="M196.567 134.394C193.605 130.904 189.266 123.871 188.026 115.944C187.33 111.496 186.906 108.036 187.061 105.58C187.138 104.36 187.352 103.557 187.625 103.052C187.827 102.678 188.065 102.455 188.394 102.32C188.512 102.363 188.7 102.45 188.962 102.612C189.58 102.992 190.377 103.634 191.319 104.518C193.19 106.274 195.394 108.752 197.527 111.317C199.65 113.871 201.664 116.465 203.15 118.423C203.892 119.401 204.5 120.219 204.923 120.791C205.134 121.077 205.298 121.302 205.41 121.454C205.466 121.531 205.508 121.589 205.536 121.628L205.568 121.672L205.576 121.682L205.578 121.685L205.578 121.685L207.059 120.614L205.578 121.685L205.585 121.695L205.591 121.702L205.591 121.703L205.591 121.703L205.592 121.704L205.592 121.704L205.592 121.705L205.604 121.721C205.615 121.737 205.634 121.762 205.658 121.796C205.706 121.864 205.776 121.965 205.858 122.089C206.025 122.343 206.227 122.67 206.397 123.001C206.477 123.159 206.538 123.293 206.583 123.404L201.423 129.253L196.567 134.394ZM206.686 123.742C206.686 123.741 206.685 123.737 206.684 123.728C206.686 123.737 206.686 123.742 206.686 123.742ZM188.29 102.289C188.29 102.288 188.292 102.289 188.298 102.29C188.293 102.289 188.29 102.289 188.29 102.289Z" stroke="#572316" stroke-width="3.65603"/>
<path d="M360.332 149.736L358.544 152.775L357.091 149.563C354.819 144.541 349.832 136.702 343.338 128.551C336.855 120.413 328.966 112.086 320.953 106.037L318.778 104.396L321.121 103.006C333.923 95.4095 343.996 91.3567 352.18 90.5852C360.522 89.7988 366.842 92.4308 371.902 97.8999C374.335 100.528 375.026 104.488 374.867 108.682C374.706 112.945 373.652 117.854 372.144 122.809C369.127 132.728 364.181 143.19 360.332 149.736Z" fill="#F8A428" stroke="#572316" stroke-width="3.65603"/>
<path d="M323.159 104.926C342.729 104.463 348.455 94.1986 361.663 93.2473C355.8 91.1177 345.574 92.9894 341.485 94.6602C337.396 96.331 317.3 105.065 323.159 104.926Z" fill="#F6DA90"/>
<path d="M332.245 113.327C359.684 115.269 369.912 106.434 371.586 101.01C378.755 112.204 359.041 149.608 358.679 148.745C353.989 137.587 338.229 119.413 332.245 113.327Z" fill="#AD7640"/>
<path d="M343.345 122.173L351.279 131.993C355.495 128.937 362.107 110.094 360.142 104.164L355.223 108.364L343.345 122.173Z" fill="#FF5F95"/>
<path d="M351.189 134.073C354.284 130.7 358.892 123.84 360.438 115.967C361.306 111.549 361.864 108.108 361.804 105.648C361.774 104.426 361.592 103.615 361.339 103.101C361.151 102.718 360.922 102.487 360.598 102.339C360.479 102.377 360.288 102.457 360.02 102.608C359.388 102.965 358.566 103.576 357.591 104.422C355.653 106.104 353.354 108.495 351.124 110.976C348.903 113.446 346.791 115.959 345.23 117.858C344.451 118.807 343.811 119.6 343.367 120.156C343.145 120.433 342.971 120.651 342.854 120.8C342.795 120.874 342.751 120.93 342.721 120.968L342.688 121.011L342.679 121.021L342.677 121.023L342.677 121.024L341.238 119.896L342.677 121.024L342.67 121.033L342.664 121.041L342.664 121.041L342.663 121.041L342.663 121.042L342.663 121.042L342.662 121.043L342.65 121.058C342.638 121.074 342.618 121.098 342.593 121.131C342.543 121.198 342.469 121.296 342.382 121.417C342.205 121.664 341.99 121.983 341.808 122.307C341.721 122.461 341.655 122.594 341.606 122.703L346.536 128.747L351.189 134.073ZM341.491 123.036C341.491 123.036 341.492 123.031 341.493 123.023C341.491 123.032 341.49 123.036 341.491 123.036ZM360.704 102.312C360.704 102.311 360.701 102.312 360.696 102.313C360.701 102.312 360.704 102.312 360.704 102.312Z" stroke="#572316" stroke-width="3.65603"/>
<ellipse cx="244.533" cy="142.594" rx="14.2585" ry="5.61954" fill="white"/>
<ellipse rx="14.2585" ry="5.61954" transform="matrix(1 0 0 -1 302.5 142.594)" fill="white"/>
<path d="M235.669 172.285C223.938 171.432 217.847 184.683 217.713 177.012C217.579 169.34 226.427 163.34 236.521 163.164C243.176 163.563 251.295 169.602 254.267 176.374C254.401 184.045 245.36 172.989 235.669 172.285Z" fill="black"/>
<path d="M317.175 169.58C305.444 168.728 299.353 181.979 299.219 174.308C299.085 166.636 307.933 160.636 318.027 160.46C324.682 160.859 332.801 166.898 335.774 173.67C335.907 181.341 326.866 170.285 317.175 169.58Z" fill="black"/>
<path d="M249.469 216.037C250.2 216.402 258.609 222.617 273.233 215.671M273.233 215.671C280.546 218.596 287.126 220.424 295.901 216.037M273.233 215.671V212.746" stroke="#572316" stroke-width="5.11845" stroke-linecap="round"/>
<path d="M272.137 233.22C265.556 233.22 260.437 222.251 260.437 218.961C270.43 217.562 276.036 217.564 286.029 218.961C285.786 226.029 278.717 233.22 272.137 233.22Z" fill="#572316"/>
<path fill-rule="evenodd" clip-rule="evenodd" d="M273.268 225.942C273.294 225.799 273.309 225.662 273.309 225.532C273.309 223.917 275.311 222.607 277.33 222.607C279.349 222.607 280.986 223.917 280.986 225.532C280.986 227.126 277.165 230.2 273.201 229.932C269.192 230.278 265.556 227.153 265.556 225.542C265.556 223.927 267.193 222.618 269.212 222.618C271.231 222.618 273.233 223.927 273.233 225.542C273.233 225.669 273.246 225.803 273.268 225.942Z" fill="#FB609C"/>
<ellipse cx="273.233" cy="204.337" rx="15.7209" ry="8.77448" transform="rotate(-180 273.233 204.337)" fill="#572316"/>
<ellipse cx="272.868" cy="199.218" rx="5.11845" ry="2.19362" transform="rotate(-180 272.868 199.218)" fill="white"/>
<path d="M380.5 192.5C389.185 217.05 395 216 415.499 224C420.85 213.844 426.043 208.798 427.5 198C429 181.5 411.999 168.5 395 176C385 183 380.5 192.5 380.5 192.5Z" fill="white"/>
<path fill-rule="evenodd" clip-rule="evenodd" d="M410.489 222.084C412.057 222.676 413.724 223.307 415.5 224C416.996 221.382 418.427 219.137 419.748 217.063C423.727 210.821 426.715 206.132 427.5 197.5C428.817 183.016 415.878 171.615 401.198 174.117C413.136 175.327 422.481 185.761 421.352 198.176C420.318 205.839 417.403 210.605 413.885 216.357C412.798 218.134 411.653 220.005 410.489 222.084Z" fill="#ACABCF"/>
<path d="M159.503 187.505C150.818 212.055 145.003 211.005 124.504 219.005C119.153 208.849 113.96 203.803 112.503 193.005C111.003 176.505 128.004 163.505 145.003 171.005C155.003 178.005 159.503 187.505 159.503 187.505Z" fill="white"/>
<path fill-rule="evenodd" clip-rule="evenodd" d="M129.514 217.09C127.945 217.681 126.279 218.312 124.503 219.005C123.007 216.387 121.576 214.142 120.255 212.068C116.276 205.826 113.287 201.138 112.503 192.505C111.186 178.022 124.125 166.62 138.805 169.122C126.867 170.333 117.522 180.766 118.651 193.181C119.684 200.844 122.6 205.61 126.118 211.362C127.205 213.139 128.35 215.01 129.514 217.09Z" fill="#ACABCF"/>
<ellipse cx="273" cy="346.5" rx="52" ry="43.5" fill="white"/>
<path fill-rule="evenodd" clip-rule="evenodd" d="M212.529 456.068C218.537 460.061 225.963 461.976 233.674 460.946L242.789 459.728C252.537 458.426 261.026 452.614 265.324 444.251C265.283 450.718 264.95 457.307 264.346 464.168C263.316 475.86 253.884 484.884 242.224 486.233C228.2 487.856 215.458 477.942 213.585 463.949L212.529 456.068Z" fill="white"/>
<path fill-rule="evenodd" clip-rule="evenodd" d="M330.048 456.707C324.1 460.532 316.824 462.355 309.282 461.366L298.942 460.009C290.007 458.837 282.134 453.878 277.589 446.625C277.658 452.512 277.966 458.509 278.494 464.732C279.482 476.36 288.849 485.323 300.459 486.638C314.404 488.217 327.098 478.34 328.994 464.436L330.048 456.707Z" fill="white"/>
<path d="M240 412.063C240 410.789 241.234 409.88 242.455 410.241C265.069 416.934 278.613 417.038 300.524 410.281C301.749 409.903 303 410.812 303 412.093C303 412.928 302.445 413.667 301.643 413.9C279.411 420.382 265.747 420.534 241.394 413.885C240.575 413.661 240 412.912 240 412.063Z" fill="#572316"/>
<path d="M469.109 133.605C505.76 133.605 535.505 104.273 535.505 68.0499C535.505 31.8265 505.76 2.49509 469.109 2.49509C432.459 2.49509 402.714 31.8265 402.714 68.0499C402.714 104.273 432.459 133.605 469.109 133.605Z" fill="#F9C710" stroke="#572316" stroke-width="3.00981"/>
<path fill-rule="evenodd" clip-rule="evenodd" d="M503.159 122.565C521.649 111.279 533.968 91.0844 533.968 68.0499C533.968 32.6761 504.915 4 469.077 4C454.112 4 440.33 9.00018 429.353 17.4003C439.258 11.3546 450.933 7.86525 463.435 7.86525C499.273 7.86525 528.325 36.5414 528.325 71.9151C528.325 92.5178 518.47 110.848 503.159 122.565Z" fill="#F5E3A4"/>
<path fill-rule="evenodd" clip-rule="evenodd" d="M526.128 98.5059C514.234 113.086 496 122.415 475.559 122.415C439.721 122.415 410.669 93.7393 410.669 58.3655C410.669 47.4441 413.438 37.1612 418.321 28.1636C409.362 39.1456 404 53.1067 404 68.304C404 103.678 433.052 132.354 468.89 132.354C493.664 132.354 515.195 118.651 526.128 98.5059Z" fill="#F89E1D"/>
<ellipse cx="468.34" cy="65.2892" rx="43.6023" ry="43.068" fill="#F89F1D"/>
<path fill-rule="evenodd" clip-rule="evenodd" d="M509.654 79.0968C502.825 94.0702 487.584 104.494 469.879 104.494C445.798 104.494 426.277 85.2116 426.277 61.4258C426.277 56.5969 427.081 51.9536 428.565 47.6196C426.106 53.0114 424.738 58.9932 424.738 65.2906C424.738 89.0764 444.259 108.359 468.34 108.359C487.532 108.359 503.828 96.1109 509.654 79.0968Z" fill="white"/>
<path fill-rule="evenodd" clip-rule="evenodd" d="M503.59 91.2294C509.11 84.0144 512.383 75.0294 512.383 65.2892C512.383 41.5034 492.862 22.2212 468.781 22.2212C452.18 22.2212 437.746 31.3849 430.381 44.8706C438.34 34.4664 450.97 27.7428 465.19 27.7428C489.271 27.7428 508.792 47.025 508.792 70.8108C508.792 78.1992 506.909 85.153 503.59 91.2294Z" fill="#AE703F"/>
<g filter="url(#filter0_d_1011_110)">
<path fill-rule="evenodd" clip-rule="evenodd" d="M462.314 40.4424H468.527V43.2392H472.022V40.8603H478.235V43.6832C480.803 44.1456 482.85 44.9691 484.377 46.1538C486.918 48.0595 488.188 50.9554 488.188 54.8416V55.0097C488.188 56.6165 487.721 58.0551 486.787 59.3256C485.853 60.5587 484.825 61.4555 483.704 62.016C485.199 62.6138 486.451 63.6788 487.46 65.2108C488.506 66.7055 489.029 68.3496 489.029 70.1432C489.029 76.9366 485.431 80.9231 478.235 82.1025V85.1667H472.022V82.4742H468.527V84.7488H462.314V82.4742H454.054C453.643 82.4742 453.288 82.3248 452.989 82.0258C452.69 81.7269 452.541 81.3719 452.541 80.9609V77.6429H448.334V70.1192H452.541V55.9079H448.334V48.3842H452.541V44.7526C452.541 44.3415 452.69 43.9866 452.989 43.6876C453.288 43.3887 453.643 43.2392 454.054 43.2392H462.314V40.4424ZM472.943 57.2517C473.354 56.766 473.559 56.1868 473.559 55.5142C473.559 54.8416 473.354 54.2437 472.943 53.7206C472.569 53.1601 472.009 52.8798 471.261 52.8798H466.553V57.9804H471.261C472.009 57.9804 472.569 57.7375 472.943 57.2517ZM466.553 67.3407V72.8336H471.766C472.625 72.8336 473.26 72.5534 473.671 71.9929C474.12 71.395 474.344 70.7411 474.344 70.0311V69.9751C474.344 69.2651 474.101 68.6486 473.615 68.1254C473.167 67.6023 472.55 67.3407 471.766 67.3407H466.553Z" fill="#F8F9BA"/>
</g>
<path d="M428.066 432.763C450.056 432.763 467.903 415.164 467.903 393.43C467.903 371.696 450.056 354.097 428.066 354.097C406.075 354.097 388.228 371.696 388.228 393.43C388.228 415.164 406.075 432.763 428.066 432.763Z" fill="#7799F2" stroke="#572316" stroke-width="1.80589"/>
<path fill-rule="evenodd" clip-rule="evenodd" d="M448.494 426.14C459.589 419.368 466.981 407.251 466.981 393.43C466.981 372.206 449.549 355 428.047 355C419.068 355 410.799 358 404.213 363.039C410.156 359.412 417.161 357.319 424.661 357.319C446.164 357.319 463.595 374.525 463.595 395.749C463.595 408.111 457.682 419.11 448.494 426.14Z" fill="#C5D5FF"/>
<path fill-rule="evenodd" clip-rule="evenodd" d="M462.277 411.703C455.141 420.451 444.2 426.049 431.935 426.049C410.433 426.049 393.001 408.844 393.001 387.619C393.001 381.067 394.663 374.897 397.592 369.499C392.217 376.088 389 384.464 389 393.582C389 414.807 406.431 432.012 427.934 432.012C442.798 432.012 455.717 423.791 462.277 411.703Z" fill="#466ED7"/>
<ellipse cx="427.604" cy="391.773" rx="26.1614" ry="25.8408" fill="#466ED7"/>
<path fill-rule="evenodd" clip-rule="evenodd" d="M452.392 400.058C448.295 409.042 439.151 415.296 428.527 415.296C414.079 415.296 402.366 403.727 402.366 389.455C402.366 386.558 402.849 383.772 403.739 381.172C402.264 384.407 401.443 387.996 401.443 391.774C401.443 406.046 413.155 417.615 427.604 417.615C439.119 417.615 448.897 410.266 452.392 400.058Z" fill="white"/>
<path fill-rule="evenodd" clip-rule="evenodd" d="M448.754 407.338C452.066 403.009 454.03 397.618 454.03 391.773C454.03 377.502 442.317 365.933 427.868 365.933C417.908 365.933 409.248 371.431 404.828 379.522C409.604 373.28 417.182 369.245 425.714 369.245C440.162 369.245 451.875 380.815 451.875 395.086C451.875 399.519 450.745 403.692 448.754 407.338Z" fill="#173DA0"/>
<g filter="url(#filter1_d_1011_110)">
<path d="M426.572 396.109H436.93C437.176 396.109 437.389 396.198 437.569 396.378C437.748 396.557 437.838 396.77 437.838 397.017V401.758C437.838 402.005 437.748 402.218 437.569 402.397C437.389 402.577 437.176 402.667 436.93 402.667H419.409C419.162 402.667 418.949 402.577 418.77 402.397C418.59 402.218 418.501 402.005 418.501 401.758V380.034C418.501 379.787 418.59 379.574 418.77 379.395C418.949 379.215 419.162 379.126 419.409 379.126H436.661C436.907 379.126 437.12 379.215 437.3 379.395C437.479 379.574 437.569 379.787 437.569 380.034V384.775C437.569 385.022 437.479 385.235 437.3 385.414C437.12 385.594 436.907 385.683 436.661 385.683H426.572V387.802H435.921C436.168 387.802 436.381 387.892 436.56 388.071C436.739 388.25 436.829 388.463 436.829 388.71V393.082C436.829 393.329 436.739 393.542 436.56 393.721C436.381 393.9 436.168 393.99 435.921 393.99H426.572V396.109Z" fill="white"/>
</g>
<path d="M75.5243 401.373C115.786 401.373 148.461 369.152 148.461 329.36C148.461 289.568 115.786 257.347 75.5243 257.347C35.2628 257.347 2.58755 289.568 2.58755 329.36C2.58755 369.152 35.2628 401.373 75.5243 401.373Z" fill="#D3D3D3" stroke="#572316" stroke-width="3.30634"/>
<path fill-rule="evenodd" clip-rule="evenodd" d="M112.926 389.247C133.239 376.849 146.772 354.665 146.772 329.36C146.772 290.501 114.858 259 75.4888 259C59.0503 259 43.9113 264.492 31.8528 273.719C42.733 267.078 55.5581 263.246 69.2902 263.246C108.659 263.246 140.574 294.747 140.574 333.606C140.574 356.239 129.747 376.376 112.926 389.247Z" fill="#B7B7B7"/>
<path fill-rule="evenodd" clip-rule="evenodd" d="M138.161 362.817C125.095 378.834 105.065 389.082 82.6092 389.082C43.2404 389.082 11.3256 357.581 11.3256 318.722C11.3256 306.725 14.3676 295.429 19.7318 285.545C9.89046 297.609 4 312.946 4 329.64C4 368.499 35.9147 400 75.2835 400C102.498 400 126.15 384.947 138.161 362.817Z" fill="#787878"/>
<ellipse cx="74.679" cy="326.327" rx="47.898" ry="47.3111" fill="#787878"/>
<path fill-rule="evenodd" clip-rule="evenodd" d="M120.063 341.494C112.562 357.943 95.8195 369.394 76.3695 369.394C49.9162 369.394 28.4715 348.212 28.4715 322.083C28.4715 316.779 29.3552 311.679 30.9851 306.918C28.284 312.841 26.781 319.412 26.781 326.329C26.781 352.458 48.2257 373.64 74.679 373.64C95.7623 373.64 113.664 360.185 120.063 341.494Z" fill="white"/>
<path fill-rule="evenodd" clip-rule="evenodd" d="M113.402 354.823C119.465 346.897 123.061 337.027 123.061 326.327C123.061 300.198 101.616 279.016 75.163 279.016C56.9267 279.016 41.0706 289.083 32.9797 303.897C41.7233 292.468 55.5976 285.082 71.2184 285.082C97.6718 285.082 119.116 306.264 119.116 332.393C119.116 340.509 117.047 348.148 113.402 354.823Z" fill="#323232"/>
<g filter="url(#filter2_d_1011_110)">
<path fill-rule="evenodd" clip-rule="evenodd" d="M98.1727 344.283C98.1727 343.955 98.1111 343.688 97.988 343.483L85.9856 325H64.7982L52.8556 343.483C52.7325 343.688 52.6709 343.955 52.6709 344.283C52.6709 344.57 52.794 344.858 53.0403 345.145C53.3277 345.391 53.6561 345.515 54.0255 345.515H67.4482C68.5565 345.515 69.398 345.042 69.9727 344.098L75.0831 335.848L80.4399 344.098C81.0146 345.042 81.8561 345.515 82.9644 345.515H96.8181C97.1875 345.515 97.4954 345.391 97.7417 345.145C98.029 344.858 98.1727 344.57 98.1727 344.283ZM64.8856 322H85.6848L96.7565 304.446C96.8797 304.241 96.9412 303.994 96.9412 303.707C96.9412 303.379 96.7976 303.091 96.5102 302.845C96.2639 302.558 95.9561 302.414 95.5867 302.414H82.8412C81.6919 302.414 80.8299 302.927 80.2552 303.953L75.5757 311.465L71.2657 303.953C70.691 302.927 69.829 302.414 68.6796 302.414H55.3185C54.9491 302.414 54.6207 302.558 54.3333 302.845C54.0871 303.091 53.9639 303.358 53.9639 303.646C53.9639 303.933 54.0255 304.2 54.1486 304.446L64.8856 322Z" fill="white"/>
</g>
<defs>
<filter id="filter0_d_1011_110" x="446.511" y="40.4424" width="44.3404" height="48.3697" filterUnits="userSpaceOnUse" color-interpolation-filters="sRGB">
<feFlood flood-opacity="0" result="BackgroundImageFix"/>
<feColorMatrix in="SourceAlpha" type="matrix" values="0 0 0 0 0 0 0 0 0 0 0 0 0 0 0 0 0 0 127 0" result="hardAlpha"/>
<feOffset dy="1.82276"/>
<feGaussianBlur stdDeviation="0.911382"/>
<feComposite in2="hardAlpha" operator="out"/>
<feColorMatrix type="matrix" values="0 0 0 0 0 0 0 0 0 0 0 0 0 0 0 0 0 0 0.25 0"/>
<feBlend mode="normal" in2="BackgroundImageFix" result="effect1_dropShadow_1011_110"/>
<feBlend mode="normal" in="SourceGraphic" in2="effect1_dropShadow_1011_110" result="shape"/>
</filter>
<filter id="filter1_d_1011_110" x="416.526" y="379.125" width="23.2868" height="27.4904" filterUnits="userSpaceOnUse" color-interpolation-filters="sRGB">
<feFlood flood-opacity="0" result="BackgroundImageFix"/>
<feColorMatrix in="SourceAlpha" type="matrix" values="0 0 0 0 0 0 0 0 0 0 0 0 0 0 0 0 0 0 127 0" result="hardAlpha"/>
<feOffset dy="1.97468"/>
<feGaussianBlur stdDeviation="0.987341"/>
<feComposite in2="hardAlpha" operator="out"/>
<feColorMatrix type="matrix" values="0 0 0 0 0 0 0 0 0 0 0 0 0 0 0 0 0 0 0.25 0"/>
<feBlend mode="normal" in2="BackgroundImageFix" result="effect1_dropShadow_1011_110"/>
<feBlend mode="normal" in="SourceGraphic" in2="effect1_dropShadow_1011_110" result="shape"/>
</filter>
<filter id="filter2_d_1011_110" x="49.0555" y="302.414" width="52.7325" height="50.3314" filterUnits="userSpaceOnUse" color-interpolation-filters="sRGB">
<feFlood flood-opacity="0" result="BackgroundImageFix"/>
<feColorMatrix in="SourceAlpha" type="matrix" values="0 0 0 0 0 0 0 0 0 0 0 0 0 0 0 0 0 0 127 0" result="hardAlpha"/>
<feOffset dy="3.61538"/>
<feGaussianBlur stdDeviation="1.80769"/>
<feComposite in2="hardAlpha" operator="out"/>
<feColorMatrix type="matrix" values="0 0 0 0 0 0 0 0 0 0 0 0 0 0 0 0 0 0 0.25 0"/>
<feBlend mode="normal" in2="BackgroundImageFix" result="effect1_dropShadow_1011_110"/>
<feBlend mode="normal" in="SourceGraphic" in2="effect1_dropShadow_1011_110" result="shape"/>
</filter>
</defs>
</svg>
