<svg width="86" height="65" viewBox="0 0 86 65" fill="none" xmlns="http://www.w3.org/2000/svg">
<path fill-rule="evenodd" clip-rule="evenodd" d="M83.754 12.0649L86 0L73.8603 1.79821L76.6057 4.6471L48.9769 31.2681L38.7875 21.4503L36.3751 23.954L23.6257 36.2384L20.7444 33.4622L18.3069 30.9325L18.2129 31.0231L18.0691 30.8845L14.342 34.7528L0 48.5717L3.97761 52.6998L18.2129 38.9838L23.4346 44.015L23.6186 44.2059L23.6257 44.1991L23.6328 44.2059L23.8167 44.015L38.8805 29.5007L48.5588 38.826L48.9614 39.2438L48.9769 39.2288L48.9925 39.2438L49.395 38.826L80.5836 8.77499L83.754 12.0649Z" fill="#BDFF00"/>
<path d="M47.1302 7.50181C47.1934 7.09292 47.1933 7.09291 47.1932 7.09289L47.193 7.09286L47.1924 7.09276L47.1904 7.09245L47.1834 7.09141L47.1577 7.08766C47.1355 7.08446 47.1029 7.07991 47.0603 7.07426C46.9751 7.06296 46.8496 7.04729 46.6857 7.02934C46.358 6.99344 45.8766 6.94845 45.2566 6.91118C44.0167 6.83666 42.2217 6.79304 39.9914 6.91512C38.7994 6.98036 37.2147 7.51152 35.4851 8.41287C33.746 9.31914 31.8269 10.6173 29.9603 12.2538C26.2534 15.5039 22.7233 20.1162 21.2431 25.6909C18.5952 28.4817 17.8177 32.2137 17.8177 35.6195H17.8175L17.8179 35.6326L18.2314 35.6195C17.8179 35.6326 17.8179 35.6328 17.8179 35.633L17.8179 35.6335L17.818 35.6353L17.8182 35.6409L17.819 35.6611C17.8198 35.6784 17.8209 35.7035 17.8227 35.7357C17.8263 35.8002 17.8323 35.8938 17.8421 36.0131C17.8618 36.2516 17.8966 36.5932 17.9576 37.0109C18.0796 37.8455 18.307 38.9888 18.7295 40.2228C19.5717 42.6828 21.2103 45.5616 24.3946 47.0173C30.4707 49.7949 32.8864 50.6996 36.803 50.6996C37.9653 50.6996 39.4611 50.7228 41.0725 50.7478C44.7078 50.8041 48.9312 50.8696 51.2396 50.6985C56.5034 50.3083 59.8321 48.163 61.8014 46.8938C61.9381 46.8056 62.0684 46.7217 62.1922 46.6429C64.1845 45.3751 67.0986 42.103 68.5224 38.0119L68.5358 37.9736L68.5414 37.9334C68.894 35.421 68.8253 33.4529 68.2576 31.5483C67.6959 29.664 66.6549 27.8737 65.1151 25.7034C61.2646 15.5862 54.7691 8.96289 47.2294 7.10014L47.2116 7.09573L47.1934 7.09292L47.1302 7.50181Z" fill="#F7A528" stroke="#572316" stroke-width="0.827497"/>
<path d="M35.6747 10.1921C33.1059 10.6781 26.7939 17.1058 23.959 20.2589C28.0104 12.5387 35.7594 8.48798 37.9311 7.76217L37.9314 7.76206C38.2064 7.67014 44.5253 5.55822 51.556 8.92189C58.4531 12.2216 63.3585 22.4285 61.536 19.3911C59.7136 16.3537 50.2542 8.45643 49.9071 10.1921C49.6294 11.5806 47.6507 11.968 46.6094 12.0461C45.4522 12.1329 42.8083 12.2544 40.4478 12.0461C38.0873 11.8378 36.5425 11.4938 36.369 10.626C36.3331 10.4466 36.2995 9.98381 35.6747 10.1921Z" fill="#F6DA90"/>
<path d="M68.4777 35.651C68.8249 38.5149 65.4403 45.9782 57.7166 48.5817C53.7355 50.3864 50.8388 50.2621 41.468 50.3807C32.0971 50.4993 28.384 48.4081 23.384 46.1565C20.153 44.1656 17.1889 37.8206 18.5775 31.2251C19.7821 27.9441 20.131 27.7402 26.0304 30.6936C27.5691 31.464 29.6777 33.9006 31.4984 34.3374C39.9329 27.6273 48.728 29.2825 54.5464 34.3963C56.7113 33.8833 58.0063 32.0718 59.0445 31.4695C68.385 24.7524 68.1306 32.7872 68.4777 35.651Z" fill="white"/>
<path fill-rule="evenodd" clip-rule="evenodd" d="M68.0087 32.1141C67.2425 35.3434 63.9584 40.5435 57.3369 43.2073C53.3449 45.0297 48.0511 44.9429 41.1953 44.7694C32.3434 45.3769 27.2449 42.989 23.0813 40.1638C21.0487 38.9113 19.1349 36.3496 18.3407 32.8499C17.5682 39.3078 20.3027 43.8542 22.4895 45.636C26.8784 48.2456 33.521 50.7366 38.2506 50.5092C39.4888 50.5092 40.763 50.526 42.0434 50.5427C47.8769 50.6193 53.8382 50.6974 57.1109 49.2045C65.4142 46.0018 68.6169 38.766 68.4982 36.3937C68.4932 36.2936 68.4884 36.1798 68.4831 36.0541C68.4445 35.1354 68.3791 33.5821 68.0087 32.1141Z" fill="#ACABCF"/>
<path d="M22.4703 20.414L22.8479 21.1171L23.2049 20.4032C23.791 19.2309 25.0471 17.4161 26.6629 15.5417C28.2763 13.6703 30.2251 11.7665 32.1833 10.4042L32.6894 10.0522L32.1718 9.71722C29.2059 7.7981 26.8571 6.74616 24.9274 6.48849C22.9623 6.2261 21.4453 6.79013 20.1991 8.03637C19.6038 8.63168 19.4036 9.55781 19.4027 10.5524C19.4017 11.5624 19.6061 12.7345 19.9179 13.923C20.542 16.3018 21.6181 18.8271 22.4703 20.414Z" fill="#F8A428" stroke="#572316" stroke-width="0.827497"/>
<path d="M31.6827 10.1369C27.045 9.84707 25.7814 7.35984 22.6572 7.01271C24.0674 6.5615 26.4757 7.0995 27.4303 7.53341C28.3849 7.96732 33.0712 10.2237 31.6827 10.1369Z" fill="#F6DA90"/>
<path d="M29.4498 12.0461C22.9237 12.2543 20.5789 10.0646 20.2318 8.76282C18.4283 11.3518 22.7603 20.4051 22.8543 20.2037C24.0692 17.6002 27.9745 13.4346 29.4498 12.0461Z" fill="#AD7640"/>
<path d="M26.736 14.0421L24.7639 16.2985C23.792 15.5348 22.3969 11.0047 22.9176 9.61621L24.0458 10.6576L26.736 14.0421Z" fill="#FF5F95"/>
<path d="M24.7654 16.8226C24.0597 15.9975 23.016 14.3147 22.7189 12.4161C22.5537 11.3604 22.4526 10.5371 22.4897 9.95153C22.5081 9.66064 22.5591 9.46665 22.6258 9.34326C22.6775 9.24775 22.7394 9.19114 22.8258 9.15739C22.8552 9.16726 22.9032 9.18896 22.9716 9.23107C23.1199 9.32241 23.3102 9.47594 23.5343 9.68612C23.9793 10.1036 24.5032 10.6928 25.0095 11.3018C25.5138 11.9084 25.992 12.5242 26.3448 12.9891C26.521 13.2214 26.6655 13.4155 26.7658 13.5514C26.816 13.6194 26.8551 13.6727 26.8815 13.709L26.9116 13.7502L26.9191 13.7606L26.921 13.7632L26.9214 13.7638L26.9215 13.7639L27.2568 13.5215L26.9215 13.7639L26.9243 13.7678L26.9244 13.7679L26.9245 13.768L26.9245 13.7681L26.9246 13.7682L26.9248 13.7684L26.9276 13.7723L26.9405 13.7904C26.9521 13.8067 26.9688 13.8308 26.9884 13.8605C27.0283 13.921 27.0768 13.9995 27.1174 14.0789C27.1395 14.1221 27.1557 14.1586 27.167 14.1879L25.9337 15.5856L24.7654 16.8226ZM27.1881 14.2615C27.188 14.2615 27.1879 14.2603 27.1877 14.2582L27.1881 14.2615ZM22.8049 9.1517C22.8049 9.15168 22.8055 9.15174 22.8067 9.15198L22.8049 9.1517Z" stroke="#572316" stroke-width="0.827497"/>
<path d="M63.622 20.4237L63.2174 21.1118L62.8883 20.3846C62.348 19.1905 61.1632 17.3283 59.6213 15.3927C58.0817 13.4602 56.208 11.4823 54.304 10.0452L53.8119 9.6738L54.3422 9.35917C57.3802 7.5564 59.768 6.59626 61.7062 6.41354C63.68 6.22748 65.174 6.84986 66.371 8.14344C66.9428 8.76138 67.107 9.69457 67.0694 10.6884C67.0312 11.6977 66.7815 12.8611 66.4239 14.0365C65.7082 16.3893 64.535 18.8711 63.622 20.4237Z" fill="#F8A428" stroke="#572316" stroke-width="0.827497"/>
<path d="M54.8146 9.79757C59.4601 9.68764 60.819 7.25123 63.9543 7.0254C62.5627 6.5199 60.1354 6.96418 59.1647 7.36078C58.194 7.75739 53.4238 9.83049 54.8146 9.79757Z" fill="#F6DA90"/>
<path d="M56.9722 11.7919C63.4854 12.2529 65.9132 10.1556 66.3105 8.86825C68.0123 11.5252 63.3329 20.4038 63.2468 20.1989C62.1336 17.5503 58.3927 13.2365 56.9722 11.7919Z" fill="#AD7640"/>
<path d="M59.6072 13.8915L61.4904 16.2226C62.4912 15.4971 64.0607 11.0245 63.5942 9.61684L62.4265 10.6137L59.6072 13.8915Z" fill="#FF5F95"/>
<path d="M61.4684 16.7463C62.2055 15.9491 63.3136 14.308 63.684 12.4223C63.89 11.3739 64.0229 10.5551 64.0086 9.96847C64.0014 9.67709 63.958 9.48127 63.8961 9.35539C63.8482 9.25794 63.7885 9.19898 63.7035 9.16191C63.6737 9.17063 63.6249 9.19046 63.5549 9.22988C63.4032 9.31541 63.2071 9.46145 62.975 9.66279C62.5141 10.0628 61.9678 10.6311 61.4383 11.2201C60.9109 11.8067 60.4092 12.4035 60.0387 12.8544C59.8536 13.0797 59.7017 13.2681 59.5962 13.4C59.5434 13.466 59.5023 13.5178 59.4744 13.553L59.4428 13.593L59.4349 13.6031L59.4329 13.6056L59.4325 13.6062L59.4324 13.6063L59.1067 13.351L59.4324 13.6063L59.4294 13.6101L59.4293 13.6101L59.4292 13.6103L59.4292 13.6103L59.4291 13.6104L59.4289 13.6106L59.4259 13.6144L59.4123 13.632C59.4002 13.6478 59.3825 13.6713 59.3618 13.7002C59.3196 13.7592 59.2681 13.8357 59.2244 13.9134C59.2006 13.9557 59.183 13.9916 59.1707 14.0204L60.3489 15.4649L61.4684 16.7463ZM59.1467 14.0932C59.1468 14.0932 59.147 14.092 59.1472 14.0899L59.1467 14.0932ZM63.7246 9.15704C63.7246 9.15701 63.724 9.15706 63.7228 9.15725L63.7246 9.15704Z" stroke="#572316" stroke-width="0.827497"/>
<ellipse cx="36.1511" cy="18.7387" rx="3.38454" ry="1.33391" fill="white"/>
<ellipse rx="3.38454" ry="1.33391" transform="matrix(1 0 0 -1 49.9109 18.7387)" fill="white"/>
<path d="M34.0465 25.7863C31.2619 25.5839 29.8161 28.7294 29.7843 26.9084C29.7525 25.0874 31.8528 23.6632 34.2488 23.6214C35.8286 23.716 37.7556 25.1497 38.4613 26.7569C38.4931 28.578 36.3468 25.9536 34.0465 25.7863Z" fill="black"/>
<path d="M53.3942 25.1445C50.6096 24.942 49.1637 28.0876 49.1319 26.2666C49.1002 24.4455 51.2004 23.0214 53.5965 22.9795C55.1762 23.0742 57.1033 24.5078 57.8089 26.1151C57.8407 27.9361 55.6945 25.3117 53.3942 25.1445Z" fill="black"/>
<path d="M37.3232 36.1718C37.4968 36.2586 39.4928 37.7339 42.9641 36.085M42.9641 36.085C44.6998 36.7793 46.2619 37.2132 48.3447 36.1718M42.9641 36.085V35.3907" stroke="#572316" stroke-width="1.1585" stroke-linecap="round"/>
<path d="M42.7038 40.2506C41.1417 40.2506 39.9268 37.6471 39.9268 36.866C42.2986 36.5339 43.6293 36.5345 46.0016 36.866C45.9437 38.5438 44.2659 40.2506 42.7038 40.2506Z" fill="#572316"/>
<path fill-rule="evenodd" clip-rule="evenodd" d="M42.9721 38.5225C42.9783 38.4888 42.9818 38.4564 42.9818 38.4257C42.9818 38.0423 43.4571 37.7314 43.9364 37.7314C44.4157 37.7314 44.8042 38.0423 44.8042 38.4257C44.8042 38.8039 43.8971 39.5336 42.9563 39.4702C42.0047 39.5522 41.1416 38.8105 41.1416 38.4281C41.1416 38.0447 41.5301 37.7338 42.0094 37.7338C42.4887 37.7338 42.964 38.0447 42.964 38.4281C42.964 38.458 42.967 38.4896 42.9721 38.5225Z" fill="#FB609C"/>
<ellipse cx="42.9636" cy="33.3946" rx="3.73167" ry="2.08279" transform="rotate(-180 42.9636 33.3946)" fill="#572316"/>
<ellipse cx="42.8768" cy="32.1797" rx="1.21496" ry="0.520698" transform="rotate(-180 42.8768 32.1797)" fill="white"/>
</svg>
