<svg width="59" height="82" viewBox="0 0 59 82" fill="none" xmlns="http://www.w3.org/2000/svg">
<path d="M4.79677 53.2816L5.23047 53.2679C4.79677 53.2816 4.79678 53.2818 4.79678 53.282L4.7968 53.2826L4.79686 53.2844L4.79707 53.2901L4.79789 53.3104C4.79864 53.3278 4.79983 53.3529 4.80163 53.3853C4.80522 53.4499 4.81124 53.5437 4.82107 53.6632C4.84071 53.902 4.87558 54.2441 4.93672 54.6623C5.05884 55.4977 5.28649 56.6423 5.70947 57.8778C6.55246 60.3402 8.19381 63.2251 11.3852 64.684C17.4614 67.4617 19.8806 68.3682 23.802 68.3682C24.9635 68.3682 26.4587 68.3914 28.0696 68.4163C31.7054 68.4727 35.9307 68.5382 38.2401 68.367C43.5091 67.9764 46.8414 65.8287 48.8111 64.5593C48.9479 64.4711 49.0782 64.3871 49.202 64.3083C51.1984 63.0379 54.1152 59.7621 55.5405 55.6669L55.5545 55.6267L55.5604 55.5846C55.9132 53.0704 55.8447 51.0991 55.2759 49.191C54.7135 47.3041 53.6714 45.5122 52.132 43.3422C48.2799 33.2226 41.7809 26.5937 34.2333 24.729L34.2145 24.7244L34.1955 24.7214L34.1292 25.1503C34.1955 24.7214 34.1954 24.7214 34.1953 24.7214L34.1951 24.7214L34.1944 24.7213L34.1924 24.721L34.1854 24.7199L34.1596 24.7161C34.1373 24.7129 34.1047 24.7084 34.062 24.7027C33.9766 24.6914 33.851 24.6757 33.6869 24.6577C33.3589 24.6218 32.8772 24.5768 32.2569 24.5395C31.0162 24.4649 29.2205 24.4213 26.9893 24.5434C25.7931 24.6089 24.2054 25.1415 22.4748 26.0434C20.7342 26.9505 18.8138 28.2495 16.946 29.8871C13.2382 33.138 9.70623 37.7518 8.22394 43.3292C5.57385 46.1248 4.79655 49.8611 4.79655 53.2679H4.79634L4.79677 53.2816Z" fill="#F7A528" stroke="#572316" stroke-width="0.86783"/>
<path d="M22.6747 27.8405C20.1059 28.3265 13.7939 34.7542 10.959 37.9073C15.0104 30.1872 22.7594 26.1364 24.931 25.4106L24.9313 25.4105C25.2064 25.3186 31.5253 23.2067 38.556 26.5703C45.453 29.8701 50.3585 40.0769 48.536 37.0395C46.7136 34.0021 37.2542 26.1049 36.9071 27.8405C36.6294 29.2291 34.6507 29.6164 33.6093 29.6945C32.4522 29.7813 29.8082 29.9028 27.4477 29.6945C25.0873 29.4862 23.5425 29.1423 23.3689 28.2744C23.3331 28.095 23.2995 27.6322 22.6747 27.8405Z" fill="#F6DA90"/>
<path d="M55.4777 53.2995C55.8248 56.1633 52.4403 63.6266 44.7166 66.2301C40.7355 68.0348 37.8388 67.9105 28.468 68.0291C19.0971 68.1478 15.384 66.0566 10.384 63.8049C7.15304 61.8141 4.18896 55.469 5.57748 48.8735C6.78211 45.5926 7.13098 45.3886 13.0304 48.3421C14.5691 49.1124 16.6777 51.549 18.4984 51.9858C26.9329 45.2757 35.728 46.9309 41.5464 52.0448C43.7113 51.5318 45.0063 49.7202 46.0445 49.1179C55.385 42.4009 55.1306 50.4356 55.4777 53.2995Z" fill="white"/>
<path fill-rule="evenodd" clip-rule="evenodd" d="M55.0091 49.7605C54.2438 52.9896 50.9597 58.1914 44.3369 60.8557C40.3448 62.6782 35.0511 62.5914 28.1952 62.4178C19.3434 63.0253 14.2448 60.6375 10.0812 57.8122C8.04919 56.5601 6.13596 53.9995 5.34128 50.5013C4.56998 56.9577 7.30406 61.5029 9.49047 63.2844C13.8793 65.894 20.522 68.385 25.2515 68.1577C26.4898 68.1577 27.764 68.1744 29.0444 68.1912C34.8778 68.2677 40.8392 68.3459 44.1118 66.8529C52.4151 63.6502 55.6178 56.4145 55.4992 54.0421C55.4942 53.942 55.4894 53.8282 55.4841 53.7025C55.4454 52.7834 55.3799 51.2291 55.0091 49.7605Z" fill="#ACABCF"/>
<path d="M9.45353 38.0719L9.84956 38.8094L10.2239 38.0607C10.809 36.8905 12.0639 35.077 13.6792 33.2033C15.2918 31.3327 17.2395 29.4302 19.1958 28.0692L19.7266 27.7L19.1837 27.3487C16.2171 25.4291 13.8652 24.3752 11.931 24.1169C9.95976 23.8537 8.43651 24.4199 7.18584 25.6705C6.58477 26.2716 6.38441 27.2045 6.38347 28.2008C6.38252 29.2133 6.5874 30.3873 6.89939 31.5765C7.52391 33.957 8.60069 36.4839 9.45353 38.0719Z" fill="#F8A428" stroke="#572316" stroke-width="0.86783"/>
<path d="M18.6836 27.7853C14.0459 27.4955 12.7824 25.0083 9.6582 24.6611C11.0683 24.2099 13.4767 24.7479 14.4313 25.1818C15.3859 25.6158 20.0722 27.8721 18.6836 27.7853Z" fill="#F6DA90"/>
<path d="M16.4508 29.6945C9.92468 29.9028 7.57992 27.713 7.23279 26.4113C5.42933 29.0002 9.76126 38.0535 9.85525 37.8521C11.0702 35.2486 14.9755 31.083 16.4508 29.6945Z" fill="#AD7640"/>
<path d="M13.737 31.6906L11.7649 33.9469C10.7929 33.1832 9.39786 28.6532 9.91856 27.2646L11.0467 28.306L13.737 31.6906Z" fill="#FF5F95"/>
<path d="M11.7671 34.4408C11.064 33.6123 10.0342 31.9428 9.73982 30.0613C9.57459 29.0053 9.47388 28.1842 9.51079 27.6011C9.52912 27.3116 9.57976 27.1209 9.64454 27.0012C9.69267 26.9122 9.74911 26.8594 9.82726 26.8272C9.85527 26.8375 9.89972 26.8582 9.962 26.8966C10.1086 26.9869 10.2978 27.1393 10.5215 27.3491C10.9656 27.7658 11.4888 28.3542 11.995 28.963C12.499 29.5692 12.977 30.1848 13.3297 30.6496C13.5058 30.8818 13.6503 31.0759 13.7505 31.2117C13.8007 31.2797 13.8398 31.333 13.8662 31.3692L13.8962 31.4104L13.9038 31.4208L13.9056 31.4233L13.906 31.4239L13.9061 31.424L14.2577 31.1698L13.9061 31.4241L13.9091 31.4281L13.9092 31.4282L13.9093 31.4283L13.9093 31.4284L13.9094 31.4285L13.9095 31.4286L13.9123 31.4325L13.925 31.4503C13.9365 31.4665 13.953 31.4904 13.9725 31.5199C14.0122 31.5801 14.0602 31.6579 14.1004 31.7364C14.1196 31.7738 14.1341 31.8058 14.1447 31.8321L12.9197 33.2203L11.7671 34.4408ZM14.169 31.9121C14.169 31.9121 14.1688 31.911 14.1687 31.909L14.169 31.9121ZM9.8024 26.8199C9.80239 26.8198 9.80304 26.8199 9.8044 26.8202L9.8024 26.8199Z" stroke="#572316" stroke-width="0.86783"/>
<path d="M50.6384 38.0824L50.2141 38.8039L49.869 38.0413C49.3297 36.8493 48.146 34.9886 46.6045 33.0537C45.0656 31.122 43.1931 29.1455 41.2909 27.7098L40.7748 27.3202L41.3309 26.9903C44.3697 25.187 46.7607 24.225 48.7034 24.0419C50.6834 23.8552 52.1835 24.48 53.3848 25.7782C53.9621 26.4021 54.1262 27.3421 54.0886 28.3376C54.0503 29.3494 53.8001 30.5146 53.4422 31.6908C52.726 34.0454 51.5521 36.5286 50.6384 38.0824Z" fill="#F8A428" stroke="#572316" stroke-width="0.86783"/>
<path d="M41.8156 27.446C46.461 27.3361 47.82 24.8997 50.9553 24.6738C49.5637 24.1683 47.1364 24.6126 46.1656 25.0092C45.1949 25.4058 40.4248 27.4789 41.8156 27.446Z" fill="#F6DA90"/>
<path d="M43.9723 29.4403C50.4854 29.9013 52.9132 27.804 53.3105 26.5167C55.0123 29.1736 50.3329 38.0522 50.2468 37.8473C49.1336 35.1987 45.3927 30.885 43.9723 29.4403Z" fill="#AD7640"/>
<path d="M46.6072 31.5399L48.4904 33.871C49.4912 33.1456 51.0607 28.6729 50.5942 27.2653L49.4265 28.2622L46.6072 31.5399Z" fill="#FF5F95"/>
<path d="M48.4688 34.3645C49.2035 33.5639 50.2972 31.9355 50.6642 30.0669C50.8702 29.0181 51.0027 28.2014 50.9884 27.6174C50.9813 27.3274 50.9381 27.1349 50.878 27.0127C50.8333 26.922 50.779 26.867 50.7022 26.8318C50.6738 26.841 50.6285 26.86 50.5648 26.8959C50.4148 26.9804 50.2199 27.1255 49.9883 27.3265C49.5283 27.7256 48.9827 28.2933 48.4533 28.882C47.9262 29.4683 47.4246 30.0649 47.0543 30.5157C46.8693 30.7409 46.7174 30.9292 46.6119 31.0611C46.5592 31.127 46.5181 31.1787 46.4903 31.2139L46.4587 31.2539L46.4507 31.264L46.4488 31.2665L46.4483 31.2671L46.4482 31.2672L46.1067 30.9995L46.4483 31.2672L46.4451 31.2711L46.4451 31.2712L46.445 31.2713L46.4449 31.2714L46.4448 31.2715L46.4447 31.2716L46.4418 31.2753L46.4283 31.2927C46.4163 31.3084 46.3988 31.3317 46.3782 31.3604C46.3362 31.419 46.2852 31.4949 46.242 31.5718C46.2214 31.6083 46.2057 31.6398 46.1941 31.6657L47.3643 33.1003L48.4688 34.3645ZM46.1666 31.7447C46.1667 31.7447 46.1669 31.7436 46.1671 31.7416L46.1666 31.7447ZM50.7273 26.8254C50.7273 26.8254 50.7266 26.8255 50.7253 26.8257L50.7273 26.8254Z" stroke="#572316" stroke-width="0.86783"/>
<ellipse cx="23.1502" cy="36.3872" rx="3.38454" ry="1.33391" fill="white"/>
<ellipse rx="3.38454" ry="1.33391" transform="matrix(1 0 0 -1 36.9109 36.3873)" fill="white"/>
<ellipse cx="21.8927" cy="43.4063" rx="3.29775" ry="4.33915" transform="rotate(-180 21.8927 43.4063)" fill="black"/>
<ellipse cx="23.1083" cy="42.1045" rx="1.21496" ry="1.64888" transform="rotate(-180 23.1083 42.1045)" fill="white"/>
<ellipse cx="37.8605" cy="43.4063" rx="3.29775" ry="4.33915" transform="rotate(-180 37.8605 43.4063)" fill="black"/>
<ellipse cx="36.8192" cy="42.1045" rx="1.21496" ry="1.64888" transform="rotate(-180 36.8192 42.1045)" fill="white"/>
<path d="M24.3232 53.8202C24.4968 53.907 26.4928 55.3823 29.9641 53.7334M29.9641 53.7334C31.6998 54.4277 33.2619 54.8616 35.3447 53.8202M29.9641 53.7334V53.0392" stroke="#572316" stroke-width="1.21496" stroke-linecap="round"/>
<path d="M29.7038 57.899C28.1417 57.899 26.9268 55.2955 26.9268 54.5145C29.2986 54.1824 30.6293 54.183 33.0016 54.5145C32.9437 56.1923 31.2659 57.899 29.7038 57.899Z" fill="#572316"/>
<path fill-rule="evenodd" clip-rule="evenodd" d="M29.9729 56.1698C29.979 56.1365 29.9824 56.1045 29.9824 56.0741C29.9824 55.6907 30.4577 55.3799 30.937 55.3799C31.4163 55.3799 31.8048 55.6907 31.8048 56.0741C31.8048 56.4524 30.8975 57.1822 29.9565 57.1186C29.0053 57.2002 28.1426 56.4588 28.1426 56.0765C28.1426 55.693 28.5311 55.3822 29.0104 55.3822C29.4897 55.3822 29.965 55.693 29.965 56.0765C29.965 56.1061 29.9679 56.1373 29.9729 56.1698Z" fill="#FB609C"/>
<ellipse cx="29.9627" cy="51.0431" rx="3.73167" ry="2.08279" transform="rotate(-180 29.9627 51.0431)" fill="#572316"/>
<ellipse cx="29.8768" cy="49.8282" rx="1.21496" ry="0.520698" transform="rotate(-180 29.8768 49.8282)" fill="white"/>
<path d="M29.5774 18.075C34.406 18.075 38.3248 14.2107 38.3248 9.43836C38.3248 4.66606 34.406 0.801734 29.5774 0.801734C24.7488 0.801734 20.8301 4.66606 20.8301 9.43836C20.8301 14.2107 24.7488 18.075 29.5774 18.075Z" fill="#F9C710" stroke="#572316" stroke-width="0.396533"/>
<path fill-rule="evenodd" clip-rule="evenodd" d="M34.0608 16.6211C36.4973 15.1343 38.1207 12.4735 38.1207 9.43836C38.1207 4.77798 34.2932 1 29.5716 1C27.6004 1 25.785 1.65852 24.3389 2.76484C25.6436 1.9687 27.1815 1.50921 28.8281 1.50921C33.5496 1.50921 37.3772 5.2872 37.3772 9.94758C37.3772 12.6623 36.0784 15.0775 34.0608 16.6211Z" fill="#F5E3A4"/>
<path fill-rule="evenodd" clip-rule="evenodd" d="M37.0897 13.4516C35.5226 15.3721 33.1206 16.601 30.4279 16.601C25.7063 16.601 21.8788 12.823 21.8788 8.16261C21.8788 6.72351 22.2437 5.36854 22.8873 4.18298C21.7067 5.62993 21 7.4695 21 9.47199C21 14.1324 24.8276 17.9104 29.5491 17.9104C32.8127 17.9104 35.6491 16.1054 37.0897 13.4516Z" fill="#F89E1D"/>
<ellipse cx="29.4769" cy="9.07471" rx="5.74446" ry="5.67407" fill="#F89F1D"/>
<path fill-rule="evenodd" clip-rule="evenodd" d="M34.9171 10.8989C34.0162 12.8688 32.0098 14.2396 29.6792 14.2396C26.5067 14.2396 23.9348 11.6993 23.9348 8.56557C23.9348 7.92745 24.0414 7.31393 24.2381 6.74146C23.9126 7.45316 23.7314 8.24306 23.7314 9.07475C23.7314 12.2085 26.3033 14.7488 29.4759 14.7488C32.0024 14.7488 34.148 13.1377 34.9171 10.8989Z" fill="white"/>
<path fill-rule="evenodd" clip-rule="evenodd" d="M34.1184 12.4976C34.8481 11.5461 35.281 10.3603 35.281 9.07459C35.281 5.94088 32.7091 3.40051 29.5366 3.40051C27.3517 3.40051 25.4517 4.60532 24.4805 6.37901C25.5293 5.0114 27.1914 4.12794 29.0623 4.12794C32.2349 4.12794 34.8067 6.66831 34.8067 9.80201C34.8067 10.7776 34.5575 11.6957 34.1184 12.4976Z" fill="#AE703F"/>
<g filter="url(#filter0_d_692_153)">
<path fill-rule="evenodd" clip-rule="evenodd" d="M28.683 5.80115H29.5015V5.95369H29.9618V5.85623H30.7804V6.01229C31.1184 6.07323 31.388 6.18169 31.589 6.33768C31.9237 6.58875 32.0911 6.97028 32.0911 7.48227V7.50442C32.0911 7.71611 32.0296 7.90564 31.9065 8.07302C31.7834 8.23548 31.648 8.35363 31.5004 8.42747C31.6973 8.50624 31.8622 8.64654 31.9951 8.84838C32.1329 9.0453 32.2019 9.26191 32.2019 9.49821C32.2019 10.393 31.728 10.9182 30.7804 11.0737V11.6935H29.9618V11.1228H29.5015V11.6384H28.683V11.1228H27.594C27.5399 11.1228 27.4931 11.1031 27.4537 11.0637C27.4143 11.0243 27.3946 10.9776 27.3946 10.9234V10.7022H26.8408V9.71099H27.3946V7.83869H26.8408V6.84746H27.3946V6.15307C27.3946 6.09892 27.4143 6.05215 27.4537 6.01277C27.4931 5.97339 27.5399 5.95369 27.594 5.95369H28.683V5.80115ZM30.0825 7.7998C30.1367 7.7358 30.1638 7.65949 30.1638 7.57088C30.1638 7.48227 30.1367 7.4035 30.0825 7.33458C30.0333 7.26073 29.9595 7.22381 29.861 7.22381H29.2407V7.89579H29.861C29.9595 7.89579 30.0333 7.86379 30.0825 7.7998ZM29.2407 9.12899V9.85266H29.9275C30.0407 9.85266 30.1244 9.81574 30.1785 9.74189C30.2376 9.66313 30.2672 9.57698 30.2672 9.48344V9.47605C30.2672 9.38252 30.2352 9.30129 30.1712 9.23237C30.1121 9.16345 30.0309 9.12899 29.9275 9.12899H29.2407Z" fill="#F8F9BA"/>
</g>
<defs>
<filter id="filter0_d_692_153" x="26.6007" y="5.80115" width="5.84161" height="6.37262" filterUnits="userSpaceOnUse" color-interpolation-filters="sRGB">
<feFlood flood-opacity="0" result="BackgroundImageFix"/>
<feColorMatrix in="SourceAlpha" type="matrix" values="0 0 0 0 0 0 0 0 0 0 0 0 0 0 0 0 0 0 127 0" result="hardAlpha"/>
<feOffset dy="0.240143"/>
<feGaussianBlur stdDeviation="0.120072"/>
<feComposite in2="hardAlpha" operator="out"/>
<feColorMatrix type="matrix" values="0 0 0 0 0 0 0 0 0 0 0 0 0 0 0 0 0 0 0.25 0"/>
<feBlend mode="normal" in2="BackgroundImageFix" result="effect1_dropShadow_692_153"/>
<feBlend mode="normal" in="SourceGraphic" in2="effect1_dropShadow_692_153" result="shape"/>
</filter>
</defs>
</svg>
