<svg width="273" height="341" viewBox="0 0 273 341" fill="none" xmlns="http://www.w3.org/2000/svg">
<ellipse cx="136.5" cy="302" rx="136.5" ry="39" fill="#C4C4C4"/>
<path d="M117.17 258.5C117.17 266.987 112.243 274.86 103.894 280.687C95.5506 286.51 83.9266 290.17 71 290.17C58.0734 290.17 46.4494 286.51 38.1062 280.687C29.7569 274.86 24.83 266.987 24.83 258.5C24.83 250.013 29.7569 242.14 38.1062 236.313C46.4494 230.49 58.0734 226.83 71 226.83C83.9266 226.83 95.5506 230.49 103.894 236.313C112.243 242.14 117.17 250.013 117.17 258.5Z" fill="#F7A528" stroke="#572316" stroke-width="3.66"/>
<path d="M250.17 258.5C250.17 266.987 245.243 274.86 236.894 280.687C228.551 286.51 216.927 290.17 204 290.17C191.073 290.17 179.449 286.51 171.106 280.687C162.757 274.86 157.83 266.987 157.83 258.5C157.83 250.013 162.757 242.14 171.106 236.313C179.449 230.49 191.073 226.83 204 226.83C216.927 226.83 228.551 230.49 236.894 236.313C245.243 242.14 250.17 250.013 250.17 258.5Z" fill="#F7A528" stroke="#572316" stroke-width="3.66"/>
<mask id="path-4-inside-1_989_390" fill="white">
<path fill-rule="evenodd" clip-rule="evenodd" d="M141.313 303.976C192.988 303.921 217.646 301.67 223.5 209C220.5 152 195.041 124 140.695 124C86.3485 124 50 159 50 209C56.2746 302.636 81.2383 303.999 131.848 303.981L136.997 262.341L141.313 303.976Z"/>
</mask>
<path fill-rule="evenodd" clip-rule="evenodd" d="M141.313 303.976C192.988 303.921 217.646 301.67 223.5 209C220.5 152 195.041 124 140.695 124C86.3485 124 50 159 50 209C56.2746 302.636 81.2383 303.999 131.848 303.981L136.997 262.341L141.313 303.976Z" fill="#F7A528"/>
<path d="M223.5 209L227.151 209.231L227.164 209.019L227.153 208.808L223.5 209ZM141.313 303.976L137.674 304.353L138.015 307.638L141.317 307.634L141.313 303.976ZM50 209H46.3419V209.122L46.3501 209.245L50 209ZM131.848 303.981L131.849 307.639L135.081 307.638L135.478 304.43L131.848 303.981ZM136.997 262.341L140.636 261.964L133.367 261.892L136.997 262.341ZM219.849 208.769C216.919 255.148 209.287 277.448 197.127 288.513C191.123 293.977 183.74 296.949 174.511 298.54C165.197 300.145 154.277 300.304 141.309 300.318L141.317 307.634C154.187 307.621 165.727 307.478 175.753 305.75C185.863 304.007 194.7 300.614 202.051 293.924C216.603 280.682 224.226 255.522 227.151 209.231L219.849 208.769ZM140.695 127.658C167.258 127.658 186.096 134.489 198.711 147.656C211.389 160.888 218.37 181.125 219.847 209.192L227.153 208.808C225.63 179.875 218.382 157.612 203.994 142.594C189.542 127.511 168.478 120.342 140.695 120.342V127.658ZM53.6581 209C53.6581 184.923 62.3893 164.663 77.4794 150.409C92.5843 136.142 114.314 127.658 140.695 127.658V120.342C112.729 120.342 89.1116 129.358 72.4556 145.091C55.785 160.837 46.3419 183.077 46.3419 209H53.6581ZM131.846 300.323C119.132 300.327 108.394 300.236 99.1903 298.706C90.0748 297.191 82.7449 294.303 76.7484 288.894C64.5993 277.936 56.7901 255.618 53.6499 208.755L46.3501 209.245C49.4844 256.018 57.2944 281.199 71.8482 294.327C79.2032 300.961 87.9956 304.262 97.9907 305.924C107.898 307.57 119.259 307.643 131.849 307.639L131.846 300.323ZM135.478 304.43L140.628 262.79L133.367 261.892L128.217 303.532L135.478 304.43ZM133.359 262.719L137.674 304.353L144.952 303.599L140.636 261.964L133.359 262.719Z" fill="#572316" mask="url(#path-4-inside-1_989_390)"/>
<ellipse cx="138.5" cy="225.5" rx="54.5" ry="29.5" fill="white"/>
<path d="M218.97 170.205C218.457 178.453 191.872 218.207 131.186 212.676C86.3369 209.889 62.6252 181.797 54.5388 170.406C63.7115 168.121 91.1631 170.374 136.012 173.161C180.861 175.947 219.482 161.957 218.97 170.205Z" fill="black" fill-opacity="0.3"/>
<path d="M31.2197 126.538V126.567L31.2206 126.596L33.0487 126.538C31.2206 126.596 31.2206 126.596 31.2206 126.597L31.2207 126.6L31.221 126.607L31.2218 126.631L31.2253 126.717C31.2285 126.79 31.2335 126.896 31.2411 127.032C31.2562 127.305 31.2816 127.7 31.323 128.204C31.4058 129.211 31.5528 130.652 31.8105 132.415C32.3253 135.937 33.2848 140.761 35.0678 145.969C38.6212 156.349 45.5398 168.509 58.9922 174.659C84.6047 186.367 94.8019 190.188 111.332 190.188C116.228 190.188 122.53 190.286 129.32 190.391C144.646 190.629 162.457 190.905 172.191 190.183C194.401 188.537 208.447 179.484 216.75 174.133C217.327 173.761 217.876 173.408 218.398 173.075C226.813 167.72 239.108 153.912 245.116 136.65L245.175 136.481L245.2 136.303C246.687 125.705 246.398 117.396 244 109.353C241.63 101.399 237.237 93.8458 230.748 84.699C214.511 42.0425 187.116 14.1005 155.301 6.24034L155.223 6.22084L155.142 6.20842L154.863 8.016C155.142 6.20842 155.142 6.20837 155.141 6.20831L155.14 6.20816L155.138 6.20773L155.129 6.20642L155.099 6.20197C155.074 6.19821 155.038 6.19287 154.991 6.18611C154.897 6.17259 154.759 6.15335 154.579 6.1295C154.22 6.08179 153.69 6.01564 152.999 5.93992C151.616 5.78847 149.585 5.59868 146.97 5.44152C141.741 5.12723 134.171 4.94331 124.767 5.45808C119.725 5.73405 113.032 7.97919 105.737 11.7809C98.4001 15.6043 90.3051 21.0802 82.4322 27.9828C66.8028 41.6862 51.9149 61.134 45.6668 84.6441C34.4961 96.4281 31.2197 112.177 31.2197 126.538Z" fill="#F7A528" stroke="#572316" stroke-width="3.65808"/>
<path d="M106.576 19.356C95.7481 21.4045 69.1416 48.4987 57.1919 61.7897C74.2696 29.2475 106.933 12.1728 116.087 9.11337L116.088 9.11295C117.248 8.72546 143.883 -0.176696 173.519 14.0018C202.591 27.9109 223.269 70.9349 215.587 58.1316C207.905 45.3284 168.032 12.0398 166.568 19.356C165.398 25.2089 157.057 26.8417 152.668 27.1709C147.79 27.5367 136.645 28.0489 126.695 27.1709C116.745 26.293 110.234 24.8431 109.502 21.185C109.351 20.4288 109.21 18.4781 106.576 19.356Z" fill="#F6DA90"/>
<path d="M244.851 126.671C246.315 138.742 232.048 170.202 199.491 181.176C182.71 188.783 170.5 188.259 131 188.759C91.5 189.259 75.8482 180.445 54.7723 170.953C41.1531 162.562 28.6589 135.816 34.5119 108.015C39.5896 94.1845 41.0602 93.3248 65.9276 105.774C72.4134 109.021 81.3016 119.292 88.9762 121.133C124.529 92.8489 161.602 99.826 186.128 121.382C195.254 119.22 200.712 111.584 205.088 109.045C244.461 80.7309 243.388 114.599 244.851 126.671Z" fill="white"/>
<path fill-rule="evenodd" clip-rule="evenodd" d="M242.872 111.759C239.643 125.371 225.8 147.293 197.888 158.522C181.061 166.204 158.746 165.838 129.847 165.106C92.5351 167.667 71.0436 157.602 53.4932 145.693C44.9261 140.414 36.86 129.617 33.5114 114.867C30.2568 142.087 41.7829 161.249 51.0001 168.759C69.5001 179.759 97.5001 190.259 117.436 189.301C122.656 189.301 128.027 189.371 133.424 189.442C158.013 189.765 183.141 190.094 196.936 183.801C231.936 170.301 245.436 139.801 244.936 129.801C244.915 129.379 244.895 128.899 244.873 128.37C244.71 124.497 244.434 117.948 242.872 111.759Z" fill="#ACABCF"/>
<path d="M50.8458 61.7243L52.5151 64.8328L54.0931 61.6769C56.5594 56.7442 61.8491 49.1001 68.6577 41.2022C75.4554 33.3169 83.6651 25.2976 91.9115 19.5609L94.1489 18.0045L91.8606 16.5238C79.3556 8.4323 69.4418 3.98985 61.289 2.90119C52.9796 1.79164 46.5588 4.17807 41.287 9.44994C38.7534 11.9836 37.9088 15.9161 37.9049 20.1154C37.9008 24.3833 38.7645 29.3319 40.0796 34.3448C42.7121 44.3792 47.2509 55.0304 50.8458 61.7243Z" fill="#F8A428" stroke="#572316" stroke-width="3.65808"/>
<path d="M89.7489 18.3641C70.2 17.1424 64.8739 6.65821 51.7048 5.195C57.6488 3.29306 67.8004 5.56082 71.8243 7.38985C75.8482 9.21888 95.6018 18.7299 89.7489 18.3641Z" fill="#F6DA90"/>
<path d="M80.3386 26.4118C52.8299 27.2897 42.9462 18.0594 41.483 12.5723C33.881 23.4853 52.141 61.6467 52.5372 60.7977C57.6585 49.8235 74.1199 32.2647 80.3386 26.4118Z" fill="#AD7640"/>
<path d="M68.8978 34.8254L60.585 44.3364C56.488 41.1173 50.6074 22.0221 52.8023 16.1692L57.5578 20.5589L68.8978 34.8254Z" fill="#FF5F95"/>
<path d="M60.5942 46.4184C57.6304 42.9261 53.2896 35.8889 52.0487 27.9581C51.3523 23.5068 50.9278 20.0455 51.0834 17.5879C51.1606 16.3675 51.3741 15.5637 51.6471 15.059C51.85 14.684 52.0879 14.4615 52.4173 14.3258C52.5354 14.3689 52.7228 14.4564 52.9853 14.618C53.6034 14.9986 54.4008 15.6413 55.3435 16.5257C57.2157 18.2821 59.4212 20.7621 61.5548 23.3286C63.6792 25.884 65.6943 28.4786 67.1807 30.438C67.9232 31.4167 68.5321 32.2348 68.9548 32.8074C69.1661 33.0936 69.3309 33.3184 69.4424 33.4712C69.4981 33.5475 69.5406 33.6059 69.5689 33.6448L69.6007 33.6886L69.6084 33.6993L69.6102 33.7018L69.6106 33.7023L71.0927 32.6306L69.6106 33.7024L69.6175 33.7118L69.6231 33.7194L69.6234 33.7198L69.6238 33.7203L69.6241 33.7207L69.6244 33.7212L69.6248 33.7217L69.6365 33.7378C69.648 33.7535 69.6663 33.779 69.6903 33.813C69.7384 33.8811 69.8084 33.9821 69.8904 34.1065C70.0578 34.3602 70.2602 34.688 70.4297 35.0189C70.5103 35.1764 70.5713 35.3114 70.6161 35.4224L65.4528 41.274L60.5942 46.4184ZM70.7188 35.7597C70.7187 35.7595 70.718 35.7549 70.7173 35.7464C70.7187 35.7556 70.719 35.7598 70.7188 35.7597ZM52.3126 14.2947C52.3125 14.2946 52.3152 14.295 52.3209 14.2962C52.3155 14.2955 52.3126 14.2949 52.3126 14.2947Z" stroke="#572316" stroke-width="3.65808"/>
<path d="M224.451 61.7684L222.662 64.8099L221.208 61.5952C218.934 56.5707 213.945 48.7274 207.447 40.5716C200.96 32.4288 193.067 24.0975 185.049 18.0456L182.874 16.4037L185.218 15.0128C198.027 7.41183 208.106 3.3568 216.294 2.58483C224.641 1.79804 230.964 4.43144 236.028 9.9036C238.461 12.5335 239.153 16.4958 238.994 20.6921C238.833 24.9569 237.778 29.8684 236.27 34.8265C233.25 44.7515 228.302 55.2188 224.451 61.7684Z" fill="#F8A428" stroke="#572316" stroke-width="3.65808"/>
<path d="M187.257 16.9334C206.838 16.47 212.567 6.20007 225.783 5.24817C219.917 3.11737 209.685 4.99012 205.593 6.66188C201.502 8.33363 181.394 17.0722 187.257 16.9334Z" fill="#F6DA90"/>
<path d="M196.348 25.3397C223.802 27.2828 234.036 18.4423 235.711 13.016C242.884 24.2154 223.16 61.6407 222.797 60.777C218.104 49.6126 202.336 31.4292 196.348 25.3397Z" fill="#AD7640"/>
<path d="M207.455 34.1904L215.393 44.0163C219.611 40.9583 226.227 22.1053 224.261 16.1717L219.339 20.3739L207.455 34.1904Z" fill="#FF5F95"/>
<path d="M215.303 46.0964C218.4 42.7216 223.01 35.8578 224.557 27.9811C225.426 23.56 225.984 20.1178 225.924 17.656C225.894 16.4335 225.712 15.6221 225.458 15.1072C225.27 14.7246 225.041 14.493 224.717 14.3447C224.597 14.3832 224.407 14.4633 224.138 14.6147C223.506 14.9711 222.684 15.5824 221.708 16.4296C219.769 18.1121 217.469 20.5048 215.238 22.9867C213.016 25.4578 210.902 27.9725 209.341 29.8728C208.561 30.822 207.921 31.6159 207.476 32.1717C207.254 32.4495 207.08 32.6678 206.963 32.8161C206.904 32.8902 206.86 32.9468 206.83 32.9847L206.796 33.0272L206.788 33.0376L206.786 33.04L206.786 33.0405L205.346 31.9121L206.786 33.0406L206.779 33.0497L206.773 33.0571L206.772 33.0575L206.772 33.058L206.772 33.0584L206.771 33.0588L206.771 33.0593L206.759 33.075C206.747 33.0903 206.727 33.115 206.702 33.148C206.651 33.2142 206.577 33.3125 206.491 33.4335C206.314 33.6805 206.099 34.0003 205.917 34.3244C205.83 34.4786 205.764 34.6112 205.715 34.7203L210.647 40.7676L215.303 46.0964ZM205.599 35.0534C205.599 35.0532 205.6 35.0487 205.601 35.0402C205.599 35.0493 205.599 35.0535 205.599 35.0534ZM224.823 14.3177C224.823 14.3176 224.82 14.3178 224.814 14.3188C224.82 14.3183 224.823 14.3178 224.823 14.3177Z" stroke="#572316" stroke-width="3.65808"/>
<path d="M95.052 79.4659C100.772 81.3785 105.952 74.7225 111.451 76.2221C116.951 77.7217 117.953 112.016 111.451 148.016C111.451 148.016 109.801 162.715 104.95 168.016C100.098 173.316 95.6378 164.61 95.6378 164.61C109.453 122.016 89.332 77.5532 95.052 79.4659Z" fill="#89EAFF"/>
<path d="M182.906 76.4659C177.186 78.3785 172.006 71.7225 166.507 73.2221C161.007 74.7217 160.005 109.016 166.507 145.016C166.507 145.016 167.992 196 179.495 193C190.999 190 183.499 174.5 183.499 174.5C169.684 131.906 188.626 74.5532 182.906 76.4659Z" fill="#89EAFF"/>
<path d="M116.501 137C119.931 132.548 123.001 125.814 137.304 131.5M137.304 131.5C154.501 124.5 157.963 135.273 160.001 137M137.304 131.5V124.814" stroke="#572316" stroke-width="5.12131" stroke-linecap="round"/>
<ellipse cx="137.304" cy="116.401" rx="15.7297" ry="8.77939" transform="rotate(-180 137.304 116.401)" fill="#572316"/>
<ellipse cx="136.938" cy="111.279" rx="5.12131" ry="2.19485" transform="rotate(-180 136.938 111.279)" fill="white"/>
<ellipse cx="110.204" cy="49.6225" rx="14.2665" ry="5.62269" transform="rotate(-20.4724 110.204 49.6225)" fill="white"/>
<ellipse rx="14.2665" ry="5.62269" transform="matrix(0.94584 0.324634 0.324634 -0.94584 166.319 49.9499)" fill="white"/>
<path d="M91.9738 71.5867C94.8643 64.9174 99.6193 70.0308 106.859 73.1685C114.098 76.3062 121.081 76.28 118.19 82.9493C115.3 89.6185 110.235 85.2192 102.996 82.0815C95.7563 78.9438 89.0832 78.2559 91.9738 71.5867Z" fill="black"/>
<path d="M94.286 86.9299C88.9829 81.5194 95.5026 79.2166 101.024 73.8043C106.546 68.392 108.979 61.9198 114.282 67.3303C119.586 72.7407 113.634 75.6228 108.112 81.0351C102.59 86.4474 99.5892 92.3404 94.286 86.9299Z" fill="black"/>
<path d="M187.203 69.9773C184.312 63.3081 179.557 68.4214 172.318 71.5591C165.078 74.6968 158.096 74.6707 160.986 81.3399C163.877 88.0091 168.941 83.6098 176.181 80.4721C183.42 77.3344 190.093 76.6465 187.203 69.9773Z" fill="black"/>
<path d="M184.887 85.3205C190.19 79.9101 183.67 77.6073 178.149 72.195C172.627 66.7827 170.194 60.3104 164.891 65.7209C159.588 71.1314 165.539 74.0135 171.061 79.4257C176.583 84.838 179.584 90.731 184.887 85.3205Z" fill="black"/>
<path d="M71.4841 295.598C70.7656 300.957 73.9423 306.082 78.826 309.907C83.7674 313.778 90.7718 316.603 98.5696 317.354C106.369 318.104 113.861 316.672 119.621 313.824C125.322 311.005 129.662 306.602 130.377 301.264C131.124 295.694 127.444 291.633 122.309 288.927C117.134 286.201 109.967 284.526 102.365 283.795C94.7662 283.064 87.5818 283.357 82.0592 285.068C76.5269 286.782 72.2211 290.101 71.4841 295.598Z" fill="#B0B5D3" stroke="#572316" stroke-width="3.65808"/>
<path d="M104.683 314.774C93.0091 313.651 84.023 305.082 85.1364 296.778C86.2498 288.474 96.1943 285.799 107.869 286.922C117.658 287.864 129.339 292.619 128.226 300.923C127.113 309.228 116.066 315.489 104.683 314.774Z" fill="white"/>
<path d="M108.566 316.166C109.798 314.634 111.841 310.641 110.146 306.927" stroke="#572316" stroke-width="3.65808" stroke-linecap="round"/>
<path d="M93.2296 315.071C94.4625 313.539 96.5046 309.546 94.8097 305.832" stroke="#572316" stroke-width="3.65808" stroke-linecap="round"/>
<path d="M200.785 295.598C201.504 300.957 198.327 306.082 193.443 309.907C188.502 313.778 181.498 316.603 173.7 317.354C165.901 318.104 158.408 316.672 152.649 313.824C146.948 311.005 142.608 306.602 141.892 301.264C141.145 295.694 144.826 291.633 149.961 288.927C155.135 286.201 162.303 284.526 169.905 283.795C177.503 283.064 184.688 283.357 190.21 285.068C195.743 286.782 200.048 290.101 200.785 295.598Z" fill="#B0B5D3" stroke="#572316" stroke-width="3.65808"/>
<path d="M167.586 314.774C179.26 313.651 188.247 305.082 187.133 296.778C186.02 288.474 176.075 285.799 164.401 286.922C154.612 287.864 142.93 292.619 144.044 300.923C145.157 309.228 156.204 315.489 167.586 314.774Z" fill="white"/>
<path d="M163.704 316.166C162.471 314.634 160.429 310.641 162.124 306.927" stroke="#572316" stroke-width="3.65808" stroke-linecap="round"/>
<path d="M179.04 315.071C177.807 313.539 175.765 309.546 177.46 305.832" stroke="#572316" stroke-width="3.65808" stroke-linecap="round"/>
<path d="M37.0381 262.48C34.7746 263.445 32.4217 265.242 30.0169 268.178C28.2328 267.302 25.8944 266.821 23.5415 267.913C20.6741 269.244 18.3379 272.664 16.9439 278.991C15.1553 287.109 17.0407 297.668 21.0402 306.399C23.0486 310.783 25.6236 314.783 28.617 317.831C31.6046 320.873 35.0869 323.043 38.8993 323.583C45.8275 324.566 50.0265 324.109 52.9922 322.915C55.2029 322.025 56.7154 320.687 57.9596 319.585C58.3437 319.245 58.7021 318.928 59.0477 318.654C60.1265 317.797 61.4385 316.03 62.7323 313.69C64.0538 311.299 65.4336 308.168 66.5938 304.446C68.9145 297 70.3743 287.132 68.6866 276.028C67.8421 270.472 66.3131 266.821 64.3023 264.58C62.2297 262.27 59.7572 261.583 57.4245 261.736C55.1661 261.885 53.0735 262.814 51.5595 263.651C50.791 264.076 50.143 264.494 49.6732 264.803C49.6286 264.833 49.5865 264.86 49.5467 264.887C49.5116 264.861 49.4745 264.833 49.4357 264.804C49.1677 264.605 48.8189 264.346 48.4708 264.104C47.3721 263.34 45.7992 262.389 43.8555 261.902C41.8838 261.409 39.5665 261.403 37.0381 262.48ZM49.0038 265.238C48.9853 265.248 48.9879 265.246 49.007 265.236C49.0058 265.237 49.0048 265.237 49.0038 265.238Z" fill="white" stroke="#572317" stroke-width="2.83568"/>
<path fill-rule="evenodd" clip-rule="evenodd" d="M24.4736 269.199C21.8683 269.845 19.2168 272.583 17.6498 279.627C14.215 295.07 24.863 320.549 38.6024 322.48C48.7421 323.904 52.5212 322.175 55.186 320.084C52.8182 320.371 49.7798 320.284 45.7502 319.624C31.8806 317.352 21.1192 287.47 24.4736 269.199Z" fill="#ACABCF"/>
<ellipse cx="28.3176" cy="283.532" rx="5.83028" ry="8.13514" fill="#572316"/>
<ellipse cx="42.7222" cy="278.883" rx="5.83028" ry="8.13514" fill="#572316"/>
<ellipse cx="57.8114" cy="277.333" rx="5.83028" ry="8.13514" fill="#572316"/>
<ellipse cx="44.4366" cy="304.451" rx="10.9746" ry="12.7838" fill="#572316"/>
<path d="M234.962 261.48C237.225 262.445 239.578 264.242 241.983 267.178C243.767 266.302 246.106 265.821 248.458 266.913C251.326 268.244 253.662 271.664 255.056 277.991C256.845 286.109 254.959 296.668 250.96 305.399C248.951 309.783 246.376 313.783 243.383 316.831C240.395 319.873 236.913 322.043 233.101 322.583C226.173 323.566 221.973 323.109 219.008 321.915C216.797 321.025 215.285 319.687 214.04 318.585C213.656 318.245 213.298 317.928 212.952 317.654C211.874 316.797 210.562 315.03 209.268 312.69C207.946 310.299 206.566 307.168 205.406 303.446C203.085 296 201.626 286.132 203.313 275.028C204.158 269.472 205.687 265.821 207.698 263.58C209.77 261.27 212.243 260.583 214.576 260.736C216.834 260.885 218.927 261.814 220.44 262.651C221.209 263.076 221.857 263.494 222.327 263.803C222.371 263.833 222.413 263.86 222.453 263.887C222.488 263.861 222.525 263.833 222.564 263.804C222.832 263.605 223.181 263.346 223.529 263.104C224.628 262.34 226.201 261.389 228.144 260.902C230.116 260.409 232.434 260.403 234.962 261.48ZM222.996 264.238C223.015 264.248 223.012 264.246 222.993 264.236C222.994 264.237 222.995 264.237 222.996 264.238Z" fill="white" stroke="#572317" stroke-width="2.83568"/>
<path fill-rule="evenodd" clip-rule="evenodd" d="M247.526 268.199C250.132 268.845 252.783 271.583 254.35 278.627C257.785 294.07 247.137 319.549 233.398 321.48C223.258 322.904 219.479 321.175 216.814 319.084C219.182 319.371 222.22 319.284 226.25 318.624C240.119 316.352 250.881 286.47 247.526 268.199Z" fill="#ACABCF"/>
<ellipse rx="5.83028" ry="8.13514" transform="matrix(-1 0 0 1 243.682 282.532)" fill="#572316"/>
<ellipse rx="5.83028" ry="8.13514" transform="matrix(-1 0 0 1 229.278 277.883)" fill="#572316"/>
<ellipse rx="5.83028" ry="8.13514" transform="matrix(-1 0 0 1 214.189 276.333)" fill="#572316"/>
<ellipse rx="10.9746" ry="12.7838" transform="matrix(-1 0 0 1 227.563 303.451)" fill="#572316"/>
<path d="M31.2197 126.538V126.567L31.2206 126.596L33.0487 126.538C31.2206 126.596 31.2206 126.596 31.2206 126.597L31.2207 126.6L31.221 126.607L31.2218 126.631L31.2253 126.717C31.2285 126.79 31.2335 126.896 31.2411 127.032C31.2562 127.305 31.2816 127.7 31.323 128.204C31.4058 129.211 31.5528 130.652 31.8105 132.415C32.3253 135.937 33.2848 140.761 35.0678 145.969C38.6212 156.349 45.5398 168.509 58.9922 174.659C84.6047 186.367 94.8019 190.188 111.332 190.188C116.228 190.188 122.53 190.286 129.32 190.391C144.646 190.629 162.457 190.905 172.191 190.183C194.401 188.537 208.447 179.484 216.75 174.133C217.327 173.761 217.876 173.408 218.398 173.075C226.813 167.72 239.108 153.912 245.116 136.65L245.175 136.481L245.2 136.303C246.687 125.705 246.398 117.396 244 109.353C241.63 101.399 237.237 93.8458 230.748 84.699C214.511 42.0425 187.116 14.1005 155.301 6.24034L155.223 6.22084L155.142 6.20842L154.863 8.016C155.142 6.20842 155.142 6.20837 155.141 6.20831L155.14 6.20816L155.138 6.20773L155.129 6.20642L155.099 6.20197C155.074 6.19821 155.038 6.19287 154.991 6.18611C154.897 6.17259 154.759 6.15335 154.579 6.1295C154.22 6.08179 153.69 6.01564 152.999 5.93992C151.616 5.78847 149.585 5.59868 146.97 5.44152C141.741 5.12723 134.171 4.94331 124.767 5.45808C119.725 5.73405 113.032 7.97919 105.737 11.7809C98.4001 15.6043 90.3051 21.0802 82.4322 27.9828C66.8028 41.6862 51.9149 61.134 45.6668 84.6441C34.4961 96.4281 31.2197 112.177 31.2197 126.538Z" fill="#F7A528" stroke="#572316" stroke-width="3.65808"/>
<path d="M106.576 19.356C95.7481 21.4045 69.1416 48.4987 57.1919 61.7897C74.2696 29.2475 106.933 12.1728 116.087 9.11337L116.088 9.11295C117.248 8.72546 143.883 -0.176696 173.519 14.0018C202.591 27.9109 223.269 70.9349 215.587 58.1316C207.905 45.3284 168.032 12.0398 166.568 19.356C165.398 25.2089 157.057 26.8417 152.668 27.1709C147.79 27.5367 136.645 28.0489 126.695 27.1709C116.745 26.293 110.234 24.8431 109.502 21.185C109.351 20.4288 109.21 18.4781 106.576 19.356Z" fill="#F6DA90"/>
<path d="M244.851 126.671C246.315 138.742 232.048 170.202 199.491 181.176C182.71 188.783 170.5 188.259 131 188.759C91.5 189.259 75.8482 180.445 54.7723 170.953C41.1531 162.562 28.6589 135.816 34.5119 108.015C39.5896 94.1845 41.0602 93.3248 65.9276 105.774C72.4134 109.021 81.3016 119.292 88.9762 121.133C124.529 92.8489 161.602 99.826 186.128 121.382C195.254 119.22 200.712 111.584 205.088 109.045C244.461 80.7309 243.388 114.599 244.851 126.671Z" fill="white"/>
<path fill-rule="evenodd" clip-rule="evenodd" d="M242.872 111.759C239.643 125.371 225.8 147.293 197.888 158.522C181.061 166.204 158.746 165.838 129.847 165.106C92.5351 167.667 71.0436 157.602 53.4932 145.693C44.9261 140.414 36.86 129.617 33.5114 114.867C30.2568 142.087 41.7829 161.249 51.0001 168.759C69.5001 179.759 97.5001 190.259 117.436 189.301C122.656 189.301 128.027 189.371 133.424 189.442C158.013 189.765 183.141 190.094 196.936 183.801C231.936 170.301 245.436 139.801 244.936 129.801C244.915 129.379 244.895 128.899 244.873 128.37C244.71 124.497 244.434 117.948 242.872 111.759Z" fill="#ACABCF"/>
<path d="M50.8458 61.7243L52.5151 64.8328L54.0931 61.6769C56.5594 56.7442 61.8491 49.1001 68.6577 41.2022C75.4554 33.3169 83.6651 25.2976 91.9115 19.5609L94.1489 18.0045L91.8606 16.5238C79.3556 8.4323 69.4418 3.98985 61.289 2.90119C52.9796 1.79164 46.5588 4.17807 41.287 9.44994C38.7534 11.9836 37.9088 15.9161 37.9049 20.1154C37.9008 24.3833 38.7645 29.3319 40.0796 34.3448C42.7121 44.3792 47.2509 55.0304 50.8458 61.7243Z" fill="#F8A428" stroke="#572316" stroke-width="3.65808"/>
<path d="M89.7489 18.3641C70.2 17.1424 64.8739 6.65821 51.7048 5.195C57.6488 3.29306 67.8004 5.56082 71.8243 7.38985C75.8482 9.21888 95.6018 18.7299 89.7489 18.3641Z" fill="#F6DA90"/>
<path d="M80.3386 26.4118C52.8299 27.2897 42.9462 18.0594 41.483 12.5723C33.881 23.4853 52.141 61.6467 52.5372 60.7977C57.6585 49.8235 74.1199 32.2647 80.3386 26.4118Z" fill="#AD7640"/>
<path d="M68.8978 34.8254L60.585 44.3364C56.488 41.1173 50.6074 22.0221 52.8023 16.1692L57.5578 20.5589L68.8978 34.8254Z" fill="#FF5F95"/>
<path d="M60.5942 46.4184C57.6304 42.9261 53.2896 35.8889 52.0487 27.9581C51.3523 23.5068 50.9278 20.0455 51.0834 17.5879C51.1606 16.3675 51.3741 15.5637 51.6471 15.059C51.85 14.684 52.0879 14.4615 52.4173 14.3258C52.5354 14.3689 52.7228 14.4564 52.9853 14.618C53.6034 14.9986 54.4008 15.6413 55.3435 16.5257C57.2157 18.2821 59.4212 20.7621 61.5548 23.3286C63.6792 25.884 65.6943 28.4786 67.1807 30.438C67.9232 31.4167 68.5321 32.2348 68.9548 32.8074C69.1661 33.0936 69.3309 33.3184 69.4424 33.4712C69.4981 33.5475 69.5406 33.6059 69.5689 33.6448L69.6007 33.6886L69.6084 33.6993L69.6102 33.7018L69.6106 33.7023L71.0927 32.6306L69.6106 33.7024L69.6175 33.7118L69.6231 33.7194L69.6234 33.7198L69.6238 33.7203L69.6241 33.7207L69.6244 33.7212L69.6248 33.7217L69.6365 33.7378C69.648 33.7535 69.6663 33.779 69.6903 33.813C69.7384 33.8811 69.8084 33.9821 69.8904 34.1065C70.0578 34.3602 70.2602 34.688 70.4297 35.0189C70.5103 35.1764 70.5713 35.3114 70.6161 35.4224L65.4528 41.274L60.5942 46.4184ZM70.7188 35.7597C70.7187 35.7595 70.718 35.7549 70.7173 35.7464C70.7187 35.7556 70.719 35.7598 70.7188 35.7597ZM52.3126 14.2947C52.3125 14.2946 52.3152 14.295 52.3209 14.2962C52.3155 14.2955 52.3126 14.2949 52.3126 14.2947Z" stroke="#572316" stroke-width="3.65808"/>
<path d="M224.451 61.7684L222.662 64.8099L221.208 61.5952C218.934 56.5707 213.945 48.7274 207.447 40.5716C200.96 32.4288 193.067 24.0975 185.049 18.0456L182.874 16.4037L185.218 15.0128C198.027 7.41183 208.106 3.3568 216.294 2.58483C224.641 1.79804 230.964 4.43144 236.028 9.9036C238.461 12.5335 239.153 16.4958 238.994 20.6921C238.833 24.9569 237.778 29.8684 236.27 34.8265C233.25 44.7515 228.302 55.2188 224.451 61.7684Z" fill="#F8A428" stroke="#572316" stroke-width="3.65808"/>
<path d="M187.257 16.9334C206.838 16.47 212.567 6.20007 225.783 5.24817C219.917 3.11737 209.685 4.99012 205.593 6.66188C201.502 8.33363 181.394 17.0722 187.257 16.9334Z" fill="#F6DA90"/>
<path d="M196.348 25.3397C223.802 27.2828 234.036 18.4423 235.711 13.016C242.884 24.2154 223.16 61.6407 222.797 60.777C218.104 49.6126 202.336 31.4292 196.348 25.3397Z" fill="#AD7640"/>
<path d="M207.455 34.1904L215.393 44.0163C219.611 40.9583 226.227 22.1053 224.261 16.1717L219.339 20.3739L207.455 34.1904Z" fill="#FF5F95"/>
<path d="M215.303 46.0964C218.4 42.7216 223.01 35.8578 224.557 27.9811C225.426 23.56 225.984 20.1178 225.924 17.656C225.894 16.4335 225.712 15.6221 225.458 15.1072C225.27 14.7246 225.041 14.493 224.717 14.3447C224.597 14.3832 224.407 14.4633 224.138 14.6147C223.506 14.9711 222.684 15.5824 221.708 16.4296C219.769 18.1121 217.469 20.5048 215.238 22.9867C213.016 25.4578 210.902 27.9725 209.341 29.8728C208.561 30.822 207.921 31.6159 207.476 32.1717C207.254 32.4495 207.08 32.6678 206.963 32.8161C206.904 32.8902 206.86 32.9468 206.83 32.9847L206.796 33.0272L206.788 33.0376L206.786 33.04L206.786 33.0405L205.346 31.9121L206.786 33.0406L206.779 33.0497L206.773 33.0571L206.772 33.0575L206.772 33.058L206.772 33.0584L206.771 33.0588L206.771 33.0593L206.759 33.075C206.747 33.0903 206.727 33.115 206.702 33.148C206.651 33.2142 206.577 33.3125 206.491 33.4335C206.314 33.6805 206.099 34.0003 205.917 34.3244C205.83 34.4786 205.764 34.6112 205.715 34.7203L210.647 40.7676L215.303 46.0964ZM205.599 35.0534C205.599 35.0532 205.6 35.0487 205.601 35.0402C205.599 35.0493 205.599 35.0535 205.599 35.0534ZM224.823 14.3177C224.823 14.3176 224.82 14.3178 224.814 14.3188C224.82 14.3183 224.823 14.3178 224.823 14.3177Z" stroke="#572316" stroke-width="3.65808"/>
<path d="M95.052 79.4659C100.772 81.3785 105.952 74.7225 111.451 76.2221C116.951 77.7217 117.953 112.016 111.451 148.016C111.451 148.016 109.801 162.715 104.95 168.016C100.098 173.316 95.6378 164.61 95.6378 164.61C109.453 122.016 89.332 77.5532 95.052 79.4659Z" fill="#89EAFF"/>
<path d="M182.906 76.4659C177.186 78.3785 172.006 71.7225 166.507 73.2221C161.007 74.7217 160.005 109.016 166.507 145.016C166.507 145.016 167.992 196 179.495 193C190.999 190 183.499 174.5 183.499 174.5C169.684 131.906 188.626 74.5532 182.906 76.4659Z" fill="#89EAFF"/>
<path d="M116.501 137C119.931 132.548 123.001 125.814 137.304 131.5M137.304 131.5C154.501 124.5 157.963 135.273 160.001 137M137.304 131.5V124.814" stroke="#572316" stroke-width="5.12131" stroke-linecap="round"/>
<ellipse cx="137.304" cy="116.401" rx="15.7297" ry="8.77939" transform="rotate(-180 137.304 116.401)" fill="#572316"/>
<ellipse cx="136.938" cy="111.279" rx="5.12131" ry="2.19485" transform="rotate(-180 136.938 111.279)" fill="white"/>
<ellipse cx="110.204" cy="49.6225" rx="14.2665" ry="5.62269" transform="rotate(-20.4724 110.204 49.6225)" fill="white"/>
<ellipse rx="14.2665" ry="5.62269" transform="matrix(0.94584 0.324634 0.324634 -0.94584 166.319 49.9499)" fill="white"/>
<path d="M91.9738 71.5867C94.8643 64.9174 99.6193 70.0308 106.859 73.1685C114.098 76.3062 121.081 76.28 118.19 82.9493C115.3 89.6185 110.235 85.2192 102.996 82.0815C95.7563 78.9438 89.0832 78.2559 91.9738 71.5867Z" fill="black"/>
<path d="M94.286 86.9299C88.9829 81.5194 95.5026 79.2166 101.024 73.8043C106.546 68.392 108.979 61.9198 114.282 67.3303C119.586 72.7407 113.634 75.6228 108.112 81.0351C102.59 86.4474 99.5892 92.3404 94.286 86.9299Z" fill="black"/>
<path d="M187.203 69.9773C184.312 63.3081 179.557 68.4214 172.318 71.5591C165.078 74.6968 158.096 74.6707 160.986 81.3399C163.877 88.0091 168.941 83.6098 176.181 80.4721C183.42 77.3344 190.093 76.6465 187.203 69.9773Z" fill="black"/>
<path d="M184.887 85.3205C190.19 79.9101 183.67 77.6073 178.149 72.195C172.627 66.7827 170.194 60.3104 164.891 65.7209C159.588 71.1314 165.539 74.0135 171.061 79.4257C176.583 84.838 179.584 90.731 184.887 85.3205Z" fill="black"/>
<path d="M71.4841 295.598C70.7656 300.957 73.9423 306.082 78.826 309.907C83.7674 313.778 90.7718 316.603 98.5696 317.354C106.369 318.104 113.861 316.672 119.621 313.824C125.322 311.005 129.662 306.602 130.377 301.264C131.124 295.694 127.444 291.633 122.309 288.927C117.134 286.201 109.967 284.526 102.365 283.795C94.7662 283.064 87.5818 283.357 82.0592 285.068C76.5269 286.782 72.2211 290.101 71.4841 295.598Z" fill="#B0B5D3" stroke="#572316" stroke-width="3.65808"/>
<path d="M104.683 314.774C93.0091 313.651 84.023 305.082 85.1364 296.778C86.2498 288.474 96.1943 285.799 107.869 286.922C117.658 287.864 129.339 292.619 128.226 300.923C127.113 309.228 116.066 315.489 104.683 314.774Z" fill="white"/>
<path d="M108.566 316.166C109.798 314.634 111.841 310.641 110.146 306.927" stroke="#572316" stroke-width="3.65808" stroke-linecap="round"/>
<path d="M93.2296 315.071C94.4625 313.539 96.5046 309.546 94.8097 305.832" stroke="#572316" stroke-width="3.65808" stroke-linecap="round"/>
<path d="M200.785 295.598C201.504 300.957 198.327 306.082 193.443 309.907C188.502 313.778 181.498 316.603 173.7 317.354C165.901 318.104 158.408 316.672 152.649 313.824C146.948 311.005 142.608 306.602 141.892 301.264C141.145 295.694 144.826 291.633 149.961 288.927C155.135 286.201 162.303 284.526 169.905 283.795C177.503 283.064 184.688 283.357 190.21 285.068C195.743 286.782 200.048 290.101 200.785 295.598Z" fill="#B0B5D3" stroke="#572316" stroke-width="3.65808"/>
<path d="M167.586 314.774C179.26 313.651 188.247 305.082 187.133 296.778C186.02 288.474 176.075 285.799 164.401 286.922C154.612 287.864 142.93 292.619 144.044 300.923C145.157 309.228 156.204 315.489 167.586 314.774Z" fill="white"/>
<path d="M163.704 316.166C162.471 314.634 160.429 310.641 162.124 306.927" stroke="#572316" stroke-width="3.65808" stroke-linecap="round"/>
<path d="M179.04 315.071C177.807 313.539 175.765 309.546 177.46 305.832" stroke="#572316" stroke-width="3.65808" stroke-linecap="round"/>
<path d="M37.0381 262.48C34.7746 263.445 32.4217 265.242 30.0169 268.178C28.2328 267.302 25.8944 266.821 23.5415 267.913C20.6741 269.244 18.3379 272.664 16.9439 278.991C15.1553 287.109 17.0407 297.668 21.0402 306.399C23.0486 310.783 25.6236 314.783 28.617 317.831C31.6046 320.873 35.0869 323.043 38.8993 323.583C45.8275 324.566 50.0265 324.109 52.9922 322.915C55.2029 322.025 56.7154 320.687 57.9596 319.585C58.3437 319.245 58.7021 318.928 59.0477 318.654C60.1265 317.797 61.4385 316.03 62.7323 313.69C64.0538 311.299 65.4336 308.168 66.5938 304.446C68.9145 297 70.3743 287.132 68.6866 276.028C67.8421 270.472 66.3131 266.821 64.3023 264.58C62.2297 262.27 59.7572 261.583 57.4245 261.736C55.1661 261.885 53.0735 262.814 51.5595 263.651C50.791 264.076 50.143 264.494 49.6732 264.803C49.6286 264.833 49.5865 264.86 49.5467 264.887C49.5116 264.861 49.4745 264.833 49.4357 264.804C49.1677 264.605 48.8189 264.346 48.4708 264.104C47.3721 263.34 45.7992 262.389 43.8555 261.902C41.8838 261.409 39.5665 261.403 37.0381 262.48ZM49.0038 265.238C48.9853 265.248 48.9879 265.246 49.007 265.236C49.0058 265.237 49.0048 265.237 49.0038 265.238Z" fill="white" stroke="#572317" stroke-width="2.83568"/>
<path fill-rule="evenodd" clip-rule="evenodd" d="M24.4736 269.199C21.8683 269.845 19.2168 272.583 17.6498 279.627C14.215 295.07 24.863 320.549 38.6024 322.48C48.7421 323.904 52.5212 322.175 55.186 320.084C52.8182 320.371 49.7798 320.284 45.7502 319.624C31.8806 317.352 21.1192 287.47 24.4736 269.199Z" fill="#ACABCF"/>
<ellipse cx="28.3176" cy="283.532" rx="5.83028" ry="8.13514" fill="#572316"/>
<ellipse cx="42.7222" cy="278.883" rx="5.83028" ry="8.13514" fill="#572316"/>
<ellipse cx="57.8114" cy="277.333" rx="5.83028" ry="8.13514" fill="#572316"/>
<ellipse cx="44.4366" cy="304.451" rx="10.9746" ry="12.7838" fill="#572316"/>
<path d="M234.962 261.48C237.225 262.445 239.578 264.242 241.983 267.178C243.767 266.302 246.106 265.821 248.458 266.913C251.326 268.244 253.662 271.664 255.056 277.991C256.845 286.109 254.959 296.668 250.96 305.399C248.951 309.783 246.376 313.783 243.383 316.831C240.395 319.873 236.913 322.043 233.101 322.583C226.173 323.566 221.973 323.109 219.008 321.915C216.797 321.025 215.285 319.687 214.04 318.585C213.656 318.245 213.298 317.928 212.952 317.654C211.874 316.797 210.562 315.03 209.268 312.69C207.946 310.299 206.566 307.168 205.406 303.446C203.085 296 201.626 286.132 203.313 275.028C204.158 269.472 205.687 265.821 207.698 263.58C209.77 261.27 212.243 260.583 214.576 260.736C216.834 260.885 218.927 261.814 220.44 262.651C221.209 263.076 221.857 263.494 222.327 263.803C222.371 263.833 222.413 263.86 222.453 263.887C222.488 263.861 222.525 263.833 222.564 263.804C222.832 263.605 223.181 263.346 223.529 263.104C224.628 262.34 226.201 261.389 228.144 260.902C230.116 260.409 232.434 260.403 234.962 261.48ZM222.996 264.238C223.015 264.248 223.012 264.246 222.993 264.236C222.994 264.237 222.995 264.237 222.996 264.238Z" fill="white" stroke="#572317" stroke-width="2.83568"/>
<path fill-rule="evenodd" clip-rule="evenodd" d="M247.526 268.199C250.132 268.845 252.783 271.583 254.35 278.627C257.785 294.07 247.137 319.549 233.398 321.48C223.258 322.904 219.479 321.175 216.814 319.084C219.182 319.371 222.22 319.284 226.25 318.624C240.119 316.352 250.881 286.47 247.526 268.199Z" fill="#ACABCF"/>
<ellipse rx="5.83028" ry="8.13514" transform="matrix(-1 0 0 1 243.682 282.532)" fill="#572316"/>
<ellipse rx="5.83028" ry="8.13514" transform="matrix(-1 0 0 1 229.278 277.883)" fill="#572316"/>
<ellipse rx="5.83028" ry="8.13514" transform="matrix(-1 0 0 1 214.189 276.333)" fill="#572316"/>
<ellipse rx="10.9746" ry="12.7838" transform="matrix(-1 0 0 1 227.563 303.451)" fill="#572316"/>
</svg>
