<svg width="101" height="99" viewBox="0 0 101 99" fill="none" xmlns="http://www.w3.org/2000/svg">
<path d="M50.58 97.7111C77.3631 97.7111 99.0997 76.2766 99.0997 49.8057C99.0997 23.3348 77.3631 1.90026 50.58 1.90026C23.7969 1.90026 2.0603 23.3348 2.0603 49.8057C2.0603 76.2766 23.7969 97.7111 50.58 97.7111Z" fill="#7799F2" stroke="#572316" stroke-width="2.19948"/>
<path fill-rule="evenodd" clip-rule="evenodd" d="M75.4607 89.6444C88.9733 81.3972 97.9763 66.6392 97.9763 49.8057C97.9763 23.9556 76.7457 3 50.5564 3C39.6211 3 29.5503 6.65356 21.5286 12.7914C28.7664 8.37396 37.298 5.82443 46.4329 5.82443C72.6222 5.82443 93.8528 26.7801 93.8528 52.6301C93.8528 67.6865 86.6504 81.0825 75.4607 89.6444Z" fill="#C5D5FF"/>
<path fill-rule="evenodd" clip-rule="evenodd" d="M92.2477 72.062C83.5558 82.7167 70.2311 89.5343 55.2932 89.5343C29.1039 89.5343 7.87328 68.5787 7.87328 42.7286C7.87328 34.7477 9.89697 27.2334 13.4655 20.6582C6.91859 28.6835 3 38.8858 3 49.9915C3 75.8416 24.2306 96.7972 50.42 96.7972C68.5236 96.7972 84.2579 86.7837 92.2477 72.062Z" fill="#466ED7"/>
<ellipse cx="50.0178" cy="47.7882" rx="31.8632" ry="31.4728" fill="#466ED7"/>
<path fill-rule="evenodd" clip-rule="evenodd" d="M80.2087 57.8777C75.2184 68.82 64.081 76.4374 51.1423 76.4374C33.5448 76.4374 19.2791 62.3466 19.2791 44.9646C19.2791 41.436 19.867 38.043 20.9514 34.876C19.1544 38.8161 18.1545 43.1872 18.1545 47.789C18.1545 65.171 32.4202 79.2618 50.0178 79.2618C64.0429 79.2618 75.9517 70.3113 80.2087 57.8777Z" fill="white"/>
<path fill-rule="evenodd" clip-rule="evenodd" d="M75.7775 66.7442C79.8108 61.4717 82.2029 54.9059 82.2029 47.7882C82.2029 30.4063 67.9373 16.3154 50.3397 16.3154C38.2082 16.3154 27.6602 23.0121 22.278 32.8671C28.0944 25.2638 37.3241 20.3503 47.7157 20.3503C65.3133 20.3503 79.579 34.4411 79.579 51.8231C79.579 57.2222 78.2026 62.3038 75.7775 66.7442Z" fill="#173DA0"/>
<g filter="url(#filter0_d_1018_133)">
<path d="M48.7604 52.3122H61.376C61.6764 52.3122 61.9358 52.4214 62.1542 52.6399C62.3727 52.8583 62.4819 53.1177 62.4819 53.4181V59.1934C62.4819 59.4938 62.3727 59.7532 62.1542 59.9716C61.9358 60.1901 61.6764 60.2993 61.376 60.2993H40.036C39.7357 60.2993 39.4763 60.1901 39.2578 59.9716C39.0394 59.7532 38.9301 59.4938 38.9301 59.1934V32.7335C38.9301 32.4331 39.0394 32.1737 39.2578 31.9553C39.4763 31.7368 39.7357 31.6276 40.036 31.6276H61.0483C61.3487 31.6276 61.6081 31.7368 61.8265 31.9553C62.045 32.1737 62.1542 32.4331 62.1542 32.7335V38.5088C62.1542 38.8092 62.045 39.0686 61.8265 39.287C61.6081 39.5055 61.3487 39.6147 61.0483 39.6147H48.7604V42.1952H60.1472C60.4476 42.1952 60.707 42.3044 60.9254 42.5228C61.1439 42.7413 61.2531 43.0007 61.2531 43.3011V48.6258C61.2531 48.9262 61.1439 49.1856 60.9254 49.4041C60.707 49.6225 60.4476 49.7317 60.1472 49.7317H48.7604V52.3122Z" fill="white"/>
</g>
<defs>
<filter id="filter0_d_1018_133" x="36.5251" y="31.6274" width="28.3619" height="33.482" filterUnits="userSpaceOnUse" color-interpolation-filters="sRGB">
<feFlood flood-opacity="0" result="BackgroundImageFix"/>
<feColorMatrix in="SourceAlpha" type="matrix" values="0 0 0 0 0 0 0 0 0 0 0 0 0 0 0 0 0 0 127 0" result="hardAlpha"/>
<feOffset dy="2.40506"/>
<feGaussianBlur stdDeviation="1.20253"/>
<feComposite in2="hardAlpha" operator="out"/>
<feColorMatrix type="matrix" values="0 0 0 0 0 0 0 0 0 0 0 0 0 0 0 0 0 0 0.25 0"/>
<feBlend mode="normal" in2="BackgroundImageFix" result="effect1_dropShadow_1018_133"/>
<feBlend mode="normal" in="SourceGraphic" in2="effect1_dropShadow_1018_133" result="shape"/>
</filter>
</defs>
</svg>
