<svg width="537" height="400" viewBox="0 0 537 400" fill="none" xmlns="http://www.w3.org/2000/svg">
<path d="M120.597 223.816L120.604 223.857L120.611 223.898L123.201 223.423C120.611 223.898 120.611 223.899 120.612 223.9L120.612 223.904L120.614 223.914L120.621 223.948L120.628 223.988C120.633 224.011 120.638 224.038 120.644 224.069C120.664 224.173 120.694 224.323 120.734 224.515C120.814 224.9 120.935 225.457 121.102 226.165C121.436 227.581 121.955 229.602 122.7 232.056C124.188 236.959 126.589 243.622 130.245 250.654C137.531 264.668 149.99 280.496 170.461 286.364C209.436 297.537 224.773 300.789 248.305 297.243C255.276 296.192 264.269 294.979 273.959 293.672C295.828 290.722 321.243 287.293 334.946 284.177C366.212 277.068 384.267 261.166 394.939 251.767C395.68 251.114 396.386 250.492 397.058 249.907C407.889 240.478 422.43 218.182 427.279 192.318L427.327 192.064L427.324 191.806C427.168 176.399 424.973 164.632 419.835 153.696C414.753 142.881 406.879 133.07 395.679 121.441C363.41 64.1972 318.414 30.2955 271.435 25.9317L271.318 25.9209L271.201 25.9204L271.191 28.5537C271.201 25.9204 271.201 25.9204 271.2 25.9204L271.199 25.9204L271.195 25.9204L271.182 25.9204L271.139 25.9204C271.102 25.9204 271.05 25.9206 270.981 25.9211C270.844 25.922 270.644 25.9241 270.383 25.9288C269.86 25.9381 269.092 25.9576 268.092 25.9981C266.091 26.0792 263.159 26.2446 259.403 26.582C251.891 27.2566 241.075 28.6188 227.796 31.3696C220.677 32.8443 211.631 37.4766 202.061 44.4541C192.437 51.4715 182.087 61.004 172.36 72.5202C153.049 95.3824 136.027 126.263 132.176 161.074C118.802 180.247 117.516 203.371 120.597 223.816Z" fill="#F7A528" stroke="#572316" stroke-width="5.26662"/>
<path d="M204.881 55.0582C189.906 60.2978 157.841 104.579 143.68 126.065C161.011 76.0719 203.848 44.7553 216.224 38.4356L216.226 38.4347C217.793 37.6344 253.802 19.2459 299.035 33.0724C343.409 46.6362 382.077 103.45 368.394 86.8714C354.71 70.2923 290.803 31.4565 290.289 42.1861C289.879 50.7697 278.355 54.8838 272.176 56.2943C265.311 57.8616 249.555 60.982 235.201 61.867C220.847 62.752 211.266 62.085 209.44 57.0342C209.062 55.99 208.442 53.2432 204.881 55.0582Z" fill="#F6DA90"/>
<path d="M424.762 178.168C429.435 195.04 415.875 242.888 371.88 265.497C349.622 279.927 332.126 281.801 275.999 290.988C219.873 300.175 195.699 290.984 163.658 281.994C142.468 272.969 118.943 237.574 121.31 196.739C125.571 175.96 127.481 174.421 165.554 186.809C175.484 190.04 190.342 202.755 201.663 203.729C246.209 155.834 300.485 157.812 340.026 183.238C352.553 178.202 358.686 166.159 364.371 161.606C414.349 112.85 420.089 161.296 424.762 178.168Z" fill="white"/>
<path fill-rule="evenodd" clip-rule="evenodd" d="M418.745 157.364C417.069 177.435 402.064 211.614 364.736 233.589C342.429 248.136 310.582 252.403 269.284 257.562C216.714 269.213 183.958 259.495 156.417 246.306C143.088 240.629 129.288 226.989 121.356 206.709C122.563 246.158 143.084 270.966 157.817 279.68C186.515 291.371 228.63 300.311 256.806 294.669C264.237 293.55 271.898 292.497 279.597 291.44C314.672 286.623 350.517 281.701 368.806 269.782C415.737 243.053 428.412 196.735 425.554 182.606C425.434 182.01 425.302 181.331 425.157 180.582C424.093 175.103 422.296 165.839 418.745 157.364Z" fill="#ACABCF"/>
<path d="M134.795 128.414L137.838 132.481L139.407 127.65C141.86 120.098 147.751 108.081 155.749 95.3759C163.735 82.6915 173.702 69.5133 184.211 59.577L187.062 56.8811L183.487 55.2642C163.948 46.4279 148.881 42.2305 137.041 42.4299C124.973 42.6332 116.344 47.4083 109.97 56.0447C106.907 60.1953 106.548 65.975 107.444 71.9541C108.354 78.031 110.645 84.8908 113.593 91.7451C119.493 105.466 128.24 119.655 134.795 128.414Z" fill="#F8A428" stroke="#572316" stroke-width="5.26662"/>
<path d="M180.875 58.3373C152.783 60.7925 142.951 47.0095 123.889 47.752C131.943 43.7689 146.882 44.8193 153.003 46.5598C159.124 48.3003 189.286 57.6022 180.875 58.3373Z" fill="#F6DA90"/>
<path d="M169.205 71.8137C130.231 78.9659 114.18 67.9458 110.919 60.4481C102.438 77.6155 136.622 128.026 137.004 126.732C141.94 110.01 161.608 81.4805 169.205 71.8137Z" fill="#AD7640"/>
<path d="M154.723 86.2462L144.929 101.57C138.406 97.8663 125.937 71.9433 127.806 63.1398L135.518 68.3689L154.723 86.2462Z" fill="#FF5F95"/>
<path d="M145.389 104.532C140.42 100.196 132.73 91.1092 129.262 80.0849C127.316 73.8972 125.969 69.0606 125.663 65.5284C125.511 63.7745 125.642 62.5844 125.923 61.8072C126.131 61.2299 126.422 60.862 126.862 60.5982C127.039 60.6343 127.325 60.7185 127.733 60.8923C128.695 61.3016 129.968 62.0454 131.5 63.1022C134.542 65.2009 138.214 68.2585 141.802 71.4544C145.375 74.6365 148.8 77.898 151.337 80.3686C152.604 81.6026 153.646 82.6366 154.371 83.3611C154.733 83.7233 155.016 84.008 155.208 84.2014C155.303 84.2982 155.376 84.3721 155.425 84.4215L155.48 84.477L155.493 84.4906L155.496 84.4938L155.497 84.4944C155.497 84.4945 155.497 84.4945 155.649 84.3448L155.497 84.4945L155.508 84.5065L155.518 84.5161L155.519 84.5165L155.519 84.5173L155.52 84.5177L155.52 84.5183L155.521 84.5189L155.541 84.5394C155.561 84.5593 155.592 84.5917 155.634 84.6349C155.717 84.7215 155.838 84.8503 155.982 85.0098C156.274 85.335 156.633 85.7583 156.945 86.1931C157.094 86.4 157.21 86.579 157.297 86.7274L151.202 96.1659L145.389 104.532ZM157.516 87.1856C157.516 87.1854 157.514 87.179 157.511 87.167C157.515 87.1798 157.516 87.1858 157.516 87.1856ZM126.706 60.5764C126.706 60.5762 126.71 60.5762 126.719 60.5767C126.711 60.5768 126.706 60.5766 126.706 60.5764Z" stroke="#572316" stroke-width="5.26662"/>
<path d="M381.956 91.228L380.063 95.9417L377.302 91.6773C372.988 85.0119 364.201 74.9164 353.201 64.6995C342.219 54.499 329.195 44.3316 316.482 37.4362L313.032 35.5654L316.071 33.0824C332.676 19.513 346.154 11.5777 357.646 8.72162C369.359 5.81076 378.927 8.203 387.309 14.9069C391.338 18.1288 393.173 23.6213 393.847 29.6294C394.533 35.7357 394.085 42.9542 393.002 50.3364C390.833 65.1138 386.034 81.0772 381.956 91.228Z" fill="#F8A428" stroke="#572316" stroke-width="5.26662"/>
<path d="M319.386 35.3794C347.163 30.5183 353.115 14.6684 371.725 10.4776C362.917 8.70273 348.753 13.5642 343.286 16.8221C337.82 20.08 311.069 36.8349 319.386 35.3794Z" fill="#F6DA90"/>
<path d="M334.132 45.3962C373.634 42.2719 386.306 27.4904 387.526 19.4059C400.142 33.8107 380.091 91.3232 379.389 90.1715C370.313 75.2841 343.962 52.7808 334.132 45.3962Z" fill="#AD7640"/>
<path d="M351.843 55.6132L365.252 67.8986C370.602 62.64 375.975 34.3805 371.903 26.3551L365.797 33.3935L351.843 55.6132Z" fill="#FF5F95"/>
<path d="M365.57 70.8793C369.255 65.4102 374.346 54.6495 374.858 43.1039C375.146 36.6236 375.202 31.6033 374.588 28.1114C374.283 26.3775 373.85 25.2614 373.379 24.5826C373.029 24.0784 372.653 23.7979 372.16 23.6562C371.998 23.7367 371.744 23.8916 371.394 24.1647C370.57 24.8078 369.532 25.8544 368.323 27.27C365.924 30.0813 363.163 33.9812 360.519 37.9933C357.886 41.988 355.416 46.0216 353.601 49.0619C352.695 50.5806 351.954 51.8481 351.44 52.7348C351.183 53.178 350.983 53.5259 350.848 53.7622C350.78 53.8803 350.729 53.9706 350.695 54.0308L350.656 54.0986L350.647 54.1151L350.644 54.1189L350.644 54.1197C350.644 54.1198 350.644 54.1198 350.458 54.0145L350.644 54.1198L350.636 54.1344L350.629 54.1462L350.629 54.1468L350.628 54.1476L350.628 54.1482L350.627 54.1489L350.627 54.1497L350.613 54.1746C350.599 54.199 350.577 54.2384 350.548 54.2908C350.49 54.3959 350.406 54.5516 350.308 54.7426C350.109 55.1323 349.872 55.6336 349.682 56.1341C349.591 56.3723 349.526 56.5751 349.479 56.7411L357.799 64.2919L365.57 70.8793ZM349.386 57.24C349.386 57.2398 349.386 57.2331 349.386 57.2208C349.385 57.2342 349.386 57.2403 349.386 57.24ZM372.305 23.595C372.305 23.5949 372.301 23.5958 372.293 23.5985C372.301 23.5966 372.305 23.5952 372.305 23.595Z" stroke="#572316" stroke-width="5.26662"/>
<ellipse cx="215.474" cy="105.915" rx="20.5398" ry="8.09511" transform="rotate(-8.5707 215.474 105.915)" fill="white"/>
<ellipse rx="20.5398" ry="8.09511" transform="matrix(0.988833 -0.14903 -0.14903 -0.988833 298.046 93.4701)" fill="white"/>
<path d="M209.222 150.11C192.329 151.414 186.497 171.598 184.66 160.699C182.822 149.8 194.137 139.354 208.478 136.936C218.044 136.075 230.904 142.935 236.593 151.942C238.43 162.841 223.177 149.034 209.222 150.11Z" fill="black"/>
<path d="M324.742 128.761C307.849 130.064 302.017 150.248 300.18 139.349C298.342 128.45 309.657 118.004 323.998 115.586C333.564 114.725 346.424 121.586 352.113 130.593C353.95 141.492 338.698 127.684 324.742 128.761Z" fill="black"/>
<path d="M238.273 209.47C239.393 209.834 252.705 216.882 272.045 203.847M272.045 203.847C283.089 206.444 292.855 207.635 304.412 199.502M272.045 203.847L271.417 199.681" stroke="#572316" stroke-width="7.37327" stroke-linecap="round"/>
<path d="M274.25 229.08C264.876 230.493 255.23 215.968 254.524 211.281C268.457 207.143 276.443 205.943 290.979 205.787C292.149 215.908 283.624 227.667 274.25 229.08Z" fill="#572316"/>
<path fill-rule="evenodd" clip-rule="evenodd" d="M274.299 218.47C274.305 218.261 274.297 218.063 274.269 217.878C273.922 215.577 276.494 213.282 279.37 212.848C282.246 212.415 284.859 213.929 285.206 216.23C285.548 218.499 280.764 223.698 275.061 224.169C269.425 225.523 263.574 221.852 263.228 219.557C262.881 217.256 264.932 215.039 267.808 214.606C270.684 214.172 273.817 215.608 274.164 217.909C274.191 218.089 274.238 218.277 274.299 218.47Z" fill="#FB609C"/>
<ellipse cx="269.612" cy="187.703" rx="22.6465" ry="12.6399" transform="rotate(171.429 269.612 187.703)" fill="#572316"/>
<ellipse cx="267.992" cy="180.491" rx="7.37327" ry="3.15997" transform="rotate(171.429 267.992 180.491)" fill="white"/>
<rect y="280.731" width="537" height="21" rx="10.5" fill="#572316"/>
<path d="M167.493 247.823C179.493 253.423 186.16 268.157 187.993 274.823C195.193 290.423 181.66 307.323 173.993 313.823C173.993 325.823 150.993 326.49 139.493 325.323C126.493 330.323 113.493 312.323 108.993 311.323C105.393 310.523 100.16 304.99 97.993 302.323C95.493 297.323 91.5931 284.223 95.9931 271.823C100.393 259.423 114.16 250.657 120.493 247.823C131.16 245.49 155.493 242.224 167.493 247.823Z" fill="white" stroke="#572316" stroke-width="3.66"/>
<path d="M110.993 312.323C113.493 310.49 118.493 305.423 118.493 299.823" stroke="#572316" stroke-width="3.66" stroke-linecap="round"/>
<path d="M143.993 324.823C144.493 322.157 145.293 315.723 144.493 311.323" stroke="#572316" stroke-width="3.66" stroke-linecap="round"/>
<path d="M176.993 310.823C176.993 310.278 171.699 301.005 167.993 298.823" stroke="#572316" stroke-width="3.66" stroke-linecap="round"/>
<path d="M435.171 255.612C445.328 264.109 447.983 280.061 448.041 286.974C450.989 303.901 433.566 316.754 424.486 321.065C421.401 332.662 399.003 327.393 388.189 323.31C374.341 324.8 366.405 304.063 362.313 301.94C359.04 300.241 355.405 293.549 353.996 290.415C352.866 284.94 352.464 271.278 359.904 260.425C367.344 249.573 382.901 244.64 389.75 243.53C400.658 244.017 425.014 247.115 435.171 255.612Z" fill="white" stroke="#572316" stroke-width="3.66"/>
<path d="M363.989 303.42C366.876 302.291 373.011 298.68 374.45 293.268" stroke="#572316" stroke-width="3.66" stroke-linecap="round"/>
<path d="M392.667 323.983C393.835 321.535 396.262 315.523 396.62 311.066" stroke="#572316" stroke-width="3.66" stroke-linecap="round"/>
<path d="M428.157 318.937C428.297 318.41 425.564 308.088 422.544 305.027" stroke="#572316" stroke-width="3.66" stroke-linecap="round"/>
</svg>
