<svg width="1920" height="700" viewBox="0 0 1920 700" fill="none" xmlns="http://www.w3.org/2000/svg">
<g clip-path="url(#clip0_287_38)">
<path d="M1920 0H0V700H1920V0Z" fill="#F89F1D"/>
<path d="M280.823 22.5512V87.0927H203.043V314.227H121.953V87.0927H45V22.5512H280.823ZM436.184 317.123C408.878 317.123 383.779 310.779 360.886 298.092C337.993 285.128 319.788 267.339 306.274 244.722C293.034 221.829 286.415 196.04 286.415 167.355C286.415 138.67 293.034 113.019 306.274 90.4017C319.788 67.5089 337.993 49.7193 360.886 37.0318C383.779 24.3443 408.878 18 436.184 18C463.765 18 488.865 24.3443 511.482 37.0318C534.375 49.7193 552.44 67.5089 565.68 90.4017C578.918 113.019 585.539 138.67 585.539 167.355C585.539 196.04 578.918 221.829 565.68 244.722C552.44 267.339 534.375 285.128 511.482 298.092C488.589 310.779 463.49 317.123 436.184 317.123ZM436.184 241.826C456.87 241.826 473.143 235.068 485.003 221.553C497.139 208.038 503.207 189.972 503.207 167.355C503.207 144.186 497.139 125.982 485.003 112.744C473.143 99.2281 456.87 92.4709 436.184 92.4709C415.221 92.4709 398.81 99.2281 386.95 112.744C375.091 125.982 369.16 144.186 369.16 167.355C369.16 190.248 375.091 208.451 386.95 221.967C398.81 235.206 415.221 241.826 436.184 241.826ZM891.908 22.5512V87.0927H814.128V314.227H733.038V87.0927H656.085V22.5512H891.908ZM1168.49 22.5512V314.227H1087.4V197.143H988.52V314.227H907.43V22.5512H988.52V132.188H1087.4V22.5512H1168.49ZM1281.51 87.5056V135.084H1374.59V196.73H1281.51V249.273H1387V314.227H1200.41V22.5512H1387V87.5056H1281.51ZM401.63 375.793V667.469H320.54V506.53L265.515 667.469H197.665L142.225 505.289V667.469H61.1353V375.793H159.188L232.417 565.279L303.992 375.793H401.63ZM573.149 670.365C545.843 670.365 520.744 664.021 497.851 651.334C474.959 638.37 456.755 620.581 443.239 597.964C430 575.071 423.381 549.282 423.381 520.597C423.381 491.911 430 466.261 443.239 443.644C456.755 420.751 474.959 402.961 497.851 390.274C520.744 377.586 545.843 371.242 573.149 371.242C600.73 371.242 625.83 377.586 648.447 390.274C671.34 402.961 689.406 420.751 702.645 443.644C715.884 466.261 722.504 491.911 722.504 520.597C722.504 549.282 715.884 575.071 702.645 597.964C689.406 620.581 671.34 638.37 648.447 651.334C625.554 664.021 600.455 670.365 573.149 670.365ZM573.149 595.068C593.835 595.068 610.109 588.31 621.968 574.795C634.105 561.28 640.173 543.213 640.173 520.597C640.173 497.428 634.105 479.224 621.968 465.986C610.109 452.47 593.835 445.713 573.149 445.713C552.188 445.713 535.776 452.47 523.915 465.986C512.056 479.224 506.126 497.428 506.126 520.597C506.126 543.49 512.056 561.693 523.915 575.209C535.776 588.448 552.188 595.068 573.149 595.068ZM884.316 670.365C857.01 670.365 831.911 664.021 809.018 651.334C786.125 638.37 767.921 620.581 754.406 597.964C741.166 575.071 734.547 549.282 734.547 520.597C734.547 491.911 741.166 466.261 754.406 443.644C767.921 420.751 786.125 402.961 809.018 390.274C831.911 377.586 857.01 371.242 884.316 371.242C911.897 371.242 936.997 377.586 959.614 390.274C982.506 402.961 1000.57 420.751 1013.81 443.644C1027.05 466.261 1033.67 491.911 1033.67 520.597C1033.67 549.282 1027.05 575.071 1013.81 597.964C1000.57 620.581 982.506 638.37 959.614 651.334C936.721 664.021 911.622 670.365 884.316 670.365ZM884.316 595.068C905.001 595.068 921.275 588.31 933.136 574.795C945.271 561.28 951.339 543.213 951.339 520.597C951.339 497.428 945.271 479.224 933.136 465.986C921.275 452.47 905.001 445.713 884.316 445.713C863.354 445.713 846.942 452.47 835.082 465.986C823.222 479.224 817.292 497.428 817.292 520.597C817.292 543.49 823.222 561.693 835.082 575.209C846.942 588.448 863.354 595.068 884.316 595.068ZM1325.8 667.469H1244.72L1136.73 504.462V667.469H1055.64V375.793H1136.73L1244.72 540.869V375.793H1325.8V667.469Z" fill="white" fill-opacity="0.2"/>
<path d="M600.047 396.043C587.504 415.574 564.458 422.477 548.73 412.376C533.003 402.273 529.695 378.445 542.24 358.914C554.784 339.382 577.831 332.479 593.558 342.58C609.285 352.683 612.592 376.511 600.047 396.043Z" fill="#F89F1D" stroke="#572316" stroke-width="3.47606"/>
<g filter="url(#filter0_i_287_38)">
<path d="M308.252 552.603C269.117 571.676 225.419 544.553 162.081 553.821C98.7437 563.091 219.6 470.081 258.736 451.007C297.871 431.933 340.681 439.213 354.354 467.268C368.028 495.322 347.387 533.529 308.252 552.603Z" fill="#FC5505"/>
</g>
<path d="M307.49 551.04C288.456 560.317 268.255 558.411 244.477 555.166C242.668 554.92 240.84 554.666 238.992 554.409C216.643 551.301 191.345 547.782 161.829 552.102C157.944 552.67 154.837 552.835 152.418 552.67C149.98 552.503 148.372 552.01 147.373 551.378C146.442 550.79 145.99 550.06 145.844 549.139C145.686 548.134 145.877 546.766 146.577 544.986C147.98 541.418 151.172 536.836 155.817 531.539C160.433 526.275 166.376 520.427 173.144 514.334C200.259 489.923 240.122 462.012 259.497 452.57C278.775 443.174 298.894 440.302 315.802 443.178C332.712 446.053 346.264 454.635 352.792 468.029C359.32 481.424 357.73 497.386 349.576 512.477C341.425 527.564 326.769 541.644 307.49 551.04Z" stroke="black" stroke-width="3.47606"/>
<path d="M320.991 529.023C292.669 542.826 265.959 520.635 220.123 527.343C174.287 534.05 256.835 469.303 285.157 455.499C313.478 441.696 344.459 446.966 354.355 467.268C364.25 487.571 349.312 515.22 320.991 529.023Z" fill="#F9B309"/>
<g filter="url(#filter1_i_287_38)">
<path d="M276.977 427.554L291.465 421.964L366.655 535.318L350.551 540.551C348.861 540.327 343.052 538.565 333.332 533.316C321.182 526.755 286.424 502.823 279.561 469.709C274.071 443.217 275.551 430.567 276.977 427.554Z" fill="#FFE5E2"/>
</g>
<path d="M276.977 427.554L291.465 421.964L366.655 535.318L350.551 540.551C348.861 540.327 343.052 538.565 333.332 533.316C321.182 526.755 286.424 502.823 279.561 469.709C274.071 443.217 275.551 430.567 276.977 427.554Z" stroke="black" stroke-width="3.47606"/>
<g filter="url(#filter2_ii_287_38)">
<path d="M395.147 284.192L400.848 270.922L550.744 309.066C540.611 367.195 529.229 398.374 495.536 454.774L435.911 472.916L386.158 421.208L352.952 366.582L364.098 340.442C365.753 339.623 365.071 334.181 349.11 318.963C333.148 303.745 319.373 282.368 314.482 273.582C310.441 269.382 317.187 262.339 323.18 266.189C324.154 256.043 328.635 255.537 334.732 256.112C333.303 249.55 343.251 244.451 348.282 247.318L395.147 284.192Z" fill="#F89F1D"/>
</g>
<path d="M400.848 270.922L401.276 269.238L399.838 268.871L399.251 270.236L400.848 270.922ZM348.282 247.318L349.357 245.952L349.255 245.873L349.143 245.808L348.282 247.318ZM334.732 256.112L334.568 257.842L336.937 258.065L336.431 255.742L334.732 256.112ZM323.18 266.189L322.241 267.651L324.639 269.191L324.91 266.355L323.18 266.189ZM314.482 273.582L316 272.737L315.891 272.54L315.734 272.377L314.482 273.582ZM349.11 318.963L347.911 320.221L349.11 318.963ZM364.098 340.442L363.327 338.884L362.752 339.169L362.499 339.76L364.098 340.442ZM352.952 366.582L351.354 365.9L351.004 366.721L351.468 367.485L352.952 366.582ZM386.158 421.208L384.673 422.11L384.772 422.275L384.905 422.413L386.158 421.208ZM435.911 472.916L434.659 474.122L435.398 474.889L436.417 474.579L435.911 472.916ZM495.536 454.774L496.042 456.436L496.684 456.241L497.028 455.666L495.536 454.774ZM550.744 309.066L552.456 309.364L552.733 307.778L551.172 307.381L550.744 309.066ZM408.047 307.207C408.456 308.076 409.49 308.45 410.359 308.043C411.229 307.636 411.603 306.601 411.196 305.732L408.047 307.207ZM399.251 270.236L393.55 283.506L396.744 284.878L402.445 271.608L399.251 270.236ZM396.222 282.826L349.357 245.952L347.207 248.685L394.072 285.557L396.222 282.826ZM349.143 245.808C345.87 243.944 341.42 244.779 338.2 246.683C334.958 248.6 332.09 252.144 333.034 256.482L336.431 255.742C335.946 253.518 337.337 251.232 339.969 249.675C342.623 248.107 345.663 247.826 347.421 248.828L349.143 245.808ZM334.896 254.382C331.89 254.098 328.651 253.981 326.078 255.679C323.406 257.443 321.953 260.78 321.451 266.023L324.91 266.355C325.381 261.452 326.656 259.463 327.993 258.58C329.427 257.634 331.478 257.551 334.568 257.842L334.896 254.382ZM324.12 264.727C320.359 262.31 316.306 263.33 313.882 265.597C312.676 266.724 311.79 268.229 311.57 269.885C311.345 271.591 311.846 273.349 313.229 274.787L315.734 272.377C315.097 271.714 314.927 271.017 315.016 270.342C315.113 269.617 315.531 268.813 316.255 268.136C317.692 266.793 320.009 266.218 322.241 267.651L324.12 264.727ZM312.963 274.428C317.901 283.295 331.775 304.836 347.911 320.221L350.309 317.705C334.522 302.652 320.847 281.44 316 272.737L312.963 274.428ZM347.911 320.221C355.851 327.792 359.872 332.823 361.708 335.976C362.635 337.568 362.921 338.545 362.968 339.042C363.013 339.518 362.843 339.124 363.327 338.884L364.869 342C366.18 341.351 366.546 339.968 366.429 338.719C366.315 337.49 365.744 336.001 364.712 334.228C362.63 330.651 358.33 325.352 350.309 317.705L347.911 320.221ZM362.499 339.76L351.354 365.9L354.551 367.264L365.697 341.123L362.499 339.76ZM351.468 367.485L384.673 422.11L387.644 420.305L354.438 365.679L351.468 367.485ZM384.905 422.413L434.659 474.122L437.163 471.711L387.411 420.002L384.905 422.413ZM436.417 474.579L496.042 456.436L495.03 453.111L435.405 471.254L436.417 474.579ZM497.028 455.666C530.825 399.092 542.285 367.713 552.456 309.364L549.032 308.767C538.938 366.677 527.634 397.656 494.044 453.883L497.028 455.666ZM551.172 307.381L401.276 269.238L400.419 272.607L550.315 310.75L551.172 307.381ZM394.001 285.499C401.177 291.793 404.203 298.998 408.047 307.207L411.196 305.732C407.428 297.688 404.118 289.75 396.293 282.885L394.001 285.499Z" fill="#572316"/>
<path d="M526.768 326.323C520.25 336.67 479.512 337.441 447.597 317.333C415.68 297.225 395.091 272.537 401.61 262.19C408.128 251.843 439.286 259.757 471.202 279.865C503.119 299.972 533.287 315.977 526.768 326.323Z" fill="black" fill-opacity="0.3"/>
<path d="M388.244 219.495L389.934 219.901C388.244 219.495 388.243 219.496 388.243 219.498V219.5L388.241 219.507L388.236 219.529L388.218 219.608C388.202 219.677 388.18 219.775 388.153 219.901C388.099 220.155 388.023 220.523 387.935 220.995C387.759 221.938 387.532 223.296 387.327 224.975C386.917 228.33 386.587 232.991 386.917 238.208C387.573 248.607 390.866 261.481 401.65 270.483C422.181 287.624 430.567 293.678 445.711 297.818C450.196 299.044 455.945 300.712 462.14 302.508C476.12 306.565 492.368 311.277 501.467 313.054C522.226 317.108 537.362 312.332 546.309 309.509C546.93 309.314 547.522 309.126 548.083 308.953C557.133 306.154 571.855 296.584 581.682 282.274L581.779 282.134L581.846 281.977C585.862 272.64 587.679 264.955 587.496 256.987C587.316 249.106 585.184 241.086 581.53 231.082C577.338 187.936 559.238 155.477 532.06 140.308L531.992 140.271L531.922 140.239L531.213 141.825C531.922 140.239 531.922 140.239 531.92 140.239L531.918 140.238L531.91 140.235L531.884 140.223L531.788 140.181C531.706 140.146 531.585 140.093 531.426 140.026C531.107 139.892 530.64 139.699 530.024 139.457C528.796 138.971 526.983 138.289 524.627 137.491C519.915 135.893 513.027 133.828 504.281 131.945C499.593 130.936 492.9 131.316 485.264 132.972C477.585 134.638 468.798 137.626 459.857 141.979C442.106 150.619 423.597 164.707 411.984 184.681C398.8 192.679 391.854 206.286 388.257 219.443L388.25 219.47L388.244 219.495Z" fill="#F7A528" stroke="#572316" stroke-width="3.47424"/>
<path d="M484.136 140.122C473.704 139.287 442.543 157.445 428.268 166.629C452.062 141.093 486.262 133.631 495.415 133.119H495.416C496.575 133.055 523.207 131.57 546.806 151.982C569.956 172.004 578.125 216.599 574.293 202.946C570.463 189.292 542.27 148.809 539.098 155.146C536.56 160.215 528.509 159.622 524.406 158.824C519.845 157.938 509.506 155.616 500.611 152.32C491.715 149.024 486.114 146.064 486.359 142.531C486.41 141.8 486.769 139.977 484.136 140.122Z" fill="#F6DA90"/>
<path d="M583.939 273.065C582.256 284.491 561.309 309.739 528.733 311.639C511.455 314.406 500.4 310.868 464.087 301.433C427.775 292 415.643 280.005 398.712 266.031C388.336 254.933 383.588 227.302 395.913 203.298C404.028 191.899 405.591 191.479 425.254 209.112C430.383 213.711 435.953 225.347 442.523 228.956C482.179 211.947 514.395 227.623 531.465 253.513C540.367 253.817 547.281 248.189 551.925 246.959C595.086 230.88 585.621 261.639 583.939 273.065Z" fill="white"/>
<path fill-rule="evenodd" clip-rule="evenodd" d="M585.86 258.909C579.494 270.569 561.322 287.187 532.938 290.483C515.598 293.307 495.247 287.383 468.955 279.476C434.131 272.478 416.963 257.875 403.866 242.569C397.34 235.588 392.653 223.676 393.28 209.325C383.482 233.446 389.242 253.888 395.805 263.076C409.999 277.787 433.021 294.419 451.525 298.534C456.307 299.84 461.21 301.25 466.137 302.666C488.583 309.121 511.521 315.715 525.735 313.404C561.181 309.801 581.187 285.24 583.233 275.954C583.32 275.563 583.421 275.118 583.534 274.627C584.354 271.038 585.741 264.969 585.86 258.909Z" fill="#ACABCF"/>
<path d="M422.279 165.676L423.03 168.942L425.266 166.446C428.761 162.545 435.522 156.866 443.736 151.336C451.939 145.814 461.469 140.524 470.46 137.333L472.9 136.467L471.173 134.538C461.745 123.994 453.775 117.441 446.578 114.401C439.244 111.304 432.764 111.883 426.614 115.392C423.658 117.079 421.9 120.469 420.843 124.316C419.771 128.224 419.323 132.974 419.273 137.896C419.172 147.749 420.662 158.643 422.279 165.676Z" fill="#F8A428" stroke="#572316" stroke-width="3.47424"/>
<path d="M468.779 135.695C451.176 129.679 448.922 118.741 437.224 114.103C443.145 113.849 451.877 118.469 455.106 121.153C458.334 123.836 474.049 137.495 468.779 135.695Z" fill="#F6DA90"/>
<path d="M458.142 140.711C432.72 134.626 425.977 123.694 426.011 118.301C416.313 126.395 423.486 165.929 424.061 165.25C431.502 156.479 450.979 144.516 458.142 140.711Z" fill="#AD7640"/>
<path d="M445.554 145.554L435.556 152.185C432.609 148.211 432.003 129.244 435.48 124.431L438.737 129.644L445.554 145.554Z" fill="#FF5F95"/>
<path d="M435.043 154.095C433.202 150.153 430.988 142.62 431.837 135.042C432.314 130.791 432.792 127.513 433.55 125.3C433.926 124.202 434.324 123.519 434.701 123.125C434.98 122.832 435.254 122.688 435.589 122.646C435.687 122.715 435.836 122.843 436.036 123.056C436.508 123.56 437.077 124.348 437.719 125.395C438.994 127.472 440.393 130.297 441.706 133.183C443.012 136.055 444.209 138.937 445.079 141.105C445.514 142.187 445.867 143.089 446.111 143.719C446.233 144.035 446.328 144.282 446.391 144.449L446.464 144.641L446.483 144.689L446.486 144.7L446.487 144.703L446.488 144.704L448.114 144.092L446.488 144.704L446.492 144.713L446.496 144.723V144.724V144.725L446.503 144.743C446.51 144.76 446.52 144.788 446.533 144.824C446.56 144.899 446.6 145.009 446.643 145.144C446.733 145.419 446.836 145.77 446.908 146.115C446.943 146.279 446.965 146.419 446.979 146.531L440.783 150.599L435.043 154.095ZM446.988 146.865C446.988 146.865 446.988 146.861 446.99 146.854C446.989 146.862 446.988 146.865 446.988 146.865ZM435.501 122.591C435.501 122.591 435.503 122.592 435.509 122.595C435.503 122.592 435.501 122.591 435.501 122.591Z" stroke="#572316" stroke-width="3.47424"/>
<path d="M581.314 209.193L578.913 211.531L578.386 208.222C577.561 203.05 574.954 194.615 571.044 185.515C567.141 176.431 561.996 166.821 556.167 159.27L554.584 157.221L557.08 156.533C570.719 152.778 580.967 151.586 588.663 152.93C596.505 154.3 601.639 158.296 604.908 164.577C606.479 167.596 606.12 171.399 604.924 175.203C603.708 179.07 601.512 183.306 598.888 187.471C593.636 195.807 586.482 204.157 581.314 209.193Z" fill="#F8A428" stroke="#572316" stroke-width="3.47424"/>
<path d="M558.468 158.803C576.523 163.283 584.342 155.309 596.688 157.747C591.848 154.326 582.005 153.479 577.839 153.985C573.671 154.493 553.061 157.463 558.468 158.803Z" fill="#F6DA90"/>
<path d="M564.692 168.782C589.357 177.437 600.946 171.901 603.838 167.349C607.606 179.406 580.163 208.753 580.047 207.87C578.544 196.467 568.651 175.859 564.692 168.782Z" fill="#AD7640"/>
<path d="M572.649 179.671L577.461 190.662C582.092 188.917 592.874 173.301 592.559 167.372L586.997 169.99L572.649 179.671Z" fill="#FF5F95"/>
<path d="M576.858 192.545C580.54 190.228 586.482 185.094 589.872 178.265C591.775 174.434 593.148 171.419 593.71 169.149C593.989 168.021 594.026 167.232 593.923 166.697C593.845 166.3 593.693 166.031 593.434 165.813C593.314 165.819 593.12 165.843 592.836 165.916C592.167 166.083 591.262 166.438 590.155 166.97C587.957 168.025 585.251 169.641 582.585 171.356C579.931 173.064 577.365 174.838 575.458 176.188C574.506 176.862 573.721 177.429 573.175 177.827C572.901 178.026 572.687 178.182 572.543 178.289L572.378 178.41L572.337 178.441L572.327 178.448L572.325 178.45L571.288 177.056L572.325 178.45L572.315 178.457L572.308 178.462V178.463H572.307L572.306 178.464L572.291 178.475C572.277 178.486 572.252 178.504 572.22 178.527C572.157 178.575 572.066 178.647 571.956 178.737C571.732 178.918 571.454 179.158 571.206 179.409C571.088 179.529 570.995 179.633 570.922 179.72L573.927 186.496L576.858 192.545ZM570.733 179.997C570.733 179.997 570.735 179.993 570.739 179.986C570.734 179.993 570.733 179.998 570.733 179.997ZM593.538 165.815C593.538 165.814 593.535 165.814 593.53 165.814C593.535 165.814 593.538 165.815 593.538 165.815Z" stroke="#572316" stroke-width="3.47424"/>
<path d="M475.548 178.781C482.767 180.754 489.249 180.048 490.027 177.203C490.804 174.358 485.583 170.452 478.365 168.479C471.146 166.506 464.664 167.212 463.887 170.057C463.109 172.902 468.33 176.808 475.548 178.781Z" fill="white"/>
<path d="M531.5 183.004C538.719 184.977 543.94 188.883 543.162 191.728C542.385 194.573 535.903 195.279 528.684 193.306C521.466 191.333 516.245 187.427 517.022 184.582C517.8 181.737 524.282 181.031 531.5 183.004Z" fill="white"/>
<path d="M461.392 198.625C450.853 194.904 441.948 205.525 443.748 198.459C445.547 191.393 455.162 188.111 464.458 190.478C470.459 192.511 476.387 200.082 477.416 207.034C475.616 214.1 470.099 201.699 461.392 198.625Z" fill="black"/>
<path d="M536.782 216.569C526.242 212.848 517.338 223.469 519.137 216.403C520.937 209.337 530.551 206.055 539.849 208.422C545.849 210.455 551.777 218.026 552.805 224.978C551.006 232.044 545.488 219.643 536.782 216.569Z" fill="black"/>
<path d="M484.954 247.807L485.687 245.126M463.08 242.188C463.657 242.706 469.809 250.51 484.954 247.807L463.08 242.188ZM484.954 247.807C490.924 252.321 496.498 255.645 505.641 253.823L484.954 247.807Z" stroke="#572316" stroke-width="4.86394" stroke-linecap="round"/>
<path d="M479.551 263.619C473.519 261.97 471.575 250.633 472.4 247.617C481.91 248.838 487.049 250.245 495.859 254.03C493.864 260.448 485.583 265.267 479.551 263.619Z" fill="#572316"/>
<path fill-rule="evenodd" clip-rule="evenodd" d="M482.412 257.23C482.472 257.106 482.52 256.985 482.552 256.865C482.957 255.384 485.121 254.686 486.971 255.191C488.822 255.698 489.995 257.309 489.589 258.789C489.19 260.249 484.917 262.11 481.351 260.871C477.589 260.185 475.04 256.409 475.443 254.932C475.848 253.451 477.676 252.661 479.526 253.167C481.378 253.673 482.886 255.375 482.481 256.856C482.448 256.972 482.427 257.098 482.412 257.23Z" fill="#FB609C"/>
<path d="M489.992 229.375C482.034 227.2 474.597 229.037 473.383 233.479C472.169 237.921 477.636 243.286 485.595 245.461C493.554 247.637 500.99 245.8 502.204 241.358C503.418 236.915 497.951 231.551 489.992 229.375Z" fill="#572316"/>
<path d="M489.291 230.625C486.7 229.916 484.353 230.242 484.049 231.353C483.746 232.463 485.6 233.938 488.191 234.646C490.783 235.355 493.129 235.029 493.433 233.918C493.737 232.808 491.882 231.333 489.291 230.625Z" fill="white"/>
<path d="M495.895 327.293C563.511 327.293 618.324 272.479 618.324 204.863C618.324 137.246 563.511 82.4327 495.895 82.4327C428.278 82.4327 373.465 137.246 373.465 204.863C373.465 272.479 428.278 327.293 495.895 327.293Z" fill="white" fill-opacity="0.32" stroke="black" stroke-width="4.28101"/>
<path d="M423.148 381.191C441.684 393.096 465.443 389.152 476.215 372.381C486.986 355.61 480.692 332.363 462.156 320.458C443.619 308.552 419.861 312.497 409.089 329.267C398.317 346.038 404.612 369.285 423.148 381.191Z" fill="white"/>
<g filter="url(#filter3_i_287_38)">
<path d="M468.007 487.873C383.485 536.868 381.76 577.634 318.463 480.228C274.184 412.087 296.574 390.624 344.927 369.314C380.415 346.468 440.875 325.986 482.421 318.016C572.435 305.282 582.765 308.531 623.003 327.603C616.308 352.086 547.462 445.217 468.007 487.873Z" fill="#FFE5E2"/>
</g>
<path d="M468.007 487.873C383.485 536.868 381.76 577.634 318.463 480.228C274.184 412.087 296.574 390.624 344.927 369.314C380.415 346.468 440.875 325.986 482.421 318.016C572.435 305.282 582.765 308.531 623.003 327.603C616.308 352.086 547.462 445.217 468.007 487.873Z" stroke="black" stroke-width="3.47606"/>
<g filter="url(#filter4_i_287_38)">
<path d="M561.305 412.908C530.393 384.588 517.56 332.513 520.492 313.889C564.82 309.249 582.69 307.558 621.901 328.228C618.682 340.27 594.56 377.828 561.305 412.908Z" fill="#E83B81"/>
</g>
<path d="M561.305 412.908C530.393 384.588 517.56 332.513 520.492 313.889C564.82 309.249 582.69 307.558 621.901 328.228C618.682 340.27 594.56 377.828 561.305 412.908Z" stroke="black" stroke-width="3.47606"/>
<g filter="url(#filter5_i_287_38)">
<path d="M238.729 367.703C313.402 334.393 360.305 344.199 374.423 353.268C362.267 376.877 333.037 416.649 313.348 386.845C293.66 357.043 255.399 361.666 238.729 367.703Z" fill="#E83B81"/>
</g>
<path d="M238.729 367.702C313.402 334.392 360.305 344.199 374.423 353.268C362.267 376.877 333.037 416.649 313.348 386.845C293.66 357.043 255.399 361.666 238.729 367.702Z" stroke="black" stroke-width="3.47606"/>
<g filter="url(#filter6_i_287_38)">
<path d="M359.618 607.626C428.604 563.735 446.309 519.208 446.537 502.43C420.14 499.538 370.842 501.968 384.831 534.833C398.821 567.698 373.851 597.056 359.618 607.626Z" fill="#E83B81"/>
</g>
<path d="M359.618 607.626C428.604 563.735 446.309 519.208 446.537 502.43C420.14 499.538 370.842 501.968 384.831 534.833C398.821 567.698 373.851 597.056 359.618 607.626Z" stroke="black" stroke-width="3.47606"/>
<g filter="url(#filter7_i_287_38)">
<path d="M352.262 469.547C326.816 481.377 280.692 496.503 277.155 488.893C273.617 481.282 314.003 453.819 339.449 441.989C364.897 430.159 406.721 415.518 410.259 423.128C413.797 430.739 377.709 457.717 352.262 469.547Z" fill="#E83B81"/>
</g>
<path d="M351.53 467.972C338.888 473.848 321.082 480.555 306.017 484.839C298.475 486.983 291.696 488.497 286.628 489.014C284.082 489.275 282.075 489.27 280.657 489.02C279.156 488.755 278.8 488.309 278.731 488.159C278.652 487.991 278.549 487.388 279.299 486.006C280.007 484.703 281.271 483.091 283.069 481.222C286.652 477.501 292.068 473.054 298.453 468.43C311.21 459.19 327.574 449.427 340.183 443.564C352.844 437.678 369.582 431.093 383.566 426.934C390.571 424.851 396.803 423.401 401.456 422.93C403.795 422.694 405.621 422.717 406.906 422.973C408.236 423.238 408.59 423.661 408.684 423.861C408.796 424.102 408.882 424.745 408.253 426.085C407.653 427.365 406.55 428.951 404.956 430.789C401.778 434.451 396.903 438.828 391.062 443.385C379.387 452.492 364.115 462.121 351.53 467.972Z" stroke="black" stroke-width="3.47606"/>
<g filter="url(#filter8_ii_287_38)">
<path d="M443.303 429.677C466.473 444.559 497.32 437.84 512.202 414.67C527.084 391.499 520.365 360.652 497.195 345.77C474.024 330.889 443.177 337.608 428.295 360.778C413.413 383.948 420.132 414.796 443.303 429.677Z" fill="#E83B81"/>
<path d="M444.242 428.215C466.604 442.578 496.377 436.093 510.74 413.731C525.103 391.368 518.618 361.596 496.255 347.233C473.892 332.87 444.12 339.355 429.757 361.717C415.394 384.08 421.879 413.852 444.242 428.215Z" stroke="black" stroke-width="3.47606"/>
</g>
<path d="M453.993 413.032C467.971 422.009 486.579 417.956 495.556 403.979C504.534 390.001 500.48 371.393 486.503 362.416C472.526 353.439 453.918 357.492 444.94 371.469C435.963 385.446 440.016 404.055 453.993 413.032Z" fill="#8BE9FF" stroke="black" stroke-width="3.47606"/>
<path d="M468.582 359.563C475.278 359.125 479.544 360.199 486.445 364.264L472.314 416.141C464.48 416.821 460.474 415.791 454.052 411.184L468.582 359.563Z" fill="url(#paint0_linear_287_38)"/>
<g filter="url(#filter9_i_287_38)">
<path d="M330.298 297.287C349.014 294.859 362.016 272.507 366.178 261.635L347.483 246.806C338.807 244.846 334.835 251.852 333.933 255.598C326.857 254.666 323.112 262.194 322.125 266.075C315.14 264.297 313.757 269.731 313.939 272.67C319.258 280.79 329.978 297.081 330.298 297.287Z" fill="white"/>
</g>
<path d="M330.298 297.287C349.014 294.859 362.016 272.507 366.178 261.635L347.483 246.806C338.807 244.846 334.835 251.852 333.933 255.598C326.857 254.666 323.112 262.194 322.125 266.075C315.14 264.297 313.757 269.73 313.939 272.67C319.258 280.79 329.978 297.081 330.298 297.287Z" stroke="#572316" stroke-width="3.47606"/>
<g filter="url(#filter10_i_287_38)">
<path d="M537.645 414.678C561.159 435.738 575.609 420.216 577.341 417.797C586.963 404.368 580.249 396.23 578.849 393.539C575.16 386.448 565.319 374.935 556.123 376.303C546.927 377.672 548.75 385.209 550.829 388.665C539.385 393.977 542.996 399.308 545.678 402.614C539.812 404.382 535.807 411.786 537.645 414.678Z" fill="white"/>
</g>
<path d="M537.645 414.678C561.159 435.738 575.609 420.216 577.341 417.797C586.963 404.368 580.249 396.23 578.849 393.54C575.16 386.448 565.319 374.935 556.123 376.303C546.927 377.672 548.75 385.209 550.829 388.666C539.385 393.977 542.996 399.308 545.678 402.614C539.812 404.382 535.807 411.786 537.645 414.678Z" stroke="#572316" stroke-width="3.05382"/>
<path d="M322.803 457.645C323.233 458.534 329.384 456.451 336.542 452.992C343.7 449.534 349.154 446.009 348.724 445.12C348.295 444.23 342.144 446.313 334.986 449.772C327.828 453.231 322.374 456.756 322.803 457.645Z" fill="white"/>
<path d="M319.652 429.852C323.624 432.403 328.913 431.251 331.464 427.279C334.015 423.307 332.863 418.019 328.891 415.468C324.919 412.916 319.631 414.068 317.08 418.04C314.529 422.012 315.68 427.301 319.652 429.852Z" fill="#535353"/>
<path d="M319.652 429.852C323.624 432.403 328.913 431.251 331.464 427.279C334.015 423.307 332.863 418.019 328.891 415.468C324.919 412.916 319.631 414.068 317.08 418.04C314.529 422.012 315.68 427.301 319.652 429.852Z" fill="#535353"/>
<path d="M319.652 429.852C323.624 432.403 328.913 431.251 331.464 427.279C334.015 423.307 332.863 418.019 328.891 415.468C324.919 412.916 319.631 414.068 317.08 418.04C314.529 422.012 315.68 427.301 319.652 429.852Z" fill="#535353"/>
<path d="M365.273 494.145C369.245 496.696 374.533 495.545 377.085 491.573C379.636 487.601 378.484 482.312 374.512 479.761C370.54 477.21 365.252 478.362 362.701 482.334C360.149 486.306 361.301 491.594 365.273 494.145Z" fill="#535353"/>
<path d="M365.273 494.145C369.245 496.696 374.533 495.545 377.085 491.573C379.636 487.601 378.484 482.312 374.512 479.761C370.54 477.21 365.252 478.362 362.701 482.334C360.149 486.306 361.301 491.594 365.273 494.145Z" fill="#535353"/>
<path d="M365.273 494.145C369.245 496.696 374.533 495.545 377.085 491.573C379.636 487.601 378.484 482.312 374.512 479.761C370.54 477.21 365.252 478.362 362.701 482.334C360.149 486.306 361.301 491.594 365.273 494.145Z" fill="#535353"/>
<path d="M1919.81 495.619C1854.09 495.619 1791.06 469.511 1744.58 423.037C1698.11 376.564 1672 313.533 1672 247.81C1672 182.086 1698.11 119.055 1744.58 72.5817C1791.06 26.1084 1854.09 7.05107e-06 1919.81 0V247.81V495.619Z" fill="white"/>
<g filter="url(#filter11_f_287_38)">
<path d="M1920 496C1849.19 496 1781.27 469.872 1731.2 423.363C1681.13 376.853 1653 313.774 1653 248C1653 182.226 1681.13 119.147 1731.2 72.6375C1781.27 26.1285 1849.19 6.83619e-06 1920 0V248V496Z" fill="white"/>
</g>
<path d="M1920 499C1862.98 499 1808.29 472.713 1767.97 425.923C1727.65 379.133 1705 315.672 1705 249.5C1705 183.329 1727.65 119.867 1767.97 73.0769C1808.29 26.2865 1862.98 1.13138e-05 1920 3.8147e-06V249.5V499Z" fill="#F7F7F7"/>
<g filter="url(#filter12_f_287_38)">
<path d="M1907 499C1849.98 499 1795.29 472.872 1754.97 426.363C1714.65 379.853 1692 316.774 1692 251C1692 185.226 1714.65 122.147 1754.97 75.6375C1795.29 29.1285 1849.98 3.00001 1907 3V251V499Z" fill="#F7F7F7"/>
</g>
<g filter="url(#filter13_i_287_38)">
<path d="M1875.18 113.508C1900.1 100.974 1914.46 79.2138 1907.26 64.9061C1900.06 50.5985 1874.03 49.1612 1849.12 61.6959C1824.2 74.2305 1809.84 95.9905 1817.04 110.298C1824.24 124.606 1850.27 126.043 1875.18 113.508Z" fill="#E0E0E0"/>
</g>
<g filter="url(#filter14_i_287_38)">
<path d="M1794.04 199.071C1811.14 205.107 1827.86 201.909 1831.38 191.929C1834.9 181.949 1823.9 168.965 1806.8 162.929C1789.7 156.893 1772.98 160.091 1769.46 170.071C1765.94 180.051 1776.94 193.035 1794.04 199.071Z" fill="#E0E0E0"/>
</g>
<g filter="url(#filter15_i_287_38)">
<path d="M1818.87 347.288C1849.17 364.431 1882.76 362.379 1893.89 342.704C1905.02 323.03 1889.48 293.183 1859.17 276.04C1828.87 258.897 1795.28 260.949 1784.15 280.624C1773.02 300.298 1788.56 330.145 1818.87 347.288Z" fill="#E0E0E0"/>
</g>
<path d="M1805.95 109.803C1809.29 108.123 1811.13 105.023 1810.05 102.88C1808.97 100.737 1805.39 100.363 1802.05 102.043C1798.71 103.723 1796.87 106.823 1797.95 108.966C1799.03 111.109 1802.61 111.483 1805.95 109.803Z" fill="#E0E0E0"/>
<path d="M1759.02 198.944C1765.67 195.599 1769.72 190.226 1768.07 186.944C1766.42 183.661 1759.69 183.712 1753.04 187.056C1746.39 190.401 1742.34 195.774 1743.99 199.056C1745.64 202.339 1752.37 202.288 1759.02 198.944Z" fill="#E0E0E0"/>
<path d="M1839.71 400.289C1838.18 395.711 1835.84 392.369 1834.47 392.826C1833.11 393.282 1833.24 397.363 1834.77 401.941C1836.3 406.519 1838.64 409.861 1840.01 409.404C1841.37 408.948 1841.24 404.867 1839.71 400.289Z" fill="#E0E0E0"/>
<g filter="url(#filter16_i_287_38)">
<path d="M1845.46 436.698C1849.76 431.361 1839.5 415.951 1822.54 402.279C1805.58 388.607 1788.34 381.85 1784.04 387.188C1779.74 392.525 1790 407.935 1806.96 421.607C1823.92 435.279 1841.16 442.036 1845.46 436.698Z" fill="#E0E0E0"/>
</g>
<path d="M1901.73 310.037C1905.45 312.608 1909.29 313.488 1910.32 312.002C1911.35 310.515 1909.17 307.226 1905.45 304.655C1901.73 302.084 1897.89 301.204 1896.86 302.69C1895.83 304.177 1898.01 307.466 1901.73 310.037Z" fill="#E0E0E0"/>
<path d="M1766.82 301.123C1768.38 306.875 1771.05 311.156 1772.8 310.684C1774.54 310.212 1774.69 305.166 1773.14 299.415C1771.58 293.663 1768.91 289.382 1767.16 289.854C1765.42 290.326 1765.27 295.371 1766.82 301.123Z" fill="#E0E0E0"/>
<path d="M1902.21 237.709C1906.19 238.633 1909.73 238.031 1910.12 236.364C1910.5 234.697 1907.59 232.597 1903.61 231.673C1899.63 230.749 1896.09 231.351 1895.71 233.018C1895.32 234.685 1898.23 236.785 1902.21 237.709Z" fill="#E0E0E0"/>
<path d="M1888.66 240.363C1890.82 239.219 1892.19 237.555 1891.71 236.646C1891.23 235.737 1889.09 235.927 1886.92 237.071C1884.76 238.215 1883.39 239.879 1883.87 240.788C1884.35 241.697 1886.49 241.507 1888.66 240.363Z" fill="#E0E0E0"/>
<g filter="url(#filter17_i_287_38)">
<path d="M1894.52 225.123C1906.88 215.419 1913.29 202.951 1908.83 197.276C1904.38 191.6 1890.75 194.867 1878.38 204.571C1866.02 214.275 1859.61 226.743 1864.07 232.418C1868.52 238.094 1882.15 234.828 1894.52 225.123Z" fill="#E0E0E0"/>
</g>
<path d="M1807.91 95.8535C1810.07 96.4122 1812.05 96.0049 1812.32 94.944C1812.59 93.883 1811.07 92.5701 1808.91 92.0115C1806.75 91.4529 1804.77 91.8601 1804.5 92.921C1804.23 93.982 1805.75 95.2949 1807.91 95.8535Z" fill="#E0E0E0"/>
<path d="M458.154 136.29L464 110L470.154 136.29L496 142.524L470.154 148.216L464 172.609L458.154 148.216L432 142.524L458.154 136.29Z" fill="white"/>
<path d="M179.798 228.896L184 210L188.423 228.896L207 233.377L188.423 237.468L184 255L179.798 237.468L161 233.377L179.798 228.896Z" fill="white"/>
<path d="M424.456 604.537L427.911 589L431.548 604.537L446.822 608.221L431.548 611.584L427.911 626L424.456 611.584L409 608.221L424.456 604.537Z" fill="white"/>
<path d="M590.154 439.29L596 413L602.154 439.29L628 445.524L602.154 451.216L596 475.609L590.154 451.216L564 445.524L590.154 439.29Z" fill="white"/>
<path d="M942.532 364.597L945.333 352L948.282 364.597L960.667 367.584L948.282 370.312L945.333 382L942.532 370.312L930 367.584L942.532 364.597Z" fill="white"/>
<path d="M832.887 665.996L837.556 645L842.47 665.996L863.111 670.974L842.47 675.519L837.556 695L832.887 675.519L812 670.974L832.887 665.996Z" fill="white"/>
<path d="M851.231 78.4353L860 39L869.231 78.4353L908 87.786L869.231 96.3235L860 132.913L851.231 96.3235L812 87.786L851.231 78.4353Z" fill="white"/>
</g>
<defs>
<filter id="filter0_i_287_38" x="139.375" y="435.694" width="219.2" height="123.882" filterUnits="userSpaceOnUse" color-interpolation-filters="sRGB">
<feFlood flood-opacity="0" result="BackgroundImageFix"/>
<feBlend mode="normal" in="SourceGraphic" in2="BackgroundImageFix" result="shape"/>
<feColorMatrix in="SourceAlpha" type="matrix" values="0 0 0 0 0 0 0 0 0 0 0 0 0 0 0 0 0 0 127 0" result="hardAlpha"/>
<feOffset dx="-11.3969" dy="-9.49745"/>
<feGaussianBlur stdDeviation="2.33935"/>
<feComposite in2="hardAlpha" operator="arithmetic" k2="-1" k3="1"/>
<feColorMatrix type="matrix" values="0 0 0 0 0.670833 0 0 0 0 0.25885 0 0 0 0 0.061493 0 0 0 1 0"/>
<feBlend mode="normal" in2="shape" result="effect1_innerShadow_287_38"/>
</filter>
<filter id="filter1_i_287_38" x="270.98" y="417.285" width="95.6748" height="123.266" filterUnits="userSpaceOnUse" color-interpolation-filters="sRGB">
<feFlood flood-opacity="0" result="BackgroundImageFix"/>
<feBlend mode="normal" in="SourceGraphic" in2="BackgroundImageFix" result="shape"/>
<feColorMatrix in="SourceAlpha" type="matrix" values="0 0 0 0 0 0 0 0 0 0 0 0 0 0 0 0 0 0 127 0" result="hardAlpha"/>
<feOffset dx="-16.1456" dy="-12.3467"/>
<feGaussianBlur stdDeviation="2.33935"/>
<feComposite in2="hardAlpha" operator="arithmetic" k2="-1" k3="1"/>
<feColorMatrix type="matrix" values="0 0 0 0 0.741176 0 0 0 0 0.666667 0 0 0 0 0.658824 0 0 0 1 0"/>
<feBlend mode="normal" in2="shape" result="effect1_innerShadow_287_38"/>
</filter>
<filter id="filter2_ii_287_38" x="313.256" y="241.823" width="242.166" height="234.892" filterUnits="userSpaceOnUse" color-interpolation-filters="sRGB">
<feFlood flood-opacity="0" result="BackgroundImageFix"/>
<feBlend mode="normal" in="SourceGraphic" in2="BackgroundImageFix" result="shape"/>
<feColorMatrix in="SourceAlpha" type="matrix" values="0 0 0 0 0 0 0 0 0 0 0 0 0 0 0 0 0 0 127 0" result="hardAlpha"/>
<feOffset dx="7.59797" dy="-12.3467"/>
<feGaussianBlur stdDeviation="2.33935"/>
<feComposite in2="hardAlpha" operator="arithmetic" k2="-1" k3="1"/>
<feColorMatrix type="matrix" values="0 0 0 0 0.341176 0 0 0 0 0.137255 0 0 0 0 0.0862745 0 0 0 0.22 0"/>
<feBlend mode="normal" in2="shape" result="effect1_innerShadow_287_38"/>
<feColorMatrix in="SourceAlpha" type="matrix" values="0 0 0 0 0 0 0 0 0 0 0 0 0 0 0 0 0 0 127 0" result="hardAlpha"/>
<feOffset dy="3.79898"/>
<feGaussianBlur stdDeviation="1.89949"/>
<feComposite in2="hardAlpha" operator="arithmetic" k2="-1" k3="1"/>
<feColorMatrix type="matrix" values="0 0 0 0 0 0 0 0 0 0 0 0 0 0 0 0 0 0 0.25 0"/>
<feBlend mode="normal" in2="effect1_innerShadow_287_38" result="effect2_innerShadow_287_38"/>
</filter>
<filter id="filter3_i_287_38" x="289.95" y="305.718" width="333.053" height="233.913" filterUnits="userSpaceOnUse" color-interpolation-filters="sRGB">
<feFlood flood-opacity="0" result="BackgroundImageFix"/>
<feBlend mode="normal" in="SourceGraphic" in2="BackgroundImageFix" result="shape"/>
<feColorMatrix in="SourceAlpha" type="matrix" values="0 0 0 0 0 0 0 0 0 0 0 0 0 0 0 0 0 0 127 0" result="hardAlpha"/>
<feOffset dx="-6.52317" dy="-20.8741"/>
<feGaussianBlur stdDeviation="2.33935"/>
<feComposite in2="hardAlpha" operator="arithmetic" k2="-1" k3="1"/>
<feColorMatrix type="matrix" values="0 0 0 0 0.741667 0 0 0 0 0.666861 0 0 0 0 0.658229 0 0 0 1 0"/>
<feBlend mode="normal" in2="shape" result="effect1_innerShadow_287_38"/>
</filter>
<filter id="filter4_i_287_38" x="515.406" y="306.252" width="106.495" height="106.657" filterUnits="userSpaceOnUse" color-interpolation-filters="sRGB">
<feFlood flood-opacity="0" result="BackgroundImageFix"/>
<feBlend mode="normal" in="SourceGraphic" in2="BackgroundImageFix" result="shape"/>
<feColorMatrix in="SourceAlpha" type="matrix" values="0 0 0 0 0 0 0 0 0 0 0 0 0 0 0 0 0 0 127 0" result="hardAlpha"/>
<feOffset dx="-14.2462" dy="-4.74873"/>
<feGaussianBlur stdDeviation="2.33935"/>
<feComposite in2="hardAlpha" operator="arithmetic" k2="-1" k3="1"/>
<feColorMatrix type="matrix" values="0 0 0 0 0.65098 0 0 0 0 0.137255 0 0 0 0 0.345098 0 0 0 1 0"/>
<feBlend mode="normal" in2="shape" result="effect1_innerShadow_287_38"/>
</filter>
<filter id="filter5_i_287_38" x="236.829" y="339.866" width="137.594" height="57.6284" filterUnits="userSpaceOnUse" color-interpolation-filters="sRGB">
<feFlood flood-opacity="0" result="BackgroundImageFix"/>
<feBlend mode="normal" in="SourceGraphic" in2="BackgroundImageFix" result="shape"/>
<feColorMatrix in="SourceAlpha" type="matrix" values="0 0 0 0 0 0 0 0 0 0 0 0 0 0 0 0 0 0 127 0" result="hardAlpha"/>
<feOffset dx="-1.89949" dy="-12.3467"/>
<feGaussianBlur stdDeviation="2.33935"/>
<feComposite in2="hardAlpha" operator="arithmetic" k2="-1" k3="1"/>
<feColorMatrix type="matrix" values="0 0 0 0 0.65098 0 0 0 0 0.137255 0 0 0 0 0.345098 0 0 0 1 0"/>
<feBlend mode="normal" in2="shape" result="effect1_innerShadow_287_38"/>
</filter>
<filter id="filter6_i_287_38" x="359.618" y="496.851" width="91.5984" height="110.775" filterUnits="userSpaceOnUse" color-interpolation-filters="sRGB">
<feFlood flood-opacity="0" result="BackgroundImageFix"/>
<feBlend mode="normal" in="SourceGraphic" in2="BackgroundImageFix" result="shape"/>
<feColorMatrix in="SourceAlpha" type="matrix" values="0 0 0 0 0 0 0 0 0 0 0 0 0 0 0 0 0 0 127 0" result="hardAlpha"/>
<feOffset dx="10.4472" dy="-5.69847"/>
<feGaussianBlur stdDeviation="2.33935"/>
<feComposite in2="hardAlpha" operator="arithmetic" k2="-1" k3="1"/>
<feColorMatrix type="matrix" values="0 0 0 0 0.65 0 0 0 0 0.135417 0 0 0 0 0.34363 0 0 0 1 0"/>
<feBlend mode="normal" in2="shape" result="effect1_innerShadow_287_38"/>
</filter>
<filter id="filter7_i_287_38" x="272.258" y="419.128" width="138.242" height="71.8188" filterUnits="userSpaceOnUse" color-interpolation-filters="sRGB">
<feFlood flood-opacity="0" result="BackgroundImageFix"/>
<feBlend mode="normal" in="SourceGraphic" in2="BackgroundImageFix" result="shape"/>
<feColorMatrix in="SourceAlpha" type="matrix" values="0 0 0 0 0 0 0 0 0 0 0 0 0 0 0 0 0 0 127 0" result="hardAlpha"/>
<feOffset dx="-10.4472" dy="-1.89949"/>
<feGaussianBlur stdDeviation="2.33935"/>
<feComposite in2="hardAlpha" operator="arithmetic" k2="-1" k3="1"/>
<feColorMatrix type="matrix" values="0 0 0 0 0.65098 0 0 0 0 0.137255 0 0 0 0 0.345098 0 0 0 1 0"/>
<feBlend mode="normal" in2="shape" result="effect1_innerShadow_287_38"/>
</filter>
<filter id="filter8_ii_287_38" x="415.702" y="333.177" width="106.314" height="109.093" filterUnits="userSpaceOnUse" color-interpolation-filters="sRGB">
<feFlood flood-opacity="0" result="BackgroundImageFix"/>
<feBlend mode="normal" in="SourceGraphic" in2="BackgroundImageFix" result="shape"/>
<feColorMatrix in="SourceAlpha" type="matrix" values="0 0 0 0 0 0 0 0 0 0 0 0 0 0 0 0 0 0 127 0" result="hardAlpha"/>
<feOffset dx="1.89949" dy="7.59797"/>
<feGaussianBlur stdDeviation="2.33935"/>
<feComposite in2="hardAlpha" operator="arithmetic" k2="-1" k3="1"/>
<feColorMatrix type="matrix" values="0 0 0 0 0 0 0 0 0 0 0 0 0 0 0 0 0 0 0.25 0"/>
<feBlend mode="normal" in2="shape" result="effect1_innerShadow_287_38"/>
<feColorMatrix in="SourceAlpha" type="matrix" values="0 0 0 0 0 0 0 0 0 0 0 0 0 0 0 0 0 0 127 0" result="hardAlpha"/>
<feOffset dx="-7.59797" dy="-9.49745"/>
<feGaussianBlur stdDeviation="2.33935"/>
<feComposite in2="hardAlpha" operator="arithmetic" k2="-1" k3="1"/>
<feColorMatrix type="matrix" values="0 0 0 0 0.65098 0 0 0 0 0.137255 0 0 0 0 0.345098 0 0 0 1 0"/>
<feBlend mode="normal" in2="effect1_innerShadow_287_38" result="effect2_innerShadow_287_38"/>
</filter>
<filter id="filter9_i_287_38" x="313.924" y="241.788" width="56.9326" height="55.4991" filterUnits="userSpaceOnUse" color-interpolation-filters="sRGB">
<feFlood flood-opacity="0" result="BackgroundImageFix"/>
<feBlend mode="normal" in="SourceGraphic" in2="BackgroundImageFix" result="shape"/>
<feColorMatrix in="SourceAlpha" type="matrix" values="0 0 0 0 0 0 0 0 0 0 0 0 0 0 0 0 0 0 127 0" result="hardAlpha"/>
<feOffset dx="5.69847" dy="-12.3467"/>
<feGaussianBlur stdDeviation="2.33935"/>
<feComposite in2="hardAlpha" operator="arithmetic" k2="-1" k3="1"/>
<feColorMatrix type="matrix" values="0 0 0 0 0 0 0 0 0 0 0 0 0 0 0 0 0 0 0.22 0"/>
<feBlend mode="normal" in2="shape" result="effect1_innerShadow_287_38"/>
</filter>
<filter id="filter10_i_287_38" x="537.195" y="371.513" width="45.2373" height="54.0607" filterUnits="userSpaceOnUse" color-interpolation-filters="sRGB">
<feFlood flood-opacity="0" result="BackgroundImageFix"/>
<feBlend mode="normal" in="SourceGraphic" in2="BackgroundImageFix" result="shape"/>
<feColorMatrix in="SourceAlpha" type="matrix" values="0 0 0 0 0 0 0 0 0 0 0 0 0 0 0 0 0 0 127 0" result="hardAlpha"/>
<feOffset dy="-12.5982"/>
<feGaussianBlur stdDeviation="2.33935"/>
<feComposite in2="hardAlpha" operator="arithmetic" k2="-1" k3="1"/>
<feColorMatrix type="matrix" values="0 0 0 0 0 0 0 0 0 0 0 0 0 0 0 0 0 0 0.22 0"/>
<feBlend mode="normal" in2="shape" result="effect1_innerShadow_287_38"/>
</filter>
<filter id="filter11_f_287_38" x="1623" y="-30" width="327" height="556" filterUnits="userSpaceOnUse" color-interpolation-filters="sRGB">
<feFlood flood-opacity="0" result="BackgroundImageFix"/>
<feBlend mode="normal" in="SourceGraphic" in2="BackgroundImageFix" result="shape"/>
<feGaussianBlur stdDeviation="15" result="effect1_foregroundBlur_287_38"/>
</filter>
<filter id="filter12_f_287_38" x="1672" y="-17" width="255" height="536" filterUnits="userSpaceOnUse" color-interpolation-filters="sRGB">
<feFlood flood-opacity="0" result="BackgroundImageFix"/>
<feBlend mode="normal" in="SourceGraphic" in2="BackgroundImageFix" result="shape"/>
<feGaussianBlur stdDeviation="10" result="effect1_foregroundBlur_287_38"/>
</filter>
<filter id="filter13_i_287_38" x="1815.18" y="53.1598" width="93.9395" height="72.8846" filterUnits="userSpaceOnUse" color-interpolation-filters="sRGB">
<feFlood flood-opacity="0" result="BackgroundImageFix"/>
<feBlend mode="normal" in="SourceGraphic" in2="BackgroundImageFix" result="shape"/>
<feColorMatrix in="SourceAlpha" type="matrix" values="0 0 0 0 0 0 0 0 0 0 0 0 0 0 0 0 0 0 127 0" result="hardAlpha"/>
<feOffset dy="4"/>
<feGaussianBlur stdDeviation="2"/>
<feComposite in2="hardAlpha" operator="arithmetic" k2="-1" k3="1"/>
<feColorMatrix type="matrix" values="0 0 0 0 0 0 0 0 0 0 0 0 0 0 0 0 0 0 0.25 0"/>
<feBlend mode="normal" in2="shape" result="effect1_innerShadow_287_38"/>
</filter>
<filter id="filter14_i_287_38" x="1768.8" y="159.878" width="63.2329" height="46.2439" filterUnits="userSpaceOnUse" color-interpolation-filters="sRGB">
<feFlood flood-opacity="0" result="BackgroundImageFix"/>
<feBlend mode="normal" in="SourceGraphic" in2="BackgroundImageFix" result="shape"/>
<feColorMatrix in="SourceAlpha" type="matrix" values="0 0 0 0 0 0 0 0 0 0 0 0 0 0 0 0 0 0 127 0" result="hardAlpha"/>
<feOffset dy="4"/>
<feGaussianBlur stdDeviation="2"/>
<feComposite in2="hardAlpha" operator="arithmetic" k2="-1" k3="1"/>
<feColorMatrix type="matrix" values="0 0 0 0 0 0 0 0 0 0 0 0 0 0 0 0 0 0 0.25 0"/>
<feBlend mode="normal" in2="shape" result="effect1_innerShadow_287_38"/>
</filter>
<filter id="filter15_i_287_38" x="1780.55" y="264.413" width="116.942" height="98.5016" filterUnits="userSpaceOnUse" color-interpolation-filters="sRGB">
<feFlood flood-opacity="0" result="BackgroundImageFix"/>
<feBlend mode="normal" in="SourceGraphic" in2="BackgroundImageFix" result="shape"/>
<feColorMatrix in="SourceAlpha" type="matrix" values="0 0 0 0 0 0 0 0 0 0 0 0 0 0 0 0 0 0 127 0" result="hardAlpha"/>
<feOffset dy="4"/>
<feGaussianBlur stdDeviation="2"/>
<feComposite in2="hardAlpha" operator="arithmetic" k2="-1" k3="1"/>
<feColorMatrix type="matrix" values="0 0 0 0 0 0 0 0 0 0 0 0 0 0 0 0 0 0 0.25 0"/>
<feBlend mode="normal" in2="shape" result="effect1_innerShadow_287_38"/>
</filter>
<filter id="filter16_i_287_38" x="1783.06" y="383.361" width="65.3831" height="55.164" filterUnits="userSpaceOnUse" color-interpolation-filters="sRGB">
<feFlood flood-opacity="0" result="BackgroundImageFix"/>
<feBlend mode="normal" in="SourceGraphic" in2="BackgroundImageFix" result="shape"/>
<feColorMatrix in="SourceAlpha" type="matrix" values="0 0 0 0 0 0 0 0 0 0 0 0 0 0 0 0 0 0 127 0" result="hardAlpha"/>
<feOffset dx="2" dy="-2"/>
<feGaussianBlur stdDeviation="2"/>
<feComposite in2="hardAlpha" operator="arithmetic" k2="-1" k3="1"/>
<feColorMatrix type="matrix" values="0 0 0 0 0 0 0 0 0 0 0 0 0 0 0 0 0 0 0.25 0"/>
<feBlend mode="normal" in2="shape" result="effect1_innerShadow_287_38"/>
</filter>
<filter id="filter17_i_287_38" x="1862.65" y="194.488" width="47.5983" height="44.7177" filterUnits="userSpaceOnUse" color-interpolation-filters="sRGB">
<feFlood flood-opacity="0" result="BackgroundImageFix"/>
<feBlend mode="normal" in="SourceGraphic" in2="BackgroundImageFix" result="shape"/>
<feColorMatrix in="SourceAlpha" type="matrix" values="0 0 0 0 0 0 0 0 0 0 0 0 0 0 0 0 0 0 127 0" result="hardAlpha"/>
<feOffset dy="4"/>
<feGaussianBlur stdDeviation="2"/>
<feComposite in2="hardAlpha" operator="arithmetic" k2="-1" k3="1"/>
<feColorMatrix type="matrix" values="0 0 0 0 0 0 0 0 0 0 0 0 0 0 0 0 0 0 0.25 0"/>
<feBlend mode="normal" in2="shape" result="effect1_innerShadow_287_38"/>
</filter>
<linearGradient id="paint0_linear_287_38" x1="478.066" y1="360.397" x2="454.237" y2="445.165" gradientUnits="userSpaceOnUse">
<stop stop-color="#C6F4FF"/>
<stop offset="1" stop-color="#C6F4FF" stop-opacity="0"/>
</linearGradient>
<clipPath id="clip0_287_38">
<rect width="1920" height="700" fill="white"/>
</clipPath>
</defs>
</svg>
