<svg width="1470" height="729" viewBox="0 0 1470 729" fill="none" xmlns="http://www.w3.org/2000/svg">
<path d="M1440 0H0V729H1440V0Z" fill="#F89F1D"/>
<path d="M207.627 118.635V173.814H141.13V368H71.8029V173.814H6.01294V118.635H207.627ZM340.451 370.476C317.106 370.476 295.648 365.052 276.076 354.205C256.504 343.122 240.94 327.913 229.386 308.577C218.067 289.005 212.408 266.957 212.408 242.433C212.408 217.909 218.067 195.979 229.386 176.643C240.94 157.071 256.504 141.862 276.076 131.015C295.648 120.168 317.106 114.744 340.451 114.744C364.031 114.744 385.49 120.168 404.826 131.015C424.398 141.862 439.843 157.071 451.162 176.643C462.48 195.979 468.14 217.909 468.14 242.433C468.14 266.957 462.48 289.005 451.162 308.577C439.843 327.913 424.398 343.122 404.826 354.205C385.254 365.052 363.796 370.476 340.451 370.476ZM340.451 306.101C358.136 306.101 372.049 300.324 382.188 288.769C392.564 277.215 397.752 261.769 397.752 242.433C397.752 222.625 392.564 207.062 382.188 195.744C372.049 184.189 358.136 178.412 340.451 178.412C322.529 178.412 308.499 184.189 298.359 195.744C288.22 207.062 283.15 222.625 283.15 242.433C283.15 262.005 288.22 277.568 298.359 289.123C308.499 300.442 322.529 306.101 340.451 306.101ZM730.067 118.635V173.814H663.57V368H594.243V173.814H528.453V118.635H730.067ZM966.527 118.635V368H897.2V267.9H812.664V368H743.337V118.635H812.664V212.368H897.2V118.635H966.527ZM1063.15 174.167V214.844H1142.73V267.547H1063.15V312.468H1153.34V368H993.821V118.635H1153.34V174.167H1063.15ZM310.91 420.635V670H241.583V532.407L194.54 670H136.532L89.1346 531.346V670H19.8076V420.635H103.637L166.243 582.634L227.435 420.635H310.91ZM457.548 672.476C434.203 672.476 412.745 667.052 393.173 656.205C373.601 645.122 358.038 629.913 346.483 610.577C335.164 591.005 329.505 568.957 329.505 544.433C329.505 519.909 335.164 497.979 346.483 478.643C358.038 459.071 373.601 443.862 393.173 433.015C412.745 422.168 434.203 416.744 457.548 416.744C481.128 416.744 502.587 422.168 521.923 433.015C541.495 443.862 556.94 459.071 568.259 478.643C579.577 497.979 585.237 519.909 585.237 544.433C585.237 568.957 579.577 591.005 568.259 610.577C556.94 629.913 541.495 645.122 521.923 656.205C502.351 667.052 480.893 672.476 457.548 672.476ZM457.548 608.101C475.233 608.101 489.146 602.324 499.285 590.769C509.661 579.215 514.849 563.769 514.849 544.433C514.849 524.625 509.661 509.062 499.285 497.744C489.146 486.189 475.233 480.412 457.548 480.412C439.627 480.412 425.596 486.189 415.456 497.744C405.317 509.062 400.247 524.625 400.247 544.433C400.247 564.005 405.317 579.568 415.456 591.123C425.596 602.442 439.627 608.101 457.548 608.101ZM723.576 672.476C700.231 672.476 678.773 667.052 659.201 656.205C639.629 645.122 624.066 629.913 612.511 610.577C601.192 591.005 595.533 568.957 595.533 544.433C595.533 519.909 601.192 497.979 612.511 478.643C624.066 459.071 639.629 443.862 659.201 433.015C678.773 422.168 700.231 416.744 723.576 416.744C747.156 416.744 768.615 422.168 787.951 433.015C807.523 443.862 822.968 459.071 834.287 478.643C845.606 497.979 851.265 519.909 851.265 544.433C851.265 568.957 845.606 591.005 834.287 610.577C822.968 629.913 807.523 645.122 787.951 656.205C768.379 667.052 746.921 672.476 723.576 672.476ZM723.576 608.101C741.261 608.101 755.174 602.324 765.314 590.769C775.689 579.215 780.877 563.769 780.877 544.433C780.877 524.625 775.689 509.062 765.314 497.744C755.174 486.189 741.261 480.412 723.576 480.412C705.655 480.412 691.624 486.189 681.484 497.744C671.345 509.062 666.275 524.625 666.275 544.433C666.275 564.005 671.345 579.568 681.484 591.123C691.624 602.442 705.655 608.101 723.576 608.101ZM1101.02 670H1031.7L939.377 530.639V670H870.05V420.635H939.377L1031.7 561.765V420.635H1101.02V670Z" fill="white" fill-opacity="0.2"/>
<path d="M480.544 437.947C469.82 454.645 450.117 460.547 436.671 451.911C423.225 443.274 420.397 422.902 431.122 406.204C441.847 389.506 461.55 383.604 474.996 392.24C488.442 400.877 491.269 421.249 480.544 437.947Z" fill="#F89F1D" stroke="#572316" stroke-width="2.97182"/>
<g filter="url(#filter0_i_287_39)">
<path d="M231.077 571.796C197.619 588.103 160.26 564.914 106.11 572.838C51.9605 580.763 155.285 501.245 188.744 484.938C222.202 468.631 258.802 474.855 270.492 498.84C282.182 522.825 264.535 555.489 231.077 571.796Z" fill="#FC5505"/>
</g>
<path d="M230.426 570.46C214.153 578.391 196.882 576.762 176.554 573.988C175.007 573.777 173.444 573.56 171.864 573.34C152.757 570.683 131.129 567.675 105.895 571.368C102.573 571.854 99.9164 571.995 97.8484 571.854C95.764 571.711 94.39 571.289 93.5353 570.749C92.7394 570.246 92.353 569.622 92.2288 568.835C92.0932 567.976 92.2563 566.806 92.855 565.284C94.0549 562.234 96.7831 558.317 100.755 553.788C104.701 549.288 109.782 544.288 115.568 539.079C138.75 518.209 172.83 494.347 189.395 486.274C205.876 478.241 223.077 475.786 237.532 478.245C251.989 480.703 263.575 488.04 269.156 499.491C274.737 510.943 273.378 524.589 266.407 537.491C259.438 550.39 246.908 562.427 230.426 570.46Z" stroke="black" stroke-width="2.97182"/>
<path d="M241.968 551.637C217.755 563.438 194.919 544.466 155.732 550.201C116.545 555.935 187.119 500.58 211.332 488.779C235.545 476.978 262.032 481.483 270.492 498.84C278.952 516.198 266.181 539.836 241.968 551.637Z" fill="#F9B309"/>
<g filter="url(#filter1_i_287_39)">
<path d="M204.339 464.887L216.725 460.108L281.008 557.019L267.24 561.493C265.795 561.301 260.829 559.795 252.519 555.307C242.132 549.698 212.416 529.238 206.548 500.927C201.855 478.278 203.12 467.463 204.339 464.887Z" fill="#FFE5E2"/>
</g>
<path d="M204.339 464.887L216.725 460.108L281.008 557.019L267.24 561.493C265.795 561.301 260.829 559.795 252.519 555.307C242.132 549.698 212.416 529.238 206.548 500.927C201.855 478.278 203.12 467.463 204.339 464.887Z" stroke="black" stroke-width="2.97182"/>
<g filter="url(#filter2_ii_287_39)">
<path d="M305.367 342.322L310.241 330.977L438.393 363.587C429.73 413.284 419.999 439.94 391.193 488.159L340.218 503.669L297.682 459.462L269.293 412.76L278.822 390.412C280.237 389.712 279.654 385.059 266.008 372.049C252.362 359.038 240.585 340.762 236.403 333.251C232.949 329.66 238.716 323.639 243.84 326.93C244.672 318.256 248.503 317.823 253.716 318.315C252.494 312.705 260.999 308.346 265.3 310.797L305.367 342.322Z" fill="#F89F1D"/>
</g>
<path d="M310.241 330.977L310.607 329.537L309.377 329.223L308.876 330.39L310.241 330.977ZM265.3 310.797L266.219 309.629L266.132 309.561L266.036 309.506L265.3 310.797ZM253.716 318.315L253.576 319.794L255.601 319.985L255.168 317.999L253.716 318.315ZM243.84 326.93L243.037 328.18L245.087 329.497L245.319 327.072L243.84 326.93ZM236.403 333.251L237.701 332.528L237.608 332.36L237.474 332.221L236.403 333.251ZM266.008 372.049L264.983 373.124L266.008 372.049ZM278.822 390.412L278.163 389.08L277.671 389.324L277.455 389.829L278.822 390.412ZM269.293 412.76L267.927 412.177L267.627 412.879L268.024 413.532L269.293 412.76ZM297.682 459.462L296.412 460.233L296.497 460.374L296.611 460.492L297.682 459.462ZM340.218 503.669L339.147 504.7L339.779 505.356L340.65 505.091L340.218 503.669ZM391.193 488.159L391.626 489.58L392.175 489.413L392.469 488.921L391.193 488.159ZM438.393 363.587L439.856 363.842L440.093 362.486L438.759 362.147L438.393 363.587ZM316.396 361.998C316.745 362.741 317.629 363.061 318.372 362.713C319.116 362.365 319.436 361.48 319.088 360.737L316.396 361.998ZM308.876 330.39L304.002 341.735L306.732 342.908L311.606 331.563L308.876 330.39ZM306.286 341.154L266.219 309.629L264.381 311.965L304.448 343.489L306.286 341.154ZM266.036 309.506C263.238 307.912 259.434 308.626 256.681 310.254C253.909 311.893 251.457 314.923 252.264 318.631L255.168 317.999C254.754 316.097 255.943 314.143 258.193 312.812C260.462 311.471 263.061 311.231 264.564 312.088L266.036 309.506ZM253.856 316.836C251.286 316.593 248.517 316.493 246.317 317.945C244.033 319.453 242.791 322.306 242.361 326.788L245.319 327.072C245.721 322.88 246.811 321.18 247.954 320.425C249.18 319.616 250.934 319.545 253.576 319.794L253.856 316.836ZM244.643 325.68C241.428 323.614 237.963 324.486 235.89 326.424C234.859 327.388 234.102 328.674 233.914 330.09C233.721 331.549 234.15 333.052 235.332 334.281L237.474 332.221C236.929 331.654 236.784 331.058 236.86 330.481C236.943 329.861 237.3 329.174 237.919 328.595C239.148 327.447 241.129 326.955 243.037 328.18L244.643 325.68ZM235.105 333.974C239.326 341.555 251.188 359.971 264.983 373.124L267.033 370.973C253.536 358.104 241.845 339.969 237.701 332.528L235.105 333.974ZM264.983 373.124C271.771 379.597 275.209 383.898 276.779 386.594C277.571 387.955 277.816 388.79 277.856 389.215C277.894 389.622 277.749 389.285 278.163 389.08L279.481 391.744C280.602 391.189 280.915 390.007 280.815 388.939C280.717 387.888 280.229 386.615 279.347 385.099C277.567 382.041 273.891 377.511 267.033 370.973L264.983 373.124ZM277.455 389.829L267.927 412.177L270.66 413.343L280.189 390.994L277.455 389.829ZM268.024 413.532L296.412 460.233L298.952 458.69L270.563 411.988L268.024 413.532ZM296.611 460.492L339.147 504.7L341.288 502.639L298.753 458.431L296.611 460.492ZM340.65 505.091L391.626 489.58L390.761 486.737L339.785 502.248L340.65 505.091ZM392.469 488.921C421.363 440.554 431.161 413.727 439.856 363.842L436.929 363.332C428.299 412.841 418.635 439.326 389.918 487.397L392.469 488.921ZM438.759 362.147L310.607 329.537L309.874 332.417L438.026 365.027L438.759 362.147ZM304.387 343.439C310.522 348.82 313.109 354.98 316.396 361.998L319.088 360.737C315.866 353.86 313.037 347.073 306.347 341.204L304.387 343.439Z" fill="#572316"/>
<path d="M417.895 378.341C412.322 387.187 377.494 387.846 350.208 370.655C322.921 353.464 305.319 332.357 310.892 323.511C316.465 314.665 343.103 321.431 370.389 338.622C397.676 355.813 423.468 369.496 417.895 378.341Z" fill="black" fill-opacity="0.3"/>
<path d="M299.466 287.01L300.91 287.357C299.466 287.01 299.465 287.011 299.465 287.012V287.014L299.463 287.02L299.459 287.039L299.443 287.106C299.43 287.165 299.411 287.249 299.388 287.357C299.342 287.574 299.277 287.889 299.201 288.292C299.051 289.098 298.857 290.259 298.682 291.695C298.331 294.563 298.049 298.548 298.331 303.008C298.892 311.899 301.707 322.905 310.927 330.601C328.48 345.256 335.649 350.432 348.596 353.971C352.431 355.019 357.346 356.445 362.642 357.981C374.594 361.449 388.485 365.478 396.264 366.997C414.012 370.463 426.952 366.38 434.601 363.966C435.132 363.799 435.638 363.639 436.118 363.491C443.855 361.098 456.442 352.916 464.843 340.682L464.926 340.562L464.983 340.428C468.417 332.445 469.97 325.875 469.814 319.063C469.66 312.325 467.837 305.469 464.713 296.916C461.129 260.029 445.655 232.278 422.419 219.31L422.361 219.278L422.301 219.251L421.695 220.607C422.301 219.251 422.301 219.251 422.3 219.251L422.298 219.25L422.291 219.247L422.269 219.237L422.187 219.201C422.117 219.171 422.013 219.126 421.877 219.069C421.605 218.954 421.205 218.789 420.679 218.582C419.629 218.167 418.079 217.584 416.065 216.901C412.036 215.535 406.147 213.77 398.67 212.16C394.662 211.297 388.94 211.622 382.412 213.038C375.847 214.462 368.334 217.017 360.69 220.738C345.514 228.125 329.69 240.169 319.762 257.246C308.49 264.084 302.552 275.717 299.477 286.965L299.471 286.988L299.466 287.01Z" fill="#F7A528" stroke="#572316" stroke-width="2.97026"/>
<path d="M381.447 219.151C372.528 218.437 345.888 233.961 333.683 241.813C354.026 219.981 383.265 213.601 391.09 213.164H391.091C392.082 213.109 414.85 211.839 435.026 229.29C454.818 246.408 461.802 284.534 458.526 272.861C455.251 261.188 431.148 226.578 428.436 231.995C426.266 236.329 419.383 235.822 415.875 235.14C411.976 234.382 403.137 232.397 395.532 229.579C387.927 226.761 383.138 224.231 383.348 221.21C383.391 220.585 383.698 219.027 381.447 219.151Z" fill="#F6DA90"/>
<path d="M466.773 332.809C465.334 342.577 447.425 364.163 419.575 365.787C404.803 368.153 395.352 365.128 364.307 357.062C333.262 348.997 322.89 338.742 308.415 326.795C299.544 317.307 295.485 293.684 306.022 273.162C312.96 263.417 314.296 263.058 331.107 278.133C335.492 282.065 340.254 292.013 345.871 295.098C379.774 280.557 407.317 293.959 421.911 316.093C429.521 316.353 435.432 311.541 439.403 310.49C476.303 296.743 468.211 323.04 466.773 332.809Z" fill="white"/>
<path fill-rule="evenodd" clip-rule="evenodd" d="M468.415 320.706C462.972 330.675 447.436 344.882 423.17 347.7C408.345 350.114 390.946 345.05 368.468 338.29C338.696 332.307 324.018 319.822 312.821 306.737C307.242 300.768 303.235 290.584 303.771 278.315C295.394 298.937 300.319 316.414 305.93 324.269C318.065 336.846 337.747 351.065 353.567 354.583C357.655 355.7 361.847 356.905 366.059 358.116C385.249 363.634 404.86 369.272 417.012 367.296C447.316 364.216 464.42 343.218 466.169 335.279C466.243 334.944 466.33 334.564 466.426 334.144C467.127 331.076 468.313 325.887 468.415 320.706Z" fill="#ACABCF"/>
<path d="M328.563 240.998L329.205 243.79L331.117 241.656C334.105 238.321 339.885 233.466 346.908 228.738C353.921 224.017 362.068 219.494 369.755 216.766L371.841 216.026L370.365 214.377C362.304 205.362 355.49 199.76 349.337 197.161C343.067 194.513 337.527 195.008 332.269 198.008C329.742 199.45 328.239 202.349 327.336 205.638C326.419 208.979 326.036 213.04 325.993 217.248C325.907 225.671 327.181 234.985 328.563 240.998Z" fill="#F8A428" stroke="#572316" stroke-width="2.97026"/>
<path d="M368.318 215.366C353.268 210.223 351.341 200.871 341.34 196.906C346.402 196.689 353.868 200.639 356.628 202.933C359.388 205.227 372.823 216.905 368.318 215.366Z" fill="#F6DA90"/>
<path d="M359.224 219.654C337.49 214.452 331.725 205.106 331.754 200.495C323.463 207.415 329.595 241.214 330.087 240.634C336.448 233.135 353.1 222.907 359.224 219.654Z" fill="#AD7640"/>
<path d="M348.462 223.795L339.914 229.464C337.395 226.066 336.877 209.851 339.849 205.736L342.634 210.193L348.462 223.795Z" fill="#FF5F95"/>
<path d="M339.476 231.097C337.902 227.727 336.009 221.286 336.735 214.808C337.143 211.173 337.551 208.371 338.199 206.479C338.521 205.54 338.861 204.956 339.183 204.619C339.422 204.369 339.656 204.246 339.943 204.21C340.026 204.269 340.154 204.378 340.325 204.56C340.728 204.991 341.215 205.665 341.764 206.56C342.854 208.336 344.05 210.751 345.172 213.218C346.289 215.674 347.312 218.138 348.056 219.991C348.428 220.916 348.73 221.687 348.938 222.226C349.043 222.496 349.124 222.707 349.178 222.85L349.24 223.014L349.256 223.055L349.259 223.065L349.26 223.067L349.261 223.068L350.651 222.545L349.261 223.068L349.264 223.076L349.267 223.084V223.085V223.086L349.273 223.101C349.279 223.116 349.288 223.14 349.299 223.171C349.322 223.235 349.356 223.329 349.393 223.444C349.47 223.679 349.558 223.979 349.62 224.274C349.65 224.415 349.668 224.534 349.68 224.63L344.383 228.108L339.476 231.097ZM349.688 224.916C349.688 224.916 349.688 224.912 349.69 224.906C349.689 224.913 349.688 224.916 349.688 224.916ZM339.867 204.163C339.867 204.163 339.869 204.164 339.874 204.166C339.869 204.164 339.867 204.163 339.867 204.163Z" stroke="#572316" stroke-width="2.97026"/>
<path d="M464.528 278.202L462.476 280.201L462.025 277.372C461.32 272.95 459.091 265.739 455.748 257.959C452.411 250.193 448.013 241.977 443.029 235.521L441.676 233.769L443.81 233.181C455.47 229.971 464.232 228.952 470.811 230.101C477.516 231.272 481.905 234.688 484.7 240.058C486.043 242.639 485.736 245.891 484.713 249.143C483.674 252.449 481.796 256.07 479.553 259.631C475.063 266.758 468.947 273.897 464.528 278.202Z" fill="#F8A428" stroke="#572316" stroke-width="2.97026"/>
<path d="M444.996 235.122C460.432 238.952 467.117 232.135 477.672 234.219C473.534 231.294 465.119 230.57 461.557 231.003C457.994 231.437 440.374 233.976 444.996 235.122Z" fill="#F6DA90"/>
<path d="M450.317 243.653C471.404 251.053 481.312 246.32 483.785 242.428C487.006 252.736 463.544 277.826 463.445 277.071C462.16 267.322 453.702 249.704 450.317 243.653Z" fill="#AD7640"/>
<path d="M457.12 252.963L461.234 262.359C465.193 260.867 474.411 247.517 474.142 242.448L469.387 244.686L457.12 252.963Z" fill="#FF5F95"/>
<path d="M460.719 263.969C463.867 261.988 468.947 257.599 471.845 251.761C473.472 248.485 474.646 245.908 475.126 243.967C475.365 243.003 475.396 242.328 475.308 241.871C475.242 241.531 475.112 241.301 474.89 241.115C474.788 241.12 474.622 241.141 474.379 241.203C473.807 241.346 473.033 241.649 472.087 242.104C470.208 243.006 467.894 244.388 465.615 245.854C463.346 247.314 461.152 248.831 459.522 249.985C458.708 250.561 458.037 251.046 457.57 251.386C457.336 251.556 457.153 251.69 457.03 251.781L456.889 251.885L456.854 251.911L456.845 251.917L456.843 251.919L455.957 250.727L456.843 251.919L456.835 251.925L456.829 251.929V251.93H456.828L456.827 251.931L456.814 251.94C456.802 251.95 456.781 251.965 456.754 251.985C456.7 252.026 456.622 252.087 456.528 252.164C456.336 252.319 456.099 252.524 455.887 252.739C455.786 252.841 455.706 252.93 455.644 253.005L458.213 258.798L460.719 263.969ZM455.482 253.241C455.482 253.241 455.484 253.238 455.487 253.232C455.483 253.238 455.482 253.242 455.482 253.241ZM474.979 241.117C474.979 241.116 474.977 241.116 474.972 241.116C474.977 241.116 474.979 241.117 474.979 241.117Z" stroke="#572316" stroke-width="2.97026"/>
<path d="M374.105 252.202C380.276 253.889 385.818 253.285 386.483 250.853C387.148 248.42 382.684 245.081 376.513 243.394C370.342 241.707 364.8 242.311 364.135 244.743C363.47 247.176 367.934 250.515 374.105 252.202Z" fill="white"/>
<path d="M421.941 255.812C428.112 257.499 432.576 260.838 431.911 263.271C431.246 265.703 425.704 266.307 419.533 264.62C413.362 262.933 408.898 259.594 409.563 257.161C410.228 254.729 415.77 254.125 421.941 255.812Z" fill="white"/>
<path d="M362.002 269.167C352.992 265.986 345.379 275.066 346.918 269.025C348.456 262.984 356.676 260.178 364.624 262.202C369.754 263.94 374.822 270.413 375.702 276.356C374.163 282.397 369.446 271.795 362.002 269.167Z" fill="black"/>
<path d="M426.456 284.508C417.445 281.327 409.833 290.407 411.371 284.366C412.91 278.325 421.129 275.519 429.078 277.543C434.208 279.281 439.276 285.754 440.155 291.697C438.617 297.738 433.899 287.136 426.456 284.508Z" fill="black"/>
<path d="M382.146 311.215L382.773 308.923M363.445 306.411C363.939 306.854 369.198 313.526 382.146 311.215L363.445 306.411ZM382.146 311.215C387.25 315.074 392.016 317.916 399.832 316.358L382.146 311.215Z" stroke="#572316" stroke-width="4.15837" stroke-linecap="round"/>
<path d="M377.527 324.733C372.37 323.323 370.708 313.631 371.413 311.052C379.544 312.096 383.937 313.299 391.469 316.535C389.764 322.022 382.684 326.142 377.527 324.733Z" fill="#572316"/>
<path fill-rule="evenodd" clip-rule="evenodd" d="M379.973 319.271C380.024 319.165 380.065 319.061 380.093 318.959C380.439 317.693 382.289 317.096 383.871 317.528C385.453 317.961 386.456 319.338 386.109 320.604C385.768 321.852 382.115 323.443 379.066 322.384C375.85 321.797 373.67 318.569 374.015 317.306C374.361 316.04 375.924 315.365 377.506 315.797C379.089 316.23 380.378 317.685 380.032 318.951C380.004 319.05 379.986 319.158 379.973 319.271Z" fill="#FB609C"/>
<path d="M386.454 295.457C379.65 293.597 373.292 295.167 372.254 298.965C371.216 302.763 375.89 307.349 382.694 309.209C389.499 311.069 395.856 309.499 396.894 305.701C397.932 301.903 393.258 297.317 386.454 295.457Z" fill="#572316"/>
<path d="M385.854 296.525C383.639 295.919 381.632 296.198 381.373 297.148C381.113 298.097 382.699 299.357 384.914 299.963C387.129 300.569 389.136 300.29 389.395 299.341C389.655 298.391 388.069 297.131 385.854 296.525Z" fill="white"/>
<path d="M391.5 379.17C449.307 379.17 496.17 332.308 496.17 274.5C496.17 216.692 449.307 169.83 391.5 169.83C333.692 169.83 286.83 216.692 286.83 274.5C286.83 332.308 333.692 379.17 391.5 379.17Z" fill="white" fill-opacity="0.32" stroke="black" stroke-width="3.66"/>
<path d="M329.306 425.249C345.154 435.428 365.466 432.056 374.675 417.718C383.884 403.38 378.503 383.505 362.655 373.327C346.808 363.148 326.496 366.52 317.287 380.858C308.078 395.196 313.459 415.071 329.306 425.249Z" fill="white"/>
<g filter="url(#filter3_i_287_39)">
<path d="M367.658 516.456C295.397 558.344 293.922 593.196 239.807 509.92C201.951 451.664 221.093 433.314 262.432 415.096C292.772 395.564 344.462 378.053 379.981 371.239C456.937 360.352 465.769 363.13 500.17 379.435C494.446 400.367 435.587 479.988 367.658 516.456Z" fill="#FFE5E2"/>
</g>
<path d="M367.658 516.456C295.397 558.344 293.922 593.196 239.807 509.92C201.951 451.664 221.093 433.314 262.432 415.096C292.772 395.564 344.462 378.053 379.981 371.239C456.937 360.352 465.769 363.13 500.17 379.435C494.446 400.367 435.587 479.988 367.658 516.456Z" stroke="black" stroke-width="2.97182"/>
<g filter="url(#filter4_i_287_39)">
<path d="M447.422 452.366C420.994 428.154 410.023 383.633 412.529 367.711C450.427 363.744 465.705 362.298 499.228 379.97C496.476 390.265 475.853 422.375 447.422 452.366Z" fill="#E83B81"/>
</g>
<path d="M447.422 452.366C420.994 428.154 410.023 383.633 412.529 367.711C450.427 363.744 465.705 362.298 499.228 379.97C496.476 390.265 475.853 422.375 447.422 452.366Z" stroke="black" stroke-width="2.97182"/>
<g filter="url(#filter5_i_287_39)">
<path d="M171.639 413.718C235.48 385.24 275.579 393.624 287.649 401.377C277.257 421.562 252.267 455.564 235.434 430.084C218.602 404.605 185.891 408.557 171.639 413.718Z" fill="#E83B81"/>
</g>
<path d="M171.639 413.718C235.48 385.24 275.579 393.624 287.649 401.377C277.257 421.562 252.267 455.564 235.434 430.084C218.602 404.605 185.891 408.557 171.639 413.718Z" stroke="black" stroke-width="2.97182"/>
<g filter="url(#filter6_i_287_39)">
<path d="M274.992 618.838C333.971 581.314 349.108 543.246 349.303 528.902C326.735 526.429 284.588 528.507 296.548 556.604C308.508 584.702 287.161 609.801 274.992 618.838Z" fill="#E83B81"/>
</g>
<path d="M274.992 618.838C333.971 581.314 349.108 543.246 349.303 528.902C326.735 526.429 284.588 528.507 296.548 556.604C308.508 584.702 287.161 609.801 274.992 618.838Z" stroke="black" stroke-width="2.97182"/>
<g filter="url(#filter7_i_287_39)">
<path d="M268.703 500.789C246.948 510.903 207.515 523.834 204.491 517.328C201.466 510.821 235.994 487.342 257.749 477.228C279.505 467.114 315.262 454.597 318.287 461.103C321.312 467.61 290.459 490.675 268.703 500.789Z" fill="#E83B81"/>
</g>
<path d="M268.077 499.442C257.269 504.466 242.046 510.2 229.166 513.862C222.718 515.695 216.923 516.99 212.59 517.432C210.413 517.655 208.697 517.651 207.485 517.437C206.202 517.21 205.897 516.829 205.838 516.701C205.771 516.557 205.683 516.042 206.324 514.86C206.929 513.746 208.01 512.368 209.547 510.77C212.61 507.589 217.241 503.787 222.699 499.834C233.606 491.934 247.596 483.587 258.376 478.575C269.2 473.543 283.51 467.913 295.466 464.357C301.455 462.576 306.783 461.337 310.761 460.934C312.76 460.732 314.321 460.752 315.42 460.971C316.557 461.197 316.86 461.559 316.94 461.73C317.036 461.936 317.109 462.486 316.572 463.631C316.059 464.726 315.116 466.082 313.753 467.653C311.036 470.784 306.868 474.526 301.874 478.422C291.893 486.208 278.836 494.44 268.077 499.442Z" stroke="black" stroke-width="2.97182"/>
<g filter="url(#filter8_ii_287_39)">
<path d="M346.537 466.703C366.346 479.426 392.719 473.681 405.442 453.872C418.165 434.063 412.42 407.69 392.611 394.967C372.802 382.244 346.429 387.989 333.706 407.798C320.983 427.607 326.728 453.98 346.537 466.703Z" fill="#E83B81"/>
<path d="M347.34 465.452C366.459 477.732 391.912 472.188 404.191 453.069C416.471 433.95 410.927 408.497 391.808 396.218C372.689 383.938 347.236 389.482 334.957 408.601C322.677 427.72 328.221 453.173 347.34 465.452Z" stroke="black" stroke-width="2.97182"/>
</g>
<path d="M355.677 452.472C367.627 460.147 383.536 456.681 391.211 444.732C398.886 432.782 395.42 416.873 383.471 409.198C371.521 401.523 355.612 404.988 347.937 416.938C340.262 428.888 343.727 444.797 355.677 452.472Z" fill="#8BE9FF" stroke="black" stroke-width="2.97182"/>
<path d="M368.149 406.759C373.874 406.385 377.521 407.303 383.421 410.778L371.34 455.13C364.642 455.711 361.217 454.831 355.727 450.892L368.149 406.759Z" fill="url(#paint0_linear_287_39)"/>
<g filter="url(#filter9_i_287_39)">
<path d="M249.925 353.517C265.926 351.441 277.042 332.332 280.6 323.037L264.617 310.359C257.2 308.683 253.804 314.673 253.033 317.876C246.983 317.079 243.782 323.515 242.938 326.833C236.966 325.313 235.784 329.958 235.939 332.471C240.487 339.413 249.652 353.341 249.925 353.517Z" fill="white"/>
</g>
<path d="M249.925 353.517C265.926 351.441 277.042 332.332 280.6 323.037L264.617 310.359C257.2 308.683 253.804 314.673 253.033 317.876C246.983 317.079 243.782 323.515 242.938 326.833C236.966 325.313 235.784 329.958 235.939 332.471C240.487 339.413 249.652 353.341 249.925 353.517Z" stroke="#572316" stroke-width="2.97182"/>
<g filter="url(#filter10_i_287_39)">
<path d="M427.194 453.879C447.297 471.884 459.651 458.614 461.132 456.546C469.358 445.065 463.618 438.107 462.421 435.807C459.267 429.744 450.854 419.901 442.992 421.071C435.13 422.241 436.688 428.685 438.466 431.64C428.682 436.181 431.769 440.739 434.062 443.565C429.047 445.077 425.623 451.407 427.194 453.879Z" fill="white"/>
</g>
<path d="M427.194 453.879C447.297 471.884 459.651 458.614 461.132 456.546C469.358 445.065 463.618 438.107 462.421 435.807C459.267 429.744 450.854 419.901 442.992 421.071C435.13 422.241 436.688 428.685 438.466 431.64C428.682 436.181 431.769 440.739 434.062 443.565C429.047 445.077 425.623 451.407 427.194 453.879Z" stroke="#572316" stroke-width="2.61083"/>
<path d="M243.518 490.613C243.885 491.374 249.144 489.593 255.263 486.636C261.383 483.679 266.046 480.665 265.678 479.905C265.311 479.145 260.052 480.925 253.933 483.882C247.813 486.84 243.15 489.853 243.518 490.613Z" fill="white"/>
<path d="M240.824 466.852C244.22 469.033 248.741 468.048 250.922 464.652C253.103 461.256 252.118 456.735 248.722 454.554C245.326 452.373 240.805 453.358 238.624 456.754C236.443 460.15 237.428 464.671 240.824 466.852Z" fill="#535353"/>
<path d="M240.824 466.852C244.22 469.033 248.741 468.048 250.922 464.652C253.103 461.256 252.118 456.735 248.722 454.554C245.326 452.373 240.805 453.358 238.624 456.754C236.443 460.15 237.428 464.671 240.824 466.852Z" fill="#535353"/>
<path d="M240.824 466.852C244.22 469.033 248.741 468.048 250.922 464.652C253.103 461.256 252.118 456.735 248.722 454.554C245.326 452.373 240.805 453.358 238.624 456.754C236.443 460.15 237.428 464.671 240.824 466.852Z" fill="#535353"/>
<path d="M279.827 521.819C283.223 524 287.744 523.015 289.925 519.619C292.106 516.223 291.121 511.702 287.725 509.521C284.329 507.34 279.808 508.325 277.627 511.721C275.446 515.117 276.431 519.638 279.827 521.819Z" fill="#535353"/>
<path d="M279.827 521.819C283.223 524 287.744 523.015 289.925 519.619C292.106 516.223 291.121 511.702 287.725 509.521C284.329 507.34 279.808 508.325 277.627 511.721C275.446 515.117 276.431 519.638 279.827 521.819Z" fill="#535353"/>
<path d="M279.827 521.819C283.223 524 287.744 523.015 289.925 519.619C292.106 516.223 291.121 511.702 287.725 509.521C284.329 507.34 279.808 508.325 277.627 511.721C275.446 515.117 276.431 519.638 279.827 521.819Z" fill="#535353"/>
<path d="M1439.81 495.619C1374.09 495.619 1311.06 469.511 1264.58 423.037C1218.11 376.564 1192 313.533 1192 247.81C1192 182.086 1218.11 119.055 1264.58 72.5817C1311.06 26.1084 1374.09 -5.78324e-07 1439.81 -7.62939e-06V247.81V495.619Z" fill="white"/>
<g filter="url(#filter11_f_287_39)">
<path d="M1440 496C1369.19 496 1301.27 469.872 1251.2 423.363C1201.13 376.853 1173 313.774 1173 248C1173 182.226 1201.13 119.147 1251.2 72.6375C1301.27 26.1285 1369.19 -8.4226e-06 1440 -1.52588e-05V248V496Z" fill="white"/>
</g>
<path d="M1440 499C1382.98 499 1328.29 472.713 1287.97 425.923C1247.65 379.133 1225 315.672 1225 249.5C1225 183.329 1247.65 119.867 1287.97 73.0769C1328.29 26.2865 1382.98 -1.30265e-07 1440 -7.62939e-06V249.5V499Z" fill="#F7F7F7"/>
<g filter="url(#filter12_f_287_39)">
<path d="M1427 499C1369.98 499 1315.29 472.872 1274.97 426.363C1234.65 379.853 1212 316.774 1212 251C1212 185.226 1234.65 122.147 1274.97 75.6375C1315.29 29.1285 1369.98 3 1427 2.99999V251V499Z" fill="#F7F7F7"/>
</g>
<g filter="url(#filter13_i_287_39)">
<path d="M1395.18 113.508C1420.1 100.974 1434.46 79.2137 1427.26 64.9061C1420.06 50.5985 1394.03 49.1612 1369.12 61.6959C1344.2 74.2305 1329.84 95.9904 1337.04 110.298C1344.24 124.606 1370.27 126.043 1395.18 113.508Z" fill="#E0E0E0"/>
</g>
<g filter="url(#filter14_i_287_39)">
<path d="M1314.04 199.071C1331.14 205.107 1347.86 201.909 1351.38 191.929C1354.9 181.949 1343.9 168.965 1326.8 162.929C1309.7 156.893 1292.98 160.091 1289.46 170.071C1285.94 180.051 1296.94 193.035 1314.04 199.071Z" fill="#E0E0E0"/>
</g>
<g filter="url(#filter15_i_287_39)">
<path d="M1338.87 347.288C1369.17 364.431 1402.76 362.379 1413.89 342.704C1425.02 323.03 1409.48 293.183 1379.17 276.04C1348.87 258.897 1315.28 260.949 1304.15 280.624C1293.02 300.298 1308.56 330.145 1338.87 347.288Z" fill="#E0E0E0"/>
</g>
<path d="M1325.95 109.803C1329.29 108.123 1331.13 105.023 1330.05 102.88C1328.97 100.737 1325.39 100.363 1322.05 102.043C1318.71 103.723 1316.87 106.823 1317.95 108.966C1319.03 111.109 1322.61 111.483 1325.95 109.803Z" fill="#E0E0E0"/>
<path d="M1279.02 198.944C1285.67 195.599 1289.72 190.226 1288.07 186.944C1286.42 183.661 1279.69 183.712 1273.04 187.056C1266.39 190.401 1262.34 195.774 1263.99 199.056C1265.64 202.339 1272.37 202.288 1279.02 198.944Z" fill="#E0E0E0"/>
<path d="M1359.71 400.289C1358.18 395.711 1355.84 392.369 1354.47 392.826C1353.11 393.282 1353.24 397.363 1354.77 401.941C1356.3 406.519 1358.64 409.861 1360.01 409.404C1361.37 408.948 1361.24 404.867 1359.71 400.289Z" fill="#E0E0E0"/>
<g filter="url(#filter16_i_287_39)">
<path d="M1365.46 436.698C1369.76 431.361 1359.5 415.951 1342.54 402.279C1325.58 388.607 1308.34 381.85 1304.04 387.188C1299.74 392.525 1310 407.935 1326.96 421.607C1343.92 435.279 1361.16 442.036 1365.46 436.698Z" fill="#E0E0E0"/>
</g>
<path d="M1421.73 310.037C1425.45 312.608 1429.29 313.488 1430.32 312.002C1431.35 310.515 1429.17 307.226 1425.45 304.655C1421.73 302.084 1417.89 301.204 1416.86 302.69C1415.83 304.177 1418.01 307.466 1421.73 310.037Z" fill="#E0E0E0"/>
<path d="M1286.82 301.123C1288.38 306.875 1291.05 311.156 1292.8 310.684C1294.54 310.212 1294.69 305.166 1293.14 299.415C1291.58 293.663 1288.91 289.382 1287.16 289.854C1285.42 290.326 1285.27 295.371 1286.82 301.123Z" fill="#E0E0E0"/>
<path d="M1422.21 237.709C1426.19 238.633 1429.73 238.031 1430.12 236.364C1430.5 234.697 1427.59 232.597 1423.61 231.673C1419.63 230.749 1416.09 231.351 1415.71 233.018C1415.32 234.685 1418.23 236.785 1422.21 237.709Z" fill="#E0E0E0"/>
<path d="M1408.66 240.363C1410.82 239.219 1412.19 237.555 1411.71 236.646C1411.23 235.737 1409.09 235.927 1406.92 237.071C1404.76 238.215 1403.39 239.879 1403.87 240.788C1404.35 241.697 1406.49 241.507 1408.66 240.363Z" fill="#E0E0E0"/>
<g filter="url(#filter17_i_287_39)">
<path d="M1414.52 225.123C1426.88 215.419 1433.29 202.951 1428.83 197.276C1424.38 191.6 1410.75 194.867 1398.38 204.571C1386.02 214.275 1379.61 226.743 1384.07 232.418C1388.52 238.094 1402.15 234.827 1414.52 225.123Z" fill="#E0E0E0"/>
</g>
<path d="M1327.91 95.8535C1330.07 96.4122 1332.05 96.0049 1332.32 94.944C1332.59 93.883 1331.07 92.5701 1328.91 92.0115C1326.75 91.4529 1324.77 91.8601 1324.5 92.921C1324.23 93.982 1325.75 95.2949 1327.91 95.8535Z" fill="#E0E0E0"/>
<path d="M458.154 136.29L464 110L470.154 136.29L496 142.524L470.154 148.216L464 172.609L458.154 148.216L432 142.524L458.154 136.29Z" fill="white"/>
<path d="M179.798 228.896L184 210L188.423 228.896L207 233.377L188.423 237.468L184 255L179.798 237.468L161 233.377L179.798 228.896Z" fill="white"/>
<path d="M424.456 604.537L427.911 589L431.548 604.537L446.822 608.221L431.548 611.584L427.911 626L424.456 611.584L409 608.221L424.456 604.537Z" fill="white"/>
<path d="M590.154 439.29L596 413L602.154 439.29L628 445.524L602.154 451.216L596 475.609L590.154 451.216L564 445.524L590.154 439.29Z" fill="white"/>
<path d="M942.532 364.597L945.333 352L948.282 364.597L960.667 367.584L948.282 370.312L945.333 382L942.532 370.312L930 367.584L942.532 364.597Z" fill="white"/>
<path d="M832.887 665.996L837.556 645L842.47 665.996L863.111 670.974L842.47 675.519L837.556 695L832.887 675.519L812 670.974L832.887 665.996Z" fill="white"/>
<path d="M851.231 78.4353L860 39L869.231 78.4353L908 87.786L869.231 96.3235L860 132.913L851.231 96.3235L812 87.786L851.231 78.4353Z" fill="white"/>
<defs>
<filter id="filter0_i_287_39" x="86.698" y="471.846" width="187.403" height="105.911" filterUnits="userSpaceOnUse" color-interpolation-filters="sRGB">
<feFlood flood-opacity="0" result="BackgroundImageFix"/>
<feBlend mode="normal" in="SourceGraphic" in2="BackgroundImageFix" result="shape"/>
<feColorMatrix in="SourceAlpha" type="matrix" values="0 0 0 0 0 0 0 0 0 0 0 0 0 0 0 0 0 0 127 0" result="hardAlpha"/>
<feOffset dx="-9.74368" dy="-8.11973"/>
<feGaussianBlur stdDeviation="2"/>
<feComposite in2="hardAlpha" operator="arithmetic" k2="-1" k3="1"/>
<feColorMatrix type="matrix" values="0 0 0 0 0.670833 0 0 0 0 0.25885 0 0 0 0 0.061493 0 0 0 1 0"/>
<feBlend mode="normal" in2="shape" result="effect1_innerShadow_287_39"/>
</filter>
<filter id="filter1_i_287_39" x="199.212" y="456.108" width="81.7961" height="105.385" filterUnits="userSpaceOnUse" color-interpolation-filters="sRGB">
<feFlood flood-opacity="0" result="BackgroundImageFix"/>
<feBlend mode="normal" in="SourceGraphic" in2="BackgroundImageFix" result="shape"/>
<feColorMatrix in="SourceAlpha" type="matrix" values="0 0 0 0 0 0 0 0 0 0 0 0 0 0 0 0 0 0 127 0" result="hardAlpha"/>
<feOffset dx="-13.8035" dy="-10.5557"/>
<feGaussianBlur stdDeviation="2"/>
<feComposite in2="hardAlpha" operator="arithmetic" k2="-1" k3="1"/>
<feColorMatrix type="matrix" values="0 0 0 0 0.741176 0 0 0 0 0.666667 0 0 0 0 0.658824 0 0 0 1 0"/>
<feBlend mode="normal" in2="shape" result="effect1_innerShadow_287_39"/>
</filter>
<filter id="filter2_ii_287_39" x="235.355" y="306.099" width="207.037" height="200.818" filterUnits="userSpaceOnUse" color-interpolation-filters="sRGB">
<feFlood flood-opacity="0" result="BackgroundImageFix"/>
<feBlend mode="normal" in="SourceGraphic" in2="BackgroundImageFix" result="shape"/>
<feColorMatrix in="SourceAlpha" type="matrix" values="0 0 0 0 0 0 0 0 0 0 0 0 0 0 0 0 0 0 127 0" result="hardAlpha"/>
<feOffset dx="6.49579" dy="-10.5557"/>
<feGaussianBlur stdDeviation="2"/>
<feComposite in2="hardAlpha" operator="arithmetic" k2="-1" k3="1"/>
<feColorMatrix type="matrix" values="0 0 0 0 0.341176 0 0 0 0 0.137255 0 0 0 0 0.0862745 0 0 0 0.22 0"/>
<feBlend mode="normal" in2="shape" result="effect1_innerShadow_287_39"/>
<feColorMatrix in="SourceAlpha" type="matrix" values="0 0 0 0 0 0 0 0 0 0 0 0 0 0 0 0 0 0 127 0" result="hardAlpha"/>
<feOffset dy="3.24789"/>
<feGaussianBlur stdDeviation="1.62395"/>
<feComposite in2="hardAlpha" operator="arithmetic" k2="-1" k3="1"/>
<feColorMatrix type="matrix" values="0 0 0 0 0 0 0 0 0 0 0 0 0 0 0 0 0 0 0.25 0"/>
<feBlend mode="normal" in2="effect1_innerShadow_287_39" result="effect2_innerShadow_287_39"/>
</filter>
<filter id="filter3_i_287_39" x="215.43" y="360.725" width="284.74" height="199.981" filterUnits="userSpaceOnUse" color-interpolation-filters="sRGB">
<feFlood flood-opacity="0" result="BackgroundImageFix"/>
<feBlend mode="normal" in="SourceGraphic" in2="BackgroundImageFix" result="shape"/>
<feColorMatrix in="SourceAlpha" type="matrix" values="0 0 0 0 0 0 0 0 0 0 0 0 0 0 0 0 0 0 127 0" result="hardAlpha"/>
<feOffset dx="-5.57691" dy="-17.8461"/>
<feGaussianBlur stdDeviation="2"/>
<feComposite in2="hardAlpha" operator="arithmetic" k2="-1" k3="1"/>
<feColorMatrix type="matrix" values="0 0 0 0 0.741667 0 0 0 0 0.666861 0 0 0 0 0.658229 0 0 0 1 0"/>
<feBlend mode="normal" in2="shape" result="effect1_innerShadow_287_39"/>
</filter>
<filter id="filter4_i_287_39" x="408.181" y="361.181" width="91.0469" height="91.1848" filterUnits="userSpaceOnUse" color-interpolation-filters="sRGB">
<feFlood flood-opacity="0" result="BackgroundImageFix"/>
<feBlend mode="normal" in="SourceGraphic" in2="BackgroundImageFix" result="shape"/>
<feColorMatrix in="SourceAlpha" type="matrix" values="0 0 0 0 0 0 0 0 0 0 0 0 0 0 0 0 0 0 127 0" result="hardAlpha"/>
<feOffset dx="-12.1796" dy="-4.05987"/>
<feGaussianBlur stdDeviation="2"/>
<feComposite in2="hardAlpha" operator="arithmetic" k2="-1" k3="1"/>
<feColorMatrix type="matrix" values="0 0 0 0 0.65098 0 0 0 0 0.137255 0 0 0 0 0.345098 0 0 0 1 0"/>
<feBlend mode="normal" in2="shape" result="effect1_innerShadow_287_39"/>
</filter>
<filter id="filter5_i_287_39" x="170.015" y="389.92" width="117.634" height="49.2687" filterUnits="userSpaceOnUse" color-interpolation-filters="sRGB">
<feFlood flood-opacity="0" result="BackgroundImageFix"/>
<feBlend mode="normal" in="SourceGraphic" in2="BackgroundImageFix" result="shape"/>
<feColorMatrix in="SourceAlpha" type="matrix" values="0 0 0 0 0 0 0 0 0 0 0 0 0 0 0 0 0 0 127 0" result="hardAlpha"/>
<feOffset dx="-1.62395" dy="-10.5557"/>
<feGaussianBlur stdDeviation="2"/>
<feComposite in2="hardAlpha" operator="arithmetic" k2="-1" k3="1"/>
<feColorMatrix type="matrix" values="0 0 0 0 0.65098 0 0 0 0 0.137255 0 0 0 0 0.345098 0 0 0 1 0"/>
<feBlend mode="normal" in2="shape" result="effect1_innerShadow_287_39"/>
</filter>
<filter id="filter6_i_287_39" x="274.992" y="524.132" width="78.311" height="94.7056" filterUnits="userSpaceOnUse" color-interpolation-filters="sRGB">
<feFlood flood-opacity="0" result="BackgroundImageFix"/>
<feBlend mode="normal" in="SourceGraphic" in2="BackgroundImageFix" result="shape"/>
<feColorMatrix in="SourceAlpha" type="matrix" values="0 0 0 0 0 0 0 0 0 0 0 0 0 0 0 0 0 0 127 0" result="hardAlpha"/>
<feOffset dx="8.93171" dy="-4.87184"/>
<feGaussianBlur stdDeviation="2"/>
<feComposite in2="hardAlpha" operator="arithmetic" k2="-1" k3="1"/>
<feColorMatrix type="matrix" values="0 0 0 0 0.65 0 0 0 0 0.135417 0 0 0 0 0.34363 0 0 0 1 0"/>
<feBlend mode="normal" in2="shape" result="effect1_innerShadow_287_39"/>
</filter>
<filter id="filter7_i_287_39" x="200.305" y="457.684" width="118.189" height="61.4006" filterUnits="userSpaceOnUse" color-interpolation-filters="sRGB">
<feFlood flood-opacity="0" result="BackgroundImageFix"/>
<feBlend mode="normal" in="SourceGraphic" in2="BackgroundImageFix" result="shape"/>
<feColorMatrix in="SourceAlpha" type="matrix" values="0 0 0 0 0 0 0 0 0 0 0 0 0 0 0 0 0 0 127 0" result="hardAlpha"/>
<feOffset dx="-8.93171" dy="-1.62395"/>
<feGaussianBlur stdDeviation="2"/>
<feComposite in2="hardAlpha" operator="arithmetic" k2="-1" k3="1"/>
<feColorMatrix type="matrix" values="0 0 0 0 0.65098 0 0 0 0 0.137255 0 0 0 0 0.345098 0 0 0 1 0"/>
<feBlend mode="normal" in2="shape" result="effect1_innerShadow_287_39"/>
</filter>
<filter id="filter8_ii_287_39" x="322.94" y="384.201" width="90.8915" height="93.2676" filterUnits="userSpaceOnUse" color-interpolation-filters="sRGB">
<feFlood flood-opacity="0" result="BackgroundImageFix"/>
<feBlend mode="normal" in="SourceGraphic" in2="BackgroundImageFix" result="shape"/>
<feColorMatrix in="SourceAlpha" type="matrix" values="0 0 0 0 0 0 0 0 0 0 0 0 0 0 0 0 0 0 127 0" result="hardAlpha"/>
<feOffset dx="1.62395" dy="6.49579"/>
<feGaussianBlur stdDeviation="2"/>
<feComposite in2="hardAlpha" operator="arithmetic" k2="-1" k3="1"/>
<feColorMatrix type="matrix" values="0 0 0 0 0 0 0 0 0 0 0 0 0 0 0 0 0 0 0.25 0"/>
<feBlend mode="normal" in2="shape" result="effect1_innerShadow_287_39"/>
<feColorMatrix in="SourceAlpha" type="matrix" values="0 0 0 0 0 0 0 0 0 0 0 0 0 0 0 0 0 0 127 0" result="hardAlpha"/>
<feOffset dx="-6.49579" dy="-8.11973"/>
<feGaussianBlur stdDeviation="2"/>
<feComposite in2="hardAlpha" operator="arithmetic" k2="-1" k3="1"/>
<feColorMatrix type="matrix" values="0 0 0 0 0.65098 0 0 0 0 0.137255 0 0 0 0 0.345098 0 0 0 1 0"/>
<feBlend mode="normal" in2="effect1_innerShadow_287_39" result="effect2_innerShadow_287_39"/>
</filter>
<filter id="filter9_i_287_39" x="235.926" y="306.069" width="48.6738" height="47.4483" filterUnits="userSpaceOnUse" color-interpolation-filters="sRGB">
<feFlood flood-opacity="0" result="BackgroundImageFix"/>
<feBlend mode="normal" in="SourceGraphic" in2="BackgroundImageFix" result="shape"/>
<feColorMatrix in="SourceAlpha" type="matrix" values="0 0 0 0 0 0 0 0 0 0 0 0 0 0 0 0 0 0 127 0" result="hardAlpha"/>
<feOffset dx="4.87184" dy="-10.5557"/>
<feGaussianBlur stdDeviation="2"/>
<feComposite in2="hardAlpha" operator="arithmetic" k2="-1" k3="1"/>
<feColorMatrix type="matrix" values="0 0 0 0 0 0 0 0 0 0 0 0 0 0 0 0 0 0 0.22 0"/>
<feBlend mode="normal" in2="shape" result="effect1_innerShadow_287_39"/>
</filter>
<filter id="filter10_i_287_39" x="426.809" y="416.975" width="38.675" height="46.2186" filterUnits="userSpaceOnUse" color-interpolation-filters="sRGB">
<feFlood flood-opacity="0" result="BackgroundImageFix"/>
<feBlend mode="normal" in="SourceGraphic" in2="BackgroundImageFix" result="shape"/>
<feColorMatrix in="SourceAlpha" type="matrix" values="0 0 0 0 0 0 0 0 0 0 0 0 0 0 0 0 0 0 127 0" result="hardAlpha"/>
<feOffset dy="-10.7707"/>
<feGaussianBlur stdDeviation="2"/>
<feComposite in2="hardAlpha" operator="arithmetic" k2="-1" k3="1"/>
<feColorMatrix type="matrix" values="0 0 0 0 0 0 0 0 0 0 0 0 0 0 0 0 0 0 0.22 0"/>
<feBlend mode="normal" in2="shape" result="effect1_innerShadow_287_39"/>
</filter>
<filter id="filter11_f_287_39" x="1143" y="-30" width="327" height="556" filterUnits="userSpaceOnUse" color-interpolation-filters="sRGB">
<feFlood flood-opacity="0" result="BackgroundImageFix"/>
<feBlend mode="normal" in="SourceGraphic" in2="BackgroundImageFix" result="shape"/>
<feGaussianBlur stdDeviation="15" result="effect1_foregroundBlur_287_39"/>
</filter>
<filter id="filter12_f_287_39" x="1192" y="-17" width="255" height="536" filterUnits="userSpaceOnUse" color-interpolation-filters="sRGB">
<feFlood flood-opacity="0" result="BackgroundImageFix"/>
<feBlend mode="normal" in="SourceGraphic" in2="BackgroundImageFix" result="shape"/>
<feGaussianBlur stdDeviation="10" result="effect1_foregroundBlur_287_39"/>
</filter>
<filter id="filter13_i_287_39" x="1335.18" y="53.1598" width="93.9395" height="72.8846" filterUnits="userSpaceOnUse" color-interpolation-filters="sRGB">
<feFlood flood-opacity="0" result="BackgroundImageFix"/>
<feBlend mode="normal" in="SourceGraphic" in2="BackgroundImageFix" result="shape"/>
<feColorMatrix in="SourceAlpha" type="matrix" values="0 0 0 0 0 0 0 0 0 0 0 0 0 0 0 0 0 0 127 0" result="hardAlpha"/>
<feOffset dy="4"/>
<feGaussianBlur stdDeviation="2"/>
<feComposite in2="hardAlpha" operator="arithmetic" k2="-1" k3="1"/>
<feColorMatrix type="matrix" values="0 0 0 0 0 0 0 0 0 0 0 0 0 0 0 0 0 0 0.25 0"/>
<feBlend mode="normal" in2="shape" result="effect1_innerShadow_287_39"/>
</filter>
<filter id="filter14_i_287_39" x="1288.8" y="159.878" width="63.2329" height="46.2438" filterUnits="userSpaceOnUse" color-interpolation-filters="sRGB">
<feFlood flood-opacity="0" result="BackgroundImageFix"/>
<feBlend mode="normal" in="SourceGraphic" in2="BackgroundImageFix" result="shape"/>
<feColorMatrix in="SourceAlpha" type="matrix" values="0 0 0 0 0 0 0 0 0 0 0 0 0 0 0 0 0 0 127 0" result="hardAlpha"/>
<feOffset dy="4"/>
<feGaussianBlur stdDeviation="2"/>
<feComposite in2="hardAlpha" operator="arithmetic" k2="-1" k3="1"/>
<feColorMatrix type="matrix" values="0 0 0 0 0 0 0 0 0 0 0 0 0 0 0 0 0 0 0.25 0"/>
<feBlend mode="normal" in2="shape" result="effect1_innerShadow_287_39"/>
</filter>
<filter id="filter15_i_287_39" x="1300.55" y="264.413" width="116.942" height="98.5016" filterUnits="userSpaceOnUse" color-interpolation-filters="sRGB">
<feFlood flood-opacity="0" result="BackgroundImageFix"/>
<feBlend mode="normal" in="SourceGraphic" in2="BackgroundImageFix" result="shape"/>
<feColorMatrix in="SourceAlpha" type="matrix" values="0 0 0 0 0 0 0 0 0 0 0 0 0 0 0 0 0 0 127 0" result="hardAlpha"/>
<feOffset dy="4"/>
<feGaussianBlur stdDeviation="2"/>
<feComposite in2="hardAlpha" operator="arithmetic" k2="-1" k3="1"/>
<feColorMatrix type="matrix" values="0 0 0 0 0 0 0 0 0 0 0 0 0 0 0 0 0 0 0.25 0"/>
<feBlend mode="normal" in2="shape" result="effect1_innerShadow_287_39"/>
</filter>
<filter id="filter16_i_287_39" x="1303.06" y="383.361" width="65.3831" height="55.164" filterUnits="userSpaceOnUse" color-interpolation-filters="sRGB">
<feFlood flood-opacity="0" result="BackgroundImageFix"/>
<feBlend mode="normal" in="SourceGraphic" in2="BackgroundImageFix" result="shape"/>
<feColorMatrix in="SourceAlpha" type="matrix" values="0 0 0 0 0 0 0 0 0 0 0 0 0 0 0 0 0 0 127 0" result="hardAlpha"/>
<feOffset dx="2" dy="-2"/>
<feGaussianBlur stdDeviation="2"/>
<feComposite in2="hardAlpha" operator="arithmetic" k2="-1" k3="1"/>
<feColorMatrix type="matrix" values="0 0 0 0 0 0 0 0 0 0 0 0 0 0 0 0 0 0 0.25 0"/>
<feBlend mode="normal" in2="shape" result="effect1_innerShadow_287_39"/>
</filter>
<filter id="filter17_i_287_39" x="1382.65" y="194.488" width="47.5983" height="44.7177" filterUnits="userSpaceOnUse" color-interpolation-filters="sRGB">
<feFlood flood-opacity="0" result="BackgroundImageFix"/>
<feBlend mode="normal" in="SourceGraphic" in2="BackgroundImageFix" result="shape"/>
<feColorMatrix in="SourceAlpha" type="matrix" values="0 0 0 0 0 0 0 0 0 0 0 0 0 0 0 0 0 0 127 0" result="hardAlpha"/>
<feOffset dy="4"/>
<feGaussianBlur stdDeviation="2"/>
<feComposite in2="hardAlpha" operator="arithmetic" k2="-1" k3="1"/>
<feColorMatrix type="matrix" values="0 0 0 0 0 0 0 0 0 0 0 0 0 0 0 0 0 0 0.25 0"/>
<feBlend mode="normal" in2="shape" result="effect1_innerShadow_287_39"/>
</filter>
<linearGradient id="paint0_linear_287_39" x1="376.257" y1="407.472" x2="355.885" y2="479.944" gradientUnits="userSpaceOnUse">
<stop stop-color="#C6F4FF"/>
<stop offset="1" stop-color="#C6F4FF" stop-opacity="0"/>
</linearGradient>
</defs>
</svg>
