<svg width="1707" height="797" viewBox="0 0 1707 797" fill="none" xmlns="http://www.w3.org/2000/svg">
<rect y="30" width="1440" height="729" fill="#F89F1D"/>
<path d="M207.627 148.635V203.814H141.13V398H71.803V203.814H6.01306V148.635H207.627ZM340.451 400.476C317.106 400.476 295.648 395.052 276.076 384.205C256.504 373.122 240.94 357.913 229.386 338.577C218.067 319.005 212.408 296.957 212.408 272.433C212.408 247.909 218.067 225.979 229.386 206.643C240.94 187.071 256.504 171.862 276.076 161.015C295.648 150.168 317.106 144.744 340.451 144.744C364.031 144.744 385.49 150.168 404.826 161.015C424.398 171.862 439.843 187.071 451.162 206.643C462.48 225.979 468.14 247.909 468.14 272.433C468.14 296.957 462.48 319.005 451.162 338.577C439.843 357.913 424.398 373.122 404.826 384.205C385.254 395.052 363.796 400.476 340.451 400.476ZM340.451 336.101C358.136 336.101 372.049 330.324 382.188 318.769C392.564 307.215 397.752 291.769 397.752 272.433C397.752 252.625 392.564 237.062 382.188 225.744C372.049 214.189 358.136 208.412 340.451 208.412C322.529 208.412 308.499 214.189 298.359 225.744C288.22 237.062 283.15 252.625 283.15 272.433C283.15 292.005 288.22 307.568 298.359 319.123C308.499 330.442 322.529 336.101 340.451 336.101ZM730.067 148.635V203.814H663.57V398H594.243V203.814H528.453V148.635H730.067ZM966.527 148.635V398H897.2V297.9H812.664V398H743.337V148.635H812.664V242.368H897.2V148.635H966.527ZM1063.15 204.167V244.844H1142.73V297.547H1063.15V342.468H1153.34V398H993.821V148.635H1153.34V204.167H1063.15ZM310.91 450.635V700H241.583V562.407L194.54 700H136.532L89.1347 561.346V700H19.8077V450.635H103.637L166.243 612.634L227.435 450.635H310.91ZM457.548 702.476C434.203 702.476 412.745 697.052 393.173 686.205C373.601 675.122 358.038 659.913 346.483 640.577C335.164 621.005 329.505 598.957 329.505 574.433C329.505 549.909 335.164 527.979 346.483 508.643C358.038 489.071 373.601 473.862 393.173 463.015C412.745 452.168 434.203 446.744 457.548 446.744C481.128 446.744 502.587 452.168 521.923 463.015C541.495 473.862 556.94 489.071 568.259 508.643C579.577 527.979 585.237 549.909 585.237 574.433C585.237 598.957 579.577 621.005 568.259 640.577C556.94 659.913 541.495 675.122 521.923 686.205C502.351 697.052 480.893 702.476 457.548 702.476ZM457.548 638.101C475.233 638.101 489.146 632.324 499.285 620.769C509.661 609.215 514.849 593.769 514.849 574.433C514.849 554.625 509.661 539.062 499.285 527.744C489.146 516.189 475.233 510.412 457.548 510.412C439.627 510.412 425.596 516.189 415.456 527.744C405.317 539.062 400.247 554.625 400.247 574.433C400.247 594.005 405.317 609.568 415.456 621.123C425.596 632.442 439.627 638.101 457.548 638.101ZM723.576 702.476C700.231 702.476 678.773 697.052 659.201 686.205C639.629 675.122 624.066 659.913 612.511 640.577C601.192 621.005 595.533 598.957 595.533 574.433C595.533 549.909 601.192 527.979 612.511 508.643C624.066 489.071 639.629 473.862 659.201 463.015C678.773 452.168 700.231 446.744 723.576 446.744C747.156 446.744 768.615 452.168 787.951 463.015C807.523 473.862 822.968 489.071 834.287 508.643C845.606 527.979 851.265 549.909 851.265 574.433C851.265 598.957 845.606 621.005 834.287 640.577C822.968 659.913 807.523 675.122 787.951 686.205C768.379 697.052 746.921 702.476 723.576 702.476ZM723.576 638.101C741.261 638.101 755.174 632.324 765.314 620.769C775.689 609.215 780.877 593.769 780.877 574.433C780.877 554.625 775.689 539.062 765.314 527.744C755.174 516.189 741.261 510.412 723.576 510.412C705.655 510.412 691.624 516.189 681.484 527.744C671.345 539.062 666.275 554.625 666.275 574.433C666.275 594.005 671.345 609.568 681.484 621.123C691.624 632.442 705.655 638.101 723.576 638.101ZM1101.02 700H1031.7L939.377 560.639V700H870.05V450.635H939.377L1031.7 591.765V450.635H1101.02V700Z" fill="white" fill-opacity="0.2"/>
<path d="M480.544 467.947C469.82 484.645 450.117 490.547 436.671 481.911C423.225 473.274 420.397 452.902 431.122 436.204C441.847 419.506 461.55 413.604 474.996 422.24C488.442 430.877 491.269 451.249 480.544 467.947Z" fill="#F89F1D" stroke="#572316" stroke-width="2.97182"/>
<g filter="url(#filter0_i_71_99)">
<path d="M231.077 601.796C197.619 618.103 160.26 594.914 106.11 602.838C51.9606 610.763 155.285 531.245 188.744 514.938C222.202 498.631 258.802 504.855 270.492 528.84C282.182 552.825 264.535 585.489 231.077 601.796Z" fill="#FC5505"/>
</g>
<path d="M230.426 600.46C214.153 608.391 196.882 606.762 176.554 603.988C175.007 603.777 173.444 603.56 171.864 603.34C152.757 600.683 131.129 597.675 105.895 601.368C102.573 601.854 99.9165 601.995 97.8485 601.854C95.7641 601.711 94.3901 601.289 93.5354 600.749C92.7395 600.246 92.3531 599.622 92.2289 598.835C92.0933 597.976 92.2564 596.806 92.8551 595.284C94.055 592.234 96.7832 588.317 100.755 583.788C104.701 579.288 109.782 574.288 115.568 569.079C138.75 548.209 172.83 524.347 189.395 516.274C205.876 508.241 223.077 505.786 237.532 508.245C251.989 510.703 263.575 518.04 269.156 529.491C274.737 540.943 273.378 554.589 266.407 567.491C259.438 580.39 246.908 592.427 230.426 600.46Z" stroke="black" stroke-width="2.97182"/>
<path d="M241.968 581.637C217.755 593.438 194.919 574.466 155.732 580.201C116.545 585.935 187.119 530.58 211.332 518.779C235.545 506.978 262.032 511.483 270.492 528.84C278.952 546.198 266.181 569.836 241.968 581.637Z" fill="#F9B309"/>
<g filter="url(#filter1_i_71_99)">
<path d="M204.339 494.887L216.725 490.108L281.008 587.019L267.24 591.493C265.795 591.301 260.829 589.795 252.519 585.307C242.132 579.698 212.416 559.238 206.548 530.927C201.855 508.278 203.12 497.463 204.339 494.887Z" fill="#FFE5E2"/>
</g>
<path d="M204.339 494.887L216.725 490.108L281.008 587.019L267.24 591.493C265.795 591.301 260.829 589.795 252.519 585.307C242.132 579.698 212.416 559.238 206.548 530.927C201.855 508.278 203.12 497.463 204.339 494.887Z" stroke="black" stroke-width="2.97182"/>
<g filter="url(#filter2_ii_71_99)">
<path d="M305.367 372.322L310.241 360.977L438.393 393.587C429.73 443.284 419.999 469.94 391.193 518.159L340.218 533.669L297.682 489.462L269.293 442.76L278.822 420.412C280.237 419.712 279.654 415.059 266.008 402.049C252.362 389.038 240.585 370.762 236.403 363.251C232.949 359.66 238.716 353.639 243.84 356.93C244.672 348.256 248.503 347.823 253.716 348.315C252.494 342.705 260.999 338.346 265.3 340.797L305.367 372.322Z" fill="#F89F1D"/>
</g>
<path d="M310.241 360.977L310.607 359.537L309.377 359.223L308.876 360.39L310.241 360.977ZM265.3 340.797L266.219 339.629L266.132 339.561L266.036 339.506L265.3 340.797ZM253.716 348.315L253.576 349.794L255.601 349.985L255.168 347.999L253.716 348.315ZM243.84 356.93L243.037 358.18L245.087 359.497L245.319 357.072L243.84 356.93ZM236.403 363.251L237.701 362.528L237.608 362.36L237.474 362.221L236.403 363.251ZM266.008 402.049L264.983 403.124L266.008 402.049ZM278.822 420.412L278.163 419.08L277.671 419.324L277.455 419.829L278.822 420.412ZM269.293 442.76L267.927 442.177L267.627 442.879L268.024 443.532L269.293 442.76ZM297.682 489.462L296.412 490.233L296.497 490.374L296.611 490.492L297.682 489.462ZM340.218 533.669L339.147 534.7L339.779 535.356L340.65 535.091L340.218 533.669ZM391.193 518.159L391.626 519.58L392.175 519.413L392.469 518.921L391.193 518.159ZM438.393 393.587L439.856 393.842L440.093 392.486L438.759 392.147L438.393 393.587ZM316.396 391.998C316.745 392.741 317.629 393.061 318.372 392.713C319.116 392.365 319.436 391.48 319.088 390.737L316.396 391.998ZM308.876 360.39L304.002 371.735L306.732 372.908L311.606 361.563L308.876 360.39ZM306.286 371.154L266.219 339.629L264.381 341.965L304.448 373.489L306.286 371.154ZM266.036 339.506C263.238 337.912 259.434 338.626 256.681 340.254C253.909 341.893 251.457 344.923 252.264 348.631L255.168 347.999C254.754 346.097 255.943 344.143 258.193 342.812C260.462 341.471 263.061 341.231 264.564 342.088L266.036 339.506ZM253.856 346.836C251.286 346.593 248.517 346.493 246.317 347.945C244.033 349.453 242.791 352.306 242.361 356.788L245.319 357.072C245.721 352.88 246.811 351.18 247.954 350.425C249.18 349.616 250.934 349.545 253.576 349.794L253.856 346.836ZM244.643 355.68C241.428 353.614 237.963 354.486 235.89 356.424C234.859 357.388 234.102 358.674 233.914 360.09C233.721 361.549 234.15 363.052 235.332 364.281L237.474 362.221C236.929 361.654 236.784 361.058 236.86 360.481C236.943 359.861 237.3 359.174 237.919 358.595C239.148 357.447 241.129 356.955 243.037 358.18L244.643 355.68ZM235.105 363.974C239.326 371.555 251.188 389.971 264.983 403.124L267.033 400.973C253.536 388.104 241.845 369.969 237.701 362.528L235.105 363.974ZM264.983 403.124C271.771 409.597 275.209 413.898 276.779 416.594C277.571 417.955 277.816 418.79 277.856 419.215C277.894 419.622 277.749 419.285 278.163 419.08L279.481 421.744C280.602 421.189 280.915 420.007 280.815 418.939C280.717 417.888 280.229 416.615 279.347 415.099C277.567 412.041 273.891 407.511 267.033 400.973L264.983 403.124ZM277.455 419.829L267.927 442.177L270.66 443.343L280.189 420.994L277.455 419.829ZM268.024 443.532L296.412 490.233L298.952 488.69L270.563 441.988L268.024 443.532ZM296.611 490.492L339.147 534.7L341.288 532.639L298.753 488.431L296.611 490.492ZM340.65 535.091L391.626 519.58L390.761 516.737L339.785 532.248L340.65 535.091ZM392.469 518.921C421.363 470.554 431.161 443.727 439.856 393.842L436.929 393.332C428.299 442.841 418.635 469.326 389.918 517.397L392.469 518.921ZM438.759 392.147L310.607 359.537L309.874 362.417L438.026 395.027L438.759 392.147ZM304.387 373.439C310.522 378.82 313.109 384.98 316.396 391.998L319.088 390.737C315.866 383.86 313.037 377.073 306.347 371.204L304.387 373.439Z" fill="#572316"/>
<path d="M417.895 408.341C412.322 417.187 377.494 417.846 350.208 400.655C322.921 383.464 305.319 362.357 310.892 353.511C316.465 344.665 343.103 351.431 370.389 368.622C397.676 385.813 423.468 399.496 417.895 408.341Z" fill="black" fill-opacity="0.3"/>
<path d="M299.466 317.01L300.91 317.357C299.466 317.01 299.465 317.011 299.465 317.012L299.465 317.014L299.463 317.02L299.459 317.039L299.443 317.106C299.43 317.165 299.411 317.249 299.388 317.357C299.342 317.574 299.277 317.889 299.201 318.292C299.051 319.098 298.857 320.259 298.682 321.695C298.331 324.563 298.049 328.548 298.331 333.008C298.892 341.899 301.707 352.905 310.927 360.601C328.48 375.256 335.649 380.432 348.596 383.971C352.431 385.019 357.346 386.445 362.642 387.981C374.594 391.449 388.485 395.478 396.264 396.997C414.012 400.463 426.952 396.38 434.601 393.966C435.132 393.799 435.638 393.639 436.118 393.491C443.855 391.098 456.442 382.916 464.843 370.682L464.926 370.562L464.983 370.428C468.417 362.445 469.97 355.875 469.814 349.063C469.66 342.325 467.837 335.469 464.713 326.916C461.129 290.029 445.655 262.278 422.419 249.31L422.361 249.278L422.301 249.251L421.695 250.607C422.301 249.251 422.301 249.251 422.3 249.251L422.3 249.251L422.298 249.25L422.291 249.247L422.269 249.237L422.187 249.201C422.117 249.171 422.013 249.126 421.877 249.069C421.605 248.954 421.205 248.789 420.679 248.582C419.629 248.167 418.079 247.584 416.065 246.901C412.036 245.535 406.147 243.77 398.67 242.16C394.662 241.297 388.94 241.622 382.412 243.038C375.847 244.462 368.334 247.017 360.69 250.738C345.514 258.125 329.69 270.169 319.762 287.246C308.49 294.084 302.552 305.717 299.477 316.965L299.471 316.988L299.466 317.01Z" fill="#F7A528" stroke="#572316" stroke-width="2.97026"/>
<path d="M381.447 249.151C372.528 248.437 345.888 263.961 333.683 271.813C354.026 249.981 383.265 243.601 391.09 243.164L391.091 243.164C392.082 243.109 414.85 241.839 435.026 259.29C454.818 276.408 461.802 314.534 458.526 302.861C455.251 291.188 431.148 256.578 428.436 261.995C426.266 266.329 419.383 265.822 415.875 265.14C411.976 264.382 403.137 262.397 395.532 259.579C387.927 256.761 383.138 254.231 383.348 251.21C383.391 250.585 383.698 249.027 381.447 249.151Z" fill="#F6DA90"/>
<path d="M466.773 362.809C465.334 372.577 447.425 394.163 419.575 395.787C404.803 398.153 395.352 395.128 364.307 387.062C333.262 378.997 322.89 368.742 308.415 356.795C299.544 347.307 295.485 323.684 306.022 303.162C312.96 293.417 314.296 293.058 331.107 308.133C335.492 312.065 340.254 322.013 345.871 325.098C379.774 310.557 407.317 323.959 421.911 346.093C429.521 346.353 435.432 341.541 439.403 340.49C476.303 326.743 468.211 353.04 466.773 362.809Z" fill="white"/>
<path fill-rule="evenodd" clip-rule="evenodd" d="M468.415 350.706C462.972 360.675 447.436 374.882 423.17 377.7C408.345 380.114 390.946 375.05 368.468 368.29C338.696 362.307 324.018 349.822 312.821 336.737C307.242 330.768 303.235 320.584 303.771 308.315C295.394 328.937 300.319 346.414 305.93 354.269C318.065 366.846 337.747 381.065 353.567 384.583C357.655 385.7 361.847 386.905 366.059 388.116C385.249 393.634 404.86 399.272 417.012 397.296C447.316 394.216 464.42 373.218 466.169 365.279C466.243 364.944 466.33 364.564 466.426 364.144C467.127 361.076 468.313 355.887 468.415 350.706Z" fill="#ACABCF"/>
<path d="M328.563 270.998L329.205 273.79L331.117 271.656C334.105 268.321 339.885 263.466 346.908 258.738C353.921 254.017 362.068 249.494 369.755 246.766L371.841 246.026L370.365 244.377C362.304 235.362 355.49 229.76 349.337 227.161C343.067 224.513 337.527 225.008 332.269 228.008C329.742 229.45 328.239 232.349 327.336 235.638C326.419 238.979 326.036 243.04 325.993 247.248C325.907 255.671 327.181 264.985 328.563 270.998Z" fill="#F8A428" stroke="#572316" stroke-width="2.97026"/>
<path d="M368.318 245.366C353.268 240.223 351.341 230.871 341.34 226.906C346.402 226.689 353.868 230.639 356.628 232.933C359.388 235.227 372.823 246.905 368.318 245.366Z" fill="#F6DA90"/>
<path d="M359.224 249.654C337.49 244.452 331.725 235.106 331.754 230.495C323.463 237.415 329.595 271.214 330.087 270.634C336.448 263.135 353.1 252.907 359.224 249.654Z" fill="#AD7640"/>
<path d="M348.462 253.795L339.914 259.464C337.395 256.066 336.877 239.851 339.849 235.736L342.634 240.193L348.462 253.795Z" fill="#FF5F95"/>
<path d="M339.476 261.097C337.902 257.727 336.009 251.286 336.735 244.808C337.143 241.173 337.551 238.371 338.199 236.479C338.521 235.54 338.861 234.956 339.183 234.619C339.422 234.369 339.656 234.246 339.943 234.21C340.026 234.269 340.154 234.378 340.325 234.56C340.728 234.991 341.215 235.665 341.764 236.56C342.854 238.336 344.05 240.751 345.172 243.218C346.289 245.674 347.312 248.138 348.056 249.991C348.428 250.916 348.73 251.687 348.938 252.226C349.043 252.496 349.124 252.707 349.178 252.85L349.24 253.014L349.256 253.055L349.259 253.065L349.26 253.067L349.261 253.068L350.651 252.545L349.261 253.068L349.264 253.076L349.267 253.084L349.267 253.084L349.267 253.084L349.267 253.085L349.267 253.085L349.267 253.086L349.273 253.101C349.279 253.116 349.288 253.14 349.299 253.171C349.322 253.235 349.356 253.329 349.393 253.444C349.47 253.679 349.558 253.979 349.62 254.274C349.65 254.415 349.668 254.534 349.68 254.63L344.383 258.108L339.476 261.097ZM349.688 254.916C349.688 254.916 349.688 254.912 349.69 254.906C349.689 254.913 349.688 254.916 349.688 254.916ZM339.867 234.163C339.867 234.163 339.869 234.164 339.874 234.166C339.869 234.164 339.867 234.163 339.867 234.163Z" stroke="#572316" stroke-width="2.97026"/>
<path d="M464.528 308.202L462.476 310.201L462.025 307.372C461.32 302.95 459.091 295.739 455.748 287.959C452.411 280.193 448.013 271.977 443.029 265.521L441.676 263.769L443.81 263.181C455.47 259.971 464.232 258.952 470.811 260.101C477.516 261.272 481.905 264.688 484.7 270.058C486.043 272.639 485.736 275.891 484.713 279.143C483.674 282.449 481.796 286.07 479.553 289.631C475.063 296.758 468.947 303.897 464.528 308.202Z" fill="#F8A428" stroke="#572316" stroke-width="2.97026"/>
<path d="M444.996 265.122C460.432 268.952 467.117 262.135 477.672 264.219C473.534 261.294 465.119 260.57 461.557 261.003C457.994 261.437 440.374 263.976 444.996 265.122Z" fill="#F6DA90"/>
<path d="M450.317 273.653C471.404 281.053 481.312 276.32 483.785 272.428C487.006 282.736 463.544 307.826 463.445 307.071C462.16 297.322 453.702 279.704 450.317 273.653Z" fill="#AD7640"/>
<path d="M457.12 282.963L461.234 292.359C465.193 290.867 474.411 277.517 474.142 272.448L469.387 274.686L457.12 282.963Z" fill="#FF5F95"/>
<path d="M460.719 293.969C463.867 291.988 468.947 287.599 471.845 281.761C473.472 278.485 474.646 275.908 475.126 273.967C475.365 273.003 475.396 272.328 475.308 271.871C475.242 271.531 475.112 271.301 474.89 271.115C474.788 271.12 474.622 271.141 474.379 271.203C473.807 271.346 473.033 271.649 472.087 272.104C470.208 273.006 467.894 274.388 465.615 275.854C463.346 277.314 461.152 278.831 459.522 279.985C458.708 280.561 458.037 281.046 457.57 281.386C457.336 281.556 457.153 281.69 457.03 281.781L456.889 281.885L456.854 281.911L456.845 281.917L456.843 281.919L456.843 281.919L455.957 280.727L456.843 281.919L456.835 281.925L456.829 281.929L456.829 281.93L456.828 281.93L456.828 281.93L456.828 281.93L456.827 281.931L456.814 281.94C456.802 281.95 456.781 281.965 456.754 281.985C456.7 282.026 456.622 282.087 456.528 282.164C456.336 282.319 456.099 282.524 455.887 282.739C455.786 282.841 455.706 282.93 455.644 283.005L458.213 288.798L460.719 293.969ZM455.482 283.241C455.482 283.241 455.484 283.238 455.487 283.232C455.483 283.238 455.482 283.242 455.482 283.241ZM474.979 271.117C474.979 271.116 474.977 271.116 474.972 271.116C474.977 271.116 474.979 271.117 474.979 271.117Z" stroke="#572316" stroke-width="2.97026"/>
<ellipse cx="375.309" cy="277.798" rx="11.584" ry="4.56547" transform="rotate(15.2888 375.309 277.798)" fill="white"/>
<ellipse rx="11.584" ry="4.56547" transform="matrix(0.964609 0.263685 0.263685 -0.964609 420.737 290.216)" fill="white"/>
<path d="M362.002 299.167C352.992 295.986 345.379 305.066 346.918 299.025C348.456 292.984 356.676 290.178 364.624 292.202C369.754 293.94 374.822 300.413 375.702 306.356C374.163 312.397 369.446 301.795 362.002 299.167Z" fill="black"/>
<path d="M426.456 314.508C417.445 311.327 409.833 320.407 411.371 314.366C412.91 308.325 421.129 305.519 429.078 307.543C434.208 309.281 439.276 315.754 440.155 321.697C438.617 327.738 433.899 317.136 426.456 314.508Z" fill="black"/>
<path d="M363.445 336.411C363.939 336.854 369.198 343.526 382.146 341.215M382.146 341.215C387.25 345.074 392.016 347.916 399.832 346.358M382.146 341.215L382.773 338.923" stroke="#572316" stroke-width="4.15837" stroke-linecap="round"/>
<path d="M377.527 354.733C372.37 353.323 370.708 343.631 371.413 341.052C379.544 342.096 383.937 343.299 391.469 346.535C389.764 352.022 382.684 356.142 377.527 354.733Z" fill="#572316"/>
<path fill-rule="evenodd" clip-rule="evenodd" d="M379.973 349.271C380.024 349.165 380.065 349.061 380.093 348.959C380.439 347.693 382.289 347.096 383.871 347.528C385.453 347.961 386.456 349.338 386.109 350.604C385.768 351.852 382.115 353.443 379.066 352.384C375.85 351.797 373.67 348.569 374.015 347.306C374.361 346.04 375.924 345.365 377.506 345.797C379.089 346.23 380.378 347.685 380.032 348.951C380.004 349.05 379.986 349.158 379.973 349.271Z" fill="#FB609C"/>
<ellipse cx="384.574" cy="332.333" rx="12.7721" ry="7.12863" transform="rotate(-164.711 384.574 332.333)" fill="#572316"/>
<ellipse cx="385.384" cy="328.244" rx="4.15837" ry="1.78216" transform="rotate(-164.711 385.384 328.244)" fill="white"/>
<circle cx="391.5" cy="304.5" r="104.67" fill="white" fill-opacity="0.32" stroke="black" stroke-width="3.66"/>
<ellipse cx="345.981" cy="429.288" rx="34.1029" ry="30.855" transform="rotate(32.7118 345.981 429.288)" fill="white"/>
<g filter="url(#filter3_i_71_99)">
<path d="M367.658 546.456C295.397 588.344 293.922 623.196 239.807 539.92C201.951 481.664 221.093 463.314 262.432 445.096C292.772 425.564 344.462 408.053 379.981 401.239C456.937 390.352 465.769 393.13 500.17 409.435C494.446 430.367 435.587 509.988 367.658 546.456Z" fill="#FFE5E2"/>
</g>
<path d="M367.658 546.456C295.397 588.344 293.922 623.196 239.807 539.92C201.951 481.664 221.093 463.314 262.432 445.096C292.772 425.564 344.462 408.053 379.981 401.239C456.937 390.352 465.769 393.13 500.17 409.435C494.446 430.367 435.587 509.988 367.658 546.456Z" stroke="black" stroke-width="2.97182"/>
<g filter="url(#filter4_i_71_99)">
<path d="M447.422 482.366C420.994 458.154 410.023 413.633 412.529 397.711C450.427 393.744 465.705 392.298 499.228 409.97C496.476 420.265 475.853 452.375 447.422 482.366Z" fill="#E83B81"/>
</g>
<path d="M447.422 482.366C420.994 458.154 410.023 413.633 412.529 397.711C450.427 393.744 465.705 392.298 499.228 409.97C496.476 420.265 475.853 452.375 447.422 482.366Z" stroke="black" stroke-width="2.97182"/>
<g filter="url(#filter5_i_71_99)">
<path d="M171.639 443.718C235.48 415.24 275.579 423.624 287.649 431.377C277.257 451.562 252.267 485.564 235.434 460.084C218.602 434.605 185.891 438.557 171.639 443.718Z" fill="#E83B81"/>
</g>
<path d="M171.639 443.718C235.48 415.24 275.579 423.624 287.649 431.377C277.257 451.562 252.267 485.564 235.434 460.084C218.602 434.605 185.891 438.557 171.639 443.718Z" stroke="black" stroke-width="2.97182"/>
<g filter="url(#filter6_i_71_99)">
<path d="M274.992 648.838C333.971 611.314 349.108 573.246 349.303 558.902C326.735 556.429 284.588 558.507 296.548 586.604C308.508 614.702 287.161 639.801 274.992 648.838Z" fill="#E83B81"/>
</g>
<path d="M274.992 648.838C333.971 611.314 349.108 573.246 349.303 558.902C326.735 556.429 284.588 558.507 296.548 586.604C308.508 614.702 287.161 639.801 274.992 648.838Z" stroke="black" stroke-width="2.97182"/>
<g filter="url(#filter7_i_71_99)">
<path d="M268.703 530.789C246.948 540.903 207.515 553.834 204.491 547.328C201.466 540.821 235.994 517.342 257.749 507.228C279.505 497.114 315.262 484.597 318.287 491.103C321.312 497.61 290.459 520.675 268.703 530.789Z" fill="#E83B81"/>
</g>
<path d="M268.077 529.442C257.269 534.466 242.046 540.2 229.166 543.862C222.718 545.695 216.923 546.99 212.59 547.432C210.413 547.655 208.697 547.651 207.485 547.437C206.202 547.21 205.897 546.829 205.838 546.701C205.771 546.557 205.683 546.042 206.324 544.86C206.929 543.746 208.01 542.368 209.547 540.77C212.61 537.589 217.241 533.787 222.699 529.834C233.606 521.934 247.596 513.587 258.376 508.575C269.2 503.543 283.51 497.913 295.466 494.357C301.455 492.576 306.783 491.337 310.761 490.934C312.76 490.732 314.321 490.752 315.42 490.971C316.557 491.197 316.86 491.559 316.94 491.73C317.036 491.936 317.109 492.486 316.572 493.631C316.059 494.726 315.116 496.082 313.753 497.653C311.036 500.784 306.868 504.526 301.874 508.422C291.893 516.208 278.836 524.44 268.077 529.442Z" stroke="black" stroke-width="2.97182"/>
<g filter="url(#filter8_di_71_99)">
<circle cx="369.574" cy="460.835" r="42.6286" transform="rotate(32.7118 369.574 460.835)" fill="#E83B81"/>
<circle cx="369.574" cy="460.835" r="41.1427" transform="rotate(32.7118 369.574 460.835)" stroke="black" stroke-width="2.97182"/>
</g>
<circle cx="369.574" cy="460.835" r="25.7152" transform="rotate(32.7118 369.574 460.835)" fill="#8BE9FF" stroke="black" stroke-width="2.97182"/>
<path d="M368.149 436.759C373.874 436.385 377.521 437.303 383.421 440.778L371.34 485.13C364.642 485.711 361.217 484.831 355.727 480.892L368.149 436.759Z" fill="url(#paint0_linear_71_99)"/>
<g filter="url(#filter9_i_71_99)">
<path d="M249.925 383.517C265.926 381.441 277.042 362.332 280.6 353.037L264.617 340.359C257.2 338.683 253.804 344.673 253.033 347.876C246.983 347.079 243.782 353.515 242.938 356.833C236.966 355.313 235.784 359.958 235.939 362.471C240.487 369.413 249.652 383.341 249.925 383.517Z" fill="white"/>
</g>
<path d="M249.925 383.517C265.926 381.441 277.042 362.332 280.6 353.037L264.617 340.359C257.2 338.683 253.804 344.673 253.033 347.876C246.983 347.079 243.782 353.515 242.938 356.833C236.966 355.313 235.784 359.958 235.939 362.471C240.487 369.413 249.652 383.341 249.925 383.517Z" stroke="#572316" stroke-width="2.97182"/>
<g filter="url(#filter10_i_71_99)">
<path d="M427.194 483.879C447.297 501.884 459.651 488.614 461.132 486.546C469.358 475.065 463.618 468.107 462.421 465.807C459.267 459.744 450.854 449.901 442.992 451.071C435.13 452.241 436.688 458.685 438.466 461.64C428.682 466.181 431.769 470.739 434.062 473.565C429.047 475.077 425.623 481.407 427.194 483.879Z" fill="white"/>
</g>
<path d="M427.194 483.879C447.297 501.884 459.651 488.614 461.132 486.546C469.358 475.065 463.618 468.107 462.421 465.807C459.267 459.744 450.854 449.901 442.992 451.071C435.13 452.241 436.688 458.685 438.466 461.64C428.682 466.181 431.769 470.739 434.062 473.565C429.047 475.077 425.623 481.407 427.194 483.879Z" stroke="#572316" stroke-width="2.61083"/>
<ellipse cx="254.598" cy="515.259" rx="1.52887" ry="12.3062" transform="rotate(64.2095 254.598 515.259)" fill="white"/>
<circle cx="244.773" cy="490.703" r="7.30776" transform="rotate(32.7118 244.773 490.703)" fill="#535353"/>
<circle cx="244.773" cy="490.703" r="7.30776" transform="rotate(32.7118 244.773 490.703)" fill="#535353"/>
<circle cx="244.773" cy="490.703" r="7.30776" transform="rotate(32.7118 244.773 490.703)" fill="#535353"/>
<circle cx="283.776" cy="545.67" r="7.30776" transform="rotate(32.7118 283.776 545.67)" fill="#535353"/>
<circle cx="283.776" cy="545.67" r="7.30776" transform="rotate(32.7118 283.776 545.67)" fill="#535353"/>
<circle cx="283.776" cy="545.67" r="7.30776" transform="rotate(32.7118 283.776 545.67)" fill="#535353"/>
<path d="M1439.81 525.619C1374.09 525.619 1311.06 499.511 1264.58 453.037C1218.11 406.564 1192 343.533 1192 277.81C1192 212.086 1218.11 149.055 1264.58 102.582C1311.06 56.1084 1374.09 30 1439.81 30L1439.81 277.81L1439.81 525.619Z" fill="white"/>
<g filter="url(#filter11_f_71_99)">
<path d="M1440 526C1369.19 526 1301.27 499.872 1251.2 453.363C1201.13 406.853 1173 343.774 1173 278C1173 212.226 1201.13 149.147 1251.2 102.638C1301.27 56.1285 1369.19 30 1440 30L1440 278L1440 526Z" fill="white"/>
</g>
<path d="M1440 529C1382.98 529 1328.29 502.713 1287.97 455.923C1247.65 409.133 1225 345.672 1225 279.5C1225 213.329 1247.65 149.867 1287.97 103.077C1328.29 56.2865 1382.98 30 1440 30L1440 279.5L1440 529Z" fill="#F7F7F7"/>
<g filter="url(#filter12_f_71_99)">
<path d="M1427 529C1369.98 529 1315.29 502.872 1274.97 456.363C1234.65 409.853 1212 346.774 1212 281C1212 215.226 1234.65 152.147 1274.97 105.638C1315.29 59.1285 1369.98 33 1427 33L1427 281L1427 529Z" fill="white"/>
</g>
<g filter="url(#filter13_i_71_99)">
<ellipse cx="1382.15" cy="117.602" rx="50.5" ry="29" transform="rotate(-26.7068 1382.15 117.602)" fill="#E0E0E0"/>
</g>
<g filter="url(#filter14_i_71_99)">
<ellipse cx="1320.42" cy="211" rx="32.8322" ry="19.1639" transform="rotate(19.4433 1320.42 211)" fill="#E0E0E0"/>
</g>
<g filter="url(#filter15_i_71_99)">
<ellipse cx="1359.02" cy="341.664" rx="63.0426" ry="40.929" transform="rotate(29.4966 1359.02 341.664)" fill="#E0E0E0"/>
</g>
<ellipse cx="1324" cy="135.923" rx="6.77025" ry="4.34335" transform="rotate(-26.7068 1324 135.923)" fill="#E0E0E0"/>
<ellipse cx="1276.03" cy="223" rx="13.4758" ry="6.65343" transform="rotate(-26.7068 1276.03 223)" fill="#E0E0E0"/>
<ellipse cx="1357.24" cy="431.115" rx="8.73935" ry="2.60765" transform="rotate(-108.468 1357.24 431.115)" fill="#E0E0E0"/>
<g filter="url(#filter16_i_71_99)">
<ellipse cx="1334.75" cy="441.943" rx="12.4129" ry="39.4464" transform="rotate(-51.129 1334.75 441.943)" fill="#E0E0E0"/>
</g>
<ellipse cx="1423.59" cy="337.346" rx="8.18388" ry="3.27174" transform="rotate(34.6713 1423.59 337.346)" fill="#E0E0E0"/>
<ellipse cx="1289.98" cy="330.269" rx="10.7891" ry="3.27174" transform="rotate(74.8621 1289.98 330.269)" fill="#E0E0E0"/>
<ellipse cx="1422.91" cy="264.691" rx="7.39661" ry="3.09836" transform="rotate(13.0703 1422.91 264.691)" fill="#E0E0E0"/>
<ellipse cx="1407.79" cy="268.717" rx="4.43331" ry="1.86154" transform="rotate(-27.847 1407.79 268.717)" fill="#E0E0E0"/>
<g filter="url(#filter17_i_71_99)">
<ellipse cx="1406.45" cy="244.847" rx="28.4564" ry="13.0642" transform="rotate(-38.1325 1406.45 244.847)" fill="#E0E0E0"/>
</g>
<ellipse cx="1328.41" cy="123.933" rx="4.03913" ry="1.98424" transform="rotate(14.5025 1328.41 123.933)" fill="#E0E0E0"/>
<path d="M458.154 166.29L464 140L470.154 166.29L496 172.524L470.154 178.216L464 202.609L458.154 178.216L432 172.524L458.154 166.29Z" fill="white"/>
<path d="M179.798 258.896L184 240L188.423 258.896L207 263.377L188.423 267.468L184 285L179.798 267.468L161 263.377L179.798 258.896Z" fill="white"/>
<path d="M424.456 634.537L427.911 619L431.548 634.537L446.822 638.221L431.548 641.584L427.911 656L424.456 641.584L409 638.221L424.456 634.537Z" fill="white"/>
<path d="M590.154 469.29L596 443L602.154 469.29L628 475.524L602.154 481.216L596 505.609L590.154 481.216L564 475.524L590.154 469.29Z" fill="white"/>
<path d="M942.532 394.597L945.333 382L948.282 394.597L960.667 397.584L948.282 400.312L945.333 412L942.532 400.312L930 397.584L942.532 394.597Z" fill="white"/>
<path d="M832.887 695.996L837.556 675L842.47 695.996L863.111 700.974L842.47 705.519L837.556 725L832.887 705.519L812 700.974L832.887 695.996Z" fill="white"/>
<path d="M851.231 108.435L860 69L869.231 108.435L908 117.786L869.231 126.324L860 162.913L851.231 126.324L812 117.786L851.231 108.435Z" fill="white"/>
<defs>
<filter id="filter0_i_71_99" x="90.6983" y="505.846" width="183.402" height="101.911" filterUnits="userSpaceOnUse" color-interpolation-filters="sRGB">
<feFlood flood-opacity="0" result="BackgroundImageFix"/>
<feBlend mode="normal" in="SourceGraphic" in2="BackgroundImageFix" result="shape"/>
<feColorMatrix in="SourceAlpha" type="matrix" values="0 0 0 0 0 0 0 0 0 0 0 0 0 0 0 0 0 0 127 0" result="hardAlpha"/>
<feOffset dx="-9.74368" dy="-8.11973"/>
<feComposite in2="hardAlpha" operator="arithmetic" k2="-1" k3="1"/>
<feColorMatrix type="matrix" values="0 0 0 0 0.670833 0 0 0 0 0.25885 0 0 0 0 0.061493 0 0 0 1 0"/>
<feBlend mode="normal" in2="shape" result="effect1_innerShadow_71_99"/>
</filter>
<filter id="filter1_i_71_99" x="201.726" y="488.292" width="81.602" height="104.719" filterUnits="userSpaceOnUse" color-interpolation-filters="sRGB">
<feFlood flood-opacity="0" result="BackgroundImageFix"/>
<feBlend mode="normal" in="SourceGraphic" in2="BackgroundImageFix" result="shape"/>
<feColorMatrix in="SourceAlpha" type="matrix" values="0 0 0 0 0 0 0 0 0 0 0 0 0 0 0 0 0 0 127 0" result="hardAlpha"/>
<feOffset dx="-13.8035" dy="-10.5557"/>
<feComposite in2="hardAlpha" operator="arithmetic" k2="-1" k3="1"/>
<feColorMatrix type="matrix" values="0 0 0 0 0.741176 0 0 0 0 0.666667 0 0 0 0 0.658824 0 0 0 1 0"/>
<feBlend mode="normal" in2="shape" result="effect1_innerShadow_71_99"/>
</filter>
<filter id="filter2_ii_71_99" x="233.87" y="338.611" width="206.223" height="199.993" filterUnits="userSpaceOnUse" color-interpolation-filters="sRGB">
<feFlood flood-opacity="0" result="BackgroundImageFix"/>
<feBlend mode="normal" in="SourceGraphic" in2="BackgroundImageFix" result="shape"/>
<feColorMatrix in="SourceAlpha" type="matrix" values="0 0 0 0 0 0 0 0 0 0 0 0 0 0 0 0 0 0 127 0" result="hardAlpha"/>
<feOffset dx="6.49579" dy="-10.5557"/>
<feComposite in2="hardAlpha" operator="arithmetic" k2="-1" k3="1"/>
<feColorMatrix type="matrix" values="0 0 0 0 0.341176 0 0 0 0 0.137255 0 0 0 0 0.0862745 0 0 0 0.22 0"/>
<feBlend mode="normal" in2="shape" result="effect1_innerShadow_71_99"/>
<feColorMatrix in="SourceAlpha" type="matrix" values="0 0 0 0 0 0 0 0 0 0 0 0 0 0 0 0 0 0 127 0" result="hardAlpha"/>
<feOffset dy="3.24789"/>
<feGaussianBlur stdDeviation="1.62395"/>
<feComposite in2="hardAlpha" operator="arithmetic" k2="-1" k3="1"/>
<feColorMatrix type="matrix" values="0 0 0 0 0 0 0 0 0 0 0 0 0 0 0 0 0 0 0.25 0"/>
<feBlend mode="normal" in2="effect1_innerShadow_71_99" result="effect2_innerShadow_71_99"/>
</filter>
<filter id="filter3_i_71_99" x="217.943" y="393.239" width="283.989" height="198.953" filterUnits="userSpaceOnUse" color-interpolation-filters="sRGB">
<feFlood flood-opacity="0" result="BackgroundImageFix"/>
<feBlend mode="normal" in="SourceGraphic" in2="BackgroundImageFix" result="shape"/>
<feColorMatrix in="SourceAlpha" type="matrix" values="0 0 0 0 0 0 0 0 0 0 0 0 0 0 0 0 0 0 127 0" result="hardAlpha"/>
<feOffset dx="-5.57691" dy="-17.8461"/>
<feComposite in2="hardAlpha" operator="arithmetic" k2="-1" k3="1"/>
<feColorMatrix type="matrix" values="0 0 0 0 0.741667 0 0 0 0 0.666861 0 0 0 0 0.658229 0 0 0 1 0"/>
<feBlend mode="normal" in2="shape" result="effect1_innerShadow_71_99"/>
</filter>
<filter id="filter4_i_71_99" x="410.696" y="393.696" width="90.274" height="90.7531" filterUnits="userSpaceOnUse" color-interpolation-filters="sRGB">
<feFlood flood-opacity="0" result="BackgroundImageFix"/>
<feBlend mode="normal" in="SourceGraphic" in2="BackgroundImageFix" result="shape"/>
<feColorMatrix in="SourceAlpha" type="matrix" values="0 0 0 0 0 0 0 0 0 0 0 0 0 0 0 0 0 0 127 0" result="hardAlpha"/>
<feOffset dx="-12.1796" dy="-4.05987"/>
<feComposite in2="hardAlpha" operator="arithmetic" k2="-1" k3="1"/>
<feColorMatrix type="matrix" values="0 0 0 0 0.65098 0 0 0 0 0.137255 0 0 0 0 0.345098 0 0 0 1 0"/>
<feBlend mode="normal" in2="shape" result="effect1_innerShadow_71_99"/>
</filter>
<filter id="filter5_i_71_99" x="171.034" y="422.434" width="118.554" height="48.2407" filterUnits="userSpaceOnUse" color-interpolation-filters="sRGB">
<feFlood flood-opacity="0" result="BackgroundImageFix"/>
<feBlend mode="normal" in="SourceGraphic" in2="BackgroundImageFix" result="shape"/>
<feColorMatrix in="SourceAlpha" type="matrix" values="0 0 0 0 0 0 0 0 0 0 0 0 0 0 0 0 0 0 127 0" result="hardAlpha"/>
<feOffset dx="-1.62395" dy="-10.5557"/>
<feComposite in2="hardAlpha" operator="arithmetic" k2="-1" k3="1"/>
<feColorMatrix type="matrix" values="0 0 0 0 0.65098 0 0 0 0 0.137255 0 0 0 0 0.345098 0 0 0 1 0"/>
<feBlend mode="normal" in2="shape" result="effect1_innerShadow_71_99"/>
</filter>
<filter id="filter6_i_71_99" x="274.106" y="556.647" width="76.7015" height="93.4451" filterUnits="userSpaceOnUse" color-interpolation-filters="sRGB">
<feFlood flood-opacity="0" result="BackgroundImageFix"/>
<feBlend mode="normal" in="SourceGraphic" in2="BackgroundImageFix" result="shape"/>
<feColorMatrix in="SourceAlpha" type="matrix" values="0 0 0 0 0 0 0 0 0 0 0 0 0 0 0 0 0 0 127 0" result="hardAlpha"/>
<feOffset dx="8.93171" dy="-4.87184"/>
<feComposite in2="hardAlpha" operator="arithmetic" k2="-1" k3="1"/>
<feColorMatrix type="matrix" values="0 0 0 0 0.65 0 0 0 0 0.135417 0 0 0 0 0.34363 0 0 0 1 0"/>
<feBlend mode="normal" in2="shape" result="effect1_innerShadow_71_99"/>
</filter>
<filter id="filter7_i_71_99" x="204.304" y="489.308" width="114.189" height="59.7764" filterUnits="userSpaceOnUse" color-interpolation-filters="sRGB">
<feFlood flood-opacity="0" result="BackgroundImageFix"/>
<feBlend mode="normal" in="SourceGraphic" in2="BackgroundImageFix" result="shape"/>
<feColorMatrix in="SourceAlpha" type="matrix" values="0 0 0 0 0 0 0 0 0 0 0 0 0 0 0 0 0 0 127 0" result="hardAlpha"/>
<feOffset dx="-8.93171" dy="-1.62395"/>
<feComposite in2="hardAlpha" operator="arithmetic" k2="-1" k3="1"/>
<feColorMatrix type="matrix" values="0 0 0 0 0.65098 0 0 0 0 0.137255 0 0 0 0 0.345098 0 0 0 1 0"/>
<feBlend mode="normal" in2="shape" result="effect1_innerShadow_71_99"/>
</filter>
<filter id="filter8_di_71_99" x="326.94" y="418.201" width="86.8916" height="91.7634" filterUnits="userSpaceOnUse" color-interpolation-filters="sRGB">
<feFlood flood-opacity="0" result="BackgroundImageFix"/>
<feColorMatrix in="SourceAlpha" type="matrix" values="0 0 0 0 0 0 0 0 0 0 0 0 0 0 0 0 0 0 127 0" result="hardAlpha"/>
<feOffset dx="1.62395" dy="6.49579"/>
<feComposite in2="hardAlpha" operator="out"/>
<feColorMatrix type="matrix" values="0 0 0 0 0 0 0 0 0 0 0 0 0 0 0 0 0 0 0.25 0"/>
<feBlend mode="normal" in2="BackgroundImageFix" result="effect1_dropShadow_71_99"/>
<feBlend mode="normal" in="SourceGraphic" in2="effect1_dropShadow_71_99" result="shape"/>
<feColorMatrix in="SourceAlpha" type="matrix" values="0 0 0 0 0 0 0 0 0 0 0 0 0 0 0 0 0 0 127 0" result="hardAlpha"/>
<feOffset dx="-6.49579" dy="-8.11973"/>
<feComposite in2="hardAlpha" operator="arithmetic" k2="-1" k3="1"/>
<feColorMatrix type="matrix" values="0 0 0 0 0.65098 0 0 0 0 0.137255 0 0 0 0 0.345098 0 0 0 1 0"/>
<feBlend mode="normal" in2="shape" result="effect2_innerShadow_71_99"/>
</filter>
<filter id="filter9_i_71_99" x="234.44" y="338.583" width="47.9364" height="46.4773" filterUnits="userSpaceOnUse" color-interpolation-filters="sRGB">
<feFlood flood-opacity="0" result="BackgroundImageFix"/>
<feBlend mode="normal" in="SourceGraphic" in2="BackgroundImageFix" result="shape"/>
<feColorMatrix in="SourceAlpha" type="matrix" values="0 0 0 0 0 0 0 0 0 0 0 0 0 0 0 0 0 0 127 0" result="hardAlpha"/>
<feOffset dx="4.87184" dy="-10.5557"/>
<feComposite in2="hardAlpha" operator="arithmetic" k2="-1" k3="1"/>
<feColorMatrix type="matrix" values="0 0 0 0 0 0 0 0 0 0 0 0 0 0 0 0 0 0 0.22 0"/>
<feBlend mode="normal" in2="shape" result="effect1_innerShadow_71_99"/>
</filter>
<filter id="filter10_i_71_99" x="425.504" y="449.67" width="41.2856" height="44.8306" filterUnits="userSpaceOnUse" color-interpolation-filters="sRGB">
<feFlood flood-opacity="0" result="BackgroundImageFix"/>
<feBlend mode="normal" in="SourceGraphic" in2="BackgroundImageFix" result="shape"/>
<feColorMatrix in="SourceAlpha" type="matrix" values="0 0 0 0 0 0 0 0 0 0 0 0 0 0 0 0 0 0 127 0" result="hardAlpha"/>
<feOffset dy="-10.7707"/>
<feComposite in2="hardAlpha" operator="arithmetic" k2="-1" k3="1"/>
<feColorMatrix type="matrix" values="0 0 0 0 0 0 0 0 0 0 0 0 0 0 0 0 0 0 0.22 0"/>
<feBlend mode="normal" in2="shape" result="effect1_innerShadow_71_99"/>
</filter>
<filter id="filter11_f_71_99" x="1143" y="0" width="327" height="556" filterUnits="userSpaceOnUse" color-interpolation-filters="sRGB">
<feFlood flood-opacity="0" result="BackgroundImageFix"/>
<feBlend mode="normal" in="SourceGraphic" in2="BackgroundImageFix" result="shape"/>
<feGaussianBlur stdDeviation="15" result="effect1_foregroundBlur_71_99"/>
</filter>
<filter id="filter12_f_71_99" x="1192" y="13" width="255" height="536" filterUnits="userSpaceOnUse" color-interpolation-filters="sRGB">
<feFlood flood-opacity="0" result="BackgroundImageFix"/>
<feBlend mode="normal" in="SourceGraphic" in2="BackgroundImageFix" result="shape"/>
<feGaussianBlur stdDeviation="10" result="effect1_foregroundBlur_71_99"/>
</filter>
<filter id="filter13_i_71_99" x="1335.18" y="83.1599" width="93.9395" height="68.8845" filterUnits="userSpaceOnUse" color-interpolation-filters="sRGB">
<feFlood flood-opacity="0" result="BackgroundImageFix"/>
<feBlend mode="normal" in="SourceGraphic" in2="BackgroundImageFix" result="shape"/>
<feColorMatrix in="SourceAlpha" type="matrix" values="0 0 0 0 0 0 0 0 0 0 0 0 0 0 0 0 0 0 127 0" result="hardAlpha"/>
<feOffset dy="4"/>
<feComposite in2="hardAlpha" operator="arithmetic" k2="-1" k3="1"/>
<feColorMatrix type="matrix" values="0 0 0 0 0 0 0 0 0 0 0 0 0 0 0 0 0 0 0.25 0"/>
<feBlend mode="normal" in2="shape" result="effect1_innerShadow_71_99"/>
</filter>
<filter id="filter14_i_71_99" x="1288.8" y="189.878" width="63.2329" height="42.2439" filterUnits="userSpaceOnUse" color-interpolation-filters="sRGB">
<feFlood flood-opacity="0" result="BackgroundImageFix"/>
<feBlend mode="normal" in="SourceGraphic" in2="BackgroundImageFix" result="shape"/>
<feColorMatrix in="SourceAlpha" type="matrix" values="0 0 0 0 0 0 0 0 0 0 0 0 0 0 0 0 0 0 127 0" result="hardAlpha"/>
<feOffset dy="4"/>
<feComposite in2="hardAlpha" operator="arithmetic" k2="-1" k3="1"/>
<feColorMatrix type="matrix" values="0 0 0 0 0 0 0 0 0 0 0 0 0 0 0 0 0 0 0.25 0"/>
<feBlend mode="normal" in2="shape" result="effect1_innerShadow_71_99"/>
</filter>
<filter id="filter15_i_71_99" x="1300.55" y="294.414" width="116.942" height="94.5017" filterUnits="userSpaceOnUse" color-interpolation-filters="sRGB">
<feFlood flood-opacity="0" result="BackgroundImageFix"/>
<feBlend mode="normal" in="SourceGraphic" in2="BackgroundImageFix" result="shape"/>
<feColorMatrix in="SourceAlpha" type="matrix" values="0 0 0 0 0 0 0 0 0 0 0 0 0 0 0 0 0 0 127 0" result="hardAlpha"/>
<feOffset dy="4"/>
<feComposite in2="hardAlpha" operator="arithmetic" k2="-1" k3="1"/>
<feColorMatrix type="matrix" values="0 0 0 0 0 0 0 0 0 0 0 0 0 0 0 0 0 0 0.25 0"/>
<feBlend mode="normal" in2="shape" result="effect1_innerShadow_71_99"/>
</filter>
<filter id="filter16_i_71_99" x="1303.06" y="415.361" width="63.3831" height="53.1639" filterUnits="userSpaceOnUse" color-interpolation-filters="sRGB">
<feFlood flood-opacity="0" result="BackgroundImageFix"/>
<feBlend mode="normal" in="SourceGraphic" in2="BackgroundImageFix" result="shape"/>
<feColorMatrix in="SourceAlpha" type="matrix" values="0 0 0 0 0 0 0 0 0 0 0 0 0 0 0 0 0 0 127 0" result="hardAlpha"/>
<feOffset dx="2" dy="-2"/>
<feComposite in2="hardAlpha" operator="arithmetic" k2="-1" k3="1"/>
<feColorMatrix type="matrix" values="0 0 0 0 0 0 0 0 0 0 0 0 0 0 0 0 0 0 0.25 0"/>
<feBlend mode="normal" in2="shape" result="effect1_innerShadow_71_99"/>
</filter>
<filter id="filter17_i_71_99" x="1382.65" y="224.489" width="47.5983" height="40.7177" filterUnits="userSpaceOnUse" color-interpolation-filters="sRGB">
<feFlood flood-opacity="0" result="BackgroundImageFix"/>
<feBlend mode="normal" in="SourceGraphic" in2="BackgroundImageFix" result="shape"/>
<feColorMatrix in="SourceAlpha" type="matrix" values="0 0 0 0 0 0 0 0 0 0 0 0 0 0 0 0 0 0 127 0" result="hardAlpha"/>
<feOffset dy="4"/>
<feComposite in2="hardAlpha" operator="arithmetic" k2="-1" k3="1"/>
<feColorMatrix type="matrix" values="0 0 0 0 0 0 0 0 0 0 0 0 0 0 0 0 0 0 0.25 0"/>
<feBlend mode="normal" in2="shape" result="effect1_innerShadow_71_99"/>
</filter>
<linearGradient id="paint0_linear_71_99" x1="376.257" y1="437.472" x2="355.885" y2="509.944" gradientUnits="userSpaceOnUse">
<stop stop-color="#C6F4FF"/>
<stop offset="1" stop-color="#C6F4FF" stop-opacity="0"/>
</linearGradient>
</defs>
</svg>
