<svg width="1920" height="550" viewBox="0 0 1920 550" fill="none" xmlns="http://www.w3.org/2000/svg">
<g clip-path="url(#clip0_287_38)">
<path d="M1920 0H0V550H1920V0Z" fill="#F89F1D"/>
<path d="M218.971 10.6857V62.9538H157.304V246.896H93.0118V62.9538H32V10.6857H218.971ZM342.149 249.241C320.499 249.241 300.6 244.103 282.449 233.828C264.299 223.33 249.865 208.923 239.15 190.607C228.653 172.068 223.405 151.183 223.405 127.953C223.405 104.723 228.653 83.9495 239.15 65.6335C249.865 47.094 264.299 32.6874 282.449 22.4126C300.6 12.1379 320.499 7 342.149 7C364.016 7 383.917 12.1379 401.848 22.4126C419.999 32.6874 434.322 47.094 444.819 65.6335C455.315 83.9495 460.564 104.723 460.564 127.953C460.564 151.183 455.315 172.068 444.819 190.607C434.322 208.923 419.999 223.33 401.848 233.828C383.698 244.103 363.798 249.241 342.149 249.241ZM342.149 188.262C358.549 188.262 371.452 182.79 380.854 171.844C390.477 160.9 395.288 146.269 395.288 127.953C395.288 109.19 390.477 94.4478 380.854 83.7269C371.452 72.7814 358.549 67.3092 342.149 67.3092C325.528 67.3092 312.517 72.7814 303.114 83.7269C293.711 94.4478 289.009 109.19 289.009 127.953C289.009 146.492 293.711 161.234 303.114 172.18C312.517 182.902 325.528 188.262 342.149 188.262ZM703.468 10.6857V62.9538H641.801V246.896H577.509V62.9538H516.497V10.6857H703.468ZM922.755 10.6857V246.896H858.463V152.076H780.066V246.896H715.774V10.6857H780.066V99.4739H858.463V10.6857H922.755ZM1012.36 63.2882V101.819H1086.16V151.742H1012.36V194.293H1096V246.896H948.066V10.6857H1096V63.2882H1012.36ZM314.753 296.754V532.964H250.461V402.629L206.835 532.964H153.04L109.085 401.624V532.964H44.7928V296.754H122.534L180.593 450.207L237.341 296.754H314.753ZM450.741 535.309C429.092 535.309 409.192 530.171 391.042 519.896C372.891 509.398 358.458 494.991 347.743 476.675C337.246 458.136 331.998 437.251 331.998 414.021C331.998 390.791 337.246 370.017 347.743 351.702C358.458 333.162 372.891 318.755 391.042 308.481C409.192 298.206 429.092 293.068 450.741 293.068C472.609 293.068 492.509 298.206 510.441 308.481C528.591 318.755 542.915 333.162 553.412 351.702C563.908 370.017 569.157 390.791 569.157 414.021C569.157 437.251 563.908 458.136 553.412 476.675C542.915 494.991 528.591 509.398 510.441 519.896C492.29 530.171 472.391 535.309 450.741 535.309ZM450.741 474.33C467.142 474.33 480.044 468.858 489.447 457.912C499.069 446.968 503.881 432.337 503.881 414.021C503.881 395.258 499.069 380.516 489.447 369.795C480.044 358.849 467.142 353.377 450.741 353.377C434.122 353.377 421.11 358.849 411.706 369.795C402.304 380.516 397.602 395.258 397.602 414.021C397.602 432.56 402.304 447.302 411.706 458.248C421.11 468.97 434.122 474.33 450.741 474.33ZM697.448 535.309C675.799 535.309 655.899 530.171 637.749 519.896C619.598 509.398 605.166 494.991 594.45 476.675C583.953 458.136 578.705 437.251 578.705 414.021C578.705 390.791 583.953 370.017 594.45 351.702C605.166 333.162 619.598 318.755 637.749 308.481C655.899 298.206 675.799 293.068 697.448 293.068C719.316 293.068 739.216 298.206 757.148 308.481C775.299 318.755 789.622 333.162 800.119 351.702C810.616 370.017 815.864 390.791 815.864 414.021C815.864 437.251 810.616 458.136 800.119 476.675C789.622 494.991 775.299 509.398 757.148 519.896C738.998 530.171 719.098 535.309 697.448 535.309ZM697.448 474.33C713.849 474.33 726.752 468.858 736.155 457.912C745.777 446.968 750.588 432.337 750.588 414.021C750.588 395.258 745.777 380.516 736.155 369.795C726.752 358.849 713.849 353.377 697.448 353.377C680.829 353.377 667.817 358.849 658.414 369.795C649.011 380.516 644.309 395.258 644.309 414.021C644.309 432.56 649.011 447.302 658.414 458.248C667.817 468.97 680.829 474.33 697.448 474.33ZM1047.48 532.964H983.194L897.577 400.954V532.964H833.285V296.754H897.577L983.194 430.438V296.754H1047.48V532.964Z" fill="white" fill-opacity="0.2"/>
<path d="M1302.16 327.891C1291.31 345.135 1271.39 351.23 1257.8 342.311C1244.2 333.392 1241.34 312.353 1252.19 295.109C1263.03 277.864 1282.95 271.769 1296.55 280.688C1310.14 289.607 1313 310.646 1302.16 327.891Z" fill="#F89F1D" stroke="#572316" stroke-width="3.00468"/>
<g filter="url(#filter0_i_287_38)">
<path d="M1049.93 466.12C1016.1 482.96 978.331 459.012 923.582 467.196C868.834 475.38 973.301 393.26 1007.13 376.419C1040.96 359.579 1077.96 366.006 1089.78 390.776C1101.6 415.546 1083.76 449.279 1049.93 466.12Z" fill="#FC5505"/>
</g>
<path d="M1049.27 464.74C1032.82 472.93 1015.36 471.248 994.805 468.383C993.241 468.165 991.661 467.941 990.064 467.714C970.745 464.97 948.878 461.864 923.365 465.677C920.006 466.179 917.32 466.325 915.23 466.179C913.122 466.032 911.733 465.596 910.869 465.038C910.064 464.519 909.673 463.874 909.548 463.062C909.411 462.174 909.576 460.966 910.181 459.394C911.394 456.245 914.153 452.199 918.168 447.522C922.158 442.875 927.295 437.711 933.145 432.332C956.583 410.779 991.04 386.136 1007.79 377.799C1024.45 369.503 1041.84 366.968 1056.46 369.507C1071.07 372.046 1082.79 379.623 1088.43 391.448C1094.07 403.275 1092.7 417.368 1085.65 430.692C1078.61 444.013 1065.94 456.444 1049.27 464.74Z" stroke="black" stroke-width="3.00468"/>
<path d="M1060.94 445.301C1036.46 457.488 1013.37 437.895 973.754 443.818C934.133 449.739 1005.49 392.573 1029.97 380.386C1054.45 368.199 1081.23 372.851 1089.78 390.776C1098.34 408.702 1085.42 433.114 1060.94 445.301Z" fill="#F9B309"/>
<g filter="url(#filter1_i_287_38)">
<path d="M1022.9 355.712L1035.42 350.777L1100.41 450.859L1086.49 455.479C1085.03 455.281 1080.01 453.726 1071.61 449.091C1061.11 443.298 1031.06 422.169 1025.13 392.931C1020.39 369.541 1021.67 358.372 1022.9 355.712Z" fill="#FFE5E2"/>
</g>
<path d="M1022.9 355.712L1035.42 350.777L1100.41 450.859L1086.49 455.48C1085.03 455.281 1080.01 453.726 1071.61 449.091C1061.11 443.299 1031.06 422.169 1025.13 392.932C1020.39 369.541 1021.67 358.373 1022.9 355.712Z" stroke="black" stroke-width="3.00468"/>
<g filter="url(#filter2_ii_287_38)">
<path d="M1125.04 229.136L1129.97 217.42L1259.54 251.097C1250.78 302.42 1240.94 329.949 1211.82 379.746L1160.28 395.763L1117.27 350.11L1088.57 301.879L1098.2 278.8C1099.63 278.077 1099.05 273.272 1085.25 259.836C1071.45 246.399 1059.54 227.525 1055.32 219.769C1051.82 216.06 1057.65 209.842 1062.84 213.241C1063.68 204.283 1067.55 203.836 1072.82 204.344C1071.58 198.55 1080.18 194.049 1084.53 196.58L1125.04 229.136Z" fill="#F89F1D"/>
</g>
<path d="M1129.97 217.42L1130.34 215.933L1129.1 215.609L1128.59 216.814L1129.97 217.42ZM1084.53 196.58L1085.46 195.374L1085.37 195.303L1085.28 195.247L1084.53 196.58ZM1072.82 204.344L1072.68 205.871L1074.73 206.068L1074.29 204.017L1072.82 204.344ZM1062.84 213.241L1062.02 214.532L1064.1 215.892L1064.33 213.387L1062.84 213.241ZM1055.32 219.769L1056.63 219.022L1056.53 218.848L1056.4 218.705L1055.32 219.769ZM1085.25 259.836L1084.21 260.946L1085.25 259.836ZM1098.2 278.8L1097.54 277.424L1097.04 277.676L1096.82 278.198L1098.2 278.8ZM1088.57 301.879L1087.19 301.277L1086.89 302.002L1087.29 302.677L1088.57 301.879ZM1117.27 350.11L1115.99 350.906L1116.07 351.051L1116.19 351.173L1117.27 350.11ZM1160.28 395.763L1159.2 396.828L1159.84 397.505L1160.72 397.232L1160.28 395.763ZM1211.82 379.746L1212.26 381.213L1212.81 381.041L1213.11 380.533L1211.82 379.746ZM1259.54 251.097L1261.02 251.361L1261.26 249.96L1259.91 249.61L1259.54 251.097ZM1136.19 249.456C1136.55 250.224 1137.44 250.554 1138.19 250.195C1138.94 249.835 1139.27 248.921 1138.92 248.154L1136.19 249.456ZM1128.59 216.814L1123.66 228.53L1126.42 229.742L1131.35 218.025L1128.59 216.814ZM1125.97 227.93L1085.46 195.374L1083.6 197.786L1124.11 230.342L1125.97 227.93ZM1085.28 195.247C1082.45 193.6 1078.6 194.338 1075.82 196.019C1073.02 197.712 1070.54 200.841 1071.35 204.67L1074.29 204.017C1073.87 202.053 1075.07 200.035 1077.35 198.661C1079.64 197.276 1082.27 197.028 1083.79 197.913L1085.28 195.247ZM1072.96 202.816C1070.36 202.565 1067.56 202.462 1065.34 203.962C1063.03 205.519 1061.77 208.465 1061.34 213.094L1064.33 213.387C1064.74 209.058 1065.84 207.303 1066.99 206.523C1068.23 205.687 1070.01 205.614 1072.68 205.871L1072.96 202.816ZM1063.65 211.95C1060.4 209.816 1056.89 210.717 1054.8 212.718C1053.76 213.714 1052.99 215.042 1052.8 216.504C1052.6 218.011 1053.04 219.563 1054.23 220.832L1056.4 218.705C1055.85 218.119 1055.7 217.504 1055.78 216.908C1055.86 216.268 1056.22 215.558 1056.85 214.96C1058.09 213.775 1060.09 213.267 1062.02 214.532L1063.65 211.95ZM1054 220.515C1058.27 228.344 1070.26 247.363 1084.21 260.946L1086.28 258.725C1072.64 245.435 1060.82 226.706 1056.63 219.022L1054 220.515ZM1084.21 260.946C1091.08 267.631 1094.55 272.073 1096.14 274.857C1096.94 276.263 1097.19 277.125 1097.23 277.564C1097.27 277.984 1097.12 277.636 1097.54 277.424L1098.87 280.176C1100 279.602 1100.32 278.382 1100.22 277.279C1100.12 276.193 1099.63 274.879 1098.74 273.313C1096.94 270.155 1093.22 265.477 1086.28 258.725L1084.21 260.946ZM1096.82 278.198L1087.19 301.277L1089.95 302.481L1099.59 279.401L1096.82 278.198ZM1087.29 302.677L1115.99 350.906L1118.56 349.312L1089.85 301.082L1087.29 302.677ZM1116.19 351.173L1159.2 396.828L1161.36 394.699L1118.36 349.045L1116.19 351.173ZM1160.72 397.232L1212.26 381.213L1211.38 378.277L1159.84 394.296L1160.72 397.232ZM1213.11 380.533C1242.32 330.583 1252.23 302.878 1261.02 251.361L1258.06 250.834C1249.33 301.963 1239.56 329.315 1210.53 378.959L1213.11 380.533ZM1259.91 249.61L1130.34 215.933L1129.6 218.907L1259.17 252.584L1259.91 249.61ZM1124.05 230.29C1130.25 235.847 1132.87 242.209 1136.19 249.456L1138.92 248.154C1135.66 241.052 1132.8 234.043 1126.03 227.982L1124.05 230.29Z" fill="#572316"/>
<path d="M1238.82 266.334C1233.18 275.47 1197.97 276.15 1170.38 258.397C1142.79 240.643 1124.99 218.845 1130.63 209.71C1136.26 200.574 1163.2 207.562 1190.78 225.315C1218.37 243.069 1244.45 257.2 1238.82 266.334Z" fill="black" fill-opacity="0.3"/>
<path d="M1119.08 172.014L1120.54 172.373C1119.08 172.014 1119.08 172.016 1119.08 172.017V172.019L1119.07 172.025L1119.07 172.044L1119.05 172.114C1119.04 172.175 1119.02 172.261 1119 172.373C1118.95 172.597 1118.89 172.922 1118.81 173.338C1118.66 174.171 1118.46 175.37 1118.28 176.853C1117.93 179.815 1117.64 183.93 1117.93 188.536C1118.5 197.718 1121.34 209.084 1130.66 217.032C1148.41 232.166 1155.66 237.512 1168.75 241.167C1172.63 242.249 1177.6 243.722 1182.95 245.308C1195.04 248.889 1209.08 253.05 1216.94 254.619C1234.89 258.198 1247.97 253.982 1255.71 251.489C1256.24 251.316 1256.75 251.151 1257.24 250.998C1265.06 248.527 1277.79 240.077 1286.28 227.443L1286.37 227.319L1286.42 227.18C1289.9 218.936 1291.47 212.151 1291.31 205.116C1291.15 198.158 1289.31 191.077 1286.15 182.245C1282.53 144.151 1266.88 115.491 1243.39 102.099L1243.33 102.066L1243.27 102.038L1242.66 103.439C1243.27 102.038 1243.27 102.038 1243.27 102.038L1243.27 102.037L1243.26 102.034L1243.24 102.024L1243.15 101.987C1243.08 101.956 1242.98 101.909 1242.84 101.85C1242.57 101.731 1242.16 101.561 1241.63 101.347C1240.57 100.919 1239 100.317 1236.96 99.6113C1232.89 98.2006 1226.94 96.3779 1219.38 94.7152C1215.33 93.8239 1209.54 94.1596 1202.94 95.6219C1196.3 97.0925 1188.71 99.7311 1180.98 103.574C1165.63 111.203 1149.63 123.641 1139.6 141.277C1128.2 148.338 1122.2 160.352 1119.09 171.968L1119.08 171.992L1119.08 172.014Z" fill="#F7A528" stroke="#572316" stroke-width="3.0031"/>
<path d="M1201.96 101.935C1192.95 101.198 1166.01 117.23 1153.67 125.339C1174.24 102.792 1203.8 96.2033 1211.71 95.752H1211.71C1212.72 95.6952 1235.74 94.3837 1256.14 112.406C1276.15 130.084 1283.21 169.457 1279.9 157.402C1276.58 145.348 1252.21 109.605 1249.47 115.199C1247.28 119.675 1240.32 119.151 1236.77 118.447C1232.83 117.664 1223.89 115.614 1216.21 112.704C1208.52 109.794 1203.67 107.181 1203.89 104.061C1203.93 103.416 1204.24 101.807 1201.96 101.935Z" fill="#F6DA90"/>
<path d="M1288.23 219.312C1286.78 229.4 1268.67 251.692 1240.51 253.369C1225.58 255.813 1216.02 252.689 1184.63 244.359C1153.25 236.03 1142.76 225.439 1128.12 213.101C1119.16 203.303 1115.05 178.907 1125.7 157.713C1132.72 147.649 1134.07 147.279 1151.07 162.847C1155.5 166.908 1160.32 177.181 1165.99 180.367C1200.27 165.35 1228.12 179.191 1242.88 202.049C1250.57 202.318 1256.55 197.348 1260.56 196.263C1297.87 182.066 1289.69 209.223 1288.23 219.312Z" fill="white"/>
<path fill-rule="evenodd" clip-rule="evenodd" d="M1289.89 206.813C1284.39 217.108 1268.68 231.78 1244.15 234.69C1229.16 237.183 1211.57 231.954 1188.84 224.973C1158.74 218.794 1143.9 205.9 1132.58 192.387C1126.94 186.223 1122.89 175.705 1123.43 163.035C1114.96 184.332 1119.94 202.381 1125.61 210.493C1137.88 223.481 1157.78 238.166 1173.78 241.799C1177.91 242.952 1182.15 244.197 1186.41 245.447C1205.81 251.146 1225.64 256.968 1237.92 254.928C1268.56 251.747 1285.85 230.062 1287.62 221.863C1287.7 221.517 1287.79 221.125 1287.88 220.691C1288.59 217.522 1289.79 212.164 1289.89 206.813Z" fill="#ACABCF"/>
<path d="M1148.5 124.497L1149.14 127.38L1151.08 125.176C1154.1 121.732 1159.94 116.718 1167.04 111.836C1174.13 106.96 1182.37 102.289 1190.14 99.4719L1192.25 98.7077L1190.76 97.0048C1182.61 87.6948 1175.72 81.9094 1169.5 79.2254C1163.16 76.4907 1157.56 77.0019 1152.24 80.1001C1149.69 81.5893 1148.17 84.5832 1147.25 87.9798C1146.33 91.4301 1145.94 95.624 1145.9 99.9697C1145.81 108.668 1147.1 118.287 1148.5 124.497Z" fill="#F8A428" stroke="#572316" stroke-width="3.0031"/>
<path d="M1188.69 98.0261C1173.47 92.7148 1171.53 83.0568 1161.41 78.962C1166.53 78.7379 1174.08 82.8172 1176.87 85.1863C1179.66 87.5553 1193.24 99.6155 1188.69 98.0261Z" fill="#F6DA90"/>
<path d="M1179.5 102.454C1157.52 97.0822 1151.69 87.4303 1151.72 82.6685C1143.34 89.8149 1149.54 124.72 1150.04 124.121C1156.47 116.377 1173.3 105.814 1179.5 102.454Z" fill="#AD7640"/>
<path d="M1168.61 106.731L1159.97 112.585C1157.42 109.076 1156.9 92.3306 1159.91 88.0809L1162.72 92.6838L1168.61 106.731Z" fill="#FF5F95"/>
<path d="M1159.53 114.272C1157.94 110.792 1156.02 104.14 1156.76 97.4498C1157.17 93.6959 1157.58 90.8022 1158.24 88.8483C1158.56 87.8786 1158.91 87.2755 1159.23 86.9274C1159.47 86.6693 1159.71 86.5422 1160 86.5051C1160.09 86.566 1160.21 86.6786 1160.39 86.8665C1160.79 87.3116 1161.29 88.0077 1161.84 88.932C1162.94 90.7661 1164.15 93.2601 1165.29 95.8078C1166.42 98.3442 1167.45 100.889 1168.2 102.802C1168.58 103.758 1168.89 104.554 1169.1 105.111C1169.2 105.389 1169.28 105.607 1169.34 105.755L1169.4 105.924L1169.42 105.967L1169.42 105.977L1169.42 105.979L1169.42 105.98L1170.83 105.44L1169.42 105.98L1169.43 105.988L1169.43 105.997V105.998V105.999L1169.43 106.014C1169.44 106.03 1169.45 106.054 1169.46 106.087C1169.48 106.153 1169.52 106.25 1169.56 106.368C1169.63 106.611 1169.72 106.921 1169.79 107.226C1169.82 107.371 1169.83 107.494 1169.85 107.593L1164.49 111.185L1159.53 114.272ZM1169.85 107.889C1169.85 107.889 1169.85 107.884 1169.86 107.878C1169.86 107.886 1169.85 107.889 1169.85 107.889ZM1159.92 86.4565C1159.92 86.4565 1159.93 86.4576 1159.93 86.4596C1159.93 86.4576 1159.92 86.4565 1159.92 86.4565Z" stroke="#572316" stroke-width="3.0031"/>
<path d="M1285.96 162.918L1283.89 164.983L1283.43 162.061C1282.72 157.494 1280.47 150.047 1277.09 142.013C1273.71 133.993 1269.27 125.508 1264.23 118.841L1262.86 117.031L1265.02 116.424C1276.81 113.109 1285.66 112.057 1292.32 113.243C1299.1 114.453 1303.53 117.98 1306.36 123.526C1307.72 126.192 1307.41 129.55 1306.37 132.908C1305.32 136.323 1303.42 140.062 1301.15 143.74C1296.62 151.1 1290.43 158.472 1285.96 162.918Z" fill="#F8A428" stroke="#572316" stroke-width="3.0031"/>
<path d="M1266.22 118.429C1281.82 122.384 1288.58 115.344 1299.25 117.496C1295.07 114.475 1286.56 113.728 1282.96 114.175C1279.36 114.623 1261.54 117.245 1266.22 118.429Z" fill="#F6DA90"/>
<path d="M1271.6 127.239C1292.92 134.881 1302.93 129.993 1305.43 125.974C1308.69 136.619 1284.97 162.53 1284.87 161.75C1283.57 151.682 1275.02 133.488 1271.6 127.239Z" fill="#AD7640"/>
<path d="M1278.47 136.853L1282.63 146.557C1286.64 145.016 1295.96 131.229 1295.68 125.994L1290.88 128.306L1278.47 136.853Z" fill="#FF5F95"/>
<path d="M1282.11 148.22C1285.3 146.174 1290.43 141.641 1293.36 135.612C1295.01 132.229 1296.19 129.568 1296.68 127.563C1296.92 126.567 1296.95 125.87 1296.86 125.398C1296.8 125.047 1296.66 124.81 1296.44 124.618C1296.34 124.623 1296.17 124.645 1295.92 124.709C1295.35 124.856 1294.56 125.169 1293.61 125.639C1291.71 126.571 1289.37 127.998 1287.06 129.512C1284.77 131.02 1282.55 132.586 1280.9 133.778C1280.08 134.373 1279.4 134.874 1278.93 135.225C1278.69 135.4 1278.51 135.539 1278.38 135.633L1278.24 135.74L1278.2 135.767L1278.2 135.773L1278.19 135.775L1277.3 134.544L1278.19 135.775L1278.19 135.781L1278.18 135.786V135.787H1278.18L1278.18 135.788L1278.16 135.797C1278.15 135.807 1278.13 135.823 1278.1 135.843C1278.05 135.886 1277.97 135.949 1277.88 136.028C1277.68 136.188 1277.44 136.4 1277.23 136.622C1277.12 136.727 1277.04 136.819 1276.98 136.897L1279.58 142.879L1282.11 148.22ZM1276.82 137.14C1276.82 137.14 1276.82 137.137 1276.82 137.131C1276.82 137.137 1276.82 137.141 1276.82 137.14ZM1296.53 124.62C1296.53 124.619 1296.53 124.619 1296.52 124.619C1296.53 124.619 1296.53 124.62 1296.53 124.62Z" stroke="#572316" stroke-width="3.0031"/>
<path d="M1194.54 136.067C1200.78 137.81 1206.38 137.186 1207.06 134.674C1207.73 132.162 1203.22 128.714 1196.98 126.971C1190.74 125.229 1185.13 125.853 1184.46 128.365C1183.79 130.877 1188.3 134.325 1194.54 136.067Z" fill="white"/>
<path d="M1242.91 139.796C1249.15 141.538 1253.66 144.986 1252.99 147.498C1252.31 150.01 1246.71 150.634 1240.47 148.892C1234.23 147.15 1229.72 143.701 1230.39 141.189C1231.06 138.677 1236.67 138.054 1242.91 139.796Z" fill="white"/>
<path d="M1182.3 153.588C1173.19 150.303 1165.5 159.68 1167.05 153.441C1168.61 147.202 1176.92 144.304 1184.95 146.395C1190.14 148.19 1195.27 154.874 1196.16 161.012C1194.6 167.251 1189.83 156.302 1182.3 153.588Z" fill="black"/>
<path d="M1247.47 169.431C1238.36 166.145 1230.66 175.523 1232.22 169.284C1233.78 163.045 1242.09 160.147 1250.12 162.238C1255.31 164.033 1260.43 170.717 1261.32 176.855C1259.77 183.093 1255 172.145 1247.47 169.431Z" fill="black"/>
<path d="M1202.67 197.012L1203.3 194.645M1183.76 192.05C1184.26 192.508 1189.58 199.398 1202.67 197.012L1183.76 192.05ZM1202.67 197.012C1207.83 200.997 1212.65 203.932 1220.55 202.323L1202.67 197.012Z" stroke="#572316" stroke-width="4.20435" stroke-linecap="round"/>
<path d="M1198 210.972C1192.79 209.516 1191.11 199.507 1191.82 196.843C1200.04 197.921 1204.48 199.164 1212.1 202.506C1210.37 208.172 1203.22 212.427 1198 210.972Z" fill="#572316"/>
<path fill-rule="evenodd" clip-rule="evenodd" d="M1200.47 205.331C1200.53 205.222 1200.57 205.114 1200.6 205.009C1200.95 203.702 1202.82 203.085 1204.42 203.531C1206.01 203.978 1207.03 205.4 1206.68 206.708C1206.33 207.997 1202.64 209.64 1199.56 208.546C1196.31 207.94 1194.1 204.606 1194.45 203.302C1194.8 201.994 1196.38 201.297 1197.98 201.743C1199.58 202.191 1200.88 203.693 1200.53 205.001C1200.51 205.103 1200.49 205.214 1200.47 205.331Z" fill="#FB609C"/>
<path d="M1207.03 180.738C1200.15 178.817 1193.72 180.439 1192.67 184.361C1191.62 188.283 1196.35 193.019 1203.23 194.94C1210.1 196.861 1216.53 195.239 1217.58 191.317C1218.63 187.395 1213.91 182.658 1207.03 180.738Z" fill="#572316"/>
<path d="M1206.42 181.841C1204.18 181.215 1202.15 181.503 1201.89 182.484C1201.63 183.464 1203.23 184.766 1205.47 185.391C1207.71 186.017 1209.74 185.729 1210 184.749C1210.26 183.768 1208.66 182.466 1206.42 181.841Z" fill="white"/>
<path d="M1212.13 267.19C1270.58 267.19 1317.96 218.794 1317.96 159.095C1317.96 99.3958 1270.58 51 1212.13 51C1153.68 51 1106.3 99.3958 1106.3 159.095C1106.3 218.794 1153.68 267.19 1212.13 267.19Z" fill="white" fill-opacity="0.32" stroke="black" stroke-width="3.70047"/>
<path d="M1149.25 314.777C1165.27 325.289 1185.81 321.807 1195.12 306.999C1204.43 292.192 1198.99 271.667 1182.96 261.156C1166.94 250.644 1146.41 254.127 1137.09 268.934C1127.78 283.741 1133.22 304.266 1149.25 314.777Z" fill="white"/>
<g filter="url(#filter3_i_287_38)">
<path d="M1188.02 408.969C1114.96 452.227 1113.47 488.22 1058.76 402.219C1020.48 342.056 1039.84 323.106 1081.63 304.292C1112.31 284.121 1164.57 266.037 1200.48 259C1278.29 247.756 1287.22 250.625 1322 267.464C1316.21 289.081 1256.7 371.307 1188.02 408.969Z" fill="#FFE5E2"/>
</g>
<path d="M1188.02 408.969C1114.96 452.227 1113.47 488.22 1058.76 402.219C1020.48 342.056 1039.84 323.106 1081.63 304.292C1112.31 284.121 1164.57 266.037 1200.48 259C1278.29 247.756 1287.22 250.625 1322 267.464C1316.21 289.081 1256.7 371.307 1188.02 408.969Z" stroke="black" stroke-width="3.00468"/>
<g filter="url(#filter4_i_287_38)">
<path d="M1268.67 342.781C1241.95 317.777 1230.86 271.799 1233.39 255.356C1271.71 251.259 1287.15 249.766 1321.05 268.016C1318.27 278.648 1297.41 311.809 1268.67 342.781Z" fill="#E83B81"/>
</g>
<path d="M1268.67 342.781C1241.95 317.777 1230.86 271.799 1233.39 255.356C1271.71 251.259 1287.15 249.766 1321.05 268.016C1318.27 278.648 1297.41 311.809 1268.67 342.781Z" stroke="black" stroke-width="3.00468"/>
<g filter="url(#filter5_i_287_38)">
<path d="M989.836 302.869C1054.38 273.459 1094.93 282.117 1107.13 290.124C1096.62 310.969 1071.36 346.084 1054.34 319.77C1037.32 293.457 1004.25 297.539 989.836 302.869Z" fill="#E83B81"/>
</g>
<path d="M989.836 302.869C1054.38 273.459 1094.93 282.117 1107.13 290.124C1096.62 310.969 1071.36 346.084 1054.34 319.77C1037.32 293.457 1004.25 297.539 989.836 302.869Z" stroke="black" stroke-width="3.00468"/>
<g filter="url(#filter6_i_287_38)">
<path d="M1094.33 514.701C1153.96 475.949 1169.27 436.635 1169.46 421.822C1146.65 419.268 1104.03 421.414 1116.13 450.43C1128.22 479.448 1106.63 505.368 1094.33 514.701Z" fill="#E83B81"/>
</g>
<path d="M1094.33 514.701C1153.96 475.949 1169.27 436.635 1169.46 421.822C1146.65 419.268 1104.03 421.414 1116.13 450.43C1128.22 479.448 1106.63 505.368 1094.33 514.701Z" stroke="black" stroke-width="3.00468"/>
<g filter="url(#filter7_i_287_38)">
<path d="M1087.97 392.789C1065.98 403.234 1026.11 416.588 1023.05 409.869C1019.99 403.149 1054.9 378.902 1076.9 368.457C1098.89 358.012 1135.05 345.085 1138.11 351.804C1141.16 358.524 1109.97 382.344 1087.97 392.789Z" fill="#E83B81"/>
</g>
<path d="M1087.34 391.398C1076.41 396.586 1061.02 402.508 1048 406.29C1041.48 408.183 1035.62 409.52 1031.24 409.977C1029.04 410.207 1027.3 410.203 1026.08 409.982C1024.78 409.747 1024.47 409.354 1024.41 409.222C1024.35 409.073 1024.26 408.541 1024.9 407.32C1025.52 406.17 1026.61 404.747 1028.16 403.097C1031.26 399.811 1035.94 395.885 1041.46 391.803C1052.49 383.644 1066.63 375.024 1077.53 369.848C1088.48 364.651 1102.94 358.837 1115.03 355.165C1121.09 353.326 1126.47 352.046 1130.5 351.63C1132.52 351.421 1134.1 351.442 1135.21 351.668C1136.36 351.901 1136.66 352.275 1136.74 352.452C1136.84 352.665 1136.91 353.233 1136.37 354.415C1135.85 355.546 1134.9 356.946 1133.52 358.569C1130.77 361.802 1126.56 365.667 1121.51 369.69C1111.42 377.731 1098.22 386.232 1087.34 391.398Z" stroke="black" stroke-width="3.00468"/>
<g filter="url(#filter8_ii_287_38)">
<path d="M1166.67 357.587C1186.7 370.727 1213.36 364.794 1226.22 344.337C1239.09 323.879 1233.28 296.644 1213.25 283.504C1193.22 270.365 1166.56 276.298 1153.7 296.755C1140.83 317.212 1146.64 344.448 1166.67 357.587Z" fill="#E83B81"/>
<path d="M1167.48 356.296C1186.81 368.977 1212.54 363.252 1224.96 343.507C1237.38 323.763 1231.77 297.477 1212.44 284.796C1193.11 272.114 1167.38 277.84 1154.96 297.584C1142.54 317.329 1148.15 343.615 1167.48 356.296Z" stroke="black" stroke-width="3.00468"/>
</g>
<path d="M1175.91 342.891C1187.99 350.817 1204.08 347.238 1211.84 334.897C1219.6 322.557 1216.09 306.127 1204.01 298.201C1191.93 290.275 1175.84 293.854 1168.08 306.194C1160.32 318.535 1163.83 334.964 1175.91 342.891Z" fill="#8BE9FF" stroke="black" stroke-width="3.00468"/>
<path d="M1188.52 295.682C1194.31 295.296 1198 296.244 1203.96 299.832L1191.75 345.636C1184.97 346.236 1181.51 345.327 1175.96 341.259L1188.52 295.682Z" fill="url(#paint0_linear_287_38)"/>
<g filter="url(#filter9_i_287_38)">
<path d="M1068.99 240.698C1085.17 238.554 1096.4 218.819 1100 209.22L1083.84 196.127C1076.34 194.397 1072.91 200.583 1072.13 203.89C1066.01 203.067 1062.78 209.714 1061.92 213.141C1055.89 211.571 1054.69 216.368 1054.85 218.963C1059.45 226.132 1068.71 240.516 1068.99 240.698Z" fill="white"/>
</g>
<path d="M1068.99 240.698C1085.17 238.554 1096.4 218.819 1100 209.22L1083.84 196.127C1076.34 194.397 1072.91 200.583 1072.13 203.89C1066.01 203.067 1062.78 209.714 1061.92 213.141C1055.89 211.571 1054.69 216.368 1054.85 218.963C1059.45 226.132 1068.71 240.516 1068.99 240.698Z" stroke="#572316" stroke-width="3.00468"/>
<g filter="url(#filter10_i_287_38)">
<path d="M1248.22 344.344C1268.54 362.938 1281.03 349.234 1282.53 347.098C1290.85 335.241 1285.04 328.056 1283.83 325.681C1280.64 319.419 1272.14 309.254 1264.19 310.462C1256.24 311.671 1257.82 318.325 1259.61 321.377C1249.72 326.067 1252.84 330.774 1255.16 333.692C1250.09 335.254 1246.63 341.791 1248.22 344.344Z" fill="white"/>
</g>
<path d="M1248.22 344.344C1268.54 362.938 1281.03 349.234 1282.53 347.098C1290.85 335.241 1285.04 328.056 1283.83 325.681C1280.64 319.419 1272.14 309.254 1264.19 310.462C1256.24 311.671 1257.82 318.325 1259.61 321.377C1249.72 326.067 1252.84 330.774 1255.16 333.692C1250.09 335.254 1246.63 341.791 1248.22 344.344Z" stroke="#572316" stroke-width="2.6397"/>
<path d="M1062.51 382.28C1062.88 383.065 1068.2 381.226 1074.39 378.172C1080.57 375.119 1085.29 372.007 1084.92 371.221C1084.54 370.436 1079.23 372.275 1073.04 375.329C1066.85 378.383 1062.14 381.495 1062.51 382.28Z" fill="white"/>
<path d="M1059.79 357.741C1063.22 359.994 1067.79 358.977 1070 355.47C1072.2 351.963 1071.2 347.294 1067.77 345.041C1064.34 342.789 1059.77 343.806 1057.56 347.313C1055.36 350.82 1056.35 355.489 1059.79 357.741Z" fill="#535353"/>
<path d="M1059.79 357.741C1063.22 359.994 1067.79 358.977 1070 355.47C1072.2 351.963 1071.2 347.294 1067.77 345.041C1064.34 342.789 1059.77 343.806 1057.56 347.313C1055.36 350.82 1056.35 355.489 1059.79 357.741Z" fill="#535353"/>
<path d="M1059.79 357.741C1063.22 359.994 1067.79 358.977 1070 355.47C1072.2 351.963 1071.2 347.294 1067.77 345.041C1064.34 342.789 1059.77 343.806 1057.56 347.313C1055.36 350.82 1056.35 355.489 1059.79 357.741Z" fill="#535353"/>
<path d="M1099.22 414.507C1102.65 416.759 1107.22 415.742 1109.43 412.235C1111.63 408.728 1110.64 404.059 1107.21 401.807C1103.77 399.555 1099.2 400.571 1097 404.078C1094.79 407.585 1095.79 412.254 1099.22 414.507Z" fill="#535353"/>
<path d="M1099.22 414.507C1102.65 416.759 1107.22 415.742 1109.43 412.235C1111.63 408.728 1110.64 404.059 1107.21 401.807C1103.77 399.555 1099.2 400.571 1097 404.078C1094.79 407.585 1095.79 412.254 1099.22 414.507Z" fill="#535353"/>
<path d="M1099.22 414.507C1102.65 416.759 1107.22 415.742 1109.43 412.235C1111.63 408.728 1110.64 404.059 1107.21 401.807C1103.77 399.555 1099.2 400.571 1097 404.078C1094.79 407.585 1095.79 412.254 1099.22 414.507Z" fill="#535353"/>
<path d="M1919.9 548.154C1848.74 548.154 1780.49 519.278 1730.16 467.878C1679.84 416.479 1651.57 346.767 1651.57 274.077C1651.57 201.387 1679.84 131.675 1730.16 80.2752C1780.49 28.8758 1848.74 7.79847e-06 1919.9 0V274.077V548.154Z" fill="white"/>
<g filter="url(#filter11_f_287_38)">
<path d="M1920.11 548.575C1843.43 548.575 1769.89 519.677 1715.67 468.239C1661.46 416.799 1631 347.033 1631 274.287C1631 201.542 1661.46 131.776 1715.67 80.3369C1769.89 28.8981 1843.43 7.56081e-06 1920.11 0V274.287V548.575Z" fill="white"/>
</g>
<path d="M1920.11 551.893C1858.37 551.893 1799.15 522.82 1755.49 471.07C1711.83 419.32 1687.31 349.133 1687.31 275.946C1687.31 202.762 1711.83 132.573 1755.49 80.8229C1799.15 29.0728 1858.37 8.29402e-06 1920.11 0V275.946V551.893Z" fill="#F7F7F7"/>
<g filter="url(#filter12_f_287_38)">
<path d="M1906.03 551.893C1844.29 551.893 1785.07 522.995 1741.41 471.557C1697.75 420.117 1673.23 350.351 1673.23 277.605C1673.23 204.86 1697.75 135.094 1741.41 83.6549C1785.07 32.2161 1844.29 3.318 1906.03 3.31799V277.605V551.893Z" fill="#F7F7F7"/>
</g>
<g filter="url(#filter13_i_287_38)">
<path d="M1871.58 125.54C1898.56 111.677 1914.11 87.6102 1906.31 71.786C1898.52 55.9619 1870.33 54.3722 1843.35 68.2355C1816.38 82.0988 1800.82 106.165 1808.62 121.989C1816.41 137.814 1844.6 139.403 1871.58 125.54Z" fill="#E0E0E0"/>
</g>
<g filter="url(#filter14_i_287_38)">
<path d="M1783.72 220.172C1802.23 226.848 1820.33 223.311 1824.15 212.273C1827.96 201.235 1816.05 186.875 1797.53 180.199C1779.02 173.523 1760.92 177.06 1757.1 188.098C1753.29 199.136 1765.2 213.496 1783.72 220.172Z" fill="#E0E0E0"/>
</g>
<g filter="url(#filter15_i_287_38)">
<path d="M1810.6 384.1C1843.41 403.06 1879.78 400.79 1891.84 379.03C1903.89 357.27 1887.06 324.26 1854.24 305.3C1821.43 286.339 1785.06 288.609 1773.01 310.369C1760.96 332.129 1777.79 365.14 1810.6 384.1Z" fill="#E0E0E0"/>
</g>
<path d="M1796.62 121.442C1800.23 119.583 1802.22 116.155 1801.05 113.785C1799.88 111.415 1796.01 111.001 1792.39 112.859C1788.77 114.718 1786.79 118.146 1787.95 120.516C1789.12 122.886 1793 123.3 1796.62 121.442Z" fill="#E0E0E0"/>
<path d="M1745.8 220.031C1753 216.332 1757.38 210.39 1755.6 206.759C1753.81 203.129 1746.52 203.185 1739.32 206.884C1732.12 210.583 1727.74 216.525 1729.53 220.156C1731.31 223.786 1738.6 223.731 1745.8 220.031Z" fill="#E0E0E0"/>
<path d="M1833.17 442.719C1831.52 437.655 1828.98 433.96 1827.5 434.464C1826.02 434.969 1826.16 439.483 1827.82 444.546C1829.47 449.609 1832.01 453.305 1833.49 452.8C1834.97 452.296 1834.83 447.782 1833.17 442.719Z" fill="#E0E0E0"/>
<g filter="url(#filter16_i_287_38)">
<path d="M1839.4 482.987C1844.05 477.084 1832.94 460.041 1814.58 444.92C1796.21 429.798 1777.55 422.326 1772.89 428.229C1768.23 434.132 1779.34 451.175 1797.71 466.297C1816.07 481.418 1834.74 488.891 1839.4 482.987Z" fill="#E0E0E0"/>
</g>
<path d="M1900.32 342.9C1904.35 345.744 1908.51 346.717 1909.63 345.073C1910.74 343.429 1908.38 339.792 1904.35 336.948C1900.33 334.104 1896.16 333.131 1895.05 334.775C1893.94 336.419 1896.3 340.056 1900.32 342.9Z" fill="#E0E0E0"/>
<path d="M1754.25 333.042C1755.93 339.403 1758.83 344.137 1760.72 343.615C1762.6 343.094 1762.77 337.513 1761.08 331.152C1759.4 324.79 1756.5 320.056 1754.61 320.578C1752.73 321.1 1752.56 326.68 1754.25 333.042Z" fill="#E0E0E0"/>
<path d="M1900.84 262.906C1905.15 263.928 1908.98 263.261 1909.4 261.418C1909.82 259.574 1906.67 257.252 1902.36 256.23C1898.05 255.208 1894.22 255.874 1893.8 257.718C1893.38 259.561 1896.53 261.884 1900.84 262.906Z" fill="#E0E0E0"/>
<path d="M1886.17 265.841C1888.52 264.576 1889.99 262.735 1889.47 261.73C1888.95 260.725 1886.63 260.935 1884.29 262.2C1881.94 263.465 1880.46 265.305 1880.98 266.311C1881.5 267.316 1883.83 267.106 1886.17 265.841Z" fill="#E0E0E0"/>
<g filter="url(#filter17_i_287_38)">
<path d="M1892.51 248.986C1905.9 238.253 1912.84 224.463 1908.02 218.187C1903.19 211.91 1888.43 215.522 1875.04 226.255C1861.66 236.988 1854.72 250.777 1859.54 257.054C1864.37 263.331 1879.13 259.719 1892.51 248.986Z" fill="#E0E0E0"/>
</g>
<path d="M1798.74 106.014C1801.08 106.632 1803.21 106.181 1803.51 105.008C1803.81 103.834 1802.15 102.382 1799.82 101.765C1797.48 101.147 1795.34 101.597 1795.04 102.77C1794.75 103.944 1796.4 105.396 1798.74 106.014Z" fill="#E0E0E0"/>
<path d="M458.154 139.21L464 112.357L470.154 139.21L496 145.578L470.154 151.392L464 176.308L458.154 151.392L432 145.578L458.154 139.21Z" fill="white"/>
<path d="M179.798 233.801L184 214.5L188.423 233.801L207 238.378L188.423 242.557L184 260.464L179.798 242.557L161 238.378L179.798 233.801Z" fill="white"/>
<path d="M590.154 448.703L596 421.85L602.154 448.703L628 455.071L602.154 460.885L596 485.801L590.154 460.885L564 455.071L590.154 448.703Z" fill="white"/>
<path d="M942.532 372.41L945.333 359.543L948.282 372.41L960.667 375.461L948.282 378.247L945.333 390.186L942.532 378.247L930 375.461L942.532 372.41Z" fill="white"/>
<path d="M851.231 80.1161L860 39.8357L869.231 80.1161L908 89.6671L869.231 98.3876L860 135.761L851.231 98.3876L812 89.6671L851.231 80.1161Z" fill="white"/>
<path d="M406.456 514.87L409.911 499L413.548 514.87L428.822 518.633L413.548 522.068L409.911 536.793L406.456 522.068L391 518.633L406.456 514.87Z" fill="white"/>
<path d="M724.887 278.446L729.556 257L734.47 278.446L755.111 283.531L734.47 288.173L729.556 308.071L724.887 288.173L704 283.531L724.887 278.446Z" fill="white"/>
</g>
<defs>
<filter id="filter0_i_287_38" x="903.956" y="362.986" width="189.475" height="109.29" filterUnits="userSpaceOnUse" color-interpolation-filters="sRGB">
<feFlood flood-opacity="0" result="BackgroundImageFix"/>
<feBlend mode="normal" in="SourceGraphic" in2="BackgroundImageFix" result="shape"/>
<feColorMatrix in="SourceAlpha" type="matrix" values="0 0 0 0 0 0 0 0 0 0 0 0 0 0 0 0 0 0 127 0" result="hardAlpha"/>
<feOffset dx="-9.85142" dy="-8.20951"/>
<feGaussianBlur stdDeviation="2.02211"/>
<feComposite in2="hardAlpha" operator="arithmetic" k2="-1" k3="1"/>
<feColorMatrix type="matrix" values="0 0 0 0 0.670833 0 0 0 0 0.25885 0 0 0 0 0.061493 0 0 0 1 0"/>
<feBlend mode="normal" in2="shape" result="effect1_innerShadow_287_38"/>
</filter>
<filter id="filter1_i_287_38" x="1017.71" y="346.733" width="82.7005" height="108.747" filterUnits="userSpaceOnUse" color-interpolation-filters="sRGB">
<feFlood flood-opacity="0" result="BackgroundImageFix"/>
<feBlend mode="normal" in="SourceGraphic" in2="BackgroundImageFix" result="shape"/>
<feColorMatrix in="SourceAlpha" type="matrix" values="0 0 0 0 0 0 0 0 0 0 0 0 0 0 0 0 0 0 127 0" result="hardAlpha"/>
<feOffset dx="-13.9561" dy="-10.6724"/>
<feGaussianBlur stdDeviation="2.02211"/>
<feComposite in2="hardAlpha" operator="arithmetic" k2="-1" k3="1"/>
<feColorMatrix type="matrix" values="0 0 0 0 0.741176 0 0 0 0 0.666667 0 0 0 0 0.658824 0 0 0 1 0"/>
<feBlend mode="normal" in2="shape" result="effect1_innerShadow_287_38"/>
</filter>
<filter id="filter2_ii_287_38" x="1054.26" y="191.814" width="209.327" height="207.232" filterUnits="userSpaceOnUse" color-interpolation-filters="sRGB">
<feFlood flood-opacity="0" result="BackgroundImageFix"/>
<feBlend mode="normal" in="SourceGraphic" in2="BackgroundImageFix" result="shape"/>
<feColorMatrix in="SourceAlpha" type="matrix" values="0 0 0 0 0 0 0 0 0 0 0 0 0 0 0 0 0 0 127 0" result="hardAlpha"/>
<feOffset dx="6.56762" dy="-10.6724"/>
<feGaussianBlur stdDeviation="2.02211"/>
<feComposite in2="hardAlpha" operator="arithmetic" k2="-1" k3="1"/>
<feColorMatrix type="matrix" values="0 0 0 0 0.341176 0 0 0 0 0.137255 0 0 0 0 0.0862745 0 0 0 0.22 0"/>
<feBlend mode="normal" in2="shape" result="effect1_innerShadow_287_38"/>
<feColorMatrix in="SourceAlpha" type="matrix" values="0 0 0 0 0 0 0 0 0 0 0 0 0 0 0 0 0 0 127 0" result="hardAlpha"/>
<feOffset dy="3.2838"/>
<feGaussianBlur stdDeviation="1.64191"/>
<feComposite in2="hardAlpha" operator="arithmetic" k2="-1" k3="1"/>
<feColorMatrix type="matrix" values="0 0 0 0 0 0 0 0 0 0 0 0 0 0 0 0 0 0 0.25 0"/>
<feBlend mode="normal" in2="effect1_innerShadow_287_38" result="effect2_innerShadow_287_38"/>
</filter>
<filter id="filter3_i_287_38" x="1034.11" y="248.228" width="287.889" height="206.439" filterUnits="userSpaceOnUse" color-interpolation-filters="sRGB">
<feFlood flood-opacity="0" result="BackgroundImageFix"/>
<feBlend mode="normal" in="SourceGraphic" in2="BackgroundImageFix" result="shape"/>
<feColorMatrix in="SourceAlpha" type="matrix" values="0 0 0 0 0 0 0 0 0 0 0 0 0 0 0 0 0 0 127 0" result="hardAlpha"/>
<feOffset dx="-5.63858" dy="-18.0434"/>
<feGaussianBlur stdDeviation="2.02211"/>
<feComposite in2="hardAlpha" operator="arithmetic" k2="-1" k3="1"/>
<feColorMatrix type="matrix" values="0 0 0 0 0.741667 0 0 0 0 0.666861 0 0 0 0 0.658229 0 0 0 1 0"/>
<feBlend mode="normal" in2="shape" result="effect1_innerShadow_287_38"/>
</filter>
<filter id="filter4_i_287_38" x="1228.99" y="248.699" width="92.0536" height="94.082" filterUnits="userSpaceOnUse" color-interpolation-filters="sRGB">
<feFlood flood-opacity="0" result="BackgroundImageFix"/>
<feBlend mode="normal" in="SourceGraphic" in2="BackgroundImageFix" result="shape"/>
<feColorMatrix in="SourceAlpha" type="matrix" values="0 0 0 0 0 0 0 0 0 0 0 0 0 0 0 0 0 0 127 0" result="hardAlpha"/>
<feOffset dx="-12.3143" dy="-4.10476"/>
<feGaussianBlur stdDeviation="2.02211"/>
<feComposite in2="hardAlpha" operator="arithmetic" k2="-1" k3="1"/>
<feColorMatrix type="matrix" values="0 0 0 0 0.65098 0 0 0 0 0.137255 0 0 0 0 0.345098 0 0 0 1 0"/>
<feBlend mode="normal" in2="shape" result="effect1_innerShadow_287_38"/>
</filter>
<filter id="filter5_i_287_38" x="988.194" y="278.378" width="118.935" height="50.7943" filterUnits="userSpaceOnUse" color-interpolation-filters="sRGB">
<feFlood flood-opacity="0" result="BackgroundImageFix"/>
<feBlend mode="normal" in="SourceGraphic" in2="BackgroundImageFix" result="shape"/>
<feColorMatrix in="SourceAlpha" type="matrix" values="0 0 0 0 0 0 0 0 0 0 0 0 0 0 0 0 0 0 127 0" result="hardAlpha"/>
<feOffset dx="-1.64191" dy="-10.6724"/>
<feGaussianBlur stdDeviation="2.02211"/>
<feComposite in2="hardAlpha" operator="arithmetic" k2="-1" k3="1"/>
<feColorMatrix type="matrix" values="0 0 0 0 0.65098 0 0 0 0 0.137255 0 0 0 0 0.345098 0 0 0 1 0"/>
<feBlend mode="normal" in2="shape" result="effect1_innerShadow_287_38"/>
</filter>
<filter id="filter6_i_287_38" x="1094.33" y="416.983" width="79.1769" height="97.7181" filterUnits="userSpaceOnUse" color-interpolation-filters="sRGB">
<feFlood flood-opacity="0" result="BackgroundImageFix"/>
<feBlend mode="normal" in="SourceGraphic" in2="BackgroundImageFix" result="shape"/>
<feColorMatrix in="SourceAlpha" type="matrix" values="0 0 0 0 0 0 0 0 0 0 0 0 0 0 0 0 0 0 127 0" result="hardAlpha"/>
<feOffset dx="9.03047" dy="-4.92571"/>
<feGaussianBlur stdDeviation="2.02211"/>
<feComposite in2="hardAlpha" operator="arithmetic" k2="-1" k3="1"/>
<feColorMatrix type="matrix" values="0 0 0 0 0.65 0 0 0 0 0.135417 0 0 0 0 0.34363 0 0 0 1 0"/>
<feBlend mode="normal" in2="shape" result="effect1_innerShadow_287_38"/>
</filter>
<filter id="filter7_i_287_38" x="1018.82" y="348.308" width="119.496" height="63.3746" filterUnits="userSpaceOnUse" color-interpolation-filters="sRGB">
<feFlood flood-opacity="0" result="BackgroundImageFix"/>
<feBlend mode="normal" in="SourceGraphic" in2="BackgroundImageFix" result="shape"/>
<feColorMatrix in="SourceAlpha" type="matrix" values="0 0 0 0 0 0 0 0 0 0 0 0 0 0 0 0 0 0 127 0" result="hardAlpha"/>
<feOffset dx="-9.03047" dy="-1.64191"/>
<feGaussianBlur stdDeviation="2.02211"/>
<feComposite in2="hardAlpha" operator="arithmetic" k2="-1" k3="1"/>
<feColorMatrix type="matrix" values="0 0 0 0 0.65098 0 0 0 0 0.137255 0 0 0 0 0.345098 0 0 0 1 0"/>
<feBlend mode="normal" in2="shape" result="effect1_innerShadow_287_38"/>
</filter>
<filter id="filter8_ii_287_38" x="1142.81" y="272.473" width="91.8966" height="96.1463" filterUnits="userSpaceOnUse" color-interpolation-filters="sRGB">
<feFlood flood-opacity="0" result="BackgroundImageFix"/>
<feBlend mode="normal" in="SourceGraphic" in2="BackgroundImageFix" result="shape"/>
<feColorMatrix in="SourceAlpha" type="matrix" values="0 0 0 0 0 0 0 0 0 0 0 0 0 0 0 0 0 0 127 0" result="hardAlpha"/>
<feOffset dx="1.64191" dy="6.56762"/>
<feGaussianBlur stdDeviation="2.02211"/>
<feComposite in2="hardAlpha" operator="arithmetic" k2="-1" k3="1"/>
<feColorMatrix type="matrix" values="0 0 0 0 0 0 0 0 0 0 0 0 0 0 0 0 0 0 0.25 0"/>
<feBlend mode="normal" in2="shape" result="effect1_innerShadow_287_38"/>
<feColorMatrix in="SourceAlpha" type="matrix" values="0 0 0 0 0 0 0 0 0 0 0 0 0 0 0 0 0 0 127 0" result="hardAlpha"/>
<feOffset dx="-6.56762" dy="-8.20951"/>
<feGaussianBlur stdDeviation="2.02211"/>
<feComposite in2="hardAlpha" operator="arithmetic" k2="-1" k3="1"/>
<feColorMatrix type="matrix" values="0 0 0 0 0.65098 0 0 0 0 0.137255 0 0 0 0 0.345098 0 0 0 1 0"/>
<feBlend mode="normal" in2="effect1_innerShadow_287_38" result="effect2_innerShadow_287_38"/>
</filter>
<filter id="filter9_i_287_38" x="1054.83" y="191.783" width="49.2121" height="48.9142" filterUnits="userSpaceOnUse" color-interpolation-filters="sRGB">
<feFlood flood-opacity="0" result="BackgroundImageFix"/>
<feBlend mode="normal" in="SourceGraphic" in2="BackgroundImageFix" result="shape"/>
<feColorMatrix in="SourceAlpha" type="matrix" values="0 0 0 0 0 0 0 0 0 0 0 0 0 0 0 0 0 0 127 0" result="hardAlpha"/>
<feOffset dx="4.92571" dy="-10.6724"/>
<feGaussianBlur stdDeviation="2.02211"/>
<feComposite in2="hardAlpha" operator="arithmetic" k2="-1" k3="1"/>
<feColorMatrix type="matrix" values="0 0 0 0 0 0 0 0 0 0 0 0 0 0 0 0 0 0 0.22 0"/>
<feBlend mode="normal" in2="shape" result="effect1_innerShadow_287_38"/>
</filter>
<filter id="filter10_i_287_38" x="1247.83" y="306.319" width="39.1028" height="47.6443" filterUnits="userSpaceOnUse" color-interpolation-filters="sRGB">
<feFlood flood-opacity="0" result="BackgroundImageFix"/>
<feBlend mode="normal" in="SourceGraphic" in2="BackgroundImageFix" result="shape"/>
<feColorMatrix in="SourceAlpha" type="matrix" values="0 0 0 0 0 0 0 0 0 0 0 0 0 0 0 0 0 0 127 0" result="hardAlpha"/>
<feOffset dy="-10.8898"/>
<feGaussianBlur stdDeviation="2.02211"/>
<feComposite in2="hardAlpha" operator="arithmetic" k2="-1" k3="1"/>
<feColorMatrix type="matrix" values="0 0 0 0 0 0 0 0 0 0 0 0 0 0 0 0 0 0 0.22 0"/>
<feBlend mode="normal" in2="shape" result="effect1_innerShadow_287_38"/>
</filter>
<filter id="filter11_f_287_38" x="1598.52" y="-32.4839" width="354.074" height="613.543" filterUnits="userSpaceOnUse" color-interpolation-filters="sRGB">
<feFlood flood-opacity="0" result="BackgroundImageFix"/>
<feBlend mode="normal" in="SourceGraphic" in2="BackgroundImageFix" result="shape"/>
<feGaussianBlur stdDeviation="16.2419" result="effect1_foregroundBlur_287_38"/>
</filter>
<filter id="filter12_f_287_38" x="1651.57" y="-18.3379" width="276.113" height="591.887" filterUnits="userSpaceOnUse" color-interpolation-filters="sRGB">
<feFlood flood-opacity="0" result="BackgroundImageFix"/>
<feBlend mode="normal" in="SourceGraphic" in2="BackgroundImageFix" result="shape"/>
<feGaussianBlur stdDeviation="10.828" result="effect1_foregroundBlur_287_38"/>
</filter>
<filter id="filter13_i_287_38" x="1806.61" y="58.7946" width="101.717" height="80.5173" filterUnits="userSpaceOnUse" color-interpolation-filters="sRGB">
<feFlood flood-opacity="0" result="BackgroundImageFix"/>
<feBlend mode="normal" in="SourceGraphic" in2="BackgroundImageFix" result="shape"/>
<feColorMatrix in="SourceAlpha" type="matrix" values="0 0 0 0 0 0 0 0 0 0 0 0 0 0 0 0 0 0 127 0" result="hardAlpha"/>
<feOffset dy="4.33118"/>
<feGaussianBlur stdDeviation="2.16559"/>
<feComposite in2="hardAlpha" operator="arithmetic" k2="-1" k3="1"/>
<feColorMatrix type="matrix" values="0 0 0 0 0 0 0 0 0 0 0 0 0 0 0 0 0 0 0.25 0"/>
<feBlend mode="normal" in2="shape" result="effect1_innerShadow_287_38"/>
</filter>
<filter id="filter14_i_287_38" x="1756.39" y="176.825" width="68.4683" height="51.0528" filterUnits="userSpaceOnUse" color-interpolation-filters="sRGB">
<feFlood flood-opacity="0" result="BackgroundImageFix"/>
<feBlend mode="normal" in="SourceGraphic" in2="BackgroundImageFix" result="shape"/>
<feColorMatrix in="SourceAlpha" type="matrix" values="0 0 0 0 0 0 0 0 0 0 0 0 0 0 0 0 0 0 127 0" result="hardAlpha"/>
<feOffset dy="4.33118"/>
<feGaussianBlur stdDeviation="2.16559"/>
<feComposite in2="hardAlpha" operator="arithmetic" k2="-1" k3="1"/>
<feColorMatrix type="matrix" values="0 0 0 0 0 0 0 0 0 0 0 0 0 0 0 0 0 0 0.25 0"/>
<feBlend mode="normal" in2="shape" result="effect1_innerShadow_287_38"/>
</filter>
<filter id="filter15_i_287_38" x="1769.11" y="292.44" width="126.624" height="108.85" filterUnits="userSpaceOnUse" color-interpolation-filters="sRGB">
<feFlood flood-opacity="0" result="BackgroundImageFix"/>
<feBlend mode="normal" in="SourceGraphic" in2="BackgroundImageFix" result="shape"/>
<feColorMatrix in="SourceAlpha" type="matrix" values="0 0 0 0 0 0 0 0 0 0 0 0 0 0 0 0 0 0 127 0" result="hardAlpha"/>
<feOffset dy="4.33118"/>
<feGaussianBlur stdDeviation="2.16559"/>
<feComposite in2="hardAlpha" operator="arithmetic" k2="-1" k3="1"/>
<feColorMatrix type="matrix" values="0 0 0 0 0 0 0 0 0 0 0 0 0 0 0 0 0 0 0.25 0"/>
<feBlend mode="normal" in2="shape" result="effect1_innerShadow_287_38"/>
</filter>
<filter id="filter16_i_287_38" x="1771.83" y="424.043" width="70.7964" height="60.9648" filterUnits="userSpaceOnUse" color-interpolation-filters="sRGB">
<feFlood flood-opacity="0" result="BackgroundImageFix"/>
<feBlend mode="normal" in="SourceGraphic" in2="BackgroundImageFix" result="shape"/>
<feColorMatrix in="SourceAlpha" type="matrix" values="0 0 0 0 0 0 0 0 0 0 0 0 0 0 0 0 0 0 127 0" result="hardAlpha"/>
<feOffset dx="2.16559" dy="-2.16559"/>
<feGaussianBlur stdDeviation="2.16559"/>
<feComposite in2="hardAlpha" operator="arithmetic" k2="-1" k3="1"/>
<feColorMatrix type="matrix" values="0 0 0 0 0 0 0 0 0 0 0 0 0 0 0 0 0 0 0.25 0"/>
<feBlend mode="normal" in2="shape" result="effect1_innerShadow_287_38"/>
</filter>
<filter id="filter17_i_287_38" x="1858.01" y="215.104" width="51.5392" height="49.3648" filterUnits="userSpaceOnUse" color-interpolation-filters="sRGB">
<feFlood flood-opacity="0" result="BackgroundImageFix"/>
<feBlend mode="normal" in="SourceGraphic" in2="BackgroundImageFix" result="shape"/>
<feColorMatrix in="SourceAlpha" type="matrix" values="0 0 0 0 0 0 0 0 0 0 0 0 0 0 0 0 0 0 127 0" result="hardAlpha"/>
<feOffset dy="4.33118"/>
<feGaussianBlur stdDeviation="2.16559"/>
<feComposite in2="hardAlpha" operator="arithmetic" k2="-1" k3="1"/>
<feColorMatrix type="matrix" values="0 0 0 0 0 0 0 0 0 0 0 0 0 0 0 0 0 0 0.25 0"/>
<feBlend mode="normal" in2="shape" result="effect1_innerShadow_287_38"/>
</filter>
<linearGradient id="paint0_linear_287_38" x1="1196.72" y1="296.418" x2="1175.3" y2="371.025" gradientUnits="userSpaceOnUse">
<stop stop-color="#C6F4FF"/>
<stop offset="1" stop-color="#C6F4FF" stop-opacity="0"/>
</linearGradient>
<clipPath id="clip0_287_38">
<rect width="1920" height="550" fill="white"/>
</clipPath>
</defs>
</svg>
