<svg width="735" height="347" viewBox="0 0 735 347" fill="none" xmlns="http://www.w3.org/2000/svg">
<ellipse cx="130.5" cy="328.5" rx="130.5" ry="18.5" fill="#C4C4C4"/>
<path d="M223.435 231.317C223.435 249.151 212.883 265.5 195.409 277.469C177.944 289.433 153.714 296.891 126.862 296.891C100.01 296.891 75.7801 289.433 58.3145 277.469C40.8403 265.5 30.2885 249.151 30.2885 231.317C30.2885 222.351 33.1527 210.919 38.3872 198.745C43.6105 186.596 51.1437 173.827 60.3601 162.206C78.8577 138.883 103.811 120.571 130.154 120.571C156.46 120.571 179.76 138.841 196.607 162.141C213.446 185.432 223.435 213.207 223.435 231.317Z" fill="#F7A528" stroke="#572316" stroke-width="3.65808"/>
<path d="M24.2205 125.836L26.0487 125.779C24.2205 125.836 24.2206 125.837 24.2206 125.838L24.2207 125.84L24.2209 125.848L24.2218 125.872L24.2253 125.958C24.2284 126.031 24.2335 126.137 24.241 126.273C24.2562 126.546 24.2815 126.941 24.323 127.445C24.4058 128.451 24.5528 129.893 24.8104 131.656C25.3252 135.177 26.2848 140.002 28.0678 145.21C31.6211 155.59 38.5398 167.75 51.9922 173.9C77.6046 185.608 87.8019 189.429 104.332 189.429C109.228 189.429 115.53 189.527 122.32 189.632C137.646 189.87 155.457 190.146 165.191 189.424C187.401 187.778 201.447 178.725 209.75 173.374C210.327 173.002 210.876 172.648 211.398 172.316C219.813 166.961 232.108 153.153 238.116 135.891L238.175 135.721L238.2 135.544C239.687 124.946 239.398 116.636 237 108.593C234.63 100.64 230.237 93.0865 223.748 83.9397C207.511 41.2833 180.116 13.3412 148.301 5.48107L148.222 5.46156L148.142 5.44914L147.863 7.25672C148.142 5.44914 148.142 5.44909 148.141 5.44903L148.14 5.44888L148.138 5.44846L148.129 5.44715L148.099 5.44269C148.074 5.43893 148.038 5.4336 147.991 5.42684C147.897 5.41331 147.759 5.39407 147.579 5.37022C147.219 5.32252 146.69 5.25637 145.998 5.18064C144.616 5.02919 142.585 4.8394 139.97 4.68224C134.741 4.36795 127.171 4.18403 117.767 4.69881C112.725 4.97477 106.032 7.21991 98.7369 11.0216C91.4001 14.8451 83.305 20.3209 75.4322 27.2235C59.8028 40.9269 44.9149 60.3747 38.6668 83.8848C27.4961 95.6689 24.2196 111.418 24.2196 125.779V125.807L24.2205 125.836Z" fill="#F7A528" stroke="#572316" stroke-width="3.65808"/>
<path d="M99.576 18.5967C88.7481 20.6452 62.1417 47.7394 50.1919 61.0304C67.2696 28.4882 99.933 11.4135 109.087 8.3541L109.088 8.35367C110.248 7.96619 136.883 -0.935973 166.519 13.2426C195.591 27.1517 216.269 70.1756 208.587 57.3724C200.905 44.5691 161.032 11.2806 159.569 18.5967C158.398 24.4496 150.057 26.0824 145.668 26.4116C140.79 26.7775 129.645 27.2896 119.695 26.4116C109.745 25.5337 103.234 24.0838 102.502 20.4258C102.351 19.6695 102.21 17.7188 99.576 18.5967Z" fill="#F6DA90"/>
<path d="M237.851 125.911C239.315 137.983 225.048 169.443 192.491 180.417C175.71 188.024 163.5 187.5 124 188C84.5 188.5 68.8482 179.685 47.7723 170.194C34.1532 161.802 21.659 135.057 27.5119 107.255C32.5896 93.4253 34.0602 92.5656 58.9277 105.015C65.4135 108.262 74.3017 118.533 81.9762 120.374C117.529 92.0897 154.602 99.0668 179.128 120.623C188.254 118.46 193.712 110.824 198.088 108.285C237.461 79.9716 236.388 113.84 237.851 125.911Z" fill="white"/>
<path fill-rule="evenodd" clip-rule="evenodd" d="M235.872 111C232.643 124.612 218.8 146.533 190.888 157.762C174.061 165.444 151.746 165.079 122.847 164.347C85.535 166.908 64.0436 156.843 46.4931 144.933C37.9261 139.654 29.8599 128.858 26.5114 114.108C23.2567 141.327 34.7828 160.49 44 168C62.5 179 90.5 189.5 110.436 188.542C115.656 188.542 121.027 188.612 126.424 188.683C151.013 189.005 176.141 189.335 189.936 183.042C224.936 169.542 238.436 139.042 237.936 129.042C237.915 128.62 237.895 128.14 237.873 127.61C237.709 123.737 237.434 117.189 235.872 111Z" fill="#ACABCF"/>
<path d="M43.8458 61.7243L45.5151 64.8328L47.0931 61.6769C49.5594 56.7442 54.8491 49.1001 61.6577 41.2022C68.4554 33.3169 76.6651 25.2976 84.9115 19.5609L87.1489 18.0045L84.8606 16.5238C72.3556 8.4323 62.4418 3.98985 54.289 2.90119C45.9796 1.79164 39.5588 4.17807 34.287 9.44994C31.7534 11.9836 30.9088 15.9161 30.9049 20.1154C30.9008 24.3833 31.7645 29.3319 33.0796 34.3448C35.7121 44.3792 40.2509 55.0304 43.8458 61.7243Z" fill="#F8A428" stroke="#572316" stroke-width="3.65808"/>
<path d="M82.7489 18.3641C63.2 17.1424 57.8739 6.65821 44.7048 5.195C50.6488 3.29306 60.8004 5.56082 64.8243 7.38985C68.8482 9.21888 88.6018 18.7299 82.7489 18.3641Z" fill="#F6DA90"/>
<path d="M73.3386 26.4118C45.8299 27.2897 35.9462 18.0594 34.483 12.5723C26.881 23.4853 45.141 61.6467 45.5372 60.7977C50.6585 49.8235 67.1199 32.2647 73.3386 26.4118Z" fill="#AD7640"/>
<path d="M61.8978 34.8254L53.585 44.3364C49.488 41.1173 43.6074 22.0221 45.8023 16.1692L50.5578 20.5589L61.8978 34.8254Z" fill="#FF5F95"/>
<path d="M53.5941 46.4184C50.6303 42.9261 46.2895 35.8889 45.0487 27.9581C44.3522 23.5068 43.9277 20.0455 44.0833 17.5879C44.1605 16.3675 44.374 15.5637 44.6471 15.059C44.8499 14.684 45.0879 14.4615 45.4173 14.3258C45.5354 14.3689 45.7227 14.4564 45.9852 14.618C46.6034 14.9986 47.4007 15.6413 48.3434 16.5257C50.2156 18.2821 52.4211 20.7621 54.5547 23.3286C56.6792 25.884 58.6943 28.4786 60.1806 30.438C60.9231 31.4167 61.532 32.2348 61.9547 32.8074C62.1661 33.0936 62.3308 33.3184 62.4423 33.4712C62.4981 33.5475 62.5405 33.6059 62.5688 33.6448L62.6006 33.6886L62.6084 33.6993L62.6102 33.7018L62.6105 33.7023L64.0927 32.6306L62.6106 33.7024L62.6174 33.7118L62.6231 33.7194L62.6233 33.7198L62.6238 33.7203L62.624 33.7207L62.6244 33.7212L62.6247 33.7217L62.6365 33.7378C62.6479 33.7535 62.6663 33.779 62.6902 33.813C62.7384 33.8811 62.8083 33.9821 62.8904 34.1065C63.0577 34.3602 63.2601 34.688 63.4296 35.0189C63.5102 35.1764 63.5713 35.3114 63.616 35.4224L58.4527 41.274L53.5941 46.4184ZM63.7188 35.7597C63.7186 35.7595 63.7179 35.7549 63.7173 35.7464C63.7186 35.7556 63.7189 35.7598 63.7188 35.7597ZM45.3125 14.2947C45.3124 14.2946 45.3152 14.295 45.3209 14.2962C45.3154 14.2955 45.3126 14.2949 45.3125 14.2947Z" stroke="#572316" stroke-width="3.65808"/>
<path d="M217.451 61.7684L215.662 64.8099L214.208 61.5952C211.934 56.5707 206.945 48.7274 200.447 40.5716C193.96 32.4288 186.067 24.0975 178.049 18.0456L175.874 16.4037L178.218 15.0128C191.027 7.41183 201.106 3.3568 209.294 2.58483C217.641 1.79804 223.964 4.43144 229.028 9.9036C231.461 12.5335 232.153 16.4958 231.994 20.6921C231.833 24.9569 230.778 29.8684 229.27 34.8265C226.25 44.7515 221.302 55.2188 217.451 61.7684Z" fill="#F8A428" stroke="#572316" stroke-width="3.65808"/>
<path d="M180.257 16.9334C199.838 16.47 205.567 6.20007 218.783 5.24817C212.917 3.11737 202.685 4.99012 198.593 6.66188C194.501 8.33363 174.394 17.0722 180.257 16.9334Z" fill="#F6DA90"/>
<path d="M189.348 25.3397C216.802 27.2828 227.036 18.4423 228.711 13.016C235.884 24.2154 216.16 61.6407 215.797 60.777C211.104 49.6126 195.336 31.4292 189.348 25.3397Z" fill="#AD7640"/>
<path d="M200.454 34.1904L208.393 44.0163C212.611 40.9583 219.227 22.1053 217.261 16.1717L212.339 20.3739L200.454 34.1904Z" fill="#FF5F95"/>
<path d="M208.303 46.0964C211.4 42.7216 216.01 35.8578 217.557 27.9811C218.425 23.56 218.984 20.1178 218.924 17.656C218.894 16.4335 218.711 15.6221 218.458 15.1072C218.27 14.7246 218.041 14.493 217.717 14.3447C217.597 14.3832 217.407 14.4633 217.138 14.6147C216.506 14.9711 215.684 15.5824 214.708 16.4296C212.769 18.1121 210.469 20.5048 208.238 22.9867C206.016 25.4578 203.902 27.9725 202.34 29.8728C201.561 30.822 200.92 31.6159 200.476 32.1717C200.254 32.4495 200.08 32.6678 199.963 32.8161C199.904 32.8902 199.86 32.9468 199.83 32.9847L199.796 33.0272L199.788 33.0376L199.786 33.04L199.786 33.0405L198.346 31.9121L199.786 33.0406L199.779 33.0497L199.773 33.0571L199.772 33.0575L199.772 33.058L199.772 33.0584L199.771 33.0588L199.771 33.0593L199.759 33.075C199.747 33.0903 199.727 33.115 199.702 33.148C199.651 33.2142 199.577 33.3125 199.491 33.4335C199.314 33.6805 199.099 34.0003 198.916 34.3244C198.83 34.4786 198.764 34.6112 198.715 34.7203L203.647 40.7676L208.303 46.0964ZM198.599 35.0534C198.599 35.0532 198.6 35.0487 198.601 35.0402C198.599 35.0493 198.599 35.0535 198.599 35.0534ZM217.823 14.3177C217.823 14.3176 217.82 14.3178 217.814 14.3188C217.82 14.3183 217.823 14.3178 217.823 14.3177Z" stroke="#572316" stroke-width="3.65808"/>
<ellipse cx="101.587" cy="54.6227" rx="14.2665" ry="5.62269" fill="white"/>
<ellipse rx="14.2665" ry="5.62269" transform="matrix(1 0 0 -1 159.587 54.6227)" fill="white"/>
<ellipse cx="96.2837" cy="84.2094" rx="13.9007" ry="18.2904" transform="rotate(-180 96.2837 84.2094)" fill="black"/>
<ellipse cx="101.405" cy="78.7223" rx="5.12131" ry="6.95035" transform="rotate(-180 101.405 78.7223)" fill="white"/>
<ellipse cx="163.592" cy="84.2094" rx="13.9007" ry="18.2904" transform="rotate(-180 163.592 84.2094)" fill="black"/>
<ellipse cx="159.203" cy="78.7223" rx="5.12131" ry="6.95035" transform="rotate(-180 159.203 78.7223)" fill="white"/>
<path d="M106.526 128.106C107.258 128.472 115.672 134.691 130.304 127.74M130.304 127.74C137.62 130.667 144.205 132.496 152.984 128.106M130.304 127.74V124.814" stroke="#572316" stroke-width="5.12131" stroke-linecap="round"/>
<path d="M129.206 145.299C122.622 145.299 117.501 134.325 117.501 131.033C127.498 129.633 133.108 129.635 143.107 131.033C142.863 138.105 135.791 145.299 129.206 145.299Z" fill="#572316"/>
<path fill-rule="evenodd" clip-rule="evenodd" d="M130.338 138.017C130.364 137.874 130.379 137.737 130.379 137.607C130.379 135.991 132.383 134.681 134.403 134.681C136.423 134.681 138.061 135.991 138.061 137.607C138.061 139.201 134.237 142.277 130.271 142.01C126.26 142.356 122.622 139.229 122.622 137.617C122.622 136.001 124.26 134.691 126.28 134.691C128.3 134.691 130.304 136.001 130.304 137.617C130.304 137.744 130.316 137.878 130.338 138.017Z" fill="#FB609C"/>
<ellipse cx="130.304" cy="116.401" rx="15.7297" ry="8.77939" transform="rotate(-180 130.304 116.401)" fill="#572316"/>
<ellipse cx="129.938" cy="111.279" rx="5.12131" ry="2.19485" transform="rotate(-180 129.938 111.279)" fill="white"/>
<path d="M129.135 323.569C174.232 323.569 210.829 287.46 210.829 242.87C210.829 198.28 174.232 162.171 129.135 162.171C84.038 162.171 47.4406 198.28 47.4406 242.87C47.4406 287.46 84.038 323.569 129.135 323.569Z" fill="#F9C710" stroke="black" stroke-width="3.65808"/>
<path fill-rule="evenodd" clip-rule="evenodd" d="M171.04 310C193.798 296.103 208.96 271.235 208.96 242.87C208.96 199.311 173.203 164 129.095 164C110.677 164 93.7157 170.157 80.2054 180.5C92.3955 173.056 106.765 168.759 122.15 168.759C166.259 168.759 202.016 204.071 202.016 247.629C202.016 273 189.885 295.573 171.04 310Z" fill="#F5E3A4"/>
<path fill-rule="evenodd" clip-rule="evenodd" d="M199.312 280.373C184.673 298.327 162.232 309.815 137.073 309.815C92.9644 309.815 57.2075 274.504 57.2075 230.945C57.2075 217.497 60.6157 204.835 66.6256 193.756C55.5996 207.279 49 224.47 49 243.184C49 286.742 84.7569 322.054 128.865 322.054C159.356 322.054 185.856 305.18 199.312 280.373Z" fill="#F89E1D"/>
<ellipse cx="128.188" cy="239.471" rx="53.6644" ry="53.0333" fill="#F89F1D"/>
<path fill-rule="evenodd" clip-rule="evenodd" d="M179.036 256.472C170.631 274.91 151.873 287.746 130.082 287.746C100.444 287.746 76.4174 264.002 76.4174 234.713C76.4174 228.767 77.4076 223.05 79.2337 217.713C76.2074 224.353 74.5234 231.718 74.5234 239.472C74.5234 268.762 98.5498 292.506 128.188 292.506C151.809 292.506 171.866 277.423 179.036 256.472Z" fill="white"/>
<path fill-rule="evenodd" clip-rule="evenodd" d="M171.572 271.413C178.366 262.528 182.395 251.464 182.395 239.471C182.395 210.181 158.368 186.437 128.73 186.437C108.298 186.437 90.5334 197.721 81.4685 214.327C91.2646 201.516 106.809 193.236 124.311 193.236C153.949 193.236 177.975 216.98 177.975 246.27C177.975 255.368 175.657 263.93 171.572 271.413Z" fill="#AE703F"/>
<g filter="url(#filter0_d_203_138)">
<path fill-rule="evenodd" clip-rule="evenodd" d="M120.771 208.874H128.418V213.541H132.719V209.389H140.366V214.104C143.429 214.67 145.875 215.663 147.706 217.084C150.794 219.4 152.338 222.92 152.338 227.643V227.847C152.338 229.8 151.77 231.548 150.635 233.093C149.5 234.591 148.251 235.681 146.888 236.362C148.705 237.089 150.226 238.383 151.452 240.245C152.724 242.062 153.36 244.06 153.36 246.24C153.36 254.457 149.029 259.295 140.366 260.755V263.947H132.719V261.227H128.418V263.433H120.771V261.227H110.851C110.352 261.227 109.92 261.045 109.557 260.682C109.194 260.319 109.012 259.887 109.012 259.388V254.683H103.565V245.418H109.012V227.918H103.565V218.654H109.012V215.381C109.012 214.881 109.194 214.45 109.557 214.086C109.92 213.723 110.352 213.541 110.851 213.541H120.771V208.874ZM133.809 230.572C134.308 229.982 134.558 229.278 134.558 228.46C134.558 227.643 134.308 226.916 133.809 226.28C133.355 225.599 132.673 225.259 131.765 225.259H126.043V231.458H131.765C132.673 231.458 133.355 231.162 133.809 230.572ZM126.043 242.834V249.51H132.378C133.423 249.51 134.195 249.169 134.694 248.488C135.239 247.762 135.512 246.967 135.512 246.104V246.036C135.512 245.173 135.217 244.424 134.626 243.788C134.081 243.152 133.332 242.834 132.378 242.834H126.043Z" fill="#F8F9BA"/>
</g>
<path d="M50.8749 242.993C69.0107 242.993 85.9925 228.9 85.9925 211.899C85.9925 194.871 68.9792 181.171 50.8749 181.171C41.6333 181.171 34.8607 184.894 30.4547 190.814C26.1027 196.662 24.171 204.495 24.171 212.63C24.171 220.768 26.1036 228.348 30.4824 233.935C34.9133 239.588 41.6889 242.993 50.8749 242.993Z" fill="#B0B5D3" stroke="#572316" stroke-width="3.65808"/>
<path d="M81.6029 205.903C81.6029 218.193 66.7899 228.726 50.6173 228.726C34.4447 228.726 27.4633 218.763 27.4633 206.474C27.4633 196.169 34.4447 183.366 50.6173 183.366C66.7899 183.366 80.8712 193.974 81.6029 205.903Z" fill="white"/>
<path d="M83.5623 201.676C80.3889 200.608 72.3352 199.042 65.5073 201.321" stroke="#572316" stroke-width="3.65808" stroke-linecap="round"/>
<path d="M84.2939 217.771C81.1205 216.703 73.0667 215.137 66.2389 217.416" stroke="#572316" stroke-width="3.65808" stroke-linecap="round"/>
<path d="M214.479 262.993C196.343 262.993 179.361 248.9 179.361 231.899C179.361 214.871 196.374 201.171 214.479 201.171C223.72 201.171 230.493 204.894 234.899 210.814C239.251 216.662 241.183 224.495 241.183 232.63C241.183 240.768 239.25 248.348 234.871 253.935C230.44 259.588 223.665 262.993 214.479 262.993Z" fill="#B0B5D3" stroke="#572316" stroke-width="3.65808"/>
<path d="M183.751 225.903C183.751 238.193 198.564 248.726 214.736 248.726C230.909 248.726 237.89 238.763 237.89 226.474C237.89 216.169 230.909 203.366 214.736 203.366C198.564 203.366 184.482 213.974 183.751 225.903Z" fill="white"/>
<path d="M181.791 221.676C184.965 220.608 193.018 219.042 199.846 221.321" stroke="#572316" stroke-width="3.65808" stroke-linecap="round"/>
<path d="M181.06 237.771C184.233 236.703 192.287 235.137 199.115 237.416" stroke="#572316" stroke-width="3.65808" stroke-linecap="round"/>
<path d="M53.7632 274.458C51.2175 275.418 48.538 277.234 45.7807 280.247C43.7865 279.33 41.1588 278.806 38.5261 279.888C35.3744 281.183 32.7154 284.57 31.1265 290.954C29.0936 299.122 31.2402 309.721 35.7622 318.46C40.2633 327.159 47.3992 334.533 55.7864 335.586C63.5818 336.565 68.2569 336.104 71.5347 334.936C73.9878 334.061 75.6566 332.754 77.0591 331.656C77.4991 331.311 77.9128 330.987 78.3163 330.703C79.514 329.861 80.9931 328.104 82.4597 325.755C83.9542 323.361 85.5155 320.225 86.8289 316.494C89.456 309.033 91.1103 299.137 89.1985 288.001C88.2399 282.418 86.5025 278.754 84.2359 276.518C81.9241 274.237 79.2127 273.588 76.686 273.736C74.2082 273.88 71.8915 274.786 70.1901 275.619C69.3299 276.04 68.6037 276.454 68.0744 276.763C67.9848 276.815 67.9037 276.862 67.8296 276.906C67.8041 276.921 67.7794 276.935 67.7555 276.949C67.6709 276.894 67.5701 276.828 67.4575 276.754C67.1562 276.556 66.7699 276.302 66.3786 276.061C65.1432 275.3 63.3975 274.368 61.2543 273.893C59.0921 273.414 56.5517 273.406 53.7632 274.458ZM67.2881 277.212C67.2883 277.212 67.2932 277.21 67.3021 277.206C67.2924 277.211 67.2879 277.213 67.2881 277.212ZM68.1403 277.182C68.1432 277.183 68.1448 277.184 68.1448 277.184C68.1449 277.184 68.1434 277.183 68.1403 277.182Z" fill="white" stroke="#572317" stroke-width="2.83568"/>
<path fill-rule="evenodd" clip-rule="evenodd" d="M39.4458 281.198C36.5017 281.843 33.5048 284.579 31.734 291.627C27.8542 307.069 39.8817 332.549 55.401 334.479C66.8521 335.903 71.1213 334.175 74.1312 332.085C71.4575 332.372 68.027 332.284 63.4785 331.625C47.8116 329.352 35.6559 299.469 39.4458 281.198Z" fill="#ACABCF"/>
<ellipse cx="43.7838" cy="295.532" rx="6.58559" ry="8.13514" fill="#572316"/>
<ellipse cx="60.0541" cy="290.883" rx="6.58559" ry="8.13514" fill="#572316"/>
<ellipse cx="77.0991" cy="289.333" rx="6.58559" ry="8.13514" fill="#572316"/>
<ellipse cx="61.991" cy="316.451" rx="12.3964" ry="12.7838" fill="#572316"/>
<path d="M201.845 273.458C204.391 274.418 207.07 276.234 209.828 279.247C211.822 278.33 214.45 277.806 217.082 278.888C220.234 280.183 222.893 283.57 224.482 289.954C226.515 298.122 224.368 308.721 219.846 317.46C215.345 326.159 208.209 333.533 199.822 334.586C192.027 335.565 187.351 335.104 184.074 333.936C181.621 333.061 179.952 331.754 178.549 330.656C178.109 330.311 177.696 329.987 177.292 329.703C176.094 328.861 174.615 327.104 173.149 324.755C171.654 322.361 170.093 319.225 168.78 315.494C166.152 308.033 164.498 298.137 166.41 287.001C167.368 281.418 169.106 277.754 171.373 275.518C173.684 273.237 176.396 272.588 178.922 272.736C181.4 272.88 183.717 273.786 185.418 274.619C186.278 275.04 187.005 275.454 187.534 275.763C187.624 275.815 187.705 275.862 187.779 275.906C187.804 275.921 187.829 275.935 187.853 275.949C187.938 275.894 188.038 275.828 188.151 275.754C188.452 275.556 188.839 275.302 189.23 275.061C190.465 274.3 192.211 273.368 194.354 272.893C196.516 272.414 199.057 272.406 201.845 273.458ZM188.32 276.212C188.32 276.212 188.315 276.21 188.306 276.206C188.316 276.211 188.321 276.213 188.32 276.212ZM187.468 276.182C187.465 276.183 187.464 276.184 187.464 276.184C187.464 276.184 187.465 276.183 187.468 276.182Z" fill="white" stroke="#572317" stroke-width="2.83568"/>
<path fill-rule="evenodd" clip-rule="evenodd" d="M216.163 280.198C219.107 280.843 222.104 283.579 223.874 290.627C227.754 306.069 215.727 331.549 200.207 333.479C188.756 334.903 184.487 333.175 181.477 331.085C184.151 331.372 187.581 331.284 192.13 330.625C207.797 328.352 219.952 298.469 216.163 280.198Z" fill="#ACABCF"/>
<ellipse rx="6.58559" ry="8.13514" transform="matrix(-1 0 0 1 211.825 294.532)" fill="#572316"/>
<ellipse rx="6.58559" ry="8.13514" transform="matrix(-1 0 0 1 195.554 289.883)" fill="#572316"/>
<ellipse rx="6.58559" ry="8.13514" transform="matrix(-1 0 0 1 178.509 288.333)" fill="#572316"/>
<ellipse rx="12.3964" ry="12.7838" transform="matrix(-1 0 0 1 193.617 315.451)" fill="#572316"/>
<path d="M164.73 151.605L166.735 143.617L168.845 151.605L177.709 153.499L168.845 155.228L166.735 162.639L164.73 155.228L155.761 153.499L164.73 151.605Z" fill="#F7C121"/>
<path d="M67.2984 166.867L67.9667 164.103L68.6702 166.867L71.6248 167.523L68.6702 168.122L67.9667 170.687L67.2984 168.122L64.3087 167.523L67.2984 166.867Z" fill="#F7C121"/>
<path d="M222.897 193.351L224.167 187.514L225.503 193.351L231.117 194.735L225.503 195.999L224.167 201.415L222.897 195.999L217.216 194.735L222.897 193.351Z" fill="#F7C121"/>
<path d="M33.4085 197.741L34.6783 191.904L36.0149 197.741L41.6286 199.125L36.0149 200.389L34.6783 205.805L33.4085 200.389L27.7279 199.125L33.4085 197.741Z" fill="#F7C121"/>
<path d="M350.938 166L306.175 103.412V166H266.475V23.2019H306.175V84.7773L350.533 23.2019H396.31L343.849 92.4742L398.943 166H350.938ZM607.486 23.2019L572.445 166H523.63L503.983 78.4982L483.93 166H435.116L400.479 23.2019H443.42L460.029 120.831L482.512 23.2019H526.061L547.936 120.021L564.545 23.2019H607.486ZM656.943 55.0023V78.2956H702.517V108.476H656.943V134.2H708.593V166H617.243V23.2019H708.593V55.0023H656.943ZM412.032 243.801C412.032 252.443 410.006 260.343 405.955 267.5C402.039 274.521 396.03 280.193 387.928 284.514C379.961 288.7 370.171 290.793 358.559 290.793H338.911V339H299.211V196.202H358.559C370.036 196.202 379.759 198.227 387.726 202.278C395.828 206.329 401.904 211.933 405.955 219.09C410.006 226.247 412.032 234.484 412.032 243.801ZM354.71 259.195C365.918 259.195 371.522 254.064 371.522 243.801C371.522 233.404 365.918 228.205 354.71 228.205H338.911V259.195H354.71ZM528.446 196.202V227.8H490.367V339H450.667V227.8H412.992V196.202H528.446ZM604.507 340.418C591.139 340.418 578.851 337.312 567.643 331.101C556.435 324.754 547.523 316.044 540.906 304.972C534.425 293.764 531.184 281.138 531.184 267.095C531.184 253.051 534.425 240.493 540.906 229.42C547.523 218.212 556.435 209.503 567.643 203.291C578.851 197.08 591.139 193.974 604.507 193.974C618.01 193.974 630.299 197.08 641.371 203.291C652.579 209.503 661.424 218.212 667.905 229.42C674.387 240.493 677.628 253.051 677.628 267.095C677.628 281.138 674.387 293.764 667.905 304.972C661.424 316.044 652.579 324.754 641.371 331.101C630.163 337.312 617.875 340.418 604.507 340.418ZM604.507 303.554C614.635 303.554 622.602 300.245 628.408 293.629C634.35 287.012 637.32 278.167 637.32 267.095C637.32 255.752 634.35 246.84 628.408 240.358C622.602 233.741 614.635 230.433 604.507 230.433C594.245 230.433 586.21 233.741 580.404 240.358C574.597 246.84 571.694 255.752 571.694 267.095C571.694 278.302 574.597 287.215 580.404 293.831C586.21 300.313 594.245 303.554 604.507 303.554Z" fill="#484848"/>
<defs>
<filter id="filter0_d_203_138" x="101.35" y="208.874" width="54.2252" height="59.5037" filterUnits="userSpaceOnUse" color-interpolation-filters="sRGB">
<feFlood flood-opacity="0" result="BackgroundImageFix"/>
<feColorMatrix in="SourceAlpha" type="matrix" values="0 0 0 0 0 0 0 0 0 0 0 0 0 0 0 0 0 0 127 0" result="hardAlpha"/>
<feOffset dy="2.21536"/>
<feGaussianBlur stdDeviation="1.10768"/>
<feComposite in2="hardAlpha" operator="out"/>
<feColorMatrix type="matrix" values="0 0 0 0 0 0 0 0 0 0 0 0 0 0 0 0 0 0 0.25 0"/>
<feBlend mode="normal" in2="BackgroundImageFix" result="effect1_dropShadow_203_138"/>
<feBlend mode="normal" in="SourceGraphic" in2="effect1_dropShadow_203_138" result="shape"/>
</filter>
</defs>
</svg>
