<svg width="306" height="371" viewBox="0 0 306 371" fill="none" xmlns="http://www.w3.org/2000/svg">
<ellipse cx="152.088" cy="351.958" rx="130.5" ry="18.5" fill="#C4C4C4"/>
<path d="M245.023 254.774C245.023 272.609 234.472 288.957 216.998 300.927C199.532 312.89 175.302 320.349 148.45 320.349C121.598 320.349 97.3684 312.89 79.9028 300.927C62.4287 288.957 51.8769 272.609 51.8769 254.774C51.8769 245.809 54.7411 234.377 59.9755 222.203C65.1989 210.054 72.7321 197.285 81.9484 185.664C100.446 162.341 125.4 144.029 151.742 144.029C178.048 144.029 201.348 162.299 218.195 185.599C235.035 208.889 245.023 236.664 245.023 254.774Z" fill="#F7A528" stroke="#572316" stroke-width="3.65808"/>
<path d="M52.4588 123.669L54.2326 124.115C52.4588 123.669 52.4586 123.67 52.4584 123.671L52.4578 123.673L52.456 123.68L52.4502 123.704L52.43 123.787C52.413 123.859 52.3887 123.962 52.3586 124.095C52.2983 124.361 52.2143 124.748 52.1159 125.244C51.9192 126.235 51.6649 127.662 51.4289 129.427C50.9575 132.955 50.5563 137.858 50.8415 143.355C51.4099 154.311 54.7258 167.903 65.974 177.509C87.3899 195.797 96.147 202.269 112.042 206.806C116.75 208.149 122.784 209.973 129.284 211.938C143.956 216.372 161.007 221.525 170.566 223.503C192.375 228.015 208.367 223.164 217.819 220.297C218.476 220.098 219.101 219.908 219.694 219.732C229.255 216.892 244.868 206.988 255.382 192.038L255.485 191.891L255.558 191.727C259.897 181.944 261.899 173.874 261.801 165.482C261.704 157.183 259.553 148.715 255.824 138.138C251.916 92.6636 233.241 58.2763 204.805 41.9869L204.735 41.9465L204.661 41.9125L203.896 43.574C204.661 41.9125 204.66 41.9123 204.66 41.9122L204.659 41.9117L204.657 41.9106L204.649 41.907L204.621 41.8946C204.598 41.884 204.565 41.8689 204.522 41.8495C204.435 41.8107 204.308 41.7545 204.141 41.6821C203.808 41.5375 203.317 41.3286 202.673 41.066C201.385 40.5409 199.485 39.8012 197.013 38.9324C192.071 37.195 184.842 34.9409 175.657 32.8549C170.733 31.7366 163.681 32.0588 155.623 33.7126C147.519 35.3757 138.232 38.4198 128.767 42.8968C109.977 51.7848 90.3234 66.4002 77.8632 87.293C63.8875 95.559 56.4148 109.804 52.4738 123.613L52.4658 123.641L52.4588 123.669Z" fill="#F7A528" stroke="#572316" stroke-width="3.65808"/>
<path d="M154.351 41.2272C143.377 40.2255 110.356 58.9777 95.2178 68.4791C120.57 41.873 156.666 34.4178 166.308 33.9879L166.309 33.9879C167.53 33.9334 195.586 32.6827 220.193 54.4499C244.332 75.8035 252.409 122.85 248.535 108.43C244.662 94.0103 215.455 51.0574 212.04 57.6911C209.308 62.9981 200.84 62.2793 196.529 61.3912C191.738 60.4044 180.88 57.8383 171.553 54.2635C162.226 50.6887 156.363 47.5075 156.663 43.7891C156.725 43.0204 157.125 41.1057 154.351 41.2272Z" fill="#F6DA90"/>
<path d="M257.867 182.369C255.961 194.379 233.609 220.715 199.29 222.333C181.066 225.043 169.468 221.188 131.347 210.829C93.2267 200.47 80.5949 187.698 62.9329 172.787C52.1397 160.98 47.465 131.833 60.7229 106.705C69.4011 94.7994 71.0511 94.3763 91.5473 113.172C96.893 118.075 102.621 130.39 109.496 134.267C151.446 116.825 185.181 133.709 202.85 161.168C212.218 161.593 219.563 155.748 224.468 154.507C270.099 138.086 259.773 170.359 257.867 182.369Z" fill="white"/>
<path fill-rule="evenodd" clip-rule="evenodd" d="M260.056 167.487C253.215 179.69 233.888 196.971 203.965 200.109C185.676 202.878 164.319 196.402 136.73 187.768C100.148 179.991 82.2436 164.414 68.6353 148.146C61.8458 140.718 57.0523 128.123 57.8802 113.02C47.2806 138.301 53.1054 159.891 59.9076 169.642C74.6785 185.297 98.722 203.078 118.156 207.628C123.175 209.06 128.32 210.602 133.491 212.151C157.047 219.209 181.12 226.422 196.113 224.156C233.474 220.78 254.826 195.156 257.089 185.402C257.185 184.991 257.297 184.524 257.421 184.009C258.327 180.24 259.859 173.866 260.056 167.487Z" fill="#ACABCF"/>
<path d="M88.9246 67.4046L89.6768 70.8518L92.0602 68.2502C95.7856 64.1837 102.97 58.2848 111.685 52.5585C120.385 46.8415 130.481 41.3831 139.985 38.1298L142.563 37.2471L140.769 35.1953C130.965 23.9827 122.651 16.9901 115.11 13.7059C107.424 10.3585 100.595 10.8913 94.0786 14.514C90.947 16.255 89.0556 19.8048 87.8994 23.8417C86.7243 27.9447 86.1967 32.9404 86.0856 38.1216C85.8632 48.4933 87.3047 59.9811 88.9246 67.4046Z" fill="#F8A428" stroke="#572316" stroke-width="3.65808"/>
<path d="M138.234 36.3854C119.771 29.8458 117.526 18.3025 105.264 13.2814C111.502 13.0837 120.642 18.0503 124.009 20.9134C127.377 23.7765 143.762 38.3434 138.234 36.3854Z" fill="#F6DA90"/>
<path d="M126.976 41.5417C100.282 34.8366 93.3114 23.2483 93.4101 17.5702C83.1051 25.9781 90.1913 67.6855 90.8053 66.9778C98.7416 57.8304 119.39 45.4633 126.976 41.5417Z" fill="#AD7640"/>
<path d="M113.666 46.4925L103.062 53.3571C100.006 49.1372 99.5914 29.1613 103.308 24.1354L106.676 29.6617L113.666 46.4925Z" fill="#FF5F95"/>
<path d="M102.499 55.3616C100.608 51.19 98.3648 43.2318 99.3481 35.2649C99.9 30.7934 100.442 27.3485 101.266 25.0279C101.675 23.8756 102.101 23.1612 102.502 22.7508C102.8 22.4459 103.09 22.2972 103.444 22.2572C103.545 22.331 103.702 22.4665 103.91 22.694C104.4 23.2297 104.99 24.0665 105.654 25.1757C106.972 27.3783 108.412 30.3684 109.76 33.4219C111.101 36.4622 112.327 39.5102 113.219 41.8023C113.664 42.9472 114.025 43.901 114.274 44.5676C114.399 44.9009 114.496 45.1622 114.561 45.3397C114.594 45.4284 114.618 45.4962 114.635 45.5414L114.654 45.5922L114.658 45.6046L114.659 45.6075L114.659 45.6081L116.379 44.9843L114.659 45.6082L114.663 45.6191L114.667 45.628L114.667 45.6284L114.667 45.6291L114.667 45.6295L114.667 45.6301L114.668 45.6306L114.674 45.6493C114.681 45.6676 114.692 45.6972 114.706 45.7364C114.733 45.8151 114.773 45.9315 114.817 46.0736C114.909 46.3634 115.013 46.7342 115.086 47.099C115.12 47.2725 115.142 47.4191 115.154 47.5381L108.583 51.7481L102.499 55.3616ZM115.16 47.8906C115.16 47.8904 115.161 47.8858 115.163 47.8775C115.161 47.8867 115.16 47.8908 115.16 47.8906ZM103.351 22.1985C103.351 22.1984 103.354 22.1995 103.359 22.2022C103.354 22.2 103.352 22.1987 103.351 22.1985Z" stroke="#572316" stroke-width="3.65808"/>
<path d="M255.852 115.09L253.298 117.524L252.781 114.034C251.974 108.578 249.328 99.6666 245.319 90.0408C241.315 80.4305 236.012 70.2529 229.963 62.233L228.321 60.0571L230.957 59.3629C245.36 55.569 256.165 54.4355 264.251 55.9405C272.492 57.4743 277.851 61.742 281.218 68.3937C282.836 71.5905 282.414 75.5904 281.11 79.582C279.784 83.6389 277.422 88.0723 274.611 92.4262C268.984 101.141 261.353 109.849 255.852 115.09Z" fill="#F8A428" stroke="#572316" stroke-width="3.65808"/>
<path d="M232.39 61.7694C251.347 66.6976 259.674 58.394 272.644 61.1055C267.588 57.4467 257.235 56.4396 252.841 56.9243C248.448 57.409 226.715 60.2939 232.39 61.7694Z" fill="#F6DA90"/>
<path d="M238.826 72.3479C264.692 81.7507 276.96 76.0581 280.059 71.2997C283.884 84.0378 254.645 114.613 254.533 113.683C253.085 101.659 242.912 79.8467 238.826 72.3479Z" fill="#AD7640"/>
<path d="M247.077 83.9065L252.013 95.5337C256.909 93.7509 268.445 77.4373 268.183 71.1919L262.296 73.882L247.077 83.9065Z" fill="#FF5F95"/>
<path d="M251.356 97.5093C255.261 95.1139 261.578 89.7789 265.227 82.6292C267.275 78.6162 268.757 75.4594 269.374 73.0755C269.681 71.8918 269.729 71.0615 269.626 70.4968C269.55 70.0773 269.394 69.7918 269.123 69.5602C268.997 69.5644 268.792 69.5891 268.492 69.661C267.786 69.8301 266.828 70.1925 265.657 70.7392C263.331 71.8251 260.463 73.4948 257.636 75.2689C254.821 77.0355 252.098 78.8734 250.075 80.2723C249.065 80.9711 248.231 81.5588 247.651 81.9712C247.361 82.1774 247.135 82.3397 246.981 82.4501C246.905 82.5053 246.846 82.5475 246.807 82.5757L246.763 82.6074L246.753 82.6152L246.75 82.617L246.749 82.6174L245.675 81.1373L246.749 82.6174L246.74 82.6242L246.732 82.6297L246.732 82.63L246.731 82.6304L246.731 82.6307L246.73 82.631L246.73 82.6313L246.714 82.643C246.698 82.6544 246.673 82.6729 246.639 82.6977C246.572 82.7474 246.474 82.8216 246.358 82.9143C246.12 83.1032 245.825 83.3517 245.561 83.6134C245.435 83.7379 245.335 83.8471 245.258 83.9387L248.342 91.1075L251.356 97.5093ZM245.056 84.2272C245.056 84.2271 245.058 84.2229 245.061 84.2151C245.057 84.2233 245.055 84.2273 245.056 84.2272ZM269.232 69.5633C269.232 69.5632 269.23 69.5627 269.224 69.5621C269.229 69.5631 269.232 69.5634 269.232 69.5633Z" stroke="#572316" stroke-width="3.65808"/>
<ellipse cx="146.398" cy="76.4219" rx="14.2665" ry="5.62269" transform="rotate(15.9282 146.398 76.4219)" fill="white"/>
<ellipse rx="14.2665" ry="5.62269" transform="matrix(0.961606 0.274433 0.274433 -0.961606 202.171 92.339)" fill="white"/>
<ellipse cx="133.178" cy="103.417" rx="13.9007" ry="18.2904" transform="rotate(-164.072 133.178 103.417)" fill="black"/>
<ellipse cx="138.42" cy="109.547" rx="5.12131" ry="6.95035" transform="rotate(-164.072 138.42 109.547)" fill="white"/>
<ellipse cx="197.903" cy="121.889" rx="13.9007" ry="18.2904" transform="rotate(-164.072 197.903 121.889)" fill="black"/>
<ellipse cx="199.42" cy="129.547" rx="5.12131" ry="6.95035" transform="rotate(-164.072 199.42 129.547)" fill="white"/>
<path d="M130.981 148.44C131.584 148.992 137.968 157.281 153.946 154.613M153.946 154.613C160.178 159.435 166.008 163.001 175.655 161.189M153.946 154.613L154.749 151.799" stroke="#572316" stroke-width="5.12131" stroke-linecap="round"/>
<path d="M148.072 171.197C141.741 169.39 139.828 157.431 140.731 154.265C150.729 155.663 156.123 157.205 165.355 161.293C163.179 168.027 154.404 173.004 148.072 171.197Z" fill="#572316"/>
<path fill-rule="evenodd" clip-rule="evenodd" d="M151.159 164.504C151.224 164.374 151.275 164.247 151.311 164.122C151.755 162.568 154.041 161.858 155.984 162.412C157.926 162.966 159.142 164.676 158.698 166.23C158.261 167.763 153.739 169.672 149.999 168.326C146.047 167.558 143.407 163.553 143.849 162.003C144.292 160.449 146.227 159.638 148.17 160.193C150.112 160.747 151.679 162.557 151.236 164.111C151.201 164.233 151.176 164.365 151.159 164.504Z" fill="#FB609C"/>
<ellipse cx="157.058" cy="143.709" rx="15.7297" ry="8.77939" transform="rotate(-164.072 157.058 143.709)" fill="#572316"/>
<ellipse cx="158.112" cy="138.684" rx="5.12131" ry="2.19485" transform="rotate(-164.072 158.112 138.684)" fill="white"/>
<g filter="url(#filter0_i_31_564)">
<path d="M49.5879 173.929L148.588 208.323V364.275L87.029 344.275C68.2514 338.175 55.2691 321.013 54.507 301.284L49.5879 173.929Z" fill="white"/>
</g>
<path d="M49.5879 173.929L148.588 208.323V364.275L87.029 344.275C68.2514 338.175 55.2691 321.013 54.507 301.284L49.5879 173.929Z" stroke="black" stroke-width="3.44885"/>
<g filter="url(#filter1_i_31_564)">
<path d="M247.588 173.458L148.588 208.022V364.746L241.4 334.443L247.588 173.458Z" fill="white"/>
</g>
<path d="M247.588 173.458L148.588 208.022V364.746L241.4 334.443L247.588 173.458Z" stroke="black" stroke-width="3.44885"/>
<path d="M96.623 207.881L96.1782 209.361L90.5739 207.711L91.0186 206.231L96.623 207.881ZM103.36 209.865L102.915 211.345L97.3106 209.695L97.7554 208.215L103.36 209.865ZM110.097 211.849L109.652 213.329L104.047 211.679L104.492 210.199L110.097 211.849ZM116.833 213.833L116.389 215.313L110.784 213.662L111.229 212.182L116.833 213.833ZM123.57 215.817L123.125 217.297L117.521 215.646L117.966 214.166L123.57 215.817ZM130.307 217.8L129.862 219.28L124.258 217.63L124.702 216.15L130.307 217.8ZM94.3206 215.543L93.8759 217.023L88.2715 215.373L88.7162 213.893L94.3206 215.543ZM101.057 217.527L100.613 219.007L95.0082 217.356L95.453 215.876L101.057 217.527ZM107.794 219.51L107.349 220.99L101.745 219.34L102.19 217.86L107.794 219.51ZM114.531 221.494L114.086 222.974L108.482 221.324L108.927 219.844L114.531 221.494ZM121.268 223.478L120.823 224.958L115.219 223.308L115.663 221.828L121.268 223.478ZM128.004 225.462L127.56 226.942L121.955 225.291L122.4 223.811L128.004 225.462ZM92.0182 223.204L91.5735 224.684L85.9691 223.034L86.4139 221.554L92.0182 223.204ZM98.755 225.188L98.3102 226.668L92.7059 225.018L93.1506 223.538L98.755 225.188ZM105.492 227.172L105.047 228.652L99.4426 227.002L99.8874 225.522L105.492 227.172ZM112.229 229.156L111.784 230.636L106.179 228.985L106.624 227.505L112.229 229.156ZM118.965 231.14L118.52 232.62L112.916 230.969L113.361 229.489L118.965 231.14ZM125.702 233.123L125.257 234.603L119.653 232.953L120.098 231.473L125.702 233.123ZM132.439 235.107L131.994 236.587L126.39 234.937L126.834 233.457L132.439 235.107Z" fill="black"/>
<path d="M93.767 261.593L93.3223 263.073L87.7179 261.423L88.1627 259.943L93.767 261.593ZM100.504 263.577L100.059 265.057L94.4547 263.406L94.8994 261.926L100.504 263.577ZM107.241 265.561L106.796 267.041L101.191 265.39L101.636 263.91L107.241 265.561ZM113.977 267.544L113.533 269.024L107.928 267.374L108.373 265.894L113.977 267.544ZM120.714 269.528L120.269 271.008L114.665 269.358L115.11 267.878L120.714 269.528ZM127.451 271.512L127.006 272.992L121.402 271.342L121.846 269.862L127.451 271.512ZM91.4647 269.255L91.0199 270.735L85.4155 269.084L85.8603 267.604L91.4647 269.255ZM98.2014 271.238L97.7567 272.718L92.1523 271.068L92.597 269.588L98.2014 271.238ZM104.938 273.222L104.493 274.702L98.889 273.052L99.3338 271.572L104.938 273.222ZM111.675 275.206L111.23 276.686L105.626 275.036L106.071 273.556L111.675 275.206ZM118.412 277.19L117.967 278.67L112.363 277.019L112.807 275.539L118.412 277.19ZM125.148 279.173L124.704 280.653L119.099 279.003L119.544 277.523L125.148 279.173ZM89.1623 276.916L88.7175 278.396L83.1131 276.746L83.5579 275.266L89.1623 276.916ZM95.899 278.9L95.4543 280.38L89.8499 278.729L90.2947 277.249L95.899 278.9ZM102.636 280.884L102.191 282.364L96.5867 280.713L97.0314 279.233L102.636 280.884ZM109.373 282.867L108.928 284.347L103.323 282.697L103.768 281.217L109.373 282.867ZM116.109 284.851L115.665 286.331L110.06 284.681L110.505 283.201L116.109 284.851ZM122.846 286.835L122.401 288.315L116.797 286.665L117.242 285.185L122.846 286.835ZM129.583 288.819L129.138 290.299L123.534 288.648L123.978 287.168L129.583 288.819Z" fill="black"/>
<path d="M105.333 297.037L104.888 298.517L99.2838 296.867L99.7285 295.387L105.333 297.037ZM112.07 299.021L111.625 300.501L106.021 298.851L106.465 297.371L112.07 299.021ZM118.806 301.005L118.362 302.485L112.757 300.834L113.202 299.354L118.806 301.005ZM125.543 302.989L125.098 304.469L119.494 302.818L119.939 301.338L125.543 302.989ZM132.28 304.972L131.835 306.452L126.231 304.802L126.676 303.322L132.28 304.972ZM139.017 306.956L138.572 308.436L132.968 306.786L133.412 305.306L139.017 306.956ZM103.031 304.699L102.586 306.179L96.9814 304.528L97.4261 303.048L103.031 304.699ZM109.767 306.682L109.323 308.162L103.718 306.512L104.163 305.032L109.767 306.682ZM116.504 308.666L116.059 310.146L110.455 308.496L110.9 307.016L116.504 308.666ZM123.241 310.65L122.796 312.13L117.192 310.48L117.636 309L123.241 310.65ZM129.978 312.634L129.533 314.114L123.928 312.464L124.373 310.984L129.978 312.634ZM136.714 314.618L136.27 316.098L130.665 314.447L131.11 312.967L136.714 314.618ZM97.3597 311.368L96.915 312.848L91.3106 311.198L91.7554 309.718L97.3597 311.368ZM104.097 313.352L103.652 314.832L98.0474 313.182L98.4921 311.702L104.097 313.352ZM110.833 315.336L110.388 316.816L104.784 315.166L105.229 313.686L110.833 315.336ZM117.57 317.32L117.125 318.8L111.521 317.149L111.966 315.669L117.57 317.32ZM124.307 319.303L123.862 320.783L118.258 319.133L118.702 317.653L124.307 319.303ZM131.044 321.287L130.599 322.767L124.994 321.117L125.439 319.637L131.044 321.287ZM137.78 323.271L137.336 324.751L131.731 323.101L132.176 321.621L137.78 323.271Z" fill="black"/>
<path d="M105.234 242.033C105.582 242.227 105.821 242.501 105.951 242.854C106.088 243.203 106.101 243.56 105.991 243.927C105.827 244.469 105.513 244.837 105.046 245.033C104.58 245.23 104.01 245.228 103.335 245.028L100.182 244.095L102.102 237.736L105.156 238.639C105.807 238.832 106.272 239.127 106.552 239.524C106.839 239.923 106.903 240.384 106.745 240.908C106.632 241.28 106.439 241.564 106.163 241.758C105.896 241.947 105.586 242.039 105.234 242.033ZM103.11 240.786L104.005 241.05C104.451 241.182 104.729 241.065 104.84 240.698C104.954 240.319 104.788 240.063 104.343 239.932L103.448 239.667L103.11 240.786ZM103.413 243.499C103.859 243.631 104.138 243.51 104.251 243.137C104.309 242.945 104.293 242.78 104.203 242.642C104.12 242.506 103.97 242.406 103.753 242.341L102.732 242.039L102.383 243.194L103.413 243.499ZM112.646 240.855L112.221 242.262L110.522 241.76L109.027 246.712L107.256 246.188L108.751 241.236L107.071 240.739L107.495 239.331L112.646 240.855ZM111.812 244.058C112.001 243.432 112.298 242.914 112.704 242.504C113.118 242.089 113.607 241.817 114.171 241.689C114.736 241.555 115.332 241.581 115.959 241.766C116.754 242.002 117.358 242.413 117.771 243C118.186 243.582 118.362 244.259 118.299 245.033L116.393 244.469C116.351 244.195 116.247 243.964 116.08 243.777C115.919 243.592 115.706 243.46 115.441 243.382C115.032 243.261 114.659 243.311 114.323 243.533C113.995 243.75 113.757 244.102 113.61 244.589C113.461 245.083 113.463 245.512 113.615 245.878C113.775 246.24 114.059 246.481 114.469 246.603C114.734 246.681 114.985 246.686 115.222 246.619C115.465 246.553 115.68 246.417 115.867 246.21L117.774 246.774C117.397 247.456 116.874 247.93 116.203 248.196C115.533 248.457 114.801 248.47 114.006 248.234C113.379 248.049 112.866 247.75 112.466 247.336C112.068 246.917 111.809 246.425 111.691 245.859C111.581 245.29 111.621 244.689 111.812 244.058ZM122.701 243.83L120.78 250.189L119.009 249.665L120.929 243.306L122.701 243.83ZM123.857 251.168C123.116 250.949 122.561 250.595 122.19 250.105C121.821 249.61 121.718 249.029 121.879 248.362L123.768 248.921C123.719 249.149 123.736 249.331 123.82 249.467C123.903 249.603 124.035 249.698 124.216 249.751C124.379 249.8 124.523 249.8 124.649 249.752C124.783 249.7 124.872 249.601 124.915 249.457C124.972 249.271 124.928 249.1 124.784 248.947C124.64 248.793 124.392 248.595 124.038 248.352C123.664 248.091 123.367 247.859 123.146 247.656C122.933 247.449 122.767 247.194 122.649 246.89C122.538 246.582 122.544 246.227 122.666 245.824C122.789 245.415 122.997 245.096 123.289 244.868C123.582 244.634 123.933 244.495 124.34 244.452C124.746 244.409 125.179 244.455 125.637 244.59C126.378 244.809 126.915 245.158 127.25 245.637C127.592 246.112 127.684 246.666 127.525 247.301L125.6 246.731C125.652 246.537 125.636 246.375 125.55 246.245C125.471 246.117 125.344 246.027 125.169 245.975C125.037 245.936 124.917 245.943 124.809 245.996C124.701 246.049 124.625 246.148 124.581 246.292C124.545 246.413 124.558 246.531 124.622 246.648C124.692 246.761 124.787 246.871 124.906 246.978C125.026 247.079 125.207 247.218 125.449 247.394C125.811 247.652 126.101 247.888 126.318 248.103C126.543 248.314 126.712 248.57 126.824 248.872C126.944 249.17 126.948 249.505 126.836 249.878C126.721 250.257 126.522 250.568 126.239 250.812C125.961 251.057 125.615 251.214 125.201 251.281C124.793 251.35 124.345 251.313 123.857 251.168ZM131.828 246.53L130.714 250.219C130.611 250.562 130.609 250.85 130.709 251.083C130.816 251.317 131.032 251.483 131.357 251.579C131.682 251.675 131.954 251.654 132.173 251.516C132.4 251.373 132.564 251.134 132.666 250.797L133.78 247.107L135.551 247.631L134.437 251.321C134.261 251.904 133.987 252.367 133.614 252.709C133.244 253.045 132.813 253.254 132.322 253.338C131.838 253.418 131.338 253.381 130.82 253.228C130.302 253.075 129.869 252.835 129.521 252.51C129.181 252.18 128.955 251.776 128.843 251.297C128.738 250.821 128.774 250.288 128.952 249.698L130.066 246.009L131.828 246.53ZM140.603 251.435C140.487 251.82 140.29 252.145 140.013 252.41C139.744 252.671 139.4 252.845 138.98 252.93C138.568 253.011 138.103 252.975 137.585 252.822L136.709 252.563L136.061 254.71L134.29 254.186L136.21 247.826L138.857 248.609C139.369 248.761 139.776 248.979 140.077 249.265C140.384 249.552 140.579 249.882 140.664 250.254C140.748 250.626 140.728 251.02 140.603 251.435ZM137.839 251.364C138.339 251.512 138.658 251.357 138.796 250.9C138.935 250.437 138.755 250.132 138.255 249.984L137.55 249.775L137.134 251.156L137.839 251.364ZM102.922 249.691C103.27 249.886 103.509 250.16 103.638 250.513C103.776 250.861 103.789 251.219 103.679 251.586C103.515 252.127 103.2 252.496 102.734 252.692C102.268 252.888 101.698 252.887 101.023 252.687L97.8696 251.754L99.7897 245.394L102.844 246.298C103.494 246.49 103.96 246.785 104.24 247.183C104.527 247.582 104.591 248.043 104.433 248.566C104.32 248.939 104.126 249.222 103.851 249.416C103.584 249.606 103.274 249.697 102.922 249.691ZM100.798 248.444L101.693 248.709C102.138 248.841 102.417 248.723 102.527 248.356C102.642 247.977 102.476 247.722 102.03 247.59L101.136 247.325L100.798 248.444ZM101.101 251.157C101.547 251.289 101.826 251.169 101.939 250.796C101.997 250.603 101.981 250.438 101.891 250.3C101.808 250.164 101.658 250.064 101.441 250L100.42 249.698L100.071 250.853L101.101 251.157ZM111.328 248.808L107.777 252.484L107.167 254.504L105.387 253.978L105.997 251.957L105.066 246.955L107.09 247.554L107.469 250.339L109.331 248.217L111.328 248.808ZM111.268 254.175C111.99 253.891 112.588 253.639 113.062 253.418C113.535 253.198 113.951 252.951 114.309 252.677C114.669 252.397 114.897 252.098 114.994 251.779C115.052 251.586 115.052 251.423 114.994 251.288C114.943 251.155 114.832 251.063 114.664 251.013C114.489 250.961 114.331 250.997 114.189 251.118C114.049 251.234 113.939 251.434 113.86 251.719L112.143 251.211C112.323 250.681 112.574 250.274 112.896 249.989C113.22 249.698 113.581 249.523 113.98 249.464C114.38 249.399 114.794 249.43 115.222 249.557C115.963 249.776 116.458 250.122 116.709 250.596C116.96 251.07 116.997 251.599 116.821 252.182C116.632 252.807 116.244 253.331 115.657 253.754C115.076 254.178 114.407 254.514 113.65 254.762L115.909 255.43L115.476 256.864L110.868 255.501L111.268 254.175ZM122.05 253.424L119.339 252.622L119.037 253.624C119.187 253.537 119.373 253.487 119.594 253.474C119.814 253.461 120.045 253.489 120.286 253.561C120.72 253.689 121.051 253.895 121.28 254.179C121.516 254.465 121.654 254.791 121.694 255.157C121.735 255.522 121.697 255.898 121.581 256.282C121.366 256.992 120.996 257.492 120.469 257.781C119.943 258.065 119.322 258.101 118.605 257.888C118.105 257.741 117.697 257.528 117.381 257.251C117.072 256.97 116.867 256.647 116.767 256.283C116.667 255.92 116.674 255.538 116.788 255.14L118.513 255.65C118.49 255.794 118.514 255.932 118.585 256.065C118.657 256.197 118.792 256.293 118.991 256.352C119.202 256.414 119.383 256.389 119.535 256.277C119.687 256.164 119.799 255.988 119.872 255.748C119.943 255.513 119.939 255.319 119.861 255.165C119.785 255.004 119.638 254.892 119.421 254.828C119.258 254.78 119.113 254.783 118.985 254.837C118.865 254.886 118.778 254.969 118.724 255.084L116.998 254.573L118.202 250.586L122.521 251.864L122.05 253.424ZM122.689 253.761C122.843 253.25 123.106 252.901 123.477 252.716C123.848 252.531 124.268 252.508 124.738 252.647C125.202 252.784 125.537 253.031 125.745 253.387C125.952 253.743 125.979 254.177 125.825 254.688C125.672 255.193 125.409 255.542 125.037 255.733C124.666 255.918 124.249 255.942 123.785 255.805C123.321 255.667 122.982 255.42 122.769 255.062C122.563 254.7 122.537 254.266 122.689 253.761ZM129.551 254.179L124.201 259.544L122.502 259.041L127.853 253.677L129.551 254.179ZM124.416 253.682C124.169 253.609 123.991 253.753 123.882 254.114C123.773 254.474 123.842 254.691 124.089 254.764C124.209 254.8 124.316 254.783 124.41 254.712C124.509 254.643 124.586 254.519 124.641 254.338C124.695 254.158 124.7 254.012 124.655 253.9C124.616 253.79 124.536 253.718 124.416 253.682ZM126.232 258.523C126.384 258.018 126.646 257.673 127.017 257.488C127.396 257.299 127.817 257.273 128.281 257.41C128.745 257.547 129.076 257.796 129.276 258.156C129.483 258.512 129.511 258.943 129.358 259.448C129.204 259.959 128.94 260.311 128.568 260.502C128.203 260.688 127.789 260.713 127.325 260.576C126.861 260.439 126.522 260.191 126.309 259.833C126.103 259.471 126.078 259.034 126.232 258.523ZM127.958 258.444C127.705 258.37 127.524 258.513 127.416 258.873C127.305 259.24 127.376 259.461 127.629 259.536C127.743 259.57 127.847 259.551 127.941 259.481C128.042 259.406 128.12 259.278 128.175 259.098C128.227 258.924 128.231 258.781 128.186 258.669C128.149 258.553 128.073 258.478 127.958 258.444Z" fill="black"/>
<path d="M45.3695 267.539C60.2642 273.962 79.2024 268.402 85.2234 254.439C91.254 240.455 82.1331 223.177 67.2643 216.766C59.6742 213.492 52.7936 214.151 47.0782 217.453C41.4329 220.714 37.0723 226.463 34.1909 233.145C31.3089 239.828 30.2117 246.738 31.8293 252.878C33.4661 259.09 37.8251 264.286 45.3695 267.539Z" fill="#B0B5D3" stroke="#572316" stroke-width="3.27178"/>
<path d="M83.7416 247.961C79.3892 258.054 63.4929 261.458 50.2106 255.731C36.9282 250.003 34.7228 239.348 39.0753 229.255C42.7248 220.792 52.9931 212.749 66.2754 218.477C79.5578 224.205 87.3656 237.904 83.7416 247.961Z" fill="white"/>
<path d="M86.8481 245.182C84.62 243.182 78.5602 239.043 72.1454 238.497" stroke="#572316" stroke-width="3.27178" stroke-linecap="round"/>
<path d="M81.7485 258.661C79.5204 256.66 73.4606 252.521 67.0458 251.975" stroke="#572316" stroke-width="3.27178" stroke-linecap="round"/>
<path d="M253.913 265.989C238.284 270.969 219.779 263.488 215.111 248.837C210.435 234.163 221.334 217.684 236.936 212.713C244.9 210.175 251.759 211.523 257.182 215.415C262.538 219.259 266.354 225.479 268.588 232.491C270.823 239.503 271.239 246.566 268.999 252.583C266.733 258.672 261.829 263.466 253.913 265.989Z" fill="#B0B5D3" stroke="#572316" stroke-width="3.30864"/>
<path d="M217.247 242.465C220.622 253.055 236.28 258.065 250.217 253.624C264.154 249.183 267.435 238.68 264.06 228.089C261.23 219.209 251.698 210.092 237.761 214.533C223.824 218.974 214.602 231.984 217.247 242.465Z" fill="white"/>
<path d="M214.398 239.359C216.839 237.568 223.35 234.007 229.86 234.096" stroke="#572316" stroke-width="3.30864" stroke-linecap="round"/>
<path d="M218.187 253.431C220.629 251.639 227.139 248.078 233.649 248.167" stroke="#572316" stroke-width="3.30864" stroke-linecap="round"/>
<path d="M75.3517 297.916C72.806 298.876 70.1265 300.691 67.3692 303.705C65.375 302.788 62.7473 302.264 60.1146 303.346C56.9629 304.64 54.3039 308.028 52.715 314.412C50.6821 322.58 52.8287 333.179 57.3507 341.918C61.8518 350.617 68.9877 357.991 77.3749 359.044C85.1703 360.023 89.8454 359.562 93.1232 358.393C95.5763 357.519 97.2451 356.212 98.6476 355.113C99.0876 354.769 99.5013 354.445 99.9048 354.161C101.103 353.319 102.582 351.561 104.048 349.212C105.543 346.819 107.104 343.683 108.417 339.952C111.045 332.49 112.699 322.595 110.787 311.459C109.828 305.876 108.091 302.212 105.824 299.975C103.513 297.695 100.801 297.046 98.2745 297.193C95.7967 297.338 93.48 298.244 91.7786 299.077C90.9184 299.498 90.1922 299.912 89.6629 300.22C89.5733 300.272 89.4922 300.32 89.4181 300.363C89.3926 300.378 89.3679 300.393 89.344 300.407C89.2594 300.352 89.1586 300.286 89.046 300.212C88.7447 300.013 88.3584 299.759 87.9671 299.518C86.7317 298.758 84.986 297.826 82.8428 297.351C80.6806 296.872 78.1402 296.864 75.3517 297.916ZM88.8766 300.67C88.8768 300.67 88.8817 300.667 88.8906 300.664C88.8809 300.668 88.8764 300.67 88.8766 300.67ZM89.7288 300.639C89.7317 300.641 89.7333 300.641 89.7333 300.641C89.7334 300.641 89.7319 300.641 89.7288 300.639Z" fill="white" stroke="#572317" stroke-width="2.83568"/>
<path fill-rule="evenodd" clip-rule="evenodd" d="M61.0342 304.656C58.0901 305.3 55.0932 308.037 53.3224 315.085C49.4426 330.527 61.47 356.007 76.9894 357.937C88.4405 359.361 92.7097 357.633 95.7196 355.543C93.0458 355.829 89.6154 355.742 85.0668 355.082C69.4 352.81 57.2443 322.926 61.0342 304.656Z" fill="#ACABCF"/>
<ellipse cx="65.3722" cy="318.989" rx="6.58559" ry="8.13514" fill="#572316"/>
<ellipse cx="81.6422" cy="314.341" rx="6.58559" ry="8.13514" fill="#572316"/>
<ellipse cx="98.6876" cy="312.791" rx="6.58559" ry="8.13514" fill="#572316"/>
<ellipse cx="83.5795" cy="339.908" rx="12.3964" ry="12.7838" fill="#572316"/>
<path d="M223.433 296.916C225.979 297.876 228.658 299.691 231.415 302.705C233.41 301.788 236.037 301.264 238.67 302.346C241.822 303.64 244.481 307.028 246.07 313.412C248.103 321.58 245.956 332.179 241.434 340.918C236.933 349.617 229.797 356.991 221.41 358.044C213.614 359.023 208.939 358.562 205.661 357.393C203.208 356.519 201.54 355.212 200.137 354.113C199.697 353.769 199.283 353.445 198.88 353.161C197.682 352.319 196.203 350.561 194.736 348.212C193.242 345.819 191.681 342.683 190.367 338.952C187.74 331.49 186.086 321.595 187.998 310.459C188.956 304.876 190.694 301.212 192.96 298.975C195.272 296.695 197.983 296.046 200.51 296.193C202.988 296.338 205.305 297.244 207.006 298.077C207.866 298.498 208.592 298.912 209.122 299.22C209.211 299.272 209.292 299.32 209.367 299.363C209.392 299.378 209.417 299.393 209.441 299.407C209.525 299.352 209.626 299.286 209.739 299.212C210.04 299.013 210.426 298.759 210.818 298.518C212.053 297.758 213.799 296.826 215.942 296.351C218.104 295.872 220.644 295.864 223.433 296.916ZM209.908 299.67C209.908 299.67 209.903 299.667 209.894 299.664C209.904 299.668 209.908 299.67 209.908 299.67ZM209.056 299.639C209.053 299.641 209.051 299.641 209.051 299.641C209.051 299.641 209.053 299.641 209.056 299.639Z" fill="white" stroke="#572317" stroke-width="2.83568"/>
<path fill-rule="evenodd" clip-rule="evenodd" d="M237.751 303.656C240.695 304.3 243.691 307.037 245.462 314.085C249.342 329.527 237.315 355.007 221.795 356.937C210.344 358.361 206.075 356.633 203.065 354.543C205.739 354.829 209.169 354.742 213.718 354.082C229.385 351.81 241.54 321.926 237.751 303.656Z" fill="#ACABCF"/>
<ellipse rx="6.58559" ry="8.13514" transform="matrix(-1 0 0 1 233.412 317.989)" fill="#572316"/>
<ellipse rx="6.58559" ry="8.13514" transform="matrix(-1 0 0 1 217.142 313.341)" fill="#572316"/>
<ellipse rx="6.58559" ry="8.13514" transform="matrix(-1 0 0 1 200.097 311.791)" fill="#572316"/>
<ellipse rx="12.3964" ry="12.7838" transform="matrix(-1 0 0 1 215.205 338.908)" fill="#572316"/>
<path d="M186.318 175.063L188.323 167.075L190.434 175.063L199.298 176.957L190.434 178.686L188.323 186.097L186.318 178.686L177.349 176.957L186.318 175.063Z" fill="#F7C121"/>
<path d="M88.8867 190.325L89.5551 187.56L90.2585 190.325L93.2131 190.981L90.2585 191.58L89.5551 194.145L88.8867 191.58L85.897 190.981L88.8867 190.325Z" fill="#F7C121"/>
<path d="M244.485 216.809L245.755 210.972L247.092 216.809L252.705 218.193L247.092 219.457L245.755 224.873L244.485 219.457L238.805 218.193L244.485 216.809Z" fill="#F7C121"/>
<path d="M54.997 221.199L56.2668 215.362L57.6034 221.199L63.2171 222.583L57.6034 223.847L56.2668 229.263L54.997 223.847L49.3164 222.583L54.997 221.199Z" fill="#F7C121"/>
<circle cx="128.088" cy="102.958" r="26.5319" stroke="black" stroke-width="3.93623"/>
<circle cx="202.088" cy="123.958" r="26.5319" stroke="black" stroke-width="3.93623"/>
<rect x="155.74" y="103.432" width="23.9616" height="9" transform="rotate(18.4326 155.74 103.432)" fill="black"/>
<defs>
<filter id="filter0_i_31_564" x="47.7671" y="171.471" width="102.545" height="195.178" filterUnits="userSpaceOnUse" color-interpolation-filters="sRGB">
<feFlood flood-opacity="0" result="BackgroundImageFix"/>
<feBlend mode="normal" in="SourceGraphic" in2="BackgroundImageFix" result="shape"/>
<feColorMatrix in="SourceAlpha" type="matrix" values="0 0 0 0 0 0 0 0 0 0 0 0 0 0 0 0 0 0 127 0" result="hardAlpha"/>
<feOffset dx="7.53846" dy="4.71154"/>
<feComposite in2="hardAlpha" operator="arithmetic" k2="-1" k3="1"/>
<feColorMatrix type="matrix" values="0 0 0 0 0 0 0 0 0 0 0 0 0 0 0 0 0 0 0.25 0"/>
<feBlend mode="normal" in2="shape" result="effect1_innerShadow_31_564"/>
</filter>
<filter id="filter1_i_31_564" x="146.863" y="170.996" width="102.545" height="196.128" filterUnits="userSpaceOnUse" color-interpolation-filters="sRGB">
<feFlood flood-opacity="0" result="BackgroundImageFix"/>
<feBlend mode="normal" in="SourceGraphic" in2="BackgroundImageFix" result="shape"/>
<feColorMatrix in="SourceAlpha" type="matrix" values="0 0 0 0 0 0 0 0 0 0 0 0 0 0 0 0 0 0 127 0" result="hardAlpha"/>
<feOffset dx="7.53846" dy="4.71154"/>
<feComposite in2="hardAlpha" operator="arithmetic" k2="-1" k3="1"/>
<feColorMatrix type="matrix" values="0 0 0 0 0 0 0 0 0 0 0 0 0 0 0 0 0 0 0.25 0"/>
<feBlend mode="normal" in2="shape" result="effect1_innerShadow_31_564"/>
</filter>
</defs>
</svg>
