<svg width="510" height="564" viewBox="0 0 510 564" fill="none" xmlns="http://www.w3.org/2000/svg">
<path fill-rule="evenodd" clip-rule="evenodd" d="M452.761 157.264L464.903 92.0427L399.277 101.764L414.12 117.166L264.765 261.074L209.681 208L196.633 221.542L127.719 287.942L112.111 272.903L98.9644 259.259L98.4573 259.747L97.6813 259L77.5629 279.88L0 354.614L21.5023 376.93L98.4573 302.782L126.695 329.989L127.681 331.013L127.719 330.976L127.757 331.013L128.744 329.989L210.185 251.519L262.522 301.947L264.681 304.189L264.765 304.108L264.848 304.189L267.007 301.947L435.624 139.481L452.761 157.264Z" fill="#BDFF00"/>
<path d="M395.134 254.18C387.615 270.305 370.82 277.919 357.835 271.864C344.85 265.809 339.887 248.049 347.406 231.924C354.926 215.798 371.72 208.184 384.705 214.239C397.691 220.294 402.653 238.054 395.134 254.18Z" fill="#F89F1D" stroke="#572316" stroke-width="2.6644"/>
<g filter="url(#filter0_i_204_277)">
<path d="M189.599 403.11C161.835 421.623 125.854 405.516 78.6986 419.071C31.5429 432.626 113.775 349.548 141.539 331.035C169.302 312.522 202.568 313.648 215.84 333.551C229.111 353.454 217.363 384.597 189.599 403.11Z" fill="#FC5505"/>
</g>
<path d="M188.86 402.002C175.356 411.006 159.817 411.636 141.422 411.618C140.023 411.616 138.608 411.611 137.178 411.606C119.882 411.544 100.305 411.474 78.3305 417.791C75.4371 418.623 73.0943 419.067 71.24 419.19C69.371 419.315 68.0994 419.105 67.2751 418.728C66.5075 418.377 66.0891 417.868 65.884 417.184C65.6603 416.437 65.6644 415.378 66.0132 413.954C66.7123 411.1 68.6648 407.291 71.6487 402.79C74.6136 398.317 78.5262 393.264 83.0399 387.94C101.124 366.609 128.532 341.309 142.278 332.143C155.954 323.024 170.941 318.773 184.079 319.218C197.219 319.663 208.395 324.788 214.731 334.29C221.068 343.793 221.502 356.08 216.861 368.382C212.222 380.681 202.537 392.882 188.86 402.002Z" stroke="black" stroke-width="2.6644"/>
<path d="M196.85 383.89C176.758 397.288 154.187 383.179 120.061 392.989C85.9356 402.798 141.977 345.128 162.069 331.73C182.162 318.332 206.235 319.148 215.84 333.551C225.444 347.955 216.942 370.492 196.85 383.89Z" fill="#F9B309"/>
<g filter="url(#filter1_i_204_277)">
<path d="M152.982 311.344L163.411 305.608L232.183 383.975L220.488 389.606C219.182 389.609 214.588 388.869 206.666 385.881C196.763 382.147 167.9 367.545 159.281 343.098C152.386 323.54 152.209 313.78 152.982 311.344Z" fill="#FFE5E2"/>
</g>
<path d="M152.982 311.344L163.411 305.608L232.183 383.975L220.488 389.606C219.182 389.609 214.588 388.869 206.666 385.881C196.763 382.147 167.9 367.545 159.281 343.098C152.386 323.54 152.209 313.78 152.982 311.344Z" stroke="black" stroke-width="2.6644"/>
<g filter="url(#filter2_ii_204_277)">
<path d="M227.994 190.297L230.959 179.631L348.738 193.186C347.021 238.381 341.583 263.235 321.792 309.54L278.368 329.453L235.259 295.294L204.419 257.218L210.196 236.216C211.368 235.424 210.291 231.361 196.602 221.443C182.913 211.526 170.251 196.706 165.632 190.535C162.131 187.76 166.531 181.717 171.479 184.025C171.174 176.219 174.526 175.373 179.217 175.183C177.456 170.346 184.488 165.45 188.604 167.11L227.994 190.297Z" fill="#F89F1D"/>
</g>
<path d="M230.959 179.631L231.111 178.308L229.981 178.178L229.676 179.275L230.959 179.631ZM188.604 167.11L189.28 165.962L189.194 165.912L189.102 165.875L188.604 167.11ZM179.217 175.183L179.271 176.514L181.092 176.44L180.469 174.727L179.217 175.183ZM171.479 184.025L170.916 185.232L172.895 186.155L172.81 183.973L171.479 184.025ZM165.632 190.535L166.698 189.737L166.595 189.599L166.459 189.491L165.632 190.535ZM210.196 236.216L209.45 235.112L209.042 235.388L208.911 235.863L210.196 236.216ZM204.419 257.218L203.134 256.865L202.953 257.524L203.384 258.056L204.419 257.218ZM235.259 295.294L234.224 296.133L234.317 296.247L234.432 296.339L235.259 295.294ZM278.368 329.453L277.541 330.497L278.181 331.005L278.924 330.664L278.368 329.453ZM321.792 309.54L322.347 310.751L322.814 310.536L323.017 310.064L321.792 309.54ZM348.738 193.186L350.07 193.237L350.116 192.004L348.891 191.863L348.738 193.186ZM240.16 206.452C240.559 207.07 241.383 207.248 242.002 206.849C242.62 206.451 242.798 205.626 242.399 205.008L240.16 206.452ZM229.676 179.275L226.71 189.94L229.277 190.654L232.243 179.988L229.676 179.275ZM228.669 189.149L189.28 165.962L187.928 168.258L227.318 191.445L228.669 189.149ZM189.102 165.875C186.425 164.795 183.131 165.887 180.881 167.664C178.615 169.454 176.801 172.441 177.965 175.638L180.469 174.727C179.872 173.087 180.693 171.208 182.532 169.755C184.386 168.291 186.667 167.765 188.105 168.345L189.102 165.875ZM179.163 173.852C176.85 173.945 174.378 174.189 172.598 175.745C170.75 177.359 169.99 180.043 170.148 184.077L172.81 183.973C172.663 180.201 173.426 178.559 174.351 177.751C175.343 176.884 176.893 176.61 179.271 176.514L179.163 173.852ZM172.042 182.817C168.937 181.369 165.964 182.561 164.355 184.532C163.555 185.512 163.037 186.746 163.04 188.027C163.044 189.346 163.606 190.63 164.804 191.579L166.459 189.491C165.907 189.054 165.706 188.541 165.705 188.019C165.703 187.458 165.938 186.806 166.419 186.217C167.372 185.049 169.073 184.373 170.916 185.232L172.042 182.817ZM164.565 191.334C169.228 197.562 181.982 212.496 195.82 222.522L197.384 220.365C183.844 210.555 171.275 195.85 166.698 189.737L164.565 191.334ZM195.82 222.522C202.631 227.456 206.203 230.864 207.921 233.071C208.789 234.185 209.107 234.896 209.194 235.269C209.276 235.626 209.107 235.344 209.45 235.112L210.941 237.32C211.871 236.692 212.007 235.605 211.789 234.668C211.576 233.746 210.989 232.674 210.023 231.433C208.074 228.931 204.263 225.348 197.384 220.365L195.82 222.522ZM208.911 235.863L203.134 256.865L205.703 257.571L211.48 236.57L208.911 235.863ZM203.384 258.056L234.224 296.133L236.294 294.456L205.454 256.379L203.384 258.056ZM234.432 296.339L277.541 330.497L279.196 328.409L236.087 294.25L234.432 296.339ZM278.924 330.664L322.347 310.751L321.236 308.329L277.813 328.242L278.924 330.664ZM323.017 310.064C342.868 263.616 348.346 238.603 350.07 193.237L347.407 193.136C345.697 238.16 340.297 262.854 320.567 309.016L323.017 310.064ZM348.891 191.863L231.111 178.308L230.807 180.955L348.586 194.51L348.891 191.863ZM227.258 191.408C233.356 195.451 236.395 200.613 240.16 206.452L242.399 205.008C238.71 199.285 235.38 193.596 228.73 189.187L227.258 191.408Z" fill="#572316"/>
<path d="M332.303 208.76C328.416 217.29 297.552 222.066 271.241 210.075C244.93 198.084 226.752 181.45 230.639 172.92C234.526 164.391 259.006 167.197 285.317 179.187C311.628 191.178 336.19 200.231 332.303 208.76Z" fill="black" fill-opacity="0.3"/>
<path d="M216.096 141.866L217.421 142C216.096 141.866 216.096 141.867 216.096 141.867L216.096 141.869L216.096 141.875L216.094 141.892L216.088 141.954C216.083 142.007 216.077 142.084 216.069 142.183C216.054 142.382 216.034 142.669 216.016 143.037C215.979 143.771 215.947 144.826 215.963 146.122C215.997 148.713 216.226 152.287 217.013 156.216C218.581 164.047 222.406 173.487 231.523 179.216C248.882 190.123 255.874 193.859 267.802 195.446C271.335 195.916 275.874 196.592 280.764 197.319C291.8 198.962 304.626 200.871 311.72 201.284C327.905 202.228 338.91 197.044 345.415 193.979C345.867 193.766 346.297 193.564 346.706 193.374C353.292 190.318 363.49 181.534 369.483 169.654L369.541 169.537L369.576 169.411C371.667 161.906 372.256 155.882 371.298 149.848C370.351 143.881 367.906 138.009 364.102 130.785C356.479 98.445 339.393 75.6518 317.189 66.9259L317.134 66.9042L317.077 66.8875L316.702 68.1651C317.077 66.8875 317.077 66.8875 317.076 66.8874L317.076 66.8872L317.074 66.8866L317.068 66.8848L317.047 66.8788L316.97 66.8569C316.903 66.8381 316.806 66.811 316.678 66.7766C316.423 66.7076 316.047 66.609 315.556 66.488C314.572 66.246 313.125 65.9141 311.254 65.5497C307.51 64.8209 302.065 63.9616 295.229 63.4303C291.564 63.1455 286.519 64.1232 280.89 66.1663C275.229 68.2212 268.861 71.3956 262.518 75.621C249.924 84.0094 237.314 96.6142 230.548 112.98C221.356 120.411 217.48 131.462 216.101 141.824L216.098 141.845L216.096 141.866Z" fill="#F7A528" stroke="#572316" stroke-width="2.663"/>
<path d="M280.768 71.7133C272.758 72.1522 250.958 89.15 241.059 97.594C256.506 75.7502 281.716 66.564 288.615 65.235L288.616 65.2348C289.49 65.0665 309.565 61.1992 329.59 74.2755C349.234 87.1033 360.025 120.135 355.711 110.159C351.396 100.182 325.819 72.333 324.06 77.472C322.654 81.5832 316.478 81.9609 313.279 81.7771C309.724 81.5729 301.633 80.8727 294.537 79.284C287.441 77.6954 282.881 76.0241 282.705 73.3141C282.668 72.7539 282.753 71.3326 280.768 71.7133Z" fill="#F6DA90"/>
<path d="M370.25 162.427C370.147 171.278 356.832 192.611 332.285 197.405C319.445 201.284 310.684 199.734 282.132 196.303C253.58 192.872 243.132 185.009 228.834 176.136C219.811 168.773 213.363 148.274 220.255 128.774C225.247 119.281 226.39 118.802 243.14 130.173C247.509 133.138 252.937 141.403 258.298 143.468C286.669 126.471 312.752 135.064 328.381 152.973C335.174 152.289 339.846 147.303 343.248 145.891C374.378 129.238 370.353 153.575 370.25 162.427Z" fill="white"/>
<path fill-rule="evenodd" clip-rule="evenodd" d="M370.253 151.477C366.616 160.989 354.523 175.479 333.302 180.903C320.422 184.832 304.355 182.426 283.571 179.124C256.4 177.39 241.857 168.064 230.336 157.785C224.66 153.153 219.876 144.588 218.875 133.623C213.914 152.952 220.392 167.887 226.322 174.191C238.617 183.905 257.814 194.17 272.292 195.392C276.059 195.893 279.928 196.459 283.816 197.028C301.529 199.621 319.631 202.271 330.189 199.054C356.742 192.672 369.411 171.958 370.011 164.694C370.036 164.388 370.067 164.039 370.102 163.655C370.356 160.845 370.786 156.092 370.253 151.477Z" fill="#ACABCF"/>
<path d="M236.413 97.4855L237.319 99.8889L238.76 97.763C241.014 94.4403 245.565 89.4319 251.236 84.3861C256.898 79.3484 263.592 74.3495 270.094 71.0014L271.858 70.093L270.349 68.8049C262.101 61.7655 255.374 57.6081 249.595 56.0399C243.705 54.4416 238.843 55.5474 234.533 58.8456C232.461 60.4308 231.474 63.1875 231.068 66.2174C230.656 69.2968 230.804 72.9508 231.272 76.6944C232.208 84.1882 234.461 92.31 236.413 97.4855Z" fill="#F8A428" stroke="#572316" stroke-width="2.663"/>
<path d="M268.648 69.9302C254.658 67.1721 251.821 59.0952 242.459 56.7752C246.931 55.9733 254.039 58.5842 256.767 60.2904C259.495 61.9965 272.837 70.756 268.648 69.9302Z" fill="#F6DA90"/>
<path d="M261.085 74.8342C241.15 72.8271 234.903 65.2176 234.374 61.1175C227.841 68.2629 237.355 97.5538 237.722 96.9792C242.471 89.5515 256.035 78.4608 261.085 74.8342Z" fill="#AD7640"/>
<path d="M252.021 79.8076L245.11 85.873C242.462 83.1567 240.052 68.8127 242.197 64.7998L245.208 68.424L252.021 79.8076Z" fill="#FF5F95"/>
<path d="M244.916 87.3761C243.113 84.5715 240.656 79.0766 240.522 73.2345C240.447 69.9555 240.472 67.417 240.821 65.6584C240.994 64.7852 241.225 64.2257 241.47 63.8877C241.653 63.6365 241.846 63.4988 242.096 63.4325C242.177 63.475 242.304 63.556 242.478 63.6979C242.888 64.0319 243.401 64.5722 243.997 65.3009C245.179 66.748 246.533 68.7494 247.826 70.8062C249.114 72.8541 250.319 74.9199 251.203 76.4765C251.645 77.2541 252.006 77.9029 252.256 78.3566C252.381 78.5835 252.478 78.7615 252.544 78.8824L252.619 79.0199L252.638 79.0546L252.642 79.063L252.643 79.065L252.644 79.0654L253.816 78.4343L252.644 79.0654L252.648 79.0729L252.651 79.0789L252.651 79.0792L252.651 79.0797L252.651 79.08L252.652 79.0803L252.652 79.0807L252.659 79.0935C252.666 79.106 252.676 79.1261 252.69 79.1529C252.719 79.2067 252.759 79.2863 252.807 79.3839C252.903 79.583 253.018 79.839 253.108 80.0941C253.151 80.2155 253.182 80.3188 253.204 80.4031L248.916 84.1302L244.916 87.3761ZM253.246 80.6564C253.246 80.6563 253.246 80.6529 253.246 80.6467C253.246 80.6534 253.246 80.6565 253.246 80.6564ZM242.024 63.4C242.024 63.3999 242.026 63.4005 242.03 63.4019C242.026 63.4008 242.024 63.4001 242.024 63.4Z" stroke="#572316" stroke-width="2.663"/>
<path d="M361.686 114.182L360.103 116.205L359.362 113.745C358.204 109.901 355.356 103.763 351.45 97.2535C347.551 90.7548 342.655 83.9851 337.45 78.8483L336.037 77.4546L337.862 76.6759C347.835 72.4204 355.497 70.4617 361.481 70.6906C367.579 70.924 371.889 73.4313 375.018 77.8662C376.522 79.9976 376.641 82.9233 376.123 85.9362C375.597 88.9983 374.365 92.4413 372.801 95.8744C369.669 102.747 365.094 109.825 361.686 114.182Z" fill="#F8A428" stroke="#572316" stroke-width="2.663"/>
<path d="M339.149 78.2577C353.324 79.8029 358.444 72.9417 368.072 73.5234C364.044 71.4227 356.48 71.792 353.367 72.6056C350.254 73.4192 334.905 77.795 339.149 78.2577Z" fill="#F6DA90"/>
<path d="M344.903 85.1965C364.528 89.234 372.761 83.8369 374.491 80.0819C378.592 88.8522 360.766 113.966 360.587 113.308C358.273 104.801 348.639 90.1656 344.903 85.1965Z" fill="#AD7640"/>
<path d="M352.068 92.6493L356.853 100.502C360.191 98.7001 366.775 85.7305 365.925 81.2599L361.97 83.8198L352.068 92.6493Z" fill="#FF5F95"/>
<path d="M356.589 101.994C359.147 99.8561 363.133 95.3456 365.006 89.8101C366.057 86.7031 366.79 84.2727 366.983 82.4904C367.079 81.6054 367.025 81.0024 366.892 80.6065C366.793 80.3124 366.649 80.1233 366.43 79.9851C366.34 80.0014 366.195 80.0409 365.986 80.1244C365.496 80.3208 364.844 80.6831 364.058 81.2008C362.498 82.2288 360.608 83.7347 358.76 85.3114C356.919 86.8814 355.152 88.4931 353.843 89.7145C353.19 90.3247 352.651 90.8361 352.277 91.1945C352.09 91.3736 351.944 91.5145 351.845 91.6102L351.733 91.7192L351.705 91.7466L351.698 91.7533L351.696 91.7549L351.696 91.7552L350.765 90.8028L351.696 91.7553L351.69 91.7612L351.685 91.7659L351.685 91.7662L351.684 91.7665L351.684 91.7668L351.684 91.767L351.683 91.7673L351.673 91.7775C351.663 91.7873 351.646 91.8033 351.625 91.8247C351.582 91.8676 351.519 91.9315 351.445 92.0105C351.294 92.1717 351.108 92.3818 350.945 92.5982C350.868 92.7012 350.807 92.7905 350.762 92.8646L353.741 97.7019L356.589 101.994ZM350.646 93.0938C350.646 93.0937 350.647 93.0905 350.649 93.0845C350.647 93.0909 350.646 93.0939 350.646 93.0938ZM366.509 79.9758C366.509 79.9757 366.507 79.9756 366.503 79.9758C366.507 79.976 366.509 79.9759 366.509 79.9758Z" stroke="#572316" stroke-width="2.663"/>
<ellipse cx="278.762" cy="97.9032" rx="10.3857" ry="4.09319" transform="rotate(7.577 278.762 97.9032)" fill="white"/>
<ellipse rx="10.3857" ry="4.09319" transform="matrix(0.991268 0.131858 0.131858 -0.991268 320.616 103.471)" fill="white"/>
<path d="M269.51 118.49C261.122 116.747 255.451 125.73 256.091 120.178C256.731 114.626 263.696 111.144 271.001 111.986C275.768 112.913 281.05 118.054 282.546 123.228C281.906 128.78 276.439 119.929 269.51 118.49Z" fill="black"/>
<path d="M328.619 124.365C320.231 122.623 314.56 131.606 315.2 126.054C315.841 120.502 322.805 117.019 330.111 117.862C334.877 118.789 340.159 123.929 341.655 129.104C341.015 134.656 335.549 125.805 328.619 124.365Z" fill="black"/>
<path d="M275.272 151.405C275.765 151.739 281.24 157.034 292.466 153.424M292.466 153.424C297.464 156.238 302.04 158.19 308.797 155.865M292.466 153.424L292.747 151.312" stroke="#572316" stroke-width="3.7282" stroke-linecap="round"/>
<path d="M289.988 165.989C285.237 165.357 282.594 156.946 282.91 154.57C290.26 154.52 294.307 155.06 301.389 157.028C300.534 162.108 294.74 166.621 289.988 165.989Z" fill="#572316"/>
<path fill-rule="evenodd" clip-rule="evenodd" d="M291.504 160.842C291.537 160.742 291.56 160.644 291.573 160.551C291.728 159.384 293.3 158.631 294.757 158.825C296.215 159.019 297.271 160.122 297.116 161.288C296.963 162.439 293.909 164.291 291.073 163.718C288.145 163.583 285.819 160.977 285.974 159.814C286.129 158.647 287.437 157.859 288.895 158.053C290.353 158.247 291.673 159.385 291.518 160.551C291.505 160.642 291.502 160.74 291.504 160.842Z" fill="#FB609C"/>
<ellipse cx="293.554" cy="145.24" rx="11.4509" ry="6.39121" transform="rotate(-172.423 293.554 145.24)" fill="#572316"/>
<ellipse cx="293.782" cy="141.509" rx="3.7282" ry="1.5978" transform="rotate(-172.423 293.782 141.509)" fill="white"/>
<ellipse cx="270.93" cy="236.022" rx="30.5751" ry="27.6632" transform="rotate(25 270.93 236.022)" fill="white"/>
<g filter="url(#filter3_i_204_277)">
<path d="M304.286 337.512C245.126 383.421 248.008 414.562 189.911 347.087C149.269 299.884 164.068 281.278 198.604 260.118C223.209 239.116 267.027 217.339 297.763 207.012C364.825 188.081 373.006 189.486 405.531 199.834C402.964 219.119 360.25 296.94 304.286 337.512Z" fill="#FFE5E2"/>
</g>
<path d="M304.286 337.512C245.126 383.421 248.008 414.562 189.911 347.087C149.269 299.884 164.068 281.278 198.604 260.118C223.209 239.116 267.027 217.339 297.763 207.012C364.825 188.081 373.006 189.486 405.531 199.834C402.964 219.119 360.25 296.94 304.286 337.512Z" stroke="black" stroke-width="2.6644"/>
<g filter="url(#filter4_i_204_277)">
<path d="M367.442 270.975C341.049 252.644 325.946 214.409 326.256 199.962C359.449 191.878 372.849 188.755 404.759 200.422C403.552 209.9 389.092 240.909 367.442 270.975Z" fill="#E83B81"/>
</g>
<path d="M367.442 270.975C341.049 252.644 325.946 214.409 326.256 199.962C359.449 191.878 372.849 188.755 404.759 200.422C403.552 209.9 389.092 240.909 367.442 270.975Z" stroke="black" stroke-width="2.6644"/>
<g filter="url(#filter5_i_204_277)">
<path d="M117.774 269.818C171.066 236.836 207.701 239.461 219.357 244.896C212.554 264.08 194.441 297.295 176.421 276.683C158.402 256.071 129.815 263.518 117.774 269.818Z" fill="#E83B81"/>
</g>
<path d="M117.774 269.818C171.066 236.836 207.701 239.461 219.357 244.896C212.554 264.08 194.441 297.295 176.421 276.683C158.402 256.071 129.815 263.518 117.774 269.818Z" stroke="black" stroke-width="2.6644"/>
<g filter="url(#filter6_i_204_277)">
<path d="M234.275 439.621C282.16 399.187 291.028 363.545 289.476 350.778C269.128 351.296 231.933 358.212 245.939 381.737C259.945 405.261 243.999 430.128 234.275 439.621Z" fill="#E83B81"/>
</g>
<path d="M234.275 439.621C282.16 399.187 291.028 363.545 289.476 350.778C269.128 351.296 231.933 358.212 245.939 381.737C259.945 405.261 243.999 430.128 234.275 439.621Z" stroke="black" stroke-width="2.6644"/>
<g filter="url(#filter7_i_204_277)">
<path d="M214.485 335.498C196.373 347.101 162.896 363.333 159.426 357.917C155.956 352.5 183.807 327.486 201.919 315.883C220.031 304.28 250.293 288.857 253.763 294.274C257.234 299.69 232.597 323.895 214.485 335.498Z" fill="#E83B81"/>
</g>
<path d="M213.767 334.376C204.769 340.14 191.934 347.066 180.932 351.869C175.423 354.274 170.431 356.121 166.634 357.036C164.726 357.495 163.202 357.698 162.099 357.653C160.932 357.606 160.616 357.304 160.547 357.198C160.47 357.078 160.33 356.631 160.758 355.504C161.161 354.442 161.955 353.087 163.129 351.482C165.467 348.287 169.124 344.353 173.498 340.184C182.238 331.853 193.663 322.754 202.638 317.004C211.649 311.231 223.685 304.508 233.879 299.91C238.986 297.607 243.57 295.865 247.056 295.029C248.808 294.609 250.197 294.439 251.2 294.501C252.237 294.565 252.551 294.85 252.642 294.992C252.752 295.164 252.883 295.644 252.544 296.726C252.219 297.761 251.545 299.078 250.523 300.638C248.486 303.747 245.233 307.573 241.265 311.635C233.334 319.754 222.724 328.638 213.767 334.376Z" stroke="black" stroke-width="2.6644"/>
<g filter="url(#filter8_di_204_277)">
<circle cx="295.687" cy="261.211" r="38.2189" transform="rotate(25 295.687 261.211)" fill="#E83B81"/>
<circle cx="295.687" cy="261.211" r="36.8867" transform="rotate(25 295.687 261.211)" stroke="black" stroke-width="2.6644"/>
</g>
<circle cx="295.687" cy="261.211" r="23.0551" transform="rotate(25 295.687 261.211)" fill="#8BE9FF" stroke="black" stroke-width="2.6644"/>
<path d="M291.525 239.993C296.566 238.972 299.917 239.349 305.577 241.726L300.179 282.584C294.299 283.906 291.15 283.536 285.798 280.697L291.525 239.993Z" fill="url(#paint0_linear_204_277)"/>
<g filter="url(#filter9_i_204_277)">
<path d="M180.084 206.913C194.05 203.145 201.627 184.83 203.669 176.143L187.944 166.802C181.153 166.206 178.857 171.936 178.557 174.875C173.086 174.895 171.016 180.998 170.665 184.047C165.177 183.416 164.685 187.685 165.126 189.898C170.002 195.519 179.82 206.79 180.084 206.913Z" fill="white"/>
</g>
<path d="M180.084 206.913C194.05 203.145 201.627 184.83 203.669 176.143L187.944 166.802C181.153 166.206 178.857 171.936 178.557 174.875C173.086 174.895 171.016 180.998 170.665 184.047C165.177 183.416 164.685 187.685 165.126 189.898C170.002 195.519 179.82 206.79 180.084 206.913Z" stroke="#572316" stroke-width="2.6644"/>
<g filter="url(#filter10_i_204_277)">
<path d="M349.652 274.753C369.678 288.331 379.058 275.055 380.125 273.04C386.052 261.85 380.115 256.358 378.775 254.459C375.243 249.452 366.585 241.719 359.74 243.704C352.896 245.69 355.056 251.227 356.991 253.639C348.845 258.851 352.135 262.528 354.513 264.763C350.239 266.71 347.959 272.745 349.652 274.753Z" fill="white"/>
</g>
<path d="M349.652 274.753C369.678 288.331 379.058 275.055 380.125 273.04C386.052 261.85 380.115 256.358 378.775 254.459C375.243 249.452 366.585 241.719 359.74 243.704C352.896 245.69 355.056 251.227 356.991 253.639C348.845 258.851 352.135 262.528 354.513 264.763C350.239 266.71 347.959 272.745 349.652 274.753Z" stroke="#572316" stroke-width="2.34075"/>
<ellipse cx="200.085" cy="323.397" rx="1.37072" ry="11.0331" transform="rotate(56.4976 200.085 323.397)" fill="white"/>
<circle cx="188.402" cy="302.763" r="6.5518" transform="rotate(25 188.402 302.763)" fill="#535353"/>
<circle cx="188.402" cy="302.763" r="6.5518" transform="rotate(25 188.402 302.763)" fill="#535353"/>
<circle cx="188.402" cy="302.763" r="6.5518" transform="rotate(25 188.402 302.763)" fill="#535353"/>
<circle cx="229.667" cy="346.905" r="6.5518" transform="rotate(25 229.667 346.905)" fill="#535353"/>
<circle cx="229.667" cy="346.905" r="6.5518" transform="rotate(25 229.667 346.905)" fill="#535353"/>
<circle cx="229.667" cy="346.905" r="6.5518" transform="rotate(25 229.667 346.905)" fill="#535353"/>
<defs>
<filter id="filter0_i_204_277" x="64.3987" y="317.854" width="156.902" height="102.704" filterUnits="userSpaceOnUse" color-interpolation-filters="sRGB">
<feFlood flood-opacity="0" result="BackgroundImageFix"/>
<feBlend mode="normal" in="SourceGraphic" in2="BackgroundImageFix" result="shape"/>
<feColorMatrix in="SourceAlpha" type="matrix" values="0 0 0 0 0 0 0 0 0 0 0 0 0 0 0 0 0 0 127 0" result="hardAlpha"/>
<feOffset dx="-8.73574" dy="-7.27978"/>
<feComposite in2="hardAlpha" operator="arithmetic" k2="-1" k3="1"/>
<feColorMatrix type="matrix" values="0 0 0 0 0.670833 0 0 0 0 0.25885 0 0 0 0 0.061493 0 0 0 1 0"/>
<feBlend mode="normal" in2="shape" result="effect1_innerShadow_204_277"/>
</filter>
<filter id="filter1_i_204_277" x="151.337" y="303.925" width="83.004" height="87.0132" filterUnits="userSpaceOnUse" color-interpolation-filters="sRGB">
<feFlood flood-opacity="0" result="BackgroundImageFix"/>
<feBlend mode="normal" in="SourceGraphic" in2="BackgroundImageFix" result="shape"/>
<feColorMatrix in="SourceAlpha" type="matrix" values="0 0 0 0 0 0 0 0 0 0 0 0 0 0 0 0 0 0 127 0" result="hardAlpha"/>
<feOffset dx="-12.3756" dy="-9.46372"/>
<feComposite in2="hardAlpha" operator="arithmetic" k2="-1" k3="1"/>
<feColorMatrix type="matrix" values="0 0 0 0 0.741176 0 0 0 0 0.666667 0 0 0 0 0.658824 0 0 0 1 0"/>
<feBlend mode="normal" in2="shape" result="effect1_innerShadow_204_277"/>
</filter>
<filter id="filter2_ii_204_277" x="163.04" y="165.446" width="187.076" height="168.471" filterUnits="userSpaceOnUse" color-interpolation-filters="sRGB">
<feFlood flood-opacity="0" result="BackgroundImageFix"/>
<feBlend mode="normal" in="SourceGraphic" in2="BackgroundImageFix" result="shape"/>
<feColorMatrix in="SourceAlpha" type="matrix" values="0 0 0 0 0 0 0 0 0 0 0 0 0 0 0 0 0 0 127 0" result="hardAlpha"/>
<feOffset dx="5.82383" dy="-9.46372"/>
<feComposite in2="hardAlpha" operator="arithmetic" k2="-1" k3="1"/>
<feColorMatrix type="matrix" values="0 0 0 0 0.341176 0 0 0 0 0.137255 0 0 0 0 0.0862745 0 0 0 0.22 0"/>
<feBlend mode="normal" in2="shape" result="effect1_innerShadow_204_277"/>
<feColorMatrix in="SourceAlpha" type="matrix" values="0 0 0 0 0 0 0 0 0 0 0 0 0 0 0 0 0 0 127 0" result="hardAlpha"/>
<feOffset dy="2.91191"/>
<feGaussianBlur stdDeviation="1.45596"/>
<feComposite in2="hardAlpha" operator="arithmetic" k2="-1" k3="1"/>
<feColorMatrix type="matrix" values="0 0 0 0 0 0 0 0 0 0 0 0 0 0 0 0 0 0 0.25 0"/>
<feBlend mode="normal" in2="effect1_innerShadow_204_277" result="effect2_innerShadow_204_277"/>
</filter>
<filter id="filter3_i_204_277" x="164.061" y="191.003" width="242.938" height="196.463" filterUnits="userSpaceOnUse" color-interpolation-filters="sRGB">
<feFlood flood-opacity="0" result="BackgroundImageFix"/>
<feBlend mode="normal" in="SourceGraphic" in2="BackgroundImageFix" result="shape"/>
<feColorMatrix in="SourceAlpha" type="matrix" values="0 0 0 0 0 0 0 0 0 0 0 0 0 0 0 0 0 0 127 0" result="hardAlpha"/>
<feOffset dx="-5" dy="-16"/>
<feComposite in2="hardAlpha" operator="arithmetic" k2="-1" k3="1"/>
<feColorMatrix type="matrix" values="0 0 0 0 0.741667 0 0 0 0 0.666861 0 0 0 0 0.658229 0 0 0 1 0"/>
<feBlend mode="normal" in2="shape" result="effect1_innerShadow_204_277"/>
</filter>
<filter id="filter4_i_204_277" x="324.92" y="191.42" width="81.2949" height="81.3967" filterUnits="userSpaceOnUse" color-interpolation-filters="sRGB">
<feFlood flood-opacity="0" result="BackgroundImageFix"/>
<feBlend mode="normal" in="SourceGraphic" in2="BackgroundImageFix" result="shape"/>
<feColorMatrix in="SourceAlpha" type="matrix" values="0 0 0 0 0 0 0 0 0 0 0 0 0 0 0 0 0 0 127 0" result="hardAlpha"/>
<feOffset dx="-10.9197" dy="-3.63989"/>
<feComposite in2="hardAlpha" operator="arithmetic" k2="-1" k3="1"/>
<feColorMatrix type="matrix" values="0 0 0 0 0.65098 0 0 0 0 0.137255 0 0 0 0 0.345098 0 0 0 1 0"/>
<feBlend mode="normal" in2="shape" result="effect1_innerShadow_204_277"/>
</filter>
<filter id="filter5_i_204_277" x="117.073" y="240.28" width="103.945" height="44.2478" filterUnits="userSpaceOnUse" color-interpolation-filters="sRGB">
<feFlood flood-opacity="0" result="BackgroundImageFix"/>
<feBlend mode="normal" in="SourceGraphic" in2="BackgroundImageFix" result="shape"/>
<feColorMatrix in="SourceAlpha" type="matrix" values="0 0 0 0 0 0 0 0 0 0 0 0 0 0 0 0 0 0 127 0" result="hardAlpha"/>
<feOffset dx="-1.45596" dy="-9.46372"/>
<feComposite in2="hardAlpha" operator="arithmetic" k2="-1" k3="1"/>
<feColorMatrix type="matrix" values="0 0 0 0 0.65098 0 0 0 0 0.137255 0 0 0 0 0.345098 0 0 0 1 0"/>
<feBlend mode="normal" in2="shape" result="effect1_innerShadow_204_277"/>
</filter>
<filter id="filter6_i_204_277" x="233.344" y="349.415" width="57.6273" height="91.2239" filterUnits="userSpaceOnUse" color-interpolation-filters="sRGB">
<feFlood flood-opacity="0" result="BackgroundImageFix"/>
<feBlend mode="normal" in="SourceGraphic" in2="BackgroundImageFix" result="shape"/>
<feColorMatrix in="SourceAlpha" type="matrix" values="0 0 0 0 0 0 0 0 0 0 0 0 0 0 0 0 0 0 127 0" result="hardAlpha"/>
<feOffset dx="8.00776" dy="-4.36787"/>
<feComposite in2="hardAlpha" operator="arithmetic" k2="-1" k3="1"/>
<feColorMatrix type="matrix" values="0 0 0 0 0.65 0 0 0 0 0.135417 0 0 0 0 0.34363 0 0 0 1 0"/>
<feBlend mode="normal" in2="shape" result="effect1_innerShadow_204_277"/>
</filter>
<filter id="filter7_i_204_277" x="159.13" y="293.156" width="94.9634" height="65.8354" filterUnits="userSpaceOnUse" color-interpolation-filters="sRGB">
<feFlood flood-opacity="0" result="BackgroundImageFix"/>
<feBlend mode="normal" in="SourceGraphic" in2="BackgroundImageFix" result="shape"/>
<feColorMatrix in="SourceAlpha" type="matrix" values="0 0 0 0 0 0 0 0 0 0 0 0 0 0 0 0 0 0 127 0" result="hardAlpha"/>
<feOffset dx="-8.00776" dy="-1.45596"/>
<feComposite in2="hardAlpha" operator="arithmetic" k2="-1" k3="1"/>
<feColorMatrix type="matrix" values="0 0 0 0 0.65098 0 0 0 0 0.137255 0 0 0 0 0.345098 0 0 0 1 0"/>
<feBlend mode="normal" in2="shape" result="effect1_innerShadow_204_277"/>
</filter>
<filter id="filter8_di_204_277" x="257.459" y="222.983" width="77.912" height="82.2799" filterUnits="userSpaceOnUse" color-interpolation-filters="sRGB">
<feFlood flood-opacity="0" result="BackgroundImageFix"/>
<feColorMatrix in="SourceAlpha" type="matrix" values="0 0 0 0 0 0 0 0 0 0 0 0 0 0 0 0 0 0 127 0" result="hardAlpha"/>
<feOffset dx="1.45596" dy="5.82383"/>
<feComposite in2="hardAlpha" operator="out"/>
<feColorMatrix type="matrix" values="0 0 0 0 0 0 0 0 0 0 0 0 0 0 0 0 0 0 0.25 0"/>
<feBlend mode="normal" in2="BackgroundImageFix" result="effect1_dropShadow_204_277"/>
<feBlend mode="normal" in="SourceGraphic" in2="effect1_dropShadow_204_277" result="shape"/>
<feColorMatrix in="SourceAlpha" type="matrix" values="0 0 0 0 0 0 0 0 0 0 0 0 0 0 0 0 0 0 127 0" result="hardAlpha"/>
<feOffset dx="-5.82383" dy="-7.27978"/>
<feComposite in2="hardAlpha" operator="arithmetic" k2="-1" k3="1"/>
<feColorMatrix type="matrix" values="0 0 0 0 0.65098 0 0 0 0 0.137255 0 0 0 0 0.345098 0 0 0 1 0"/>
<feBlend mode="normal" in2="shape" result="effect2_innerShadow_204_277"/>
</filter>
<filter id="filter9_i_204_277" x="163.67" y="165.427" width="41.5196" height="42.8992" filterUnits="userSpaceOnUse" color-interpolation-filters="sRGB">
<feFlood flood-opacity="0" result="BackgroundImageFix"/>
<feBlend mode="normal" in="SourceGraphic" in2="BackgroundImageFix" result="shape"/>
<feColorMatrix in="SourceAlpha" type="matrix" values="0 0 0 0 0 0 0 0 0 0 0 0 0 0 0 0 0 0 127 0" result="hardAlpha"/>
<feOffset dx="4.36787" dy="-9.46372"/>
<feComposite in2="hardAlpha" operator="arithmetic" k2="-1" k3="1"/>
<feColorMatrix type="matrix" values="0 0 0 0 0 0 0 0 0 0 0 0 0 0 0 0 0 0 0.22 0"/>
<feBlend mode="normal" in2="shape" result="effect1_innerShadow_204_277"/>
</filter>
<filter id="filter10_i_204_277" x="347.92" y="242.214" width="35.9603" height="39.7485" filterUnits="userSpaceOnUse" color-interpolation-filters="sRGB">
<feFlood flood-opacity="0" result="BackgroundImageFix"/>
<feBlend mode="normal" in="SourceGraphic" in2="BackgroundImageFix" result="shape"/>
<feColorMatrix in="SourceAlpha" type="matrix" values="0 0 0 0 0 0 0 0 0 0 0 0 0 0 0 0 0 0 127 0" result="hardAlpha"/>
<feOffset dy="-9.65652"/>
<feComposite in2="hardAlpha" operator="arithmetic" k2="-1" k3="1"/>
<feColorMatrix type="matrix" values="0 0 0 0 0 0 0 0 0 0 0 0 0 0 0 0 0 0 0.22 0"/>
<feBlend mode="normal" in2="shape" result="effect1_innerShadow_204_277"/>
</filter>
<linearGradient id="paint0_linear_204_277" x1="298.814" y1="239.651" x2="289.434" y2="306.489" gradientUnits="userSpaceOnUse">
<stop stop-color="#C6F4FF"/>
<stop offset="1" stop-color="#C6F4FF" stop-opacity="0"/>
</linearGradient>
</defs>
</svg>
