<svg width="100" height="98" viewBox="0 0 100 98" fill="none" xmlns="http://www.w3.org/2000/svg">
<path d="M50.0791 96.7141C76.5803 96.7141 98.088 75.5052 98.088 49.313C98.088 23.1207 76.5803 1.91184 50.0791 1.91184C23.5779 1.91184 2.07016 23.1207 2.07016 49.313C2.07016 75.5052 23.5779 96.7141 50.0791 96.7141Z" fill="#D3D3D3" stroke="#572316" stroke-width="2.17632"/>
<path fill-rule="evenodd" clip-rule="evenodd" d="M74.6981 88.7323C88.0685 80.5719 96.9767 65.9692 96.9767 49.313C96.9767 23.735 75.9696 3 50.0559 3C39.2357 3 29.2709 6.61512 21.3336 12.6884C28.4952 8.31745 36.937 5.79476 45.9758 5.79476C71.8894 5.79476 92.8965 26.5298 92.8965 52.1077C92.8965 67.0056 85.7699 80.2605 74.6981 88.7323Z" fill="#B7B7B7"/>
<path fill-rule="evenodd" clip-rule="evenodd" d="M91.3084 71.3356C82.708 81.8784 69.5234 88.6244 54.7426 88.6244C28.829 88.6244 7.82185 67.8894 7.82185 42.3114C7.82185 34.4147 9.82417 26.9795 13.355 20.4736C6.87722 28.4144 3 38.5092 3 49.4978C3 75.0757 24.0071 95.8108 49.9208 95.8108C67.834 95.8108 83.4027 85.9025 91.3084 71.3356Z" fill="#787878"/>
<ellipse cx="49.5229" cy="47.3168" rx="31.5278" ry="31.1415" fill="#787878"/>
<path fill-rule="evenodd" clip-rule="evenodd" d="M79.3963 57.2993C74.4586 68.1268 63.4382 75.6645 50.6354 75.6645C33.2231 75.6645 19.1077 61.722 19.1077 44.523C19.1077 41.0319 19.6893 37.6749 20.762 34.5415C18.9842 38.4399 17.995 42.7647 17.995 47.3178C17.995 64.5167 32.1105 78.4593 49.5228 78.4593C63.4007 78.4593 75.1843 69.6025 79.3963 57.2993Z" fill="white"/>
<path fill-rule="evenodd" clip-rule="evenodd" d="M75.0117 66.0718C79.0022 60.855 81.3688 54.3586 81.3688 47.3163C81.3688 30.1173 67.2534 16.1748 49.8411 16.1748C37.8368 16.1748 27.3995 22.8015 22.0741 32.5534C27.8293 25.0297 36.9622 20.1675 47.2448 20.1675C64.6571 20.1675 78.7726 34.11 78.7726 51.3089C78.7726 56.6507 77.4109 61.6784 75.0117 66.0718Z" fill="#323232"/>
<g filter="url(#filter0_d_1018_149)">
<path fill-rule="evenodd" clip-rule="evenodd" d="M64.9868 59.2747C64.9868 59.0585 64.9462 58.8829 64.8652 58.7478L56.8746 46.443H43.1086L35.1578 58.7478C35.0768 58.8829 35.0363 59.0585 35.0363 59.2747C35.0363 59.4638 35.1173 59.6529 35.2794 59.8421C35.4686 60.0042 35.6847 60.0852 35.9279 60.0852H44.7631C45.4926 60.0852 46.0465 59.7745 46.4247 59.1531L49.7886 53.7223L53.3146 59.1531C53.6928 59.7745 54.2467 60.0852 54.9762 60.0852H64.0951C64.3383 60.0852 64.541 60.0042 64.7031 59.8421C64.8922 59.6529 64.9868 59.4638 64.9868 59.2747ZM42.9913 44.4684H56.8546L64.0546 33.0528C64.1357 32.9177 64.1762 32.7556 64.1762 32.5664C64.1762 32.3503 64.0816 32.1611 63.8925 31.999C63.7304 31.8099 63.5277 31.7153 63.2846 31.7153H54.8952C54.1387 31.7153 53.5713 32.0531 53.193 32.7285L50.1128 37.673L47.2758 32.7285C46.8976 32.0531 46.3302 31.7153 45.5736 31.7153H36.779C36.5358 31.7153 36.3197 31.8099 36.1305 31.999C35.9684 32.1611 35.8874 32.3368 35.8874 32.5259C35.8874 32.715 35.9279 32.8907 36.0089 33.0528L42.9913 44.4684Z" fill="white"/>
</g>
<defs>
<filter id="filter0_d_1018_149" x="32.6565" y="31.7153" width="34.7101" height="33.1296" filterUnits="userSpaceOnUse" color-interpolation-filters="sRGB">
<feFlood flood-opacity="0" result="BackgroundImageFix"/>
<feColorMatrix in="SourceAlpha" type="matrix" values="0 0 0 0 0 0 0 0 0 0 0 0 0 0 0 0 0 0 127 0" result="hardAlpha"/>
<feOffset dy="2.37974"/>
<feGaussianBlur stdDeviation="1.18987"/>
<feComposite in2="hardAlpha" operator="out"/>
<feColorMatrix type="matrix" values="0 0 0 0 0 0 0 0 0 0 0 0 0 0 0 0 0 0 0.25 0"/>
<feBlend mode="normal" in2="BackgroundImageFix" result="effect1_dropShadow_1018_149"/>
<feBlend mode="normal" in="SourceGraphic" in2="effect1_dropShadow_1018_149" result="shape"/>
</filter>
</defs>
</svg>
